<?xml version="1.0" encoding="utf-8"?>
<!-- Generator: Adobe Illustrator 26.0.1, SVG Export Plug-In . SVG Version: 6.00 Build 0)  -->
<svg version="1.1" id="Layer_1" xmlns="http://www.w3.org/2000/svg" xmlns:xlink="http://www.w3.org/1999/xlink" x="0px" y="0px"
	 viewBox="0 0 2560 976" style="enable-background:new 0 0 2560 976;" xml:space="preserve">
<style type="text/css">
	.st0{fill:#F0500A;}
	.st1{fill:#767676;}
</style>
<path class="st0" d="M583.9,351.8c0-21.4,0.3-42.8,0-64.2c0-5.7,1.9-8,7.1-9.9c71.2-26.1,142.5-52.5,213.6-79
	c7.1-2.7,9.6-1.1,12.1,5.7c49.8,134.1,99.8,268.2,150,402.3c2.2,5.7,2.8,8.9-4.7,11.6c-135.7,49.9-271.3,100-406.7,150.3
	c-6.2,2.3-7.8,0.7-9.8-4.9c-50.3-135-100.7-269.9-151.2-404.8c-2.2-5.8-1.5-8.1,4.6-10.2c33.8-12.1,67.5-24.5,101.1-37.2
	c6.8-2.6,8.9-1.7,8.4,5.7c-0.5,8.5,0.3,17-0.3,25.5c-0.5,6.9,1.5,9.1,8.8,9c22.4-0.4,44.8,0,67.3,0c0,22.6,0.4,45.3,0,67.9
	c0,6.3,1.8,8,8,7.9c19.5-0.4,39.2,0.4,58.8-0.4c8.6-0.3,10.3,2.3,10.3,10.4c-0.3,69.5-0.1,138.9-0.3,208.4c0,6,0.1,9.8,8.3,9.7
	c45.5-0.4,90.9-0.3,136.4,0c6.6,0,7.7-2.3,7.7-8.2c-0.1-95.8-0.1-191.7,0-287.5c0-5.9-1.2-8.1-7.7-8.1
	C731.7,351.9,657.8,351.8,583.9,351.8L583.9,351.8z"/>
<path class="st0" d="M470.4,275.9c-10.7,0-21.4-0.1-32.2,0c-4.5,0-7-0.6-7-6c0.2-21.6,0.2-43.3,0-64.9c0-4.4,1.4-6.1,6-6
	c21.8,0.3,43.6,0.3,65.3,0.1c4.6,0,5.9,1.6,5.9,6c-0.2,21.6-0.2,43.3,0,64.9c0,5.4-2.3,6.1-6.8,6
	C491.2,275.8,480.8,275.9,470.4,275.9L470.4,275.9z"/>
<path class="st1" d="M1190.8,655.3c-27.8,0-53.1-6.8-75.8-20.3c-22.7-13.5-40.5-31.8-53.5-54.8c-13-23.3-19.5-48.8-19.5-76.7
	c0-27.6,6.5-53,19.5-76.3c13-23.3,30.8-41.7,53.5-55.2c22.7-13.5,48-20.3,75.8-20.3s53.1,6.8,75.8,20.3
	c22.7,13.5,40.5,31.9,53.5,55.2c13.2,23.3,19.8,48.7,19.8,76.3c0,27.9-6.5,53.4-19.4,76.7c-13,23-30.9,41.2-53.9,54.8
	C1243.8,648.5,1218.6,655.3,1190.8,655.3z M1190.8,622.4c20.8,0,39.8-5,57.1-15c17.6-10.3,31.3-24.3,41.3-42.2
	c10.3-18.1,15.4-38.7,15.4-61.7c0-23-5.1-43.4-15.4-61.3c-10-18.1-23.8-32.2-41.3-42.2c-17.3-10.3-36.3-15.4-57.1-15.4
	s-39.8,5.1-57.1,15.4c-17.3,10-31.1,24.1-41.3,42.2c-10.3,18.1-15.4,38.5-15.4,61.3c0,22.7,5.1,43.1,15.4,61.3
	c10.3,18.1,24,32.3,41.3,42.6C1150.9,617.4,1169.9,622.4,1190.8,622.4z"/>
<path class="st1" d="M1407.6,473.1h-38.1v-31.2h38.1v-22.3c0-13,3-24.3,8.9-34.1c5.9-9.7,13.9-17.2,23.9-22.3
	c10-5.4,21.1-8.1,33.2-8.1c11.6,0,21.7,1.6,30.4,4.9v33.7c-4.9-1.9-9.5-3.4-13.8-4.5c-4.3-1.4-9.4-2-15.4-2
	c-8.9,0-16.6,3.2-23.1,9.7c-6.5,6.2-9.7,15-9.7,26.4v18.7h94v-22.3c0-13,2.8-24.3,8.5-34.1c5.9-9.7,13.9-17.2,23.9-22.3
	c10.3-5.4,21.5-8.1,33.6-8.1c11.1,0,21.2,1.6,30.4,4.9v33.7c-5.4-2.2-10.3-3.8-14.6-4.9c-4.1-1.1-9.1-1.6-15-1.6
	c-8.9,0-16.6,3.2-23.1,9.7c-6.5,6.2-9.7,15-9.7,26.4v18.7h128v206.9h-34V473.1h-94v175.7h-34V473.1h-94v175.7h-34.4V473.1z
	 M1681.1,406.2c-6.8,0-12.6-2.4-17.4-7.3c-4.9-4.9-7.3-10.7-7.3-17.4c0-7,2.4-12.8,7.3-17.4c4.9-4.9,10.7-7.3,17.4-7.3
	c7,0,12.8,2.4,17.4,7.3c4.9,4.6,7.3,10.4,7.3,17.4c0,6.8-2.4,12.6-7.3,17.4C1693.9,403.7,1688.1,406.2,1681.1,406.2z"/>
<path class="st1" d="M1844.1,655.3c-20,0-38-4.7-53.9-14.2c-15.9-9.7-28.4-22.9-37.3-39.4c-8.9-16.8-13.4-35.6-13.4-56.4
	c0-20.8,4.5-39.6,13.4-56.4c8.9-16.8,21.3-29.9,37.3-39.4c15.9-9.5,33.9-14.2,53.9-14.2c22.4,0,41.2,5.3,56.3,15.8
	c15.4,10.3,26.3,24.1,32.8,41.4l-31.2,13c-5.1-12.7-12.8-22.3-23.1-28.8c-10-6.8-22.1-10.1-36.5-10.1c-12.2,0-23.5,3.4-34.1,10.1
	c-10.5,6.5-19,15.7-25.5,27.6c-6.2,11.9-9.3,25.6-9.3,41s3.1,29.1,9.3,41c6.5,11.9,15,21.2,25.5,28c10.6,6.5,21.9,9.7,34.1,9.7
	c14.6,0,27.2-3.4,37.7-10.1c10.5-6.8,18.4-16.4,23.5-28.8l30.8,13c-7,17-18.4,30.8-34,41.4C1885,650,1866.3,655.3,1844.1,655.3z"/>
<path class="st1" d="M2061.7,655.3c-19.7,0-37.4-4.7-53.1-14.2s-27.9-22.5-36.9-38.9c-8.6-16.8-13-35.6-13-56.4
	c0-20,4.1-38.4,12.2-55.2c8.4-16.8,20.1-30.2,35.3-40.2c15.1-10,32.7-15,52.7-15c20.3,0,37.8,4.6,52.7,13.8
	c14.9,8.9,26.2,21.4,34,37.3c8.1,16,12.2,34.2,12.2,54.8c0,4.1-0.4,7.6-1.2,10.5h-163.3c0.8,15.7,4.6,28.9,11.3,39.8
	c6.8,10.8,15.2,18.9,25.5,24.3c10.5,5.4,21.5,8.1,32.8,8.1c26.5,0,46.9-12.4,61.2-37.3l29.2,14.2c-8.9,16.8-21.1,30-36.5,39.8
	C2101.7,650.4,2083.3,655.3,2061.7,655.3z M2121.3,523.4c-0.5-8.7-3-17.3-7.3-26c-4.3-8.7-11.2-16-20.6-21.9
	c-9.2-5.9-20.8-8.9-34.9-8.9c-16.2,0-30,5.3-41.3,15.8c-11.1,10.3-18.4,23.9-21.9,41H2121.3z"/>
</svg>
