<?xml version="1.0" encoding="utf-8"?>
<!-- Generator: Adobe Illustrator 21.0.0, SVG Export Plug-In . SVG Version: 6.00 Build 0)  -->
<svg version="1.1" id="Layer_1" xmlns="http://www.w3.org/2000/svg" xmlns:xlink="http://www.w3.org/1999/xlink" x="0px" y="0px"
	 viewBox="0 0 367 74" style="enable-background:new 0 0 367 74;" xml:space="preserve">
<style type="text/css">
	.st0{fill:#EFEFEF;}
	.st1{enable-background:new    ;}
	.st2{fill:#142B50;}
</style>
<title>chucnang_faq</title>
<rect class="st0" width="367" height="74"/>
<g class="st1">
	<path class="st2" d="M160.6,28.9c-1.4,2.5-3.4,3.7-6.1,3.7c-1.9,0-3.6-0.7-4.9-2c-1.4-1.3-2-3-2-4.9c0-1.9,0.7-3.6,2-4.9
		c1.3-1.3,3-2,4.9-2c2.1,0,3.9,0.8,5.3,2.4c0.4,0.4,0.7,0.9,0.8,1.3H159c-1.1-1.6-2.6-2.4-4.6-2.4c-1.5,0-2.8,0.6-3.9,1.7
		c-1.1,1.1-1.6,2.5-1.6,4c0,1.5,0.6,2.8,1.7,3.9c1.1,1.1,2.4,1.7,3.9,1.7c0.9,0,1.8-0.2,2.6-0.7c0.8-0.4,1.4-1,2-1.8H160.6z"/>
	<path class="st2" d="M170.9,32.4v-6.2H164v6.2h-1.3V19h1.3v5.9h6.9V19h1.3v13.3H170.9z"/>
	<path class="st2" d="M184,20.6v6.8c0,0.5,0,1-0.1,1.4c-0.1,0.5-0.2,1-0.4,1.4c-0.8,1.7-2.1,2.5-4,2.5s-3.3-0.8-4-2.5
		c-0.2-0.4-0.3-0.8-0.4-1.4c-0.1-0.4-0.1-0.9-0.1-1.4V19h1.3v8.3c0,0.4,0,0.8,0.1,1.2c0.1,0.5,0.2,0.9,0.4,1.2
		c0.6,1.1,1.5,1.6,2.8,1.6s2.2-0.5,2.8-1.6c0.2-0.3,0.3-0.7,0.4-1.2c0.1-0.4,0.1-0.8,0.1-1.2V19h1.3v0.3c0.2-0.2,0.3-0.4,0.4-0.6
		h-0.6v-1.6h1.7v1.6c0,0.3-0.1,0.5-0.2,0.7s-0.2,0.3-0.4,0.5s-0.3,0.2-0.4,0.3S184.2,20.5,184,20.6z M178.5,18.3l-0.6-1l3.6-2
		l0.6,1.1L178.5,18.3z"/>
	<path class="st2" d="M199.3,28.9c-1.4,2.5-3.4,3.7-6.1,3.7c-1.9,0-3.6-0.7-4.9-2c-1.4-1.3-2-3-2-4.9c0-1.9,0.7-3.6,2-4.9
		c1.3-1.3,3-2,4.9-2c2.1,0,3.9,0.8,5.3,2.4c0.4,0.4,0.7,0.9,0.8,1.3h-1.5c-1.1-1.6-2.6-2.4-4.6-2.4c-1.5,0-2.8,0.6-3.9,1.7
		c-1.1,1.1-1.6,2.5-1.6,4c0,1.5,0.6,2.8,1.7,3.9c1.1,1.1,2.4,1.7,3.9,1.7c0.9,0,1.8-0.2,2.6-0.7c0.8-0.4,1.4-1,2-1.8H199.3z"/>
	<path class="st2" d="M215.6,32.4l-7.9-11.7h0v11.7h-1.3V19h1.8l7.4,11.1h0V19h1.3v13.3H215.6z"/>
	<path class="st2" d="M230,32.4l-1.9-4.5h-6.2l-1.9,4.5h-1.4l5.7-13.3h1.5l5.7,13.3H230z M228.1,16.3c-0.2,0.7-0.7,1.1-1.3,1.5
		c-0.5,0.3-1.1,0.4-1.9,0.4c-0.7,0-1.4-0.1-1.9-0.4c-0.6-0.3-1-0.8-1.2-1.5h1.2c0.4,0.6,1.1,0.8,2,0.8c0.4,0,0.8-0.1,1.1-0.2
		c0.4-0.1,0.7-0.4,0.9-0.6H228.1z M225,20.6l-2.6,6.1h5.2L225,20.6z"/>
	<path class="st2" d="M242.3,32.4l-7.9-11.7h0v11.7H233V19h1.8l7.4,11.1h0V19h1.3v13.3H242.3z"/>
	<path class="st2" d="M259.8,26.3c-0.1,1.8-0.9,3.3-2.3,4.5c-1.4,1.2-2.9,1.8-4.8,1.8c-1.9,0-3.6-0.7-5-2c-1.4-1.4-2.2-3-2.2-4.9
		c0-1.9,0.7-3.6,2.1-4.9c1.4-1.3,3.1-2,5-2c2.2,0,4,0.8,5.4,2.4c0.4,0.4,0.7,0.9,0.9,1.3h-1.5c-0.5-0.8-1.1-1.4-2-1.9
		c-0.9-0.5-1.8-0.7-2.7-0.7c-1.6,0-3,0.6-4.1,1.7c-1.1,1.1-1.7,2.5-1.7,4c0,1.6,0.6,2.9,1.7,4c1.1,1.1,2.5,1.6,4.1,1.6
		c1.2,0,2.3-0.4,3.3-1.1c1.1-0.8,1.7-1.7,2-2.8h-7.4v-1.2H259.8z"/>
</g>
<g class="st1">
	<path class="st2" d="M151.1,43.6v2.3h3.9v3h-3.9V54h-3.3V40.6h7.3v3H151.1z"/>
</g>
<g class="st1">
	<path class="st2" d="M165.6,54L165,52h-4.6l-0.7,1.9H156l5.3-13.3h2.7l5.3,13.3H165.6z M162.7,44.8L162.7,44.8l-1.4,4.6h2.8
		L162.7,44.8z"/>
</g>
<g class="st1">
	<path class="st2" d="M185.5,54.2c-0.4,0-0.7,0-0.8,0c-0.6,0-1.2-0.1-1.7-0.2c-0.6-0.2-1.1-0.5-1.5-0.8c-1.1,0.7-2.4,1-3.7,1
		c-1.9,0-3.6-0.7-4.9-2c-1.4-1.3-2.1-3-2.1-4.9c0-2,0.7-3.6,2-5c1.4-1.3,3-2,5-2c1.9,0,3.6,0.6,5,1.9c1.4,1.3,2.1,2.9,2.1,4.9
		c0,1.5-0.4,2.8-1.1,3.8c0.4,0.4,1,0.6,1.7,0.4V54.2z M180.4,44.5c-0.7-0.7-1.6-1.1-2.7-1.1c-1,0-1.8,0.3-2.4,1
		c-0.6,0.6-1,1.4-1.2,2.4c0.4-0.2,0.7-0.3,0.9-0.3c0.3-0.1,0.6-0.1,1-0.1c0.9,0,1.9,0.3,2.8,0.8c0.8,0.5,1.5,1.1,2.2,2
		c0.3-0.5,0.5-1.2,0.5-2C181.5,46.1,181.1,45.2,180.4,44.5z M178.6,50.1c-0.3-0.3-0.5-0.5-0.8-0.7c-0.6-0.4-1.3-0.6-2-0.6
		c-0.4,0-0.8,0.1-1.2,0.2c0.6,1.5,1.7,2.3,3.2,2.3c0.6,0,1.1-0.1,1.5-0.3C179,50.6,178.8,50.3,178.6,50.1z"/>
</g>
<path class="st2" d="M103,32.6c0.2,0.6,0.4,1.2,0.7,1.7l-0.9,1.1c-0.3,0.4-0.3,0.9,0.1,1.2l1.5,1.5c0.3,0.3,0.8,0.4,1.2,0.1l1.1-0.9
	c0.6,0.3,1.2,0.6,1.8,0.8l0.2,1.4c0.1,0.5,0.4,0.8,0.9,0.8h2.1c0.5,0,0.8-0.3,0.9-0.8l0.2-1.4c0.7-0.2,1.3-0.4,1.9-0.8l1.1,0.8
	c0.4,0.3,0.9,0.3,1.2-0.1l1.5-1.5c0.3-0.3,0.4-0.8,0.1-1.2l-0.8-1c0.3-0.6,0.6-1.2,0.8-1.9l1.3-0.2c0.5-0.1,0.8-0.4,0.8-0.9v-2.2
	c0-0.5-0.3-0.8-0.8-0.9l-1.3-0.1c-0.2-0.6-0.4-1.3-0.8-1.9l0.8-1c0.3-0.4,0.3-0.9-0.1-1.2l-1.5-1.5c-0.3-0.3-0.8-0.4-1.2-0.1
	l-0.9,0.8c-0.6-0.4-1.3-0.6-2-0.8l-0.1-1.2c-0.1-0.5-0.4-0.8-0.9-0.8h-2.1c-0.5,0-0.8,0.3-0.9,0.8l-0.1,1.2c-0.7,0.2-1.4,0.5-2,0.9
	l-1-0.8c-0.4-0.3-0.9-0.3-1.2,0.1l-1.5,1.5c-0.3,0.3-0.4,0.8-0.1,1.2l0.8,1c-0.3,0.6-0.6,1.2-0.7,1.9l-1.3,0.1
	c-0.5,0.1-0.8,0.4-0.8,0.9v2.1c0,0.5,0.3,0.8,0.8,0.9L103,32.6z M110.7,26.8c1.9,0,3.5,1.6,3.5,3.5c0,1.9-1.6,3.5-3.5,3.5
	c-1.9,0-3.5-1.6-3.5-3.5C107.2,28.4,108.8,26.8,110.7,26.8z"/>
<path class="st2" d="M131.7,33.1l-1.1-1c-0.3-0.3-0.8-0.3-1.2,0l-0.6,0.6c-0.5-0.3-1.1-0.4-1.7-0.5l-0.2-0.9
	c-0.1-0.4-0.5-0.7-0.9-0.7l-1.5,0.1c-0.4,0-0.8,0.4-0.8,0.9v0.9c-0.6,0.2-1.1,0.5-1.6,0.8l-0.7-0.5c-0.4-0.2-0.9-0.2-1.2,0.2
	l-0.9,1.1c-0.3,0.3-0.3,0.8,0,1.2l0.7,0.7c-0.2,0.5-0.4,1-0.5,1.6l-0.9,0.2c-0.4,0.1-0.7,0.5-0.7,1l0.1,1.5c0,0.4,0.4,0.8,0.9,0.8h1
	c0.2,0.5,0.4,0.9,0.7,1.3l-0.6,0.8c-0.2,0.4-0.2,0.9,0.2,1.2l1.1,1c0.3,0.3,0.8,0.3,1.2,0l0.7-0.7c0.5,0.2,1,0.4,1.5,0.5l0.2,1
	c0.1,0.4,0.5,0.7,0.9,0.7l1.5-0.1c0.4,0,0.8-0.4,0.8-0.9v-1c0.5-0.2,1-0.4,1.5-0.8l0.8,0.5c0.4,0.2,0.9,0.2,1.2-0.2l0.9-1.1
	c0.3-0.3,0.3-0.8,0-1.2l-0.6-0.7c0.2-0.5,0.4-1,0.5-1.6l0.9-0.2c0.4-0.1,0.7-0.5,0.7-1l-0.1-1.5c0-0.4-0.4-0.8-0.9-0.8h-0.9
	c-0.2-0.5-0.4-1-0.7-1.5l0.5-0.7C132.1,33.9,132,33.4,131.7,33.1L131.7,33.1z M126.2,41.5c-1.6,0.1-3-1-3.1-2.6
	c-0.1-1.6,1-3,2.6-3.1c1.6-0.1,3,1,3.1,2.6C128.9,40,127.7,41.4,126.2,41.5C126.2,41.5,126.2,41.5,126.2,41.5z"/>
<path class="st2" d="M108.1,45.5c-0.5,0-0.8,0.4-0.8,0.9v0.9c0,0.5,0.3,0.8,0.8,0.9l0.7,0.1c0.1,0.4,0.3,0.8,0.5,1.2l-0.4,0.5
	c-0.3,0.3-0.3,0.9,0.1,1.2l0.6,0.6c0.3,0.3,0.8,0.4,1.2,0.1l0.5-0.4c0.4,0.2,0.8,0.4,1.2,0.5l0.1,0.7c0,0.5,0.4,0.8,0.9,0.8h0.9
	c0.5,0,0.8-0.3,0.9-0.8l0.1-0.7c0.4-0.1,0.9-0.3,1.3-0.5l0.5,0.4c0.3,0.3,0.9,0.3,1.2,0l0.6-0.6c0.3-0.3,0.4-0.8,0.1-1.2l-0.4-0.5
	c0.2-0.4,0.4-0.8,0.5-1.3l0.6-0.1c0.5,0,0.8-0.4,0.8-0.9v-0.9c0-0.5-0.3-0.8-0.8-0.9l-0.6-0.1c-0.1-0.4-0.3-0.9-0.5-1.3l0.4-0.4
	c0.3-0.3,0.3-0.9-0.1-1.2l-0.6-0.6c-0.3-0.3-0.8-0.4-1.2-0.1l-0.4,0.3c-0.4-0.2-0.8-0.4-1.3-0.6l-0.1-0.6c0-0.5-0.4-0.8-0.9-0.8
	h-0.9c-0.5,0-0.8,0.3-0.9,0.8l-0.1,0.5c-0.5,0.1-0.9,0.3-1.3,0.5l-0.4-0.4c-0.3-0.3-0.9-0.3-1.2,0l-0.7,0.6
	c-0.3,0.3-0.4,0.8-0.1,1.2l0.4,0.5c-0.2,0.4-0.4,0.8-0.5,1.3L108.1,45.5z M113.9,44.5c1.3,0,2.3,1.1,2.3,2.4c0,1.3-1.1,2.3-2.4,2.3
	c-1.3,0-2.3-1.1-2.3-2.4C111.5,45.5,112.6,44.5,113.9,44.5C113.9,44.5,113.9,44.5,113.9,44.5z"/>
</svg>
