<?xml version="1.0" encoding="utf-8"?>
<!-- Generator: Adobe Illustrator 22.0.1, SVG Export Plug-In . SVG Version: 6.00 Build 0)  -->
<svg version="1.1" id="Layer_1" xmlns="http://www.w3.org/2000/svg" xmlns:xlink="http://www.w3.org/1999/xlink" x="0px" y="0px"
	 viewBox="0 0 274.2 105" style="enable-background:new 0 0 274.2 105;" xml:space="preserve">
<style type="text/css">
	.st0{fill:url(#SVGID_2_);}
	.st1{fill:url(#SVGID_3_);}
	.st2{fill:url(#SVGID_5_);}
	.st3{fill:url(#SVGID_6_);}
	.st4{fill:url(#SVGID_8_);}
	.st5{fill:url(#SVGID_9_);}
</style>
<title>4</title>
<g>
	<g>
		<g>
			
				<linearGradient id="SVGID_2_" gradientUnits="userSpaceOnUse" x1="74.3491" y1="36.7633" x2="74.3491" y2="57.453" gradientTransform="matrix(1 0 0 -1 0 106)">
				<stop  offset="0" style="stop-color:#641E22"/>
				<stop  offset="1" style="stop-color:#DA1F2C"/>
			</linearGradient>
			<path id="SVGID_1_" class="st0" d="M96.1,66.8c-7.2,3.5-19.8,3.4-26.7-1.1c-6.1-4-10.1-10.3-16.8-13.9c6.4-3.3,14.4-4.6,21-1.3
				C81.2,54.2,84.5,66.8,96.1,66.8z"/>
		</g>
	</g>
	<g>
		<g>
			
				<linearGradient id="SVGID_3_" gradientUnits="userSpaceOnUse" x1="87.8934" y1="39.2182" x2="87.8934" y2="80.4857" gradientTransform="matrix(1 0 0 -1 0 106)">
				<stop  offset="0" style="stop-color:#641E22"/>
				<stop  offset="1" style="stop-color:#DA1F2C"/>
			</linearGradient>
			<path id="SVGID_4_" class="st1" d="M102.5,66.8c-19.3-5.1-34-21.8-27.8-41.3c5.5,3.4,14.4,6.3,16.7,12.3c1.7,4.3,1.8,9.3,3,13.9
				C95.9,57.2,98.8,63,102.5,66.8z"/>
		</g>
	</g>
	<g>
		<g>
			
				<linearGradient id="SVGID_5_" gradientUnits="userSpaceOnUse" x1="108.3721" y1="38.49" x2="108.3721" y2="89.2247" gradientTransform="matrix(1 0 0 -1 0 106)">
				<stop  offset="0" style="stop-color:#641E22"/>
				<stop  offset="1" style="stop-color:#DA1F2C"/>
			</linearGradient>
			<path id="SVGID_7_" class="st2" d="M107.9,16.8c15.7,13.7,17,37.3,0,50.7C91.8,53.6,93.6,31.1,107.9,16.8z"/>
		</g>
	</g>
	<g>
		<path d="M145.3,40.2l0.1-0.1l-1.8-2.9l-0.2,0.2c-0.5,0.5-1.2,1-2,1.5c-0.8,0.4-1.8,0.6-2.9,0.6c-1.2,0-2.3-0.2-3.4-0.8
			c-1-0.5-1.9-1.3-2.5-2.3c-0.6-1.1-0.9-2.3-0.9-3.9c0-1.4,0.3-2.7,0.9-3.7s1.4-1.8,2.4-2.4c1-0.6,2.1-0.8,3.2-0.8
			c1,0,1.9,0.2,2.7,0.7c0.8,0.5,1.6,1.1,2.3,1.8l0.2,0.2l2.3-2.4l-0.1-0.1c-0.4-0.6-1-1.2-1.7-1.7c-0.7-0.5-1.6-1-2.5-1.3
			c-1-0.3-2-0.5-3.1-0.5c-1.3,0-2.6,0.2-3.8,0.8s-2.3,1.3-3.2,2.2s-1.7,2.1-2.2,3.3c-0.5,1.3-0.8,2.7-0.8,4.2c0,2.1,0.4,4,1.3,5.5
			c0.8,1.6,2.1,2.8,3.5,3.7c1.5,0.8,3.2,1.3,5,1.3c1.1,0,2.1-0.1,3-0.4c0.9-0.3,1.8-0.6,2.5-1.1C144.3,41.2,144.8,40.7,145.3,40.2z"
			/>
		<polygon points="156.3,30.4 150.7,22.3 146.4,22.3 154.6,33.7 154.6,42.8 158,42.8 158,33.7 165.6,22.3 161.5,22.3 		"/>
		<path d="M181.9,32.4c-0.4-0.4-0.9-0.6-1.4-0.8c0.7-0.4,1.2-0.9,1.6-1.5c0.4-0.7,0.7-1.6,0.7-2.5c0-1.7-0.5-3-1.6-3.9
			c-1-0.9-2.5-1.3-4.6-1.3h-8.6v20.6h8.9c0.8,0,1.6-0.1,2.4-0.3c0.8-0.2,1.5-0.5,2.2-1c0.7-0.4,1.2-1.1,1.7-1.9
			c0.4-0.8,0.6-1.8,0.6-3c0-1-0.2-1.8-0.5-2.5C183,33.4,182.5,32.8,181.9,32.4z M178.5,29.9c-0.6,0.4-1.2,0.6-1.9,0.7h-4.9v-4.9h4.6
			c0.9,0,1.7,0.2,2.3,0.6c0.6,0.4,0.8,1,0.8,1.9C179.3,28.9,179,29.5,178.5,29.9z M171.6,34h5.1c0.6,0,1.1,0.1,1.7,0.2
			c0.6,0.2,1,0.4,1.4,0.8c0.4,0.4,0.5,0.9,0.5,1.5c0,1-0.3,1.6-0.9,2.1c-0.6,0.4-1.5,0.7-2.5,0.7h-5.2L171.6,34L171.6,34z"/>
		<polygon points="200.7,39.4 191.2,39.4 191.2,34 199.1,34 199.1,30.6 191.2,30.6 191.2,25.6 200.7,25.6 200.7,22.3 187.7,22.3 
			187.7,42.8 200.7,42.8 		"/>
		<path d="M208.8,35.2h4.3l4.2,7.6l4.2,0l-4.7-8.2c1.1-0.5,2-1.3,2.7-2.3c0.7-1.1,1.1-2.2,1.1-3.5c0-1.3-0.3-2.5-1-3.5
			c-0.6-1-1.5-1.7-2.5-2.3c-1-0.5-2.1-0.8-3.1-0.8h-8.8v20.5h3.5L208.8,35.2L208.8,35.2z M214.4,31.8h-5.5v-6.2h4.7
			c1,0,1.8,0.3,2.5,0.8c0.7,0.6,1,1.3,1,2.3c0,0.8-0.2,1.5-0.7,2.1C215.9,31.5,215.2,31.8,214.4,31.8z"/>
		<polygon points="133.2,48.6 129.6,48.6 129.6,69.1 142.6,69.1 142.6,65.7 133.2,65.7 		"/>
		<path d="M162.1,51.4c-0.9-1-2-1.7-3.2-2.2c-1.2-0.5-2.6-0.8-4-0.8c-1.5,0-2.8,0.3-4,0.8c-1.2,0.5-2.3,1.3-3.2,2.2
			c-0.9,1-1.6,2.1-2.1,3.4c-0.5,1.3-0.7,2.7-0.7,4.1s0.2,2.9,0.7,4.1c0.5,1.3,1.2,2.4,2.1,3.4c0.9,1,2,1.7,3.2,2.2
			c1.2,0.5,2.6,0.8,4,0.8c1.5,0,2.8-0.3,4-0.8c1.2-0.5,2.3-1.3,3.2-2.2c0.9-1,1.6-2.1,2.1-3.4c0.5-1.3,0.7-2.7,0.7-4.1
			s-0.2-2.9-0.7-4.1C163.7,53.4,163,52.3,162.1,51.4z M160.5,62.5c-0.6,1.1-1.3,1.9-2.3,2.5s-2.1,0.9-3.4,0.9
			c-1.3,0-2.4-0.3-3.4-0.9s-1.7-1.5-2.3-2.5c-0.6-1.1-0.8-2.3-0.8-3.6c0-1.4,0.3-2.6,0.8-3.6s1.3-1.9,2.3-2.5c1-0.6,2.1-0.9,3.4-0.9
			c1.3,0,2.4,0.3,3.4,0.9c1,0.6,1.7,1.5,2.3,2.5c0.6,1.1,0.8,2.3,0.8,3.6S161.1,61.4,160.5,62.5z"/>
		<polygon points="166,52 171.7,52 171.7,69.1 175.2,69.1 175.2,52 181,52 181,48.6 166,48.6 		"/>
		<path d="M197.4,60.9c0,1-0.2,1.8-0.7,2.5c-0.4,0.8-1.1,1.3-1.8,1.8c-0.8,0.4-1.6,0.6-2.5,0.6c-0.8,0-1.6-0.2-2.3-0.6
			c-0.7-0.4-1.3-1-1.8-1.8c-0.4-0.8-0.7-1.6-0.7-2.5V48.6h-3.5v12.6c0,1.5,0.4,3,1.1,4.2c0.7,1.2,1.7,2.2,3,2.9
			c1.3,0.7,2.7,1.1,4.2,1.1c1.6,0,3-0.4,4.3-1.1s2.2-1.7,3-2.9c0.7-1.2,1.1-2.6,1.1-4.2V48.6h-3.3V60.9z"/>
		<path d="M215.7,58.1c-1-0.5-2.1-0.8-3.3-1.1c-1.2-0.2-2.2-0.6-3-1.1c-0.7-0.4-1.1-1.1-1.1-2c0-0.8,0.3-1.4,1-1.9
			c0.7-0.4,1.5-0.7,2.5-0.7s1.9,0.2,2.6,0.8c0.8,0.5,1.4,1.2,1.9,2l0.1,0.2l2.5-2.4l-0.1-0.1c-0.6-1.2-1.6-2.1-2.8-2.7
			c-1.2-0.6-2.6-0.9-4.2-0.9c-1.3,0-2.4,0.2-3.5,0.7c-1.1,0.5-1.9,1.1-2.6,2c-0.6,0.9-1,1.9-1,3.1c0,1.9,0.6,3.3,1.7,4.3
			c1.1,1,2.7,1.7,4.6,2c1.5,0.3,2.6,0.7,3.4,1.2c0.8,0.5,1.1,1.2,1.1,2.1c0,0.5-0.2,0.9-0.5,1.3c-0.4,0.4-0.8,0.7-1.4,0.8
			c-0.6,0.2-1.2,0.3-1.8,0.3c-1.3,0-2.4-0.3-3.2-0.9c-0.8-0.6-1.7-1.5-2.4-2.6l-0.2-0.2l-2.4,2.8l0.1,0.1c1,1.4,2.1,2.4,3.4,3
			c1.3,0.6,2.8,0.9,4.3,0.9c2.3,0,4.2-0.6,5.5-1.7c1.3-1.2,2-2.8,2-4.7c0-1.1-0.3-2.1-1-2.9C217.6,59.3,216.8,58.6,215.7,58.1z"/>
	</g>
	<g>
		
			<linearGradient id="SVGID_6_" gradientUnits="userSpaceOnUse" x1="96.5262" y1="63.8461" x2="115.8796" y2="63.8461" gradientTransform="matrix(1 0 0 -1 0 106)">
			<stop  offset="0" style="stop-color:#9F1D21"/>
			<stop  offset="7.616496e-02" style="stop-color:#AB1D23"/>
			<stop  offset="0.2425" style="stop-color:#C01E27"/>
			<stop  offset="0.4293" style="stop-color:#CF1F2A"/>
			<stop  offset="0.6515" style="stop-color:#D71F2C"/>
			<stop  offset="1" style="stop-color:#DA1F2C"/>
		</linearGradient>
		<path class="st3" d="M108,16.8C108,16.8,108,16.8,108,16.8c0,0-0.1,0-0.1,0c-14.3,14.3-16.1,36.8,0,50.7c3.4-2.6,6-5.7,7.9-9
			C110.4,53.8,96.9,39.1,108,16.8z"/>
	</g>
	<g>
		
			<linearGradient id="SVGID_8_" gradientUnits="userSpaceOnUse" x1="73.2448" y1="59.852" x2="102.5284" y2="59.852" gradientTransform="matrix(1 0 0 -1 0 106)">
			<stop  offset="0" style="stop-color:#9F1D21"/>
			<stop  offset="7.616496e-02" style="stop-color:#AB1D23"/>
			<stop  offset="0.2425" style="stop-color:#C01E27"/>
			<stop  offset="0.4293" style="stop-color:#CF1F2A"/>
			<stop  offset="0.6515" style="stop-color:#D71F2C"/>
			<stop  offset="1" style="stop-color:#DA1F2C"/>
		</linearGradient>
		<path class="st4" d="M102.5,66.8c-2.9-2.9-5.2-7-6.8-11.1l0,0c-25.2-11.6-21.2-29.6-21-30.2C68.5,45,83.2,61.7,102.5,66.8z"/>
	</g>
	<g>
		
			<linearGradient id="SVGID_9_" gradientUnits="userSpaceOnUse" x1="52.6028" y1="45.4553" x2="96.0955" y2="45.4553" gradientTransform="matrix(1 0 0 -1 0 106)">
			<stop  offset="0" style="stop-color:#9F1D21"/>
			<stop  offset="7.616496e-02" style="stop-color:#AB1D23"/>
			<stop  offset="0.2425" style="stop-color:#C01E27"/>
			<stop  offset="0.4293" style="stop-color:#CF1F2A"/>
			<stop  offset="0.6515" style="stop-color:#D71F2C"/>
			<stop  offset="1" style="stop-color:#DA1F2C"/>
		</linearGradient>
		<path class="st5" d="M52.6,51.8c6.7,3.6,10.8,9.8,16.8,13.9c6.8,4.5,19.4,4.6,26.7,1.1C74.9,72.5,73.8,52.8,52.6,51.8z"/>
	</g>
	<g>
		<path d="M57.4,84.4h-0.6v-0.5h0.6v-2.3H59c0.5,0,1,0.1,1.4,0.3s0.7,0.5,0.9,0.9c0.2,0.4,0.3,0.8,0.3,1.3c0,0.5-0.1,1-0.3,1.3
			c-0.2,0.4-0.5,0.7-0.9,0.9c-0.4,0.2-0.8,0.3-1.4,0.3h-1.6V84.4z M59,86.2c0.6,0,1.1-0.2,1.5-0.5c0.4-0.4,0.5-0.8,0.5-1.5
			c0-0.6-0.2-1.1-0.5-1.5c-0.4-0.4-0.8-0.5-1.5-0.5h-1v1.7h1.3v0.5H58v1.9L59,86.2L59,86.2z"/>
		<path d="M66.8,87c-0.5,0-1-0.1-1.4-0.4c-0.4-0.2-0.7-0.6-1-1c-0.2-0.4-0.4-0.9-0.4-1.4s0.1-1,0.4-1.4c0.2-0.4,0.6-0.7,1-1
			c0.4-0.2,0.8-0.4,1.4-0.4c0.5,0,1,0.1,1.4,0.4c0.4,0.2,0.7,0.6,1,1c0.2,0.4,0.4,0.9,0.4,1.4s-0.1,1-0.4,1.4c-0.2,0.4-0.6,0.7-1,1
			C67.7,86.8,67.2,87,66.8,87z M66.8,86.4c0.4,0,0.7-0.1,1-0.3s0.6-0.4,0.7-0.8c0.2-0.3,0.3-0.7,0.3-1.1c0-0.4-0.1-0.8-0.3-1.1
			c-0.2-0.3-0.4-0.6-0.7-0.8c-0.3-0.2-0.6-0.3-1-0.3c-0.4,0-0.7,0.1-1,0.3c-0.3,0.2-0.6,0.4-0.7,0.8c-0.2,0.3-0.3,0.7-0.3,1.1
			c0,0.4,0.1,0.8,0.3,1.1c0.2,0.3,0.4,0.6,0.7,0.8C66,86.3,66.4,86.4,66.8,86.4z M65.7,81.3l0.7-0.8H67l0.8,0.8v0h-0.6l-0.4-0.4h0
			l-0.4,0.4L65.7,81.3L65.7,81.3z M67.7,79.6h0.7l-0.5,0.9h-0.5L67.7,79.6z"/>
		<path d="M72.1,81.6h0.6v5.2h-0.6V81.6z"/>
		<path d="M80.3,82.2h-1.5v-0.6h3.5v0.6h-1.5v4.6h-0.6V82.2z"/>
		<path d="M86,81.6h0.7l2,5.2H88l-0.5-1.4h-2.3l-0.5,1.4H84L86,81.6z M87.3,84.8l-0.9-2.4h0l-0.9,2.4H87.3z M86.5,80.3h0.7l-0.5,0.9
			h-0.6L86.5,80.3z"/>
		<path d="M93.6,87c-0.5,0-1-0.1-1.4-0.4c-0.4-0.2-0.7-0.6-1-1c-0.2-0.4-0.4-0.9-0.4-1.4c0-0.5,0.1-1,0.4-1.4c0.2-0.4,0.6-0.7,1-1
			c0.4-0.2,0.9-0.4,1.4-0.4c0.4,0,0.7,0.1,1.1,0.2c0.3,0.2,0.6,0.4,0.8,0.6l-0.4,0.4c-0.2-0.2-0.4-0.4-0.6-0.5s-0.5-0.2-0.8-0.2
			c-0.4,0-0.7,0.1-1.1,0.3c-0.3,0.2-0.6,0.4-0.8,0.8c-0.2,0.3-0.3,0.7-0.3,1.1s0.1,0.8,0.3,1.1c0.2,0.3,0.4,0.6,0.8,0.8
			c0.3,0.2,0.6,0.3,1.1,0.3c0.6,0,1.2-0.2,1.6-0.8l0.4,0.4c-0.2,0.3-0.5,0.5-0.9,0.7C94.4,87.1,94.1,87,93.6,87z"/>
		<path d="M104.3,87c-0.5,0-1-0.1-1.4-0.4c-0.4-0.2-0.7-0.6-1-1c-0.2-0.4-0.4-0.9-0.4-1.4c0-0.5,0.1-1,0.4-1.4c0.2-0.4,0.6-0.7,1-1
			c0.4-0.2,0.9-0.4,1.4-0.4c0.4,0,0.7,0.1,1.1,0.2c0.3,0.2,0.6,0.4,0.8,0.6l-0.4,0.4c-0.2-0.2-0.4-0.4-0.6-0.5
			c-0.2-0.1-0.5-0.2-0.8-0.2c-0.4,0-0.7,0.1-1.1,0.3c-0.3,0.2-0.6,0.4-0.8,0.8c-0.2,0.3-0.3,0.7-0.3,1.1s0.1,0.8,0.3,1.1
			c0.2,0.3,0.4,0.6,0.8,0.8c0.3,0.2,0.6,0.3,1.1,0.3c0.6,0,1.2-0.2,1.6-0.8l0.4,0.4c-0.2,0.3-0.5,0.5-0.9,0.7
			C105.2,87.1,104.8,87,104.3,87z"/>
		<path d="M111.4,87c-0.5,0-1-0.1-1.4-0.4c-0.4-0.2-0.7-0.6-1-1c-0.2-0.4-0.4-0.9-0.4-1.4s0.1-1,0.4-1.4c0.2-0.4,0.6-0.7,1-1
			c0.4-0.2,0.8-0.4,1.4-0.4c0.5,0,1,0.1,1.4,0.4c0.4,0.2,0.7,0.6,1,1c0.2,0.4,0.4,0.9,0.4,1.4s-0.1,1-0.4,1.4c-0.2,0.4-0.6,0.7-1,1
			C112.4,86.8,112,87,111.4,87z M111.4,86.4c0.4,0,0.7-0.1,1-0.3c0.3-0.2,0.6-0.4,0.7-0.8c0.2-0.3,0.3-0.7,0.3-1.1
			c0-0.4-0.1-0.8-0.3-1.1c-0.2-0.3-0.4-0.6-0.7-0.8c-0.3-0.2-0.6-0.3-1-0.3c-0.4,0-0.7,0.1-1,0.3c-0.3,0.2-0.6,0.4-0.7,0.8
			c-0.2,0.3-0.3,0.7-0.3,1.1c0,0.4,0.1,0.8,0.3,1.1c0.2,0.3,0.4,0.6,0.7,0.8C110.7,86.3,111.1,86.4,111.4,86.4z M110.4,81.1l0.7-0.8
			h0.6l0.7,0.8v0h-0.6l-0.4-0.4h0l-0.4,0.4L110.4,81.1L110.4,81.1z"/>
		<path d="M116.9,81.6h0.8l2.6,4.2h0l0-1v-3.2h0.6v5.2h-0.6l-2.8-4.3h0l0,1v3.4h-0.6V81.6z"/>
		<path d="M126.2,87c-0.5,0-0.9-0.1-1.3-0.4c-0.4-0.2-0.7-0.6-1-1c-0.2-0.4-0.4-0.9-0.4-1.4s0.1-1,0.4-1.4c0.2-0.4,0.6-0.7,1-1
			c0.4-0.2,0.8-0.4,1.3-0.4c0.4,0,0.7,0.1,1.1,0.2c0.3,0.1,0.6,0.3,0.8,0.6l-0.4,0.4c-0.2-0.2-0.4-0.4-0.6-0.5
			c-0.2-0.1-0.5-0.2-0.8-0.2c-0.4,0-0.7,0.1-1,0.3c-0.3,0.2-0.6,0.4-0.8,0.8s-0.3,0.7-0.3,1.1c0,0.4,0.1,0.8,0.3,1.1
			s0.4,0.6,0.8,0.8c0.3,0.2,0.6,0.3,1,0.3s0.6,0,0.9-0.2c0.2-0.1,0.4-0.2,0.6-0.4c0.1-0.1,0.2-0.3,0.3-0.5c0.1-0.2,0.1-0.4,0.2-0.6
			h-1.9v-0.7h2.5c0,0.1,0,0.2,0,0.4c0,0.3,0,0.6-0.2,0.9c-0.1,0.3-0.3,0.6-0.5,0.8C127.6,86.7,127,87,126.2,87z"/>
		<path d="M135,81.6h0.8l2.6,4.2h0l0-1v-3.2h0.6v5.2h-0.6l-2.8-4.3h0l0,1v3.4H135V81.6z"/>
		<path d="M144.4,87c-0.5,0-0.9-0.1-1.3-0.4c-0.4-0.2-0.7-0.6-1-1c-0.2-0.4-0.4-0.9-0.4-1.4s0.1-1,0.4-1.4c0.2-0.4,0.6-0.7,1-1
			s0.8-0.4,1.3-0.4c0.4,0,0.7,0.1,1.1,0.2c0.3,0.1,0.6,0.3,0.8,0.6l-0.4,0.4c-0.2-0.2-0.4-0.4-0.6-0.5c-0.2-0.1-0.5-0.2-0.8-0.2
			c-0.4,0-0.7,0.1-1,0.3c-0.3,0.2-0.6,0.4-0.8,0.8c-0.2,0.3-0.3,0.7-0.3,1.1c0,0.4,0.1,0.8,0.3,1.1c0.2,0.3,0.4,0.6,0.8,0.8
			c0.3,0.2,0.6,0.3,1,0.3s0.6,0,0.9-0.2c0.2-0.1,0.4-0.2,0.6-0.4c0.1-0.1,0.2-0.3,0.3-0.5c0.1-0.2,0.1-0.4,0.2-0.6h-2v-0.7h2.5
			c0,0.1,0,0.2,0,0.4c0,0.3,0,0.6-0.2,0.9c-0.1,0.3-0.3,0.6-0.5,0.8C145.8,86.7,145.1,87,144.4,87z"/>
		<path d="M149.6,81.6h0.6v2.3h2.7v-2.3h0.6v5.2h-0.6v-2.4h-2.7v2.4h-0.6V81.6z"/>
		<path d="M156.5,81.6h3v0.6h-2.4V84h2.1v0.6h-2.1v1.7h2.4v0.6h-3V81.6z M157,81.1l0.7-0.8h0.5l0.7,0.8v0h-0.6l-0.4-0.4h0l-0.4,0.4
			L157,81.1L157,81.1z M158,88.2c-0.1,0-0.2,0-0.3-0.1c-0.1-0.1-0.1-0.2-0.1-0.3c0-0.1,0-0.2,0.1-0.3c0.1-0.1,0.2-0.1,0.3-0.1
			c0.1,0,0.2,0,0.3,0.1c0.1,0.1,0.1,0.2,0.1,0.3c0,0.1,0,0.2-0.1,0.3C158.2,88.2,158.2,88.2,158,88.2z"/>
		<path d="M167.3,87c-0.2,0-0.5,0-0.8-0.2c-0.2-0.1-0.4-0.3-0.6-0.5c-0.2-0.2-0.3-0.5-0.4-0.8l0.6-0.2c0.1,0.3,0.2,0.6,0.4,0.8
			c0.2,0.2,0.5,0.3,0.8,0.3c0.3,0,0.6-0.1,0.8-0.2c0.2-0.2,0.3-0.4,0.3-0.6s-0.1-0.4-0.3-0.6c-0.2-0.2-0.5-0.3-0.9-0.4l-0.3-0.1
			c-0.4-0.1-0.7-0.3-0.9-0.5c-0.2-0.2-0.4-0.5-0.4-0.9c0-0.2,0.1-0.5,0.2-0.7s0.3-0.4,0.6-0.5c0.2-0.1,0.5-0.2,0.8-0.2
			s0.6,0,0.8,0.2c0.2,0.1,0.4,0.2,0.5,0.4c0.1,0.2,0.2,0.3,0.3,0.5l-0.6,0.2c0-0.2-0.2-0.3-0.3-0.5c-0.2-0.2-0.4-0.2-0.7-0.2
			s-0.5,0.1-0.7,0.2c-0.2,0.2-0.3,0.3-0.3,0.6c0,0.2,0.1,0.4,0.2,0.5c0.2,0.1,0.4,0.2,0.7,0.4l0.3,0.1c0.4,0.2,0.8,0.4,1.1,0.6
			c0.2,0.2,0.4,0.6,0.4,1c0,0.3-0.1,0.6-0.2,0.8c-0.2,0.2-0.4,0.4-0.6,0.5C167.9,86.9,167.6,87,167.3,87z"/>
		<path d="M174.2,87c-0.5,0-1-0.1-1.4-0.4c-0.4-0.2-0.7-0.6-1-1c-0.2-0.4-0.4-0.9-0.4-1.4s0.1-1,0.4-1.4c0.2-0.4,0.6-0.7,1-1
			c0.4-0.2,0.8-0.4,1.4-0.4c0.5,0,1,0.1,1.4,0.4c0.4,0.2,0.7,0.6,1,1c0.2,0.4,0.4,0.9,0.4,1.4s-0.1,1-0.4,1.4c-0.2,0.4-0.6,0.7-1,1
			C175.2,86.8,174.7,87,174.2,87z M174.2,86.4c0.4,0,0.7-0.1,1-0.3c0.3-0.2,0.6-0.4,0.7-0.8c0.2-0.3,0.3-0.7,0.3-1.1
			c0-0.4-0.1-0.8-0.3-1.1c-0.2-0.3-0.4-0.6-0.7-0.8c-0.3-0.2-0.6-0.3-1-0.3s-0.7,0.1-1,0.3c-0.3,0.2-0.6,0.4-0.7,0.8
			s-0.3,0.7-0.3,1.1c0,0.4,0.1,0.8,0.3,1.1s0.4,0.6,0.7,0.8C173.5,86.3,173.9,86.4,174.2,86.4z M173.2,81.3l0.7-0.8h0.5l0.8,0.8v0
			h-0.6l-0.4-0.4h0l-0.4,0.4L173.2,81.3L173.2,81.3z M175.2,79.6h0.7l-0.5,0.9h-0.5L175.2,79.6z"/>
		<path d="M184.2,82.2h-1.5v-0.6h3.5v0.6h-1.5v4.6h-0.6V82.2z"/>
		<path d="M188.9,81.6h0.6v5.2h-0.6V81.6z"/>
		<path d="M192.5,81.6h0.8l2.6,4.2h0l0-1v-3.2h0.6v5.2h-0.6l-2.8-4.3h0l0,1v3.4h-0.6L192.5,81.6L192.5,81.6z"/>
		<path d="M205.4,87c-0.5,0-1-0.1-1.4-0.4c-0.4-0.2-0.7-0.6-1-1c-0.2-0.4-0.4-0.9-0.4-1.4c0-0.5,0.1-1,0.4-1.4c0.2-0.4,0.6-0.7,1-1
			c0.4-0.2,0.9-0.4,1.4-0.4c0.4,0,0.7,0.1,1.1,0.2c0.3,0.2,0.6,0.4,0.8,0.6l-0.4,0.4c-0.2-0.2-0.4-0.4-0.6-0.5
			c-0.2-0.1-0.5-0.2-0.8-0.2c-0.4,0-0.7,0.1-1.1,0.3c-0.3,0.2-0.6,0.4-0.8,0.8c-0.2,0.3-0.3,0.7-0.3,1.1s0.1,0.8,0.3,1.1
			c0.2,0.3,0.4,0.6,0.8,0.8c0.3,0.2,0.6,0.3,1.1,0.3c0.6,0,1.2-0.2,1.6-0.8l0.4,0.4c-0.2,0.3-0.5,0.5-0.9,0.7
			C206.2,87.1,205.8,87,205.4,87z"/>
		<path d="M211.7,81.6h0.7l2,5.2h-0.7l-0.5-1.4h-2.3l-0.5,1.4h-0.7L211.7,81.6z M211,81.1l0.7-0.8h0.5l0.7,0.8v0h-0.6l-0.4-0.4h0
			l-0.4,0.4L211,81.1L211,81.1z M212.9,84.8l-0.9-2.4h0l-0.9,2.4H212.9z M212,88.2c-0.1,0-0.2,0-0.3-0.1c-0.1-0.1-0.1-0.2-0.1-0.3
			c0-0.1,0-0.2,0.1-0.3c0.1-0.1,0.2-0.1,0.3-0.1c0.1,0,0.2,0,0.3,0.1c0.1,0.1,0.1,0.2,0.1,0.3c0,0.1,0,0.2-0.1,0.3
			C212.3,88.2,212.1,88.2,212,88.2z"/>
		<path d="M217.8,84.4l-1.8-2.8h0.7l1.3,2.2h0l1.3-2.2h0.7l-1.7,2.8v2.4h-0.6L217.8,84.4L217.8,84.4z"/>
	</g>
</g>
</svg>
