<svg xmlns="http://www.w3.org/2000/svg" viewBox="0 0 153.12 46.51"><defs><style>.cls-1{fill:#fff;}.cls-2{fill:#b48dff;}</style></defs><title>icon_Đặt lịch làm việc</title><g id="Layer_2" data-name="Layer 2"><g id="Layer_1-2" data-name="Layer 1"><path class="cls-1" d="M72,15.17A6.29,6.29,0,0,1,67.26,17h-5V11.69H61v-3h1.2v-5h4.48a12.26,12.26,0,0,1,1.71.11A6.66,6.66,0,0,1,70,4.15a5.65,5.65,0,0,1,2.58,2,6.9,6.9,0,0,1,1.22,4.14A6.77,6.77,0,0,1,72,15.17ZM69.58,7.73a3,3,0,0,0-2.47-1.05H65.63v2h1.94v3H65.63V14h1.46a3,3,0,0,0,2.5-1,4.08,4.08,0,0,0,.76-2.64A4.09,4.09,0,0,0,69.58,7.73Z"/><path class="cls-1" d="M84.18,17l-.65-1.92H78.91L78.2,17H74.55L79.89,3.69h2.68L87.87,17ZM84.92.07a2.4,2.4,0,0,1-1.27,2,4.86,4.86,0,0,1-2.44.55,4.83,4.83,0,0,1-2.44-.55,2.45,2.45,0,0,1-1.27-2h2a1.51,1.51,0,0,0,.79.53,3.45,3.45,0,0,0,1,.11,2.82,2.82,0,0,0,.89-.12,1.33,1.33,0,0,0,.7-.51ZM79.78,21.33V18.61h2.87v2.72ZM81.26,7.84h-.05l-1.37,4.55h2.79Z"/><path class="cls-1" d="M94.23,6.68V17h-3.4V6.68H88.2v-3h8.64v3Z"/><path class="cls-1" d="M103.85,17V3.69h3.4V14h3.95v3Z"/><path class="cls-1" d="M112.52,17V3.69h3.4V17Zm.27,4.32V18.61h2.86v2.72Z"/><path class="cls-1" d="M131.54,12a6.7,6.7,0,0,1-2.45,3.8,7.12,7.12,0,0,1-9.25-.56,6.63,6.63,0,0,1-2.06-4.93,6.62,6.62,0,0,1,2-4.91,6.83,6.83,0,0,1,4.95-2,6.62,6.62,0,0,1,5.86,3.13,5.6,5.6,0,0,1,.91,2.18H128a3.23,3.23,0,0,0-3.22-2.32,3.29,3.29,0,0,0-2.59,1.17,4,4,0,0,0-1,2.72,4.09,4.09,0,0,0,1,2.75,3.27,3.27,0,0,0,2.61,1.21A3.36,3.36,0,0,0,128,12Z"/><path class="cls-1" d="M141.06,17V11.69H136.7V17h-3.4V3.69h3.4v5h4.36v-5h3.4V17Z"/><path class="cls-1" d="M62.12,41V26.21h1.48V39.67h6.11V41Z"/><path class="cls-1" d="M82.69,41l-2.15-5H73.67l-2.16,5H70l6.32-14.8h1.66L84.3,41ZM77.12,27.9l-2.9,6.8H80Zm1.56-2.53-4-2.14.64-1.2,4,2.19Z"/><path class="cls-1" d="M99.9,41V27.83h0L94.32,41H93.06l-5.5-13.18h0V41H86V26.21h2.28L93.7,38.81l5.4-12.61h2.29V41Z"/><path class="cls-1" d="M116.16,41H114.7l-6.1-14.8h1.64l5.21,13,5.24-13h1.6Z"/><path class="cls-1" d="M124,41V26.21h1.48V41Z"/><path class="cls-1" d="M128.38,41V26.21h8.1v1.35h-6.61v5.31h6.4v1.35h-6.4v5.46h6.61V41Zm5.72-16-1.72-1.46L130.62,25H128.8l2.9-2.5H133l2.86,2.5Zm-2.41,19.79V42.24h1.48v2.53Z"/><path class="cls-1" d="M153.12,37.13a7.31,7.31,0,0,1-6.82,4.14,7.53,7.53,0,0,1-5.47-2.22,7.67,7.67,0,0,1,0-10.88,7.84,7.84,0,0,1,11.32.43,5.27,5.27,0,0,1,.94,1.41H151.4a5.84,5.84,0,0,0-5.15-2.71,5.9,5.9,0,0,0-4.38,1.91A6.15,6.15,0,0,0,140,33.65,6,6,0,0,0,141.91,38a6,6,0,0,0,7.29,1.13,7.47,7.47,0,0,0,2.26-2Z"/><path class="cls-2" d="M38.11,46.51H36.84L36,46.4a10.79,10.79,0,0,1-9.14-8.83c-.07-.41-.11-.82-.17-1.22V35.09a1.74,1.74,0,0,0,0-.2,10.26,10.26,0,0,1,.6-2.83,10.79,10.79,0,0,1,20.75,5.69,10.8,10.8,0,0,1-8.74,8.6C38.93,46.41,38.52,46.45,38.11,46.51Zm-.62-2.11A8.67,8.67,0,1,0,28.8,35.7,8.71,8.71,0,0,0,37.49,44.39Z"/><path class="cls-2" d="M36.75,28.39c0,.22,0,.42,0,.62A.63.63,0,1,0,38,29c0-.21,0-.42,0-.63A7.34,7.34,0,0,1,44.81,35h-.75a.64.64,0,0,0-.63.63.63.63,0,0,0,.63.64h.78a7.34,7.34,0,0,1-6.71,6.83c0-.25,0-.49,0-.73a.64.64,0,1,0-1.27,0c0,.24,0,.49,0,.73a7.36,7.36,0,0,1-6.72-6.74c.25,0,.5,0,.75,0a.57.57,0,0,0,.52-.38.6.6,0,0,0-.09-.65.64.64,0,0,0-.52-.24h-.63A7.33,7.33,0,0,1,36.75,28.39Zm.7,6.45a2.57,2.57,0,0,0-.16-.21l-3-3a1.52,1.52,0,0,0-.19-.17.61.61,0,0,0-.67-.05.54.54,0,0,0-.33.58,1,1,0,0,0,.26.5c1.17,1.19,2.36,2.37,3.54,3.55a.66.66,0,0,0,1.08,0l2-2a1.34,1.34,0,0,0,.14-.16.63.63,0,0,0-.38-1,.66.66,0,0,0-.64.22Z"/><path class="cls-2" d="M35.83,0A1.79,1.79,0,0,1,37,1.94c0,2.72,0,5.43,0,8.15,0,1.31-.55,1.86-1.87,1.86-.79,0-1.58,0-2.37,0a1.49,1.49,0,0,1-1.6-1.55c0-3,0-5.9,0-8.85A1.6,1.6,0,0,1,32.41,0Z"/><path class="cls-2" d="M11.43,0a1.77,1.77,0,0,1,1.23,1.93c0,2.73,0,5.46,0,8.19,0,1.26-.56,1.82-1.81,1.83H8.61a1.57,1.57,0,0,1-1.79-1.8q0-3.2,0-6.4c0-.6,0-1.2,0-1.8A1.75,1.75,0,0,1,8,0Z"/><path class="cls-2" d="M22,23.77c.56,0,1.11,0,1.67,0a1,1,0,0,1,1.12,1.08q0,1.71,0,3.42a1,1,0,0,1-1,1.07q-1.75.06-3.51,0a1,1,0,0,1-1.06-1.14q0-1.64,0-3.29a1,1,0,0,1,1.15-1.15Z"/><path class="cls-2" d="M25.33,40.62H7.21c-1.43,0-2.08-.66-2.08-2.09q0-7.87,0-15.75c0-1.43.66-2.08,2.1-2.08H36.66a1.79,1.79,0,0,1,2.06,2,13.28,13.28,0,0,1,1.9.32,13,13,0,0,1,3.3,1.31q0-7.5,0-15c0-.13,0-.26,0-.39A4,4,0,0,0,40,5v.51c0,1.58,0,3.16,0,4.74a4.46,4.46,0,0,1-4.5,4.6c-.91,0-1.81,0-2.72,0a4.48,4.48,0,0,1-4.51-4.64c0-1.58,0-3.16,0-4.74V5H15.64c0,1.74,0,3.45,0,5.16A4.49,4.49,0,0,1,11,14.87H8.54A4.47,4.47,0,0,1,3.9,10.18q0-2.35,0-4.69V5a4.08,4.08,0,0,0-2.32.83A4.18,4.18,0,0,0,0,9.35Q0,19.65,0,30c0,3.55,0,7.11,0,10.66a4.23,4.23,0,0,0,.81,2.67,4.07,4.07,0,0,0,3.42,1.63H28.18A12.77,12.77,0,0,1,25.33,40.62Z"/><path class="cls-2" d="M23.59,32.65c-1.1,0-2.19,0-3.29,0a1.06,1.06,0,0,0-1.14,1.16q0,1.64,0,3.29a1.05,1.05,0,0,0,1.15,1.15c.54,0,1.08,0,1.62,0h1.62a1.16,1.16,0,0,0,1-.43c0-.28-.08-.56-.11-.84l-.05-.42V34.91l0-.11,0-.11v0a12.35,12.35,0,0,1,.2-1.49A1.07,1.07,0,0,0,23.59,32.65Z"/><path class="cls-2" d="M24.43,34.7l0,.11,0,.11v1.66l.05.42c0,.27.07.55.11.84a1.31,1.31,0,0,0,.2-.75q0-1.62,0-3.24a1.42,1.42,0,0,0-.14-.63,12.35,12.35,0,0,0-.2,1.49Z"/><path class="cls-2" d="M13.09,23.77h1.62a1,1,0,0,1,1.15,1.09q0,1.71,0,3.42a1,1,0,0,1-1.08,1.07q-1.71,0-3.42,0a1,1,0,0,1-1.08-1.16q0-1.64,0-3.29a1,1,0,0,1,1.14-1.14Z"/><path class="cls-2" d="M13,38.25c-.54,0-1.08,0-1.62,0a1,1,0,0,1-1.12-1.12q0-1.67,0-3.33a1,1,0,0,1,1.1-1.14q1.69,0,3.38,0a1,1,0,0,1,1.1,1.06q0,1.73,0,3.46a1,1,0,0,1-1.12,1.08H13Z"/></g></g></svg>