<svg id="Layer_1" data-name="Layer 1" xmlns="http://www.w3.org/2000/svg" viewBox="0 0 203 50.65"><defs><style>.cls-1{fill:#fff;}.cls-2{fill:#89cff6;}</style></defs><title>dichvucong</title><path class="cls-1" d="M65,17.7H60.35V4.38h4.41a13.43,13.43,0,0,1,1.72.1A7.3,7.3,0,0,1,68,4.85a5.44,5.44,0,0,1,2.6,2A6.88,6.88,0,0,1,71.88,11Q71.88,17.7,65,17.7ZM67.7,8.42a3,3,0,0,0-2.47-1.05H63.75v7.35h1.46a3,3,0,0,0,2.5-1,4.05,4.05,0,0,0,.76-2.64A4.09,4.09,0,0,0,67.7,8.42Z"/><path class="cls-1" d="M73.89,17.7V4.38h3.4V17.7ZM74.16,22V19.3H77V22Z"/><path class="cls-1" d="M92.91,12.72a6.7,6.7,0,0,1-2.45,3.8A7.12,7.12,0,0,1,81.21,16,6.63,6.63,0,0,1,79.15,11a6.62,6.62,0,0,1,2-4.91,6.83,6.83,0,0,1,4.95-2A6.62,6.62,0,0,1,92,7.26a5.6,5.6,0,0,1,.91,2.18H89.34a3.23,3.23,0,0,0-3.22-2.32,3.29,3.29,0,0,0-2.59,1.17,4,4,0,0,0-1,2.71,4.1,4.1,0,0,0,1,2.75A3.27,3.27,0,0,0,86.14,15a3.36,3.36,0,0,0,3.2-2.25Z"/><path class="cls-1" d="M102.43,17.7V12.38H98.07V17.7h-3.4V4.38h3.4v5h4.36v-5h3.4V17.7Z"/><path class="cls-1" d="M120.82,17.7h-3.51L112.87,4.38h3.49L119,13.72h0l2.7-9.34h3.51Z"/><path class="cls-1" d="M137,12.43a8.7,8.7,0,0,1-.23,2.21,4.31,4.31,0,0,1-1.1,1.88A5,5,0,0,1,131.91,18a6.36,6.36,0,0,1-2.07-.33,4.27,4.27,0,0,1-1.76-1.1,4.52,4.52,0,0,1-1.13-1.9,6.15,6.15,0,0,1-.18-1q0-.46,0-1.18V4.38h3.4v8.05a6.68,6.68,0,0,0,.05.91,2.69,2.69,0,0,0,.24.82,1.47,1.47,0,0,0,1.44.82,1.43,1.43,0,0,0,1.44-.8,2.79,2.79,0,0,0,.21-.81q0-.35,0-.93V4.38H137ZM130.43,22V19.3h2.86V22Z"/><path class="cls-1" d="M158.1,12.72a6.69,6.69,0,0,1-2.45,3.8,7.12,7.12,0,0,1-9.25-.56A6.63,6.63,0,0,1,144.35,11a6.62,6.62,0,0,1,2-4.91,6.82,6.82,0,0,1,4.95-2,6.62,6.62,0,0,1,5.86,3.13,5.6,5.6,0,0,1,.9,2.18h-3.57a3.23,3.23,0,0,0-3.22-2.32,3.29,3.29,0,0,0-2.59,1.17,4,4,0,0,0-1,2.71,4.1,4.1,0,0,0,1,2.75A3.27,3.27,0,0,0,151.34,15a3.36,3.36,0,0,0,3.2-2.25Z"/><path class="cls-1" d="M171.28,16a7.24,7.24,0,0,1-9.91,0,6.35,6.35,0,0,1-2.09-4.81,7.8,7.8,0,0,1,.52-2.85,6.08,6.08,0,0,1,.87-1.49,6.7,6.7,0,0,1,5.63-2.73,6.86,6.86,0,0,1,5,2A6.59,6.59,0,0,1,173.34,11,6.62,6.62,0,0,1,171.28,16ZM167.15,3.21l-.83-1-.83,1h-2.92l2.8-3h1.94l2.71,3Zm1.8,5.11a3.34,3.34,0,0,0-2.63-1.2,3.38,3.38,0,0,0-2.64,1.16,3.93,3.93,0,0,0-1,2.72,4,4,0,0,0,1,2.78A3.4,3.4,0,0,0,166.36,15a3.29,3.29,0,0,0,2.59-1.2,4,4,0,0,0,1-2.72A4,4,0,0,0,168.95,8.32Z"/><path class="cls-1" d="M183.45,17.7l-5.07-8.1,0,0,.1,8.09h-3.26V4.38h2.94l5.15,8.38,0,0-.15-8.34h3.26V17.7Z"/><path class="cls-1" d="M202.44,10.83a7,7,0,0,1-2,5.11,7.3,7.3,0,0,1-10.1,0,6.71,6.71,0,0,1-2.07-5,6.49,6.49,0,0,1,2.1-4.93,7.36,7.36,0,0,1,9.13-.63A6.11,6.11,0,0,1,202,8.84h-3.81a3.16,3.16,0,0,0-2.94-1.72,3.4,3.4,0,0,0-2.64,1.14,3.91,3.91,0,0,0-1,2.72,4.14,4.14,0,0,0,1,2.81A3.38,3.38,0,0,0,195.31,15a3.69,3.69,0,0,0,2-.52,2.71,2.71,0,0,0,1.2-1.62h-4V10.13h7.9q0,.16,0,.35Z"/><path class="cls-1" d="M64.33,33.25V46.7H62.85V33.25h-3.4V31.9h8.26v1.35Z"/><path class="cls-1" d="M78,39.82a4.7,4.7,0,0,1-3.12,1.37l4.18,5.52H77.2l-5-6.7h1.6a5.91,5.91,0,0,0,1.58-.21,3.05,3.05,0,0,0,2.44-3.13,3,3,0,0,0-1.62-2.84,4.49,4.49,0,0,0-1.4-.47,10.06,10.06,0,0,0-1.48-.09H70.73V46.7H69.25V31.9H73l.9,0,.95.08a6,6,0,0,1,1.8.47,4.35,4.35,0,0,1,2.64,4.22A4.26,4.26,0,0,1,78,39.82Z"/><path class="cls-1" d="M91.56,33.58v7.55a9.33,9.33,0,0,1-.13,1.57A5.46,5.46,0,0,1,91,44.2a5,5,0,0,1-9,0,5.94,5.94,0,0,1-.44-1.5,10.07,10.07,0,0,1-.12-1.57V31.9H83v9.23a9.14,9.14,0,0,0,.1,1.37,4.27,4.27,0,0,0,.4,1.31,3.49,3.49,0,0,0,6.12,0,3.94,3.94,0,0,0,.4-1.31,9.14,9.14,0,0,0,.1-1.37V31.9h1.48v.35a1,1,0,0,0,.42-.68h-.63V29.81h1.85v1.82a2.32,2.32,0,0,1-.24.8,1.92,1.92,0,0,1-.42.53,3.77,3.77,0,0,1-.43.33ZM85.78,50.46V47.93h1.48v2.53Z"/><path class="cls-1" d="M108.5,42.83A7.31,7.31,0,0,1,101.69,47a7.53,7.53,0,0,1-5.47-2.22,7.67,7.67,0,0,1,0-10.88,7.84,7.84,0,0,1,11.32.43,5.3,5.3,0,0,1,.94,1.41h-1.66A5.84,5.84,0,0,0,101.64,33a5.91,5.91,0,0,0-4.38,1.91,6.15,6.15,0,0,0-1.83,4.42,6,6,0,0,0,1.87,4.38,6,6,0,0,0,7.29,1.13,7.44,7.44,0,0,0,2.26-2Z"/><path class="cls-1" d="M119.88,33.25V46.7H118.4V33.25H115V31.9h8.26v1.35Z"/><path class="cls-1" d="M135,41.13a10.07,10.07,0,0,1-.12,1.57,5.94,5.94,0,0,1-.44,1.5,5,5,0,0,1-9,0,5.72,5.72,0,0,1-.43-1.5,9.38,9.38,0,0,1-.13-1.57V31.9h1.48v9.23a9.21,9.21,0,0,0,.1,1.37,4,4,0,0,0,.4,1.31,3.48,3.48,0,0,0,6.11,0,3.91,3.91,0,0,0,.4-1.31,8.24,8.24,0,0,0,.11-1.37V31.9H135Z"/><path class="cls-1" d="M143.13,41.76V46.7h-1.48V41.76l-5.14-9.86h1.64l4.22,8.3,4.34-8.3h1.62Z"/><path class="cls-1" d="M149.72,46.7V31.9h8.1v1.35h-6.61v5.31h6.4v1.35h-6.4v5.46h6.61V46.7Zm5.72-16-1.72-1.46L152,30.67h-1.82l2.9-2.5h1.32l2.86,2.5Zm.83-1.47L155.61,28l4-2.19.63,1.2Z"/><path class="cls-1" d="M170.84,46.7l-8.78-13h0v13h-1.48V31.9h2l8.26,12.29h0V31.9h1.47V46.7Z"/><path class="cls-2" d="M33,30.66a.23.23,0,0,0,0,.46h3.5a.23.23,0,0,0,0-.46Z"/><path class="cls-2" d="M36.46,31.74H33a.23.23,0,0,0,0,.46h3.5A.23.23,0,0,0,36.46,31.74Z"/><path class="cls-2" d="M36.46,32.75H33a.23.23,0,0,0,0,.46h3.5A.23.23,0,0,0,36.46,32.75Z"/><path class="cls-2" d="M36.46,33.83H33a.23.23,0,0,0,0,.46h3.5A.23.23,0,0,0,36.46,33.83Z"/><path class="cls-2" d="M36.4,34.85h-3.5a.23.23,0,0,0,0,.46h3.5A.23.23,0,0,0,36.4,34.85Z"/><path class="cls-2" d="M36.85,28.4a.29.29,0,0,0-.2-.08h-5a.17.17,0,0,0-.17.17v8.08a.29.29,0,0,0,.29.3h6a.29.29,0,0,0,.29-.3V29.5l-.59-.57Zm.56,1.5V36a.29.29,0,0,1-.29.3H32.3A.29.29,0,0,1,32,36V29.22a.29.29,0,0,1,.29-.3h3.88a.29.29,0,0,1,.29.3v.27a.29.29,0,0,0,.29.3h.65Z"/><path class="cls-2" d="M32.84,27a.29.29,0,0,0-.29.3V28h.57v-.42h4.17a.29.29,0,0,1,.29.3v.31a.29.29,0,0,0,.29.3h.65V35h-.25v.57h.52a.29.29,0,0,0,.29-.3V28.31A.3.3,0,0,0,39,28.1l-1-1a.29.29,0,0,0-.2-.08Z"/><path class="cls-2" d="M38.92,25.81H34a.29.29,0,0,0-.29.3v.69h.56v-.42h4.17a.29.29,0,0,1,.29.3V27a.29.29,0,0,0,.29.3h.35a.29.29,0,0,1,.29.3v6.21h-.25v.57H40a.29.29,0,0,0,.29-.3V27.12a.3.3,0,0,0-.09-.21l-1-1A.29.29,0,0,0,38.92,25.81Z"/><path class="cls-2" d="M49.63,40.49h0V23.17a.86.86,0,0,0-.86-.86H22.9a.86.86,0,0,0-.86.86V40.49h0l-3.64,2.86a.86.86,0,0,0-.33.67h0a.86.86,0,0,0,.86.86H52.74A.86.86,0,0,0,53.6,44h0a.86.86,0,0,0-.33-.67ZM25.42,24.14l21.17,0a.86.86,0,0,1,.86.87l-.16,12.8a.86.86,0,0,1-.85.85l-21,.08a.86.86,0,0,1-.86-.86l0-12.91A.86.86,0,0,1,25.42,24.14Zm8.38,19.47.3-.43a.86.86,0,0,1,.71-.37h2.76a.86.86,0,0,1,.66.31l.41.49ZM21.9,42.08,23,41.33a.86.86,0,0,1,.49-.15h25a.86.86,0,0,1,.42.11l1.62.9Zm0,0"/><path class="cls-2" d="M16.91,41.42l.78-.62a10.8,10.8,0,0,1-1.75-2A20,20,0,0,1,13,32.16h6.55V29.63H12.47A39.88,39.88,0,0,1,12,23.87a32.89,32.89,0,0,1,.51-5.8h7.6v3.33a3.3,3.3,0,0,1,2.6-1.52v-1.8h7.6c.11.59.19,1.19.26,1.78h2.59c-.06-.59-.13-1.19-.22-1.78h6c.2.59.35,1.18.49,1.78h2.62a20.67,20.67,0,0,0-1.29-4.16A20.62,20.62,0,0,0,29.58,4.53a20.72,20.72,0,0,0-16.35,0A20.75,20.75,0,0,0,2,15.7,21,21,0,0,0,2,32.07,20.79,20.79,0,0,0,13.22,43.26a21,21,0,0,0,2.42.86s0-.07,0-.1A3.29,3.29,0,0,1,16.91,41.42Zm21-25.88h-5.5a22.4,22.4,0,0,0-4-8.77A18.88,18.88,0,0,1,37.93,15.53ZM22.71,5.61a7.84,7.84,0,0,1,4.12,3.32,20.75,20.75,0,0,1,2.95,6.61H22.71Zm-2.6,0v9.93H13A20.74,20.74,0,0,1,16,8.92,7.85,7.85,0,0,1,20.11,5.61ZM14.4,6.76a22.4,22.4,0,0,0-4,8.77H4.89A18.88,18.88,0,0,1,14.4,6.76ZM2.91,23.87a18.25,18.25,0,0,1,.94-5.8h6a38.48,38.48,0,0,0,0,11.56H3.81A18.76,18.76,0,0,1,2.91,23.87Zm2,8.29h5.5a22.24,22.24,0,0,0,4,8.87A18.53,18.53,0,0,1,4.89,32.16Z"/></svg>