<svg xmlns="http://www.w3.org/2000/svg" viewBox="0 0 274.16 105"><defs><style>.cls-1{fill:none;}.cls-2{fill:#a44684;}.cls-3{fill:#005aa9;}</style></defs><title>dv</title><g id="Badge"><g id="BACKGROUND_2" data-name="BACKGROUND 2"><g id="Layer_1" data-name="Layer 1"><rect class="cls-1" width="274.16" height="105"/><polygon points="227.4 61.76 227.29 61.45 227.4 61.76 227.4 61.76"/><path class="cls-2" d="M223.48,36.1H207.57c-6,1.31-7.76,5.08-8.34,6.7-3.85,10.78,2.59,16.48,6.93,17.7a19.88,19.88,0,0,0,4.17.53l10.2-22.27h8.11L236.56,56V36.26Z"/><path class="cls-2" d="M233.73,67.92h0l-2-4.89h0l-.58-1.41-6.57-15.9L223,49.58l-4.64,11.36c3.49-.17,7.81-.21,7.81-.21l2.31,6.7s-7,.36-13,.59l-.89,2.15h0l-2.35,5.73h-8.71l3.55-7.75a17.69,17.69,0,0,1-9.38-3.46V81.51h38.87V74.77Zm-6.33-6.16"/><path class="cls-3" d="M184.61,21.48V66.89h11.54V63.41A19.22,19.22,0,0,1,190,49.73c0-15.39,9.24-20,15-20.55h18.47v-7.7Z"/><path class="cls-3" d="M37.6,35.87h5l11.28,24.3,10.76-24.3h4.51L55.49,65.78H51.84Z"/><path class="cls-3" d="M76.85,35.87h3l21.25,22.42V35.87h4.21V65.78h-3L81.07,43.36V65.78H76.85Z"/><path class="cls-3" d="M113,35.87h19.8a11.32,11.32,0,0,1,2.25.18,3.81,3.81,0,0,1,1.5.68,3.63,3.63,0,0,1,1.45,2,13.4,13.4,0,0,1,.39,3.77v5.47a21.45,21.45,0,0,1-.1,2.4,7.28,7.28,0,0,1-.36,1.54,3.55,3.55,0,0,1-1.71,2,7.74,7.74,0,0,1-3.43.6H117.22V65.78H113Zm18.4,14.25a2.88,2.88,0,0,0,2.24-.69,4.26,4.26,0,0,0,.59-2.66V44a4.33,4.33,0,0,0-.59-2.65,2.8,2.8,0,0,0-2.24-.72H117.22v9.55Z"/><path class="cls-3" d="M159.87,65.78h-4.12V40.58H144.49V35.87h26.62v4.71H159.87Z"/><path class="cls-2" d="M58.33,81.39c0,.11-.06.16-.19.16H57.5a.18.18,0,0,1-.18-.15l-.71-2.3H53.8l-.69,2.3a.19.19,0,0,1-.08.11.21.21,0,0,1-.12,0h-.64a.19.19,0,0,1-.13,0,.14.14,0,0,1-.06-.11.15.15,0,0,1,0-.07l2-6.51a1,1,0,0,1,.44-.59,1.37,1.37,0,0,1,.67-.17,1.48,1.48,0,0,1,.44.07,1,1,0,0,1,.39.23,1.06,1.06,0,0,1,.27.45l2,6.52A.16.16,0,0,1,58.33,81.39ZM56.4,78.31l-1-3.29c0-.12-.1-.18-.21-.18A.22.22,0,0,0,55,75l-1,3.29Z"/><path class="cls-2" d="M63.85,78.07v3.28a.18.18,0,0,1-.07.14.23.23,0,0,1-.15.06h-.52a.22.22,0,0,1-.15-.06.19.19,0,0,1-.06-.14V78.07a2,2,0,0,0-.13-.79.8.8,0,0,0-.41-.42,1.76,1.76,0,0,0-.72-.13,5.83,5.83,0,0,0-1.4.18v4.44a.18.18,0,0,1-.07.14.22.22,0,0,1-.15.06h-.53a.2.2,0,0,1-.14-.06.18.18,0,0,1-.06-.14V76.53a.23.23,0,0,1,.2-.24A10,10,0,0,1,61.72,76a3.31,3.31,0,0,1,1,.14,1.48,1.48,0,0,1,.66.4,1.56,1.56,0,0,1,.34.64A3.46,3.46,0,0,1,63.85,78.07Z"/><path class="cls-2" d="M71.18,81.4q0,.15-.2.17a5.22,5.22,0,0,1-.71,0,1.82,1.82,0,0,1-1.13-.28,1.33,1.33,0,0,1-.34-1.06V76.79l-1.06-.11c-.14,0-.21-.07-.21-.18v-.27c0-.12.07-.18.21-.18H68.8v-1c0-.11.06-.18.19-.2l.57-.08h0a.16.16,0,0,1,.12,0,.16.16,0,0,1,0,.12v1.09h1.17a.22.22,0,0,1,.15.06.18.18,0,0,1,.06.14v.34a.18.18,0,0,1-.07.14.22.22,0,0,1-.15.06H69.76v3.49a.75.75,0,0,0,.12.52.69.69,0,0,0,.46.11h.61q.23,0,.23.14Z"/><path class="cls-2" d="M76.76,79.18A2.48,2.48,0,0,1,76.13,81a2.77,2.77,0,0,1-3.58,0,2.48,2.48,0,0,1-.62-1.78v-.76a2.49,2.49,0,0,1,.62-1.79,2.77,2.77,0,0,1,3.58,0,2.49,2.49,0,0,1,.62,1.79Zm-1,0v-.76a2.33,2.33,0,0,0-.16-.9,1.19,1.19,0,0,0-.48-.57,1.55,1.55,0,0,0-.82-.2,1.34,1.34,0,0,0-1.1.44,1.89,1.89,0,0,0-.36,1.23v.76q0,1.67,1.46,1.67a1.35,1.35,0,0,0,1.1-.43A1.88,1.88,0,0,0,75.8,79.18Z"/><path class="cls-2" d="M82.09,81.17a.2.2,0,0,1-.16.22,7.06,7.06,0,0,1-.86.17,7.33,7.33,0,0,1-1,.06,3.23,3.23,0,0,1-1.82-.39A1.44,1.44,0,0,1,77.71,80v-.09a1.36,1.36,0,0,1,1.09-1.45,5.43,5.43,0,0,1,1.52-.17h.81v-.4a1.16,1.16,0,0,0-.26-.87,1.32,1.32,0,0,0-.9-.24,5,5,0,0,0-.85.06q-.35.06-.81.19a.23.23,0,0,1-.18,0,.13.13,0,0,1-.07-.12v-.39q0-.12.15-.18a4.82,4.82,0,0,1,.74-.21A4.63,4.63,0,0,1,80,76q2.12,0,2.12,1.88Zm-1.38-5.92s0,.07-.1.07h-.68l-.07,0-.09-.09-1.22-1.26a.11.11,0,0,1,0-.08s0-.07.12-.07h.72a.37.37,0,0,1,.27.15l1.06,1.24A.13.13,0,0,1,80.71,75.25Zm.42,5.59V78.9h-.81a5.17,5.17,0,0,0-.82.05,1.3,1.3,0,0,0-.49.17.66.66,0,0,0-.26.3,1.17,1.17,0,0,0-.08.46V80a1.16,1.16,0,0,0,.12.56.71.71,0,0,0,.43.31,3,3,0,0,0,.86.1h.42l.36,0Z"/><path class="cls-2" d="M88,78.07v3.28a.18.18,0,0,1-.07.14.23.23,0,0,1-.15.06h-.52a.22.22,0,0,1-.15-.06.19.19,0,0,1-.06-.14V78.07a2,2,0,0,0-.13-.79.8.8,0,0,0-.41-.42,1.76,1.76,0,0,0-.72-.13,5.83,5.83,0,0,0-1.4.18v4.44a.18.18,0,0,1-.07.14.22.22,0,0,1-.15.06h-.53a.2.2,0,0,1-.14-.06.18.18,0,0,1-.06-.14V76.53a.23.23,0,0,1,.2-.24A10,10,0,0,1,85.82,76a3.31,3.31,0,0,1,1,.14,1.48,1.48,0,0,1,.66.4,1.56,1.56,0,0,1,.34.64A3.46,3.46,0,0,1,88,78.07Z"/><path class="cls-2" d="M95.28,81.4q0,.15-.2.17a5.22,5.22,0,0,1-.71,0,1.82,1.82,0,0,1-1.13-.28,1.33,1.33,0,0,1-.34-1.06V76.79l-1.06-.11c-.14,0-.21-.07-.21-.18v-.27c0-.12.07-.18.21-.18H92.9v-1c0-.11.06-.18.19-.2l.57-.08h0a.16.16,0,0,1,.12,0,.16.16,0,0,1,0,.12v1.09H95a.22.22,0,0,1,.15.06.18.18,0,0,1,.06.14v.34a.18.18,0,0,1-.07.14.22.22,0,0,1-.15.06H93.86v3.49a.75.75,0,0,0,.12.52.69.69,0,0,0,.46.11H95q.23,0,.23.14Z"/><path class="cls-2" d="M100.76,77.94v3.14a.23.23,0,0,1-.2.24,10,10,0,0,1-2.25.31A2.79,2.79,0,0,1,97,81.38a1.37,1.37,0,0,1-.66-.7,3,3,0,0,1-.19-1.15V76.25a.19.19,0,0,1,.06-.14.22.22,0,0,1,.16-.06h.52a.22.22,0,0,1,.15.06.19.19,0,0,1,.06.14v3.28a1.47,1.47,0,0,0,.29,1,1.3,1.3,0,0,0,1,.3,5.7,5.7,0,0,0,.67-.05,7,7,0,0,0,.73-.13V76.25a.19.19,0,0,1,.06-.14.21.21,0,0,1,.16-.06h.53a.2.2,0,0,1,.15.06.2.2,0,0,1,.06.14v.83a.56.56,0,0,0,.19-.39v-.52c0-.07.06-.11.18-.12h.44a.13.13,0,0,1,.15.1Q101.87,77.61,100.76,77.94ZM99.1,75.25s0,.07-.1.07h-.68l-.07,0-.09-.09-1.23-1.26a.11.11,0,0,1,0-.08s0-.07.12-.07h.72a.37.37,0,0,1,.27.15l1.05,1.24A.13.13,0,0,1,99.1,75.25Z"/><path class="cls-2" d="M106.62,78.07v3.28a.18.18,0,0,1-.07.14.23.23,0,0,1-.15.06h-.52a.22.22,0,0,1-.15-.06.19.19,0,0,1-.06-.14V78.07a2,2,0,0,0-.13-.79.8.8,0,0,0-.41-.42,1.76,1.76,0,0,0-.72-.13,5.83,5.83,0,0,0-1.4.18v4.44a.18.18,0,0,1-.07.14.22.22,0,0,1-.15.06h-.53a.2.2,0,0,1-.14-.06.18.18,0,0,1-.06-.14V76.53a.23.23,0,0,1,.2-.24,10,10,0,0,1,2.24-.31,3.31,3.31,0,0,1,1,.14,1.48,1.48,0,0,1,.66.4,1.56,1.56,0,0,1,.34.64A3.46,3.46,0,0,1,106.62,78.07Z"/><path class="cls-2" d="M110,82.8a2.58,2.58,0,0,0,.82-.1.72.72,0,0,0,.42-.37,1.8,1.8,0,0,0,.13-.77v-.07a5.7,5.7,0,0,1-.59.09,5.58,5.58,0,0,1-.63,0,2.16,2.16,0,0,1-2.42-2.46v-.73a3.14,3.14,0,0,1,.27-1.38,1.72,1.72,0,0,1,.81-.81,3,3,0,0,1,1.35-.27,9.51,9.51,0,0,1,1.94.23.35.35,0,0,1,.18.07.23.23,0,0,1,0,.16v5.12a1.8,1.8,0,0,1-.59,1.52,2.86,2.86,0,0,1-1.75.45A4.3,4.3,0,0,1,109,83.4a3.31,3.31,0,0,1-.73-.25.26.26,0,0,1-.15-.23v-.33a.15.15,0,0,1,.07-.13.19.19,0,0,1,.18,0q.55.2.86.27A3.49,3.49,0,0,0,110,82.8Zm1.38-2V76.83a7.34,7.34,0,0,0-1.21-.11,2.18,2.18,0,0,0-.69.1,1,1,0,0,0-.45.3,1.31,1.31,0,0,0-.25.53,3.32,3.32,0,0,0-.08.79v.73a2.6,2.6,0,0,0,.16,1,1,1,0,0,0,.48.54,1.79,1.79,0,0,0,.82.17l.61,0A5.64,5.64,0,0,0,111.38,80.77Z"/><path class="cls-2" d="M118.51,82.8a2.58,2.58,0,0,0,.82-.1.72.72,0,0,0,.42-.37,1.8,1.8,0,0,0,.13-.77v-.07a5.7,5.7,0,0,1-.59.09,5.58,5.58,0,0,1-.63,0,2.16,2.16,0,0,1-2.42-2.46v-.73a3.14,3.14,0,0,1,.27-1.38,1.72,1.72,0,0,1,.81-.81,3,3,0,0,1,1.35-.27,9.51,9.51,0,0,1,1.94.23.35.35,0,0,1,.18.07.23.23,0,0,1,0,.16v5.12a1.8,1.8,0,0,1-.59,1.52,2.86,2.86,0,0,1-1.75.45,4.3,4.3,0,0,1-1.05-.12,3.31,3.31,0,0,1-.73-.25.26.26,0,0,1-.15-.23v-.33a.15.15,0,0,1,.07-.13.19.19,0,0,1,.18,0q.55.2.86.27A3.49,3.49,0,0,0,118.51,82.8Zm1.38-2V76.83a7.34,7.34,0,0,0-1.21-.11,2.18,2.18,0,0,0-.69.1,1,1,0,0,0-.45.3,1.31,1.31,0,0,0-.25.53,3.32,3.32,0,0,0-.08.79v.73a2.6,2.6,0,0,0,.16,1,1,1,0,0,0,.48.54,1.79,1.79,0,0,0,.82.17l.61,0A5.64,5.64,0,0,0,119.88,80.77Z"/><path class="cls-2" d="M123.21,75a.19.19,0,0,1-.06.14.23.23,0,0,1-.15.06h-.55a.22.22,0,0,1-.15-.06.19.19,0,0,1-.06-.14v-.8a.19.19,0,0,1,.06-.14.22.22,0,0,1,.16-.06H123a.23.23,0,0,1,.16.05.19.19,0,0,1,.06.15Zm0,6.39a.18.18,0,0,1-.06.14.23.23,0,0,1-.15.06h-.52a.22.22,0,0,1-.15-.06.18.18,0,0,1-.07-.14v-5.1a.18.18,0,0,1,.06-.14.22.22,0,0,1,.15-.06H123a.23.23,0,0,1,.16.05.19.19,0,0,1,.06.15Z"/><path class="cls-2" d="M128.78,81.17a.2.2,0,0,1-.16.22,7.06,7.06,0,0,1-.86.17,7.33,7.33,0,0,1-1,.06,3.23,3.23,0,0,1-1.82-.39,1.44,1.44,0,0,1-.55-1.26v-.09a1.36,1.36,0,0,1,1.09-1.45,5.43,5.43,0,0,1,1.52-.17h.81v-.4a1.16,1.16,0,0,0-.26-.87,1.32,1.32,0,0,0-.9-.24,5,5,0,0,0-.85.06q-.35.06-.81.19a.23.23,0,0,1-.18,0,.13.13,0,0,1-.07-.12v-.39q0-.12.15-.18a4.82,4.82,0,0,1,.74-.21,4.63,4.63,0,0,1,1-.11q2.12,0,2.12,1.88Zm-1-.33V78.9H127a5.17,5.17,0,0,0-.82.05,1.3,1.3,0,0,0-.49.17.66.66,0,0,0-.26.3,1.17,1.17,0,0,0-.08.46V80a1.16,1.16,0,0,0,.12.56.71.71,0,0,0,.43.31,3,3,0,0,0,.86.1h.42l.36,0Z"/><path class="cls-2" d="M134.74,79.18a2.48,2.48,0,0,1-.62,1.78,2.77,2.77,0,0,1-3.58,0,2.48,2.48,0,0,1-.62-1.78v-.76a2.49,2.49,0,0,1,.62-1.79,2.77,2.77,0,0,1,3.58,0,2.49,2.49,0,0,1,.62,1.79Zm-1,0v-.76a2.33,2.33,0,0,0-.16-.9,1.19,1.19,0,0,0-.48-.57,1.55,1.55,0,0,0-.82-.2,1.34,1.34,0,0,0-1.1.44,1.89,1.89,0,0,0-.36,1.23v.76q0,1.67,1.46,1.67a1.35,1.35,0,0,0,1.1-.43A1.88,1.88,0,0,0,133.79,79.18Z"/><path class="cls-2" d="M143.08,81.22a.23.23,0,0,1,0,.16.33.33,0,0,1-.18.07,11.63,11.63,0,0,1-2,.17,2.65,2.65,0,0,1-1.32-.3,1.85,1.85,0,0,1-.79-.86,3.12,3.12,0,0,1-.26-1.31v-.72a3.44,3.44,0,0,1,.15-1.05,2,2,0,0,1,.44-.76,1.89,1.89,0,0,1,.74-.47,3,3,0,0,1,1-.16,7.46,7.46,0,0,1,1.27.1V74.22a.18.18,0,0,1,.06-.13.2.2,0,0,1,.15-.06h.55a.19.19,0,0,1,.14.05.19.19,0,0,1,.05.14Zm-1-.43v-4a4.55,4.55,0,0,0-.57-.06h-.71a1.29,1.29,0,0,0-1.09.42,2,2,0,0,0-.32,1.26v.72a2.11,2.11,0,0,0,.32,1.28,1.28,1.28,0,0,0,1.09.42C141.17,80.85,141.59,80.83,142.13,80.79Z"/><path class="cls-2" d="M145.45,75a.19.19,0,0,1-.06.14.23.23,0,0,1-.15.06h-.55a.22.22,0,0,1-.15-.06.19.19,0,0,1-.06-.14v-.8a.19.19,0,0,1,.06-.14.22.22,0,0,1,.16-.06h.55a.23.23,0,0,1,.16.05.19.19,0,0,1,.06.15Zm0,6.39a.18.18,0,0,1-.06.14.23.23,0,0,1-.15.06h-.52a.22.22,0,0,1-.15-.06.18.18,0,0,1-.07-.14v-5.1a.18.18,0,0,1,.06-.14.22.22,0,0,1,.15-.06h.52a.23.23,0,0,1,.16.05.19.19,0,0,1,.06.15Zm0,1.64a.17.17,0,0,1-.06.14.23.23,0,0,1-.15.05h-.42a.24.24,0,0,1-.15-.05.17.17,0,0,1-.07-.14v-.81a.19.19,0,0,1,.07-.14.22.22,0,0,1,.15-.06h.42a.21.21,0,0,1,.15.06.19.19,0,0,1,.06.14Z"/><path class="cls-2" d="M149,81.62a2.78,2.78,0,0,1-1-.17,1.92,1.92,0,0,1-.74-.49,2,2,0,0,1-.44-.76,3.28,3.28,0,0,1-.14-1v-.78a3,3,0,0,1,.26-1.3,1.84,1.84,0,0,1,.78-.84A2.57,2.57,0,0,1,149,76a3.37,3.37,0,0,1,.84.1,2.72,2.72,0,0,1,.58.2.41.41,0,0,1,.12.09.2.2,0,0,1,0,.12v.36q0,.21-.25.13a4.29,4.29,0,0,0-1.33-.23q-1.36,0-1.36,1.66v.78a1.91,1.91,0,0,0,.35,1.24,1.24,1.24,0,0,0,1,.42,4.29,4.29,0,0,0,1.33-.23q.25-.08.25.13v.36a.2.2,0,0,1,0,.13.38.38,0,0,1-.12.08,3.09,3.09,0,0,1-.59.2A3.37,3.37,0,0,1,149,81.62Z"/><path class="cls-2" d="M156.21,81.35a.18.18,0,0,1-.07.14.23.23,0,0,1-.15.06h-.52a.22.22,0,0,1-.15-.06.19.19,0,0,1-.06-.14V78.06a1.39,1.39,0,0,0-.3-1,1.19,1.19,0,0,0-.87-.29,4.77,4.77,0,0,0-.74.07,3.22,3.22,0,0,0-.76.21v4.32a.18.18,0,0,1-.07.14.22.22,0,0,1-.15.06h-.53a.2.2,0,0,1-.14-.06.18.18,0,0,1-.06-.14V74.23a.19.19,0,0,1,.06-.14.2.2,0,0,1,.15-.06h.54a.2.2,0,0,1,.15.06.19.19,0,0,1,.06.14v2.06a3.91,3.91,0,0,1,.82-.23,4.86,4.86,0,0,1,.84-.08,2.29,2.29,0,0,1,1,.22,1.52,1.52,0,0,1,.68.69,2.54,2.54,0,0,1,.24,1.18Z"/><path class="cls-1" d="M218.36,60.94,223,49.58l-.72-2-5.06,14.19h0l.11-.31h7.81l-.53-.95S221.85,60.77,218.36,60.94Z"/><polygon points="227.4 61.76 227.29 61.45 227.4 61.76 227.4 61.76"/></g></g></g></svg>