<svg xmlns="http://www.w3.org/2000/svg" viewBox="0 0 274.16 105"><defs><style>.cls-1{fill:none;}.cls-2{fill:#006b97;}.cls-3{fill:#ff6732;}.cls-4{fill:#ff6634;}.cls-5{fill:#fff;}.cls-6{fill:#006c99;}</style></defs><title>dv</title><g id="Badge"><g id="BACKGROUND_2" data-name="BACKGROUND 2"><g id="Layer_1" data-name="Layer 1"><rect class="cls-1" width="274.16" height="105"/><path class="cls-2" d="M106.53,81.82c-.2,0-.22,0-.25.24-.13.88-.56,4.31-.56,4.66s.09.29.49.37c.16,0,.16.1.15.21l0,.22c0,.07,0,.11-.15.11l-1.48,0-1.23,0c-.15,0-.13-.09-.12-.17l0-.2c0-.12,0-.13.34-.19s.34-.21.42-.81c.16-1.17.35-2.5.47-3.53,0-.14.08-.7.08-.8s0-.11-.15-.11h-.49c-.3,0-.5,0-.66.51s-.19.37-.27.37h-.3c-.13,0-.12-.08-.11-.22l.09-1.28c0-.21.06-.22.13-.22s.38.07,3.11.07c1.92,0,2.12-.07,2.28-.07s.07,0,.07.08a1,1,0,0,1,0,.13l-.23,1.32c0,.1,0,.18-.16.18h-.25c-.13,0-.21,0-.22-.26,0-.43-.13-.62-.51-.62Z"/><path class="cls-2" d="M109,81.14c0-.08,0-.11.15-.11l1.43,0,1.29,0c.14,0,.13.08.12.17l0,.2c0,.12,0,.13-.36.19s-.33.22-.39.65l-.15,1c0,.07-.07.47-.07.51s.09.14.38.14h1.69c.24,0,.29,0,.34-.4l.11-.92c0-.32.06-.56.06-.66s-.07-.3-.48-.38c-.15,0-.17-.09-.16-.21l0-.22c0-.08,0-.11.15-.11l1.45,0,1.25,0c.15,0,.14.08.13.17l0,.2c0,.12,0,.12-.35.19s-.34.13-.39.65-.24,1.67-.32,2.31c0,.38-.23,2-.23,2.19s.07.29.48.37c.17,0,.17.09.15.21l0,.22c0,.07,0,.11-.14.11l-1.45,0-1.28,0c-.15,0-.13-.1-.12-.17l0-.2c0-.12,0-.12.35-.19s.32-.15.39-.65l.21-1.46,0-.22c0-.14-.1-.16-.24-.16h-1.81c-.26,0-.3,0-.32.22,0,.43-.16,1.37-.19,1.68l0,.23c0,.21.08.3.48.37.17,0,.17.09.16.21l0,.22c0,.07,0,.11-.15.11l-1.45,0-1.27,0c-.15,0-.13-.1-.12-.17l0-.2c0-.12,0-.13.35-.19s.33-.12.46-1.16l.35-2.59c.13-1.14.14-1.24.14-1.39s-.07-.3-.48-.38c-.16,0-.18-.08-.16-.21Z"/><path class="cls-2" d="M117.87,85.42a.29.29,0,0,0-.33.2c-.34.73-.39.84-.45,1a.57.57,0,0,0,0,.23c0,.24.28.28.5.31s.17.08.16.2l0,.14c0,.11,0,.16-.2.16l-.93,0-.89,0c-.16,0-.15-.07-.14-.18l0-.16c0-.08,0-.11.12-.16.25-.13.33-.22.56-.67.59-1.12,2.17-4.45,2.51-5.19.09-.19.15-.2.41-.22l1-.14.21,0c.1,0,.15.09.17.22s.11.94.13,1.09c.11.82.56,4.26.72,4.64a.45.45,0,0,0,.35.28c.21,0,.19.1.18.21l0,.19c0,.09-.07.12-.2.12l-.93,0-1.55,0c-.14,0-.13-.07-.12-.16l0-.18c0-.12,0-.13.22-.2s.38-.14.38-.41c0-.1-.1-.83-.12-1s-.07-.3-.34-.3Zm1.43-.67c.13,0,.22,0,.19-.28L119.32,83c0-.12-.07-.73-.07-.87s0-.1,0-.1-.06.07-.1.17l-1,2.28a.4.4,0,0,0,0,.15c0,.07.06.08.14.08Z"/><path class="cls-2" d="M126,81.39c0,.12,0,.13-.35.19s-.34.15-.44.88c0,.26-.51,3.85-.51,4.27,0,.22.1.29.48.37.17,0,.17.1.16.21l0,.22c0,.07,0,.11-.14.11l-1.44,0-1.27,0c-.15,0-.13-.1-.12-.17l0-.2c0-.12,0-.12.34-.19s.33-.09.47-1.16c.09-.71.49-3.49.49-4,0-.22-.09-.29-.48-.37-.17,0-.18-.09-.16-.21l0-.22c0-.07,0-.11.15-.11s.9,0,1.43,0c.78,0,1.08,0,1.28,0s.13.09.12.17Z"/><path class="cls-2" d="M130.71,82.27c0,.11,0,.19-.17.19h-.23c-.12,0-.16-.07-.19-.27-.09-.55-.69-.62-1-.62a.92.92,0,0,0-1,.84c0,.48.34.73,1.39,1.53a2.26,2.26,0,0,1,1.15,1.78c0,.51-.37,2-2.64,2-.94,0-2-.23-2-.61a1.17,1.17,0,0,1,0-.18l.18-.75c0-.13.07-.18.19-.18h.21c.14,0,.15,0,.22.31a.67.67,0,0,0,.29.48,1.61,1.61,0,0,0,.86.22c1,0,1.17-.52,1.17-.87s-.1-.56-.77-1.07c-1.23-.94-1.68-1.29-1.68-2.2s.68-2,2.62-2a4.18,4.18,0,0,1,1.53.24.2.2,0,0,1,.14.19.82.82,0,0,1,0,.21Z"/><path class="cls-2" d="M138.76,83.87a4.12,4.12,0,0,1-1.2,2.89,4.07,4.07,0,0,1-2.76,1,3.1,3.1,0,0,1-3.41-3.14,3.78,3.78,0,0,1,4-3.75A3.1,3.1,0,0,1,138.76,83.87Zm-5.65.78c0,1.29.7,2.41,1.74,2.41,1.2,0,2.2-1.46,2.2-3.12,0-1.3-.64-2.37-1.72-2.37C134,81.58,133.11,83.13,133.11,84.65Z"/><path class="cls-2" d="M139.79,81.14c0-.08,0-.11.16-.11l1.31,0H142c.1,0,.12,0,.27.25l.65,1c.3.46,1.66,2.48,1.93,2.9,0,0,.14.21.17.21s.07-.07.1-.41c.08-.85.12-1.19.24-2.22,0-.38.08-.77.08-.9s0-.22-.66-.37c-.16,0-.15-.1-.13-.21l0-.2c0-.07,0-.11.14-.11s.68,0,1.24,0c.35,0,.76,0,.88,0s.11,0,.1.11l0,.22c0,.14,0,.15-.25.22-.38.12-.39.12-.52,1-.16,1.12-.59,4.2-.63,4.71,0,.29-.1.35-.2.38l-.26.12a.79.79,0,0,1-.25.07c-.11,0-.21-.07-.39-.37-.5-.74-3.15-4.61-3.17-4.64s-.1-.16-.12-.16-.07.22-.07.28c-.07.59-.4,3.42-.4,3.73s.1.29.48.37c.17,0,.17.1.15.21l0,.22c0,.07,0,.11-.14.11l-1,0-.9,0c-.15,0-.13-.1-.12-.17l0-.2c0-.12,0-.12.35-.19s.32-.09.47-1.16.46-3.54.48-4v0c0-.22-.08-.3-.48-.38-.17,0-.17-.09-.16-.21Z"/><path class="cls-3" d="M151.5,82.27c0,.11,0,.19-.17.19h-.23c-.12,0-.16-.07-.19-.27-.09-.55-.69-.62-1-.62a.92.92,0,0,0-1,.84c0,.48.34.73,1.39,1.53a2.26,2.26,0,0,1,1.15,1.78c0,.51-.37,2-2.64,2-.94,0-2-.23-2-.61a1.17,1.17,0,0,1,0-.18l.18-.75c0-.13.07-.18.19-.18h.21c.14,0,.15,0,.22.31a.67.67,0,0,0,.29.48,1.61,1.61,0,0,0,.86.22c1,0,1.17-.52,1.17-.87s-.1-.56-.77-1.07c-1.23-.94-1.68-1.29-1.68-2.2s.68-2,2.62-2a4.18,4.18,0,0,1,1.53.24.2.2,0,0,1,.14.19.81.81,0,0,1,0,.21Z"/><path class="cls-3" d="M159.55,83.87a4.12,4.12,0,0,1-1.2,2.89,4.07,4.07,0,0,1-2.76,1,3.1,3.1,0,0,1-3.41-3.14,3.78,3.78,0,0,1,4-3.75A3.1,3.1,0,0,1,159.55,83.87Zm-5.65.78c0,1.29.7,2.41,1.74,2.41,1.2,0,2.2-1.46,2.2-3.12,0-1.3-.64-2.37-1.72-2.37C154.8,81.58,153.9,83.13,153.9,84.65Z"/><path class="cls-3" d="M165.11,82.49c0,.2,0,.22-.18.22h-.24c-.14,0-.15,0-.2-.31-.09-.48-.26-.55-.66-.55h-.74c-.16,0-.22,0-.24.23l-.2,1.53c0,.26,0,.29.35.29l1.34,0,.52,0s.1,0,.1.11a1.29,1.29,0,0,1,0,.19l-.07.34c-.07.25-.12.28-.24.28l-.89,0-1,0c-.17,0-.22.07-.22.19l-.13,1.19c0,.33-.07.6-.07.67,0,.23.09.25.68.37.18,0,.17.13.15.24l0,.18c0,.08,0,.11-.16.11l-1.62,0-1.3,0c-.15,0-.13-.1-.12-.17l0-.2c0-.12.06-.12.35-.19s.33-.11.48-1.16.48-3.68.48-4-.08-.3-.49-.38c-.16,0-.17-.09-.15-.21l0-.22c0-.07,0-.11.15-.11l1.43,0,3,0c.06,0,.13,0,.13.08a1.93,1.93,0,0,1,0,.21Z"/><path class="cls-3" d="M169.6,81.82c-.2,0-.22,0-.25.24-.13.88-.56,4.31-.56,4.66s.09.29.49.37c.16,0,.16.1.15.21l0,.22c0,.07,0,.11-.15.11l-1.48,0-1.23,0c-.15,0-.13-.09-.12-.17l0-.2c0-.12,0-.13.34-.19s.34-.21.42-.81c.16-1.17.35-2.5.47-3.53,0-.14.08-.7.08-.8s0-.11-.15-.11h-.49c-.3,0-.5,0-.66.51s-.19.37-.27.37h-.3c-.13,0-.12-.08-.11-.22l.09-1.28c0-.21.06-.22.13-.22s.38.07,3.11.07c1.92,0,2.12-.07,2.28-.07s.07,0,.07.08a1,1,0,0,1,0,.13l-.23,1.32c0,.1,0,.18-.16.18h-.25c-.13,0-.21,0-.22-.26,0-.43-.13-.62-.51-.62Z"/><path class="cls-2" d="M137.91,17.12a29.55,29.55,0,1,0,29.45,29.55A29.5,29.5,0,0,0,137.91,17.12Zm0,57a27.49,27.49,0,1,1,27.4-27.49A27.44,27.44,0,0,1,137.91,74.16Z"/><polygon class="cls-2" points="104.15 35.91 127.74 35.91 119.61 58.95 96.08 58.95 104.15 35.91"/><polygon class="cls-4" points="129.2 35.91 152.79 35.91 144.66 58.95 121.13 58.95 129.2 35.91"/><polygon class="cls-2" points="154.5 35.91 178.08 35.91 169.96 58.95 146.43 58.95 154.5 35.91"/><polygon class="cls-4" points="154.5 35.91 178.08 35.91 173.98 47.55 150.4 47.55 154.5 35.91"/><path class="cls-5" d="M167.37,39.2c-3.69-.07-8.78-.13-8.78-.13l-1.17,3s.56-.13.39.75-3.36,9.1-3.36,9.1-.13.62-.91.42l-1,3.13h9.43a5.94,5.94,0,0,0,4.57-2.87c1.66-2.77,3.88-10.15,3.88-10.15S171.05,39.27,167.37,39.2Zm-2.64,4.43c0,.13-2,5.12-2.47,6.65s-1.12,1.63-1.35,1.73a3.18,3.18,0,0,1-1,0l3.13-9.36a1.48,1.48,0,0,1,1.14,0A.7.7,0,0,1,164.72,43.64Z"/><path class="cls-6" d="M131.22,35.55c-17.57,10.94-32.73,28.11-29.5,33.77s25.05-.47,42.62-11.4c17.75-11,33-28.26,29.76-33.91S148.76,24.62,131.22,35.55Zm13,21.78c-17.58,10.94-35.57,16.16-38.8,10.51s9.47-19.45,27-30.39,35.74-16.55,39-10.89S161.93,46.29,144.19,57.33Z"/><polygon class="cls-4" points="104.15 35.91 127.74 35.91 123.61 47.55 100.06 47.55 104.15 35.91"/><path class="cls-5" d="M105.07,46.67h3.88s1-3.07,1.27-3.39,1.11-.88.65.29-3.1,8.12-3.1,8.12a3.12,3.12,0,0,1-1.08,1.21l-1,2.94h6.56l1-3.2s-.39-.1-.39-.29,3.33-9.49,3.33-9.49.91-.2.29,1.37l-.82,2.45h3.78l2.71-7.31-14.19-.16Z"/><polygon class="cls-2" points="129.2 35.91 152.79 35.91 148.69 47.55 125.11 47.55 129.2 35.91"/><path class="cls-5" d="M139.28,44.64h4.84l1.54-3.89a8.65,8.65,0,0,0-3.94-1.59c-1.79,0-7-.93-9.17,4.31s2,5.26,2.91,5.58,1.59.37,1.64,1.27a2.25,2.25,0,0,1-.88,1.88,1,1,0,0,1-1.1.15c-.22-.15-.73-.91.34-2.54l-5-.15-1.66,4.48s1.32,2.81,7.75,1.76,6.7-6.58,6.58-7.58A3.13,3.13,0,0,0,140,45.5c-2.28-.1-2.28-1.25-2.25-1.59s.27-1.57,1.44-1.42S139.28,44.64,139.28,44.64Z"/></g></g></g></svg>