<?xml version="1.0" encoding="utf-8"?>
<!-- Generator: Adobe Illustrator 24.0.0, SVG Export Plug-In . SVG Version: 6.00 Build 0)  -->
<svg version="1.1" id="Layer_1" xmlns="http://www.w3.org/2000/svg" xmlns:xlink="http://www.w3.org/1999/xlink" x="0px" y="0px"
	 viewBox="0 0 274.2 105" style="enable-background:new 0 0 274.2 105;" xml:space="preserve">
<style type="text/css">
	.st0{fill:#2A2B2A;}
	.st1{fill:#ED6F25;}
</style>
<title>4</title>
<g>
	<path class="st0" d="M118.7,43.7h11.5v4.1h-7v2.6h5.5v4h-5.5v2.4h7.6V61h-12.1V43.7z"/>
	<path class="st0" d="M144.8,49.1v12h-4.1v-1.1h0c-0.7,0.9-1.7,1.4-3.1,1.4c-0.8,0-1.6-0.2-2.3-0.5c-0.7-0.3-1.3-0.7-1.8-1.3
		c-0.5-0.5-0.9-1.2-1.1-2c-0.3-0.8-0.4-1.6-0.4-2.5c0-0.9,0.1-1.7,0.4-2.5c0.3-0.8,0.6-1.4,1.1-2c0.5-0.5,1-1,1.7-1.3
		c0.7-0.3,1.3-0.5,2.1-0.5c1.2,0,2.3,0.5,3.1,1.4h0v-1.2H144.8z M140,56.8c0.4-0.4,0.6-1,0.6-1.7c0-0.7-0.2-1.3-0.6-1.7
		c-0.4-0.4-0.9-0.7-1.5-0.7c-0.6,0-1.1,0.2-1.5,0.7c-0.4,0.4-0.6,1-0.6,1.7c0,0.7,0.2,1.3,0.6,1.7c0.4,0.4,0.9,0.7,1.5,0.7
		C139.1,57.5,139.6,57.3,140,56.8z"/>
	<path class="st0" d="M146.1,59.5l2-2.7c1,0.9,2,1.4,3,1.4c0.6,0,0.9-0.2,0.9-0.5c0-0.1,0-0.2-0.1-0.3c-0.1-0.1-0.2-0.2-0.5-0.3
		c-0.2-0.1-0.6-0.2-1.1-0.4c-0.4-0.1-0.8-0.3-1.2-0.4s-0.7-0.3-1-0.6c-0.3-0.2-0.6-0.5-0.8-0.7c-0.2-0.3-0.4-0.6-0.5-1
		c-0.1-0.4-0.2-0.8-0.2-1.2c0-0.6,0.1-1.2,0.4-1.7c0.2-0.5,0.6-0.9,1-1.3c0.4-0.3,0.9-0.6,1.5-0.8c0.6-0.2,1.1-0.3,1.8-0.3
		c0.6,0,1.2,0.1,1.8,0.2c0.5,0.1,1,0.3,1.5,0.5c0.4,0.2,0.9,0.5,1.4,0.8l-2,2.9c-0.4-0.4-0.8-0.7-1.3-0.9c-0.5-0.2-0.9-0.3-1.3-0.3
		c-0.2,0-0.4,0-0.5,0.1c-0.1,0.1-0.2,0.2-0.2,0.4c0,0.1,0.1,0.3,0.3,0.4c0.2,0.1,0.6,0.3,1.2,0.5c0.6,0.2,1.1,0.4,1.5,0.5
		c0.4,0.2,0.8,0.4,1.1,0.6c0.4,0.2,0.6,0.5,0.8,0.7c0.2,0.3,0.4,0.6,0.5,0.9c0.1,0.4,0.2,0.8,0.2,1.2c0,0.6-0.1,1.1-0.3,1.6
		s-0.5,0.9-0.9,1.3c-0.4,0.4-0.9,0.6-1.6,0.8c-0.6,0.2-1.4,0.3-2.2,0.3C149,61.3,147.4,60.7,146.1,59.5z"/>
	<path class="st0" d="M169.2,49.1l-6.1,16.8h-4.2l2-5.7l-4.6-11.1h4.5l2,5.7h0l1.9-5.7H169.2z"/>
	<path class="st1" d="M176.8,61c-0.8-0.2-1.5-0.4-2.1-0.8c-0.7-0.3-1.3-0.8-1.9-1.3c-0.6-0.5-1-1.1-1.4-1.7
		c-0.4-0.6-0.7-1.4-0.9-2.2c-0.2-0.8-0.3-1.7-0.3-2.7c0-0.8,0.1-1.6,0.3-2.4c0.2-0.8,0.4-1.5,0.8-2.1c0.3-0.7,0.8-1.3,1.3-1.8
		c0.5-0.5,1.1-1,1.8-1.4c0.7-0.4,1.4-0.7,2.2-0.9c0.8-0.2,1.7-0.3,2.7-0.3c1.3,0,2.5,0.3,3.8,0.8s2.4,1.4,3.3,2.5l-3.4,2.9
		c-0.2-0.2-0.4-0.4-0.7-0.6c-0.2-0.2-0.5-0.4-0.8-0.6c-0.3-0.2-0.7-0.3-1-0.4c-0.4-0.1-0.8-0.2-1.2-0.2c-0.4,0-0.8,0.1-1.3,0.2
		c-0.4,0.1-0.8,0.3-1.1,0.6c-0.4,0.3-0.7,0.6-0.9,0.9c-0.3,0.4-0.5,0.8-0.6,1.3c-0.2,0.5-0.2,1-0.2,1.6c0,0.6,0.1,1.2,0.3,1.7
		c0.2,0.5,0.5,1,0.8,1.4c0.4,0.4,0.8,0.7,1.3,1s1.1,0.4,1.7,0.4c0.7,0,1.4-0.2,2-0.5c0.7-0.3,1.2-0.8,1.7-1.3l3.4,2.9
		c-0.8,1-1.8,1.8-3,2.4c-1.2,0.6-2.6,0.9-4,0.9C178.3,61.3,177.5,61.2,176.8,61z"/>
	<path class="st1" d="M197.8,58.2h-5.6l-0.9,2.8h-4.9l6.3-17.4h4.4l6.3,17.4h-4.9L197.8,58.2z M196.6,54.3l-1.6-5h0l-1.6,5H196.6z"
		/>
	<g id="XMLID_14_">
		<path id="XMLID_15_" class="st0" d="M90.7,39.1c4,0,7.7,1.8,10.2,4.5H97c-1.8-1.3-4.1-2.1-6.5-2.1c-5.5,0-10.1,3.9-11.1,9.1
			c-0.2,1.1,0.6,2.1,1.8,2.1h0c0.9,0,1.6-0.6,1.8-1.5c0.7-3.5,3.8-6.2,7.5-6.2c1.7,0,3.3,0.6,4.5,1.5h4.9h3h7c-0.3-1-0.8-2.1-1.2-3
			c-3.3-6.5-10.2-11-18-11c-9.8,0-18,7-19.8,16.4c-0.4,2,1.1,3.9,3.2,3.9h0c1.6,0,2.9-1.1,3.2-2.6C78.5,43.8,84,39.1,90.7,39.1z"/>
	</g>
	<g>
		<g id="XMLID_12_">
			<path id="XMLID_13_" class="st1" d="M90.8,66.5c-4,0-7.7-1.8-10.2-4.5h3.9c1.8,1.3,4.1,2.1,6.5,2.1c5.5,0,10.1-3.9,11.1-9.1
				c0.2-1.1-0.6-2.1-1.8-2.1h0c-0.9,0-1.6,0.6-1.8,1.5c-0.7,3.5-3.8,6.2-7.5,6.2c-1.7,0-3.3-0.6-4.5-1.5h-4.9h-3h-7
				c0.3,1,0.8,2.1,1.2,3c3.3,6.5,10.2,11,18,11c9.8,0,18-7,19.8-16.4c0.4-2-1.1-3.9-3.2-3.9h0c-1.6,0-2.9,1.1-3.2,2.6
				C103.1,61.8,97.5,66.5,90.8,66.5z"/>
		</g>
		<path id="XMLID_11_" class="st1" d="M92.9,50c0-1.2-1.1-2.2-2.3-2.1c-0.9,0.1-1.7,0.9-1.8,1.8c-0.1,0.9,0.3,1.7,1.1,2.1v4.8
			c0,0.6,0.5,1,1,1l0,0c0.6,0,1-0.5,1-1v-4.8C92.4,51.5,92.9,50.8,92.9,50z"/>
	</g>
</g>
</svg>
