<svg id="Layer_1" data-name="Layer 1" xmlns="http://www.w3.org/2000/svg" xmlns:xlink="http://www.w3.org/1999/xlink" viewBox="0 0 274.16 105"><defs><style>.cls-1{fill:none;}.cls-2{fill:#c32026;}.cls-3{fill:#a61e22;}.cls-4{fill:#fff;}.cls-5{fill:#231f20;}.cls-6{font-size:13.54px;fill:#010101;font-family:UVNGioMay, UVN Gio May;letter-spacing:0.26em;}.cls-7{letter-spacing:0.19em;}.cls-8{letter-spacing:0.26em;}.cls-9{letter-spacing:0.28em;}.cls-10{clip-path:url(#clip-path);}</style><clipPath id="clip-path"><circle class="cls-1" cx="69.02" cy="52.5" r="31.2"/></clipPath></defs><title>9</title><circle class="cls-2" cx="69.02" cy="52.5" r="31.2"/><path class="cls-3" d="M100.23,52.5A31.2,31.2,0,0,1,69,83.7V21.3A31.21,31.21,0,0,1,100.23,52.5Z"/><rect class="cls-4" x="47.61" y="67.11" width="8.65" height="2.8" rx="1.4" ry="1.4"/><rect class="cls-4" x="47.61" y="71.05" width="12.67" height="2.8" rx="1.4" ry="1.4"/><polygon class="cls-5" points="127.6 40.4 127.6 36.46 113.99 36.46 109.48 36.46 109.48 40.4 109.48 46.06 106.75 46.06 106.75 50.01 109.48 50.01 109.48 56.3 109.48 58.27 109.48 60.24 127.6 60.24 127.6 56.3 113.99 56.3 113.99 50.01 123.66 50.01 123.66 46.06 113.99 46.06 113.99 40.4 127.6 40.4"/><polygon class="cls-5" points="150.75 40.4 150.75 36.52 137.14 36.52 132.69 36.52 132.69 40.4 132.69 46.13 129.89 46.13 129.89 50.01 132.69 50.01 132.69 60.24 137.14 60.24 137.14 50.01 146.74 50.01 146.74 46.13 137.14 46.13 137.14 40.4 150.75 40.4"/><polygon class="cls-5" points="166.51 36.52 160.85 45.74 155.32 36.46 150.24 36.52 158.57 49.81 158.57 60.24 163.15 60.24 163.15 49.81 171.66 36.52 166.51 36.52"/><rect class="cls-5" x="173.83" y="46.06" width="7.82" height="4.01"/><path class="cls-5" d="M221.18,36.54h-10v3.91h5.53l-8.4,19.7h4.91l1.86-4.44,9.63,0,1.81,4.39h4.91Zm-5,15.21,3.7-8.49,3.65,8.49Z"/><path class="cls-5" d="M203.54,53.46a8.71,8.71,0,0,1-6.73,3.08,8.26,8.26,0,0,1-8.52-8,8.26,8.26,0,0,1,8.52-8,8.72,8.72,0,0,1,6.71,3.07L206.79,41a13.2,13.2,0,0,0-10-4.44c-7.11,0-12.88,5.39-12.88,12s5.76,12.05,12.88,12.05a13.17,13.17,0,0,0,10.2-4.7Z"/><path class="cls-4" d="M86.65,60.24C85.13,63.1,70.06,77,70.06,77V57.69a4.3,4.3,0,0,0,2.87-3.37h0c0-.11,0-.22,0-.33s0-.12,0-.19a.65.65,0,0,0,0-.09s0-.06,0-.08,0-.13,0-.2a4.94,4.94,0,0,0-.08-.9,4.6,4.6,0,0,0-.16-.63l-.07-.2a3.93,3.93,0,0,0-.17-.39c-.06-.13-.13-.25-.2-.37l-.11-.17-.12-.17L72,50.44l-.12-.14a3.71,3.71,0,0,0-.43-.42l-.26-.2A3.78,3.78,0,0,0,68.37,49l-.29.06-.28.08-.21.08-.2.09-.19.1-.16.09-.23.15a4.53,4.53,0,0,0-1.9,3.75,4.86,4.86,0,0,0,.13,1.1l0,.14h0a4.33,4.33,0,0,0,2.37,2.89l.41.1V77C61.28,71.69,51.65,61.2,50,58s-1-7.92.67-11.16S66.62,30,67.86,28.77a1.37,1.37,0,0,1,2.19,0s12.59,12.4,16.6,17S88.18,57.38,86.65,60.24Z"/><text class="cls-6" transform="translate(110.12 72.45)">ww<tspan class="cls-7" x="27.66" y="0">w</tspan><tspan class="cls-8" x="40.51" y="0">.e</tspan><tspan class="cls-9" x="58.15" y="0">f</tspan><tspan class="cls-8" x="66.2" y="0">yca.vn</tspan></text><g class="cls-10"><rect class="cls-4" x="47.61" y="74.8" width="20.25" height="2.8"/></g><path class="cls-4" d="M67.81,49.17l.28-.08Z"/><path class="cls-4" d="M71.14,49.68A3.78,3.78,0,0,0,68.37,49a3.61,3.61,0,0,1,.6,0A3.75,3.75,0,0,1,71.14,49.68Z"/><path class="cls-4" d="M72.93,54.32a4.31,4.31,0,0,1-2.87,3.4v0A4.3,4.3,0,0,0,72.93,54.32Z"/></svg>