<?xml version="1.0" encoding="utf-8"?>
<!-- Generator: Adobe Illustrator 22.0.1, SVG Export Plug-In . SVG Version: 6.00 Build 0)  -->
<svg version="1.1" id="Layer_1" xmlns="http://www.w3.org/2000/svg" xmlns:xlink="http://www.w3.org/1999/xlink" x="0px" y="0px"
	 viewBox="0 0 22.3 22.3" style="enable-background:new 0 0 22.3 22.3;" xml:space="preserve">
<style type="text/css">
	.st0{fill:#FFFFFF;}
</style>
<title>fb</title>
<g id="Layer_2_1_">
	<g id="Badge">
		<g id="BACKGROUND_2">
			<g id="Layer_1-2">
				<path class="st0" d="M11.1,22.3C5,22.3,0,17.3,0,11.1S5,0,11.2,0c6.2,0,11.1,5,11.1,11.1C22.3,17.3,17.3,22.3,11.1,22.3z
					 M11.1,1.1C5.6,1.1,1.1,5.6,1.1,11.2c0,5.6,4.5,10.1,10.1,10.1c5.6,0,10.1-4.5,10.1-10.1C21.2,5.6,16.7,1.1,11.1,1.1z"/>
				<path class="st0" d="M14.4,11.8l0.3-2.5h-2.5V7.7c0-0.7,0.2-1.2,1.2-1.2h1.3V4.3c-0.6-0.1-1.3-0.1-1.9-0.1
					C11.2,4,9.8,5.3,9.7,6.9c0,0.2,0,0.3,0,0.5v1.8H7.5v2.5h2.2v6.4h2.6v-6.4H14.4z"/>
			</g>
		</g>
	</g>
</g>
</svg>
