<?xml version="1.0" encoding="utf-8"?>
<!-- Generator: Adobe Illustrator 22.0.1, SVG Export Plug-In . SVG Version: 6.00 Build 0)  -->
<svg version="1.1" id="Layer_1" xmlns="http://www.w3.org/2000/svg" xmlns:xlink="http://www.w3.org/1999/xlink" x="0px" y="0px"
	 viewBox="0 0 274.2 105" style="enable-background:new 0 0 274.2 105;" xml:space="preserve">
<style type="text/css">
	.st0{fill:#00091C;}
	.st1{fill:#99B2DD;}
	.st2{fill:url(#SVGID_1_);}
	.st3{fill:url(#SVGID_2_);}
	.st4{fill:url(#SVGID_3_);}
</style>
<rect class="st0" width="273.9" height="105"/>
<g>
	<path class="st1" d="M24.7,38.8h6.7c0.4,0,0.6,0.5,0.4,0.8l-3.3,4.6c-0.1,0.1-0.3,0.2-0.4,0.2h-6c-0.4,0-0.5-0.3-0.5-0.6l2.6-4.6
		C24.3,39,24.5,38.8,24.7,38.8z"/>
	<g>
		
			<linearGradient id="SVGID_1_" gradientUnits="userSpaceOnUse" x1="38.3364" y1="725.7595" x2="55.7881" y2="708.3077" gradientTransform="matrix(1 0 0 1 0 -675.6063)">
			<stop  offset="0" style="stop-color:#A26923"/>
			<stop  offset="1" style="stop-color:#D29D50"/>
		</linearGradient>
		<path class="st2" d="M35.3,38.8h26.4c0.4,0,0.6,0.5,0.4,0.8l-3.3,4.6c-0.1,0.1-0.3,0.2-0.4,0.2H32.7c-0.4,0-0.5-0.3-0.5-0.6
			l2.6-4.6C35,39,35.2,38.8,35.3,38.8z"/>
		
			<linearGradient id="SVGID_2_" gradientUnits="userSpaceOnUse" x1="37.0067" y1="733.4469" x2="50.7261" y2="719.7275" gradientTransform="matrix(1 0 0 1 0 -675.6063)">
			<stop  offset="0" style="stop-color:#A26923"/>
			<stop  offset="1" style="stop-color:#D29D50"/>
		</linearGradient>
		<path class="st3" d="M33.2,53.9h19.3c0.2,0,0.3-0.1,0.4-0.2l2.6-4.2c0.3-0.4,0-0.7-0.4-0.7H44.6c-1.1,0-0.8-0.4-0.2-1.6l0,0
			c0.3-0.4,0-0.7-0.4-0.7H37c-0.2,0-0.4,0.1-0.5,0.3l-3.7,6.6C32.6,53.4,32.9,53.9,33.2,53.9z"/>
		
			<linearGradient id="SVGID_3_" gradientUnits="userSpaceOnUse" x1="39.0389" y1="742.1955" x2="49.7921" y2="731.4423" gradientTransform="matrix(1 0 0 1 0 -675.6063)">
			<stop  offset="0" style="stop-color:#A26923"/>
			<stop  offset="1" style="stop-color:#D29D50"/>
		</linearGradient>
		<path class="st4" d="M41.7,57.7c-0.2-0.5,0.1-0.9,0.6-0.9h8.4c0.2,0,0.2,0.1,0.1,0.3L43,69.4c-0.3,0.5-0.9,0.4-1.2-0.1L41.7,57.7z
			"/>
	</g>
	<g>
		<path class="st1" d="M75.4,47.1l-0.7,6.4h18L92.1,59h-18l-0.8,7.9h-6.5l2.7-25.1h26.6l-0.5,5.4H75.4L75.4,47.1z"/>
		<path class="st1" d="M115.9,61.5h-15.1l-3.3,5.4h-7.1l15.7-25.2h8.8l10.3,25.2h-7.1L115.9,61.5z M113.9,56.7l-4-10.2l-6.2,10.2
			H113.9z"/>
		<path class="st1" d="M131.8,58.3c-0.3,2.6,1.7,3.9,10,3.9c6.8,0,8.9-0.7,9.1-2.7c0.3-2.1-1.2-2.5-9.3-2.8
			c-10.9-0.5-15.1-2.2-14.4-7.9c0.5-5.6,6.4-7.3,15.9-7.3c9.5,0,15,2.4,14.3,8.6h-6.5c0.3-2.7-2.4-3.5-9.1-3.5
			c-6.4,0-7.9,0.6-8.1,2.5c-0.2,1.9,1.3,2.3,8.6,2.7c9.9,0.5,16,1.1,15.2,7.4c-0.7,6.8-7.2,8-16.5,8c-10.3,0-16.3-1.7-15.5-9
			L131.8,58.3L131.8,58.3z"/>
		<path class="st1" d="M189.5,47.1h-12.2l-2.1,19.7h-6.5l2.1-19.7h-12.2l0.5-5.4h31L189.5,47.1z"/>
	</g>
	<g>
		<path class="st1" d="M206.5,41.4c10,0,14.6,3.8,14.5,11h-6.6c-0.2-4.1-3.1-5.7-8.5-5.7c-6.6,0-9.6,2.4-10.1,7.5
			c-0.5,5.2,2,7.6,8.5,7.6c5.4,0,8.7-1.6,9.8-5.8h6.6c-1.5,7.3-6.8,11.1-16.9,11.1c-11,0-15.3-4.6-14.4-13
			C190.3,45.9,195.5,41.4,206.5,41.4z"/>
		<path class="st1" d="M243.1,61.5H228l-3.3,5.4h-7.1l15.7-25.2h8.8l10.3,25.2h-7.1L243.1,61.5z M241.1,56.7l-4-10.2l-6.2,10.2
			H241.1z"/>
	</g>
</g>
</svg>
