<svg id="Layer_1" data-name="Layer 1" xmlns="http://www.w3.org/2000/svg" viewBox="0 0 274.16 105"><defs><style>.cls-1{fill:#ec4410;}.cls-2{fill:#32981d;}.cls-3{fill:#0d307f;}.cls-4{fill:#fff;}</style></defs><title>7</title><path class="cls-1" d="M112.08,87.06c.84-3.68,1.66-7.28,2.49-10.88q2.24-9.69,4.48-19.38,1.94-8.36,3.89-16.73c.87-3.77,1.61-7.57,2.62-11.29,1.61-5.94,5.58-9.46,11.59-10.69a8.09,8.09,0,0,1,1.61-.14h20.5c-.4,1.73-.77,3.41-1.16,5.09q-2.87,12.36-5.75,24.71-2.23,9.63-4.43,19.27c-.72,3.13-1.32,6.29-2.2,9.36-1.68,5.86-5.64,9.35-11.61,10.54a8.63,8.63,0,0,1-1.67.13H112.08ZM127.7,40.91l-4.89,23c.23,0,.41,0,.58,0a6.14,6.14,0,0,0,5.17-4.5q.5-2.16.91-4.33c.08-.46.26-.58.71-.58,3.79,0,7.57,0,11.36,0a6.06,6.06,0,0,0,5.93-4.73c.31-1.37.63-2.74.89-4.11a3.75,3.75,0,0,0-3.88-4.72c-4.31.07-8.62,0-12.92,0Z"/><path class="cls-2" d="M150.07,75.59c.27-1.21.53-2.33.78-3.44Q153.95,58.8,157,45.46c.48-2.06.86-4.16,1.53-6.15A13.93,13.93,0,0,1,169,29.8a13.34,13.34,0,0,1,3.14-.36c6.39,0,12.79,0,19.19,0l.6,0c-.19.87-.37,1.69-.56,2.51l-4.5,19.44c-1,4.49-1.93,9-3.17,13.47C182.07,70.8,178,74.27,172,75.43a12.1,12.1,0,0,1-2.25.15H150.07Zm20.68-29.82L166.9,63.84a4.16,4.16,0,0,0,.53,0,6.08,6.08,0,0,0,5.18-4.39c.59-2.72,1.16-5.45,1.75-8.17.39-1.83.8-3.66,1.21-5.53h.67c2.63,0,5.25,0,7.88,0,.19,0,.52-.18.53-.3a3.78,3.78,0,0,0-1.19-3.61,3.84,3.84,0,0,0-2.55-.92H163.59c-.15,0-.3,0-.45,0a8.94,8.94,0,0,0-.13.94,3.67,3.67,0,0,0,3.71,3.87C168,45.77,169.31,45.76,170.75,45.76Z"/><path class="cls-3" d="M79.39,75.59c.3-1.36.59-2.65.88-3.93Q83.13,59.36,86,47.07a79.5,79.5,0,0,1,1.91-7.84A13.91,13.91,0,0,1,99,29.67a13.57,13.57,0,0,1,2.64-.24c6.34,0,12.67,0,19,0h.65c-.33,1.43-.63,2.78-.94,4.13L116.06,52c-1.09,4.72-2.12,9.45-3.29,14.15a11.65,11.65,0,0,1-3.25,5.32,14,14,0,0,1-8.64,4.11,13.49,13.49,0,0,1-1.5,0h-20Zm7.28-11.73a5.85,5.85,0,0,0,.64,0,6.22,6.22,0,0,0,5.18-4.65c.32-1.41.65-2.81.94-4.23a.61.61,0,0,1,.73-.58c2.7,0,5.41,0,8.11,0a5.75,5.75,0,0,0,3.62-1.17,5.51,5.51,0,0,0,2.33-3.68H94.65c.26-1.14.53-2.17.71-3.22.09-.51.3-.6.76-.6,4,0,8,0,12,0A5.93,5.93,0,0,0,112.48,44a5.08,5.08,0,0,0,1.61-3.06H96.27a6.13,6.13,0,0,0-5.49,4.32c-1.18,5.21-2.32,10.43-3.47,15.65C87.09,61.85,86.89,62.83,86.67,63.86Z"/><path class="cls-3" d="M190.42,75.48a4.3,4.3,0,1,1,.15-8.6,4.3,4.3,0,0,1-.15,8.6Zm3.2-4.28a3.19,3.19,0,1,0-6.36,0,3.22,3.22,0,0,0,3.15,3.37A3.19,3.19,0,0,0,193.62,71.2Z"/><path class="cls-4" d="M127.7,40.91h3.86c4.31,0,8.62,0,12.92,0a3.75,3.75,0,0,1,3.88,4.72c-.26,1.38-.58,2.75-.89,4.11a6.06,6.06,0,0,1-5.93,4.73c-3.79,0-7.57,0-11.36,0-.45,0-.63.12-.71.58q-.4,2.18-.91,4.33a6.14,6.14,0,0,1-5.17,4.5c-.17,0-.34,0-.58,0Zm2.94,8.71h7.12c1.47,0,2.93,0,4.4,0,.19,0,.51-.12.54-.25.29-1.18.53-2.37.79-3.56a1.47,1.47,0,0,0-.23,0H131.86c-.33,0-.43.16-.49.43Z"/><path class="cls-4" d="M170.75,45.76c-1.45,0-2.74,0-4,0A3.67,3.67,0,0,1,163,41.89a8.94,8.94,0,0,1,.13-.94c.15,0,.3,0,.45,0h17.32a3.84,3.84,0,0,1,2.55.92,3.78,3.78,0,0,1,1.19,3.61c0,.12-.35.3-.53.3-2.63,0-5.25,0-7.88,0h-.67c-.41,1.87-.82,3.7-1.21,5.53-.59,2.72-1.16,5.45-1.75,8.17a6.08,6.08,0,0,1-5.18,4.39,4.16,4.16,0,0,1-.53,0Z"/><path class="cls-4" d="M86.67,63.86c.22-1,.42-2,.64-3,1.15-5.22,2.29-10.44,3.47-15.65a6.13,6.13,0,0,1,5.49-4.32h17.82A5.08,5.08,0,0,1,112.48,44a5.93,5.93,0,0,1-4.36,1.79c-4,0-8,0-12,0-.46,0-.68.08-.76.6-.18,1.05-.45,2.09-.71,3.22h13.57a5.51,5.51,0,0,1-2.33,3.68,5.75,5.75,0,0,1-3.62,1.17c-2.7,0-5.41,0-8.11,0a.61.61,0,0,0-.73.58c-.29,1.41-.63,2.82-.94,4.23a6.22,6.22,0,0,1-5.18,4.65A5.85,5.85,0,0,1,86.67,63.86Z"/><path class="cls-1" d="M130.64,49.62l.72-3.45c.06-.27.16-.43.49-.43h11.41a1.47,1.47,0,0,1,.23,0c-.26,1.19-.5,2.38-.79,3.56,0,.12-.35.24-.54.25-1.47,0-2.93,0-4.4,0h-7.12Z"/><path class="cls-3" d="M189.75,71.59v2h-.95V68.8a21.62,21.62,0,0,1,2.58,0,1.17,1.17,0,0,1,1.06,1.3c-.11,1.39-1.08,1.36-1.19,1.42l1.18,2c-.64.18-1.06.06-1.32-.53a7.43,7.43,0,0,0-.71-1.19A.94.94,0,0,0,189.75,71.59Zm0-.84c.4,0,.72,0,1,0a.59.59,0,0,0,.61-.63.56.56,0,0,0-.57-.6c-.35,0-.71,0-1.09,0Z"/></svg>