<svg xmlns="http://www.w3.org/2000/svg" viewBox="0 0 22.31 22.31"><defs><style>.cls-1{opacity:0.5;}.cls-2{fill:#fff;}</style></defs><title>google</title><g id="Layer_2" data-name="Layer 2"><g id="Badge"><g id="BACKGROUND_2" data-name="BACKGROUND 2"><g id="Layer_1-2" data-name="Layer 1"><g class="cls-1"><path class="cls-2" d="M11.15,22.31A11.15,11.15,0,1,1,22.31,11.15,11.17,11.17,0,0,1,11.15,22.31Zm0-21.25A10.09,10.09,0,1,0,21.25,11.15,10.1,10.1,0,0,0,11.15,1.06Z"/></g><path class="cls-2" d="M10.87,5.17a2.3,2.3,0,0,1,.37.29,3.7,3.7,0,0,1,.38.5,3.4,3.4,0,0,1,.32.66,3.14,3.14,0,0,1,.12.89A2.62,2.62,0,0,1,11.65,9a4,4,0,0,1-.41.5c-.16.16-.33.31-.51.47a2.56,2.56,0,0,0-.29.36.8.8,0,0,0-.16.49.63.63,0,0,0,.16.45,3.16,3.16,0,0,0,.26.3l.59.48a5.9,5.9,0,0,1,1,1,2.5,2.5,0,0,1,.41,1.44,2.9,2.9,0,0,1-1.12,2.23,5,5,0,0,1-3.33,1A4.19,4.19,0,0,1,5.49,17a2.11,2.11,0,0,1-.91-1.7,2.44,2.44,0,0,1,.3-1.07,2.56,2.56,0,0,1,1-1,5.4,5.4,0,0,1,1.77-.64,13.12,13.12,0,0,1,1.53-.15,3.27,3.27,0,0,1-.34-.53,1.2,1.2,0,0,1-.17-.65.93.93,0,0,1,.06-.38l.11-.3a5.16,5.16,0,0,1-.56,0,2.67,2.67,0,0,1-2.11-.87,2.6,2.6,0,0,1-.76-1.86A3.16,3.16,0,0,1,6.53,5.5a3.77,3.77,0,0,1,1.54-.79,7.41,7.41,0,0,1,1.48-.16H13l-1.07.63Zm.67,10A1.69,1.69,0,0,0,11.12,14a10.45,10.45,0,0,0-1.43-1.14l-.39,0a4.27,4.27,0,0,0-.68,0,7.23,7.23,0,0,0-1.11.24l-.37.15a2.21,2.21,0,0,0-.49.31,1.83,1.83,0,0,0-.4.52,1.58,1.58,0,0,0-.19.79,1.79,1.79,0,0,0,.83,1.51A3.58,3.58,0,0,0,9,17a3,3,0,0,0,1.87-.54A1.64,1.64,0,0,0,11.55,15.16ZM9.13,10.08a1.61,1.61,0,0,0,1.14-.49,1.73,1.73,0,0,0,.29-.68c0-.23,0-.43,0-.58a4.57,4.57,0,0,0-.52-2.07,2.39,2.39,0,0,0-.65-.82,1.69,1.69,0,0,0-.94-.31,1.53,1.53,0,0,0-1.17.57A2.13,2.13,0,0,0,6.92,7a4.09,4.09,0,0,0,.55,2,2.65,2.65,0,0,0,.69.8A1.51,1.51,0,0,0,9.13,10.08Z"/><polygon class="cls-2" points="17.72 6.44 15.9 6.44 15.9 4.62 15.02 4.62 15.02 6.44 13.2 6.44 13.2 7.32 15.02 7.32 15.02 9.14 15.9 9.14 15.9 7.32 17.72 7.32 17.72 6.44"/></g></g></g></g></svg>