<?xml version="1.0" encoding="utf-8"?>
<!-- Generator: Adobe Illustrator 22.0.1, SVG Export Plug-In . SVG Version: 6.00 Build 0)  -->
<svg version="1.1" id="Layer_1" xmlns="http://www.w3.org/2000/svg" xmlns:xlink="http://www.w3.org/1999/xlink" x="0px" y="0px"
	 viewBox="0 0 274.2 105" style="enable-background:new 0 0 274.2 105;" xml:space="preserve">
<style type="text/css">
	.st0{fill:#F27121;}
	.st1{fill:#FFFFFF;}
	.st2{fill:#F07136;stroke:#F26522;stroke-width:3;stroke-miterlimit:10;}
	.st3{fill:#29266E;}
	.st4{fill:#2D2A6C;}
	.st5{fill:#504D4F;}
</style>
<title>viettel ca</title>
<g id="Layer_2_1_">
	<g id="full">
		<g id="CA">
			<path class="st0" d="M76.2,54c0,17.2-13.9,31.1-31.1,31.1S14,71.1,14,54c0-17.2,13.9-31.1,31.1-31.1c0,0,0,0,0,0
				C62.3,22.9,76.2,36.8,76.2,54"/>
			<path class="st1" d="M73.4,54c0,15.6-12.7,28.3-28.3,28.3S16.8,69.6,16.8,54s12.7-28.3,28.3-28.3c0,0,0,0,0,0
				C60.8,25.7,73.4,38.3,73.4,54"/>
			<path class="st0" d="M69.5,54c0,13.5-10.9,24.4-24.4,24.4S20.7,67.4,20.7,54s10.9-24.4,24.4-24.4c0,0,0,0,0,0
				C58.6,29.5,69.5,40.5,69.5,54"/>
			<path class="st1" d="M27.3,52.7c0,5.6,3.8,10,9.7,10c2.7,0,5.4-1,7.3-3l-1.1-1.3C41.6,60.1,39.3,61,37,61c-4.7,0-7.8-3.7-7.8-8.3
				s3-8,7.7-8c2.1,0,4.2,0.8,5.9,2.1l1-1.4c-1.8-1.8-4.5-2.5-6.9-2.5C31.3,42.9,27.3,47.1,27.3,52.7"/>
			<rect x="53.3" y="44.4" class="st1" width="1.2" height="11.8"/>
			<polygon class="st1" points="47.9,62.1 53.9,45.3 59.9,62.1 61.9,62.1 54.9,42.9 52.9,42.9 45.9,62.1 			"/>
			<polygon class="st1" points="46.5,61.4 61.3,61.4 60.9,60.3 46.9,60.3 			"/>
			<path class="st1" d="M53.9,56.1c0.1,0.6,0.5,1,1,1.2c0.1,0,0.2,0,0.2,0.1c-0.1,0-0.2,0-0.3,0.1c-0.6,0.2-1,0.7-1,1.2
				c-0.1-0.5-0.4-1-0.9-1.2c-0.1,0-0.2-0.1-0.3-0.1C53.3,57.3,53.8,56.8,53.9,56.1 M55.6,57.4c0-1-0.8-1.7-1.7-1.7
				c-1,0-1.7,0.8-1.7,1.7c0,1,0.8,1.7,1.7,1.7c0,0,0,0,0,0C54.9,59.1,55.6,58.3,55.6,57.4"/>
			<path class="st2" d="M192.9,53.4v3.4h-12.8v-3.4H192.9z"/>
			<path class="st3" d="M228.3,69.2c-1.7,0.8-5,1.7-9.2,1.7c-9.9,0-17.3-6.2-17.3-17.6c0-10.9,7.4-18.3,18.3-18.3
				c4.4,0,7.1,0.9,8.3,1.6l-1.1,3.7c-2.2-1-4.6-1.5-7.1-1.4c-8.2,0-13.6,5.2-13.6,14.4c0,8.5,4.9,14,13.4,14c2.8,0,5.6-0.6,7.4-1.4
				L228.3,69.2z"/>
			<path class="st4" d="M240.2,59.4l-3.7,11.2h-4.7l12-35.5h5.5l12.1,35.5h-4.9l-3.8-11.2H240.2z M251.8,55.8l-3.5-10.2
				c-0.8-2.3-1.3-4.4-1.8-6.5h-0.1c-0.5,2.1-1.1,4.3-1.8,6.4l-3.5,10.3L251.8,55.8z"/>
			<path class="st0" d="M128,43.7c3.2,0,6.4,0,9.7,0c0,0.2,0,0.6,0,0.7c-0.4,0.2-0.7,0.4-1.1,0.6c-0.4,0.5-0.4,1.2-0.5,1.8
				c0,6.1,0,12.2,0,18.3c3.3,0,6.6,0,9.8,0c0.5,0,1.1,0,1.5-0.4c0.3-0.4,0.6-0.9,0.7-1.5h0.6c0,2.5,0,5,0,7.5H128c0-0.2,0-0.5,0-0.7
				c0.4-0.3,1-0.4,1.3-0.9c0.4-0.7,0.3-1.4,0.3-2.2c0-6.4,0-12.8,0-19.3c0-0.8,0.1-1.6-0.2-2.3c-0.2-0.6-0.9-0.8-1.4-1.1
				C128,44.2,128,43.9,128,43.7"/>
			<path class="st0" d="M115.1,43.7h9.6c0,0.2,0,0.6,0,0.9c-0.8,0.3-1.6,0.9-1.5,1.8c-0.1,7,0,13.9,0,20.9c0,0.6,0,1.2,0.2,1.8
				c0.2,0.5,0.8,0.7,1.3,1c0,0.3,0,0.6,0,0.9h-9.7c0-0.2,0-0.6,0-0.8c0.5-0.2,0.9-0.5,1.3-0.8c0.2-0.4,0.3-0.9,0.3-1.4
				c0-6.6,0-13.2,0-19.7c0.1-0.8,0-1.5-0.1-2.3c-0.2-0.7-0.9-0.9-1.4-1.2C115.1,44.3,115.1,43.9,115.1,43.7L115.1,43.7z"/>
			<path class="st0" d="M159,43.6c1.8,0,3.5,0,5.3,0c1.5,0,3-0.1,4.5,0.5c3.4,1.3,5.6,4.5,5.6,8.1c0,3.4,0,6.9,0,10.3
				c-0.1,4.1-3.5,7.9-7.6,8.3c-2.5,0.1-4.9,0-7.4,0c-2,0-3.9-0.6-5.4-1.9c-2.1-1.7-3.2-4.2-3.2-6.9c0-3.2,0-6.4,0-9.6
				c0-1.9,0.6-3.8,1.8-5.4C154,45,156.4,43.7,159,43.6z M158.7,50L158.7,50c-1,0.2-1.7,1-1.9,2c-0.1,0.5-0.1,0.9-0.1,1.4
				c0,2.9,0,5.8,0,8.7c0,1.3,1,2.4,2.3,2.5c2.2,0,4.5,0,6.7,0c1.4,0,2.4-1.1,2.4-2.5c0,0,0,0,0,0c0-3.2,0-6.5,0-9.7
				c0-0.9-0.5-1.8-1.3-2.2c-0.9-0.4-1.8-0.2-2.7-0.3C162.4,50,160.5,49.8,158.7,50"/>
			<path class="st4" d="M82.3,34.7c3.5,0,6.9,0,10.4,0v0.9c-0.5,0.2-0.9,0.5-1.2,0.8c-0.2,0.5-0.3,1-0.3,1.5c0,3.3,0,6.6,0,9.8
				c3.9,0,7.9,0,11.8,0c0-3.3,0-6.6,0-9.8c0-0.5,0-1.1-0.4-1.6c-0.4-0.3-0.8-0.6-1.2-0.8c0-0.2,0-0.6,0-0.8c3.5,0,6.9,0,10.4,0v0.8
				c-0.5,0.2-1,0.4-1.3,0.9c-0.2,0.5-0.3,1.1-0.3,1.7c0,9.7,0,19.4,0,29.1c0,0.6,0,1.3,0.3,1.9c0.4,0.4,0.8,0.7,1.3,0.9
				c0,0.2,0,0.6,0,0.8c-3.5,0-6.9,0-10.4,0v-0.9c0.7-0.3,1.6-0.8,1.5-1.7c0.1-6,0-11.9,0-17.9c-3.9,0-7.9,0-11.8,0
				c0,5.7,0,11.4,0,17.1c-0.1,0.6,0.1,1.2,0.3,1.7c0.3,0.3,0.7,0.6,1.1,0.8c0.1,0.3,0.1,0.6,0.2,0.8c-3.5,0-7,0-10.5,0
				c0-0.3,0-0.6,0-0.8c0.7-0.3,1.6-0.8,1.5-1.8c0.1-10,0-20.1,0-30.1c0-0.6,0-1.4-0.4-1.9c-0.3-0.3-0.7-0.5-1.1-0.7L82.3,34.7"/>
			<path class="st0" d="M123.5,38.1c-0.1-2-1.8-3.5-3.9-3.4c-1.8,0.1-3.3,1.6-3.4,3.4c0.1,2,1.8,3.5,3.9,3.4
				C122,41.4,123.4,40,123.5,38.1 M119.9,35.7L119.9,35.7c0.2,1.1,1.1,2,2.2,2.3c0.2,0.1,0.4,0.1,0.5,0.1c-0.2,0-0.4,0.1-0.6,0.1
				c-1.1,0.3-2,1.3-2.1,2.4c-0.2-1.1-0.9-2-2-2.4c-0.2-0.1-0.5-0.2-0.7-0.2C118.6,37.9,119.6,37,119.9,35.7"/>
			<path class="st5" d="M177.6,45.4h0.9v-1.6h0.9l1.1,1.6h1l-1.2-1.7c0.6-0.2,1.1-0.7,1-1.4c0-0.9-0.7-1.4-1.7-1.4h-2V45.4z
				 M178.5,43.1L178.5,43.1v-1.5h1.1c0.6,0,0.9,0.3,0.9,0.7s-0.3,0.7-0.9,0.7H178.5z"/>
			<path class="st5" d="M175.7,43.2c0-2,1.7-3.6,3.7-3.6c2,0,3.6,1.7,3.6,3.7c0,2-1.7,3.6-3.7,3.6C177.3,46.9,175.7,45.2,175.7,43.2
				 M183.8,43.2L183.8,43.2c0-2.4-2-4.4-4.5-4.4c-2.4,0-4.4,2-4.4,4.5c0,2.4,2,4.4,4.4,4.4C181.8,47.7,183.8,45.6,183.8,43.2
				C183.8,43.2,183.8,43.2,183.8,43.2"/>
		</g>
	</g>
</g>
</svg>
