<?xml version="1.0" encoding="utf-8"?>
<!-- Generator: Adobe Illustrator 22.0.1, SVG Export Plug-In . SVG Version: 6.00 Build 0)  -->
<svg version="1.1" id="Layer_1" xmlns="http://www.w3.org/2000/svg" xmlns:xlink="http://www.w3.org/1999/xlink" x="0px" y="0px"
	 viewBox="0 0 274.2 105" style="enable-background:new 0 0 274.2 105;" xml:space="preserve">
<title>viettel ca</title>
<g transform="translate(0.000000,1341.000000) scale(0.100000,-0.100000)">
	<path d="M564,13280.1c-68.5-4.1-133.2-25.1-191.5-61.9c-42.8-27-81.6-64-111.5-105.9c-56.7-79.4-82.2-176.2-72.2-273.8
		c12.2-119.2,77.3-226.6,177.6-293c120.3-79.7,274.4-88.5,403.1-23c28.3,14.4,52.2,30.4,78.2,52.2c10.8,9,34.1,31.8,33.8,32.8
		c-0.3,0.8-27.4,25.7-28,25.7c-0.3,0-2.5-2.2-4.8-4.7c-5.3-5.8-20.1-19.6-28.9-27c-31.9-26.7-69.6-48.3-108.8-62.6
		c-64.8-23.6-138.6-27.7-206.4-11.8c-89.9,21.2-167.9,75.7-219.5,153.4c-64.2,96.7-77.6,220.4-35.5,330.1
		c34.6,90.3,106.8,165,196.3,203c27.4,11.7,58.7,20.5,87.9,24.8c56.2,8.3,112.8,3.6,166-13.6c55.1-17.8,104.4-48.3,145.4-89.7
		c4.6-4.7,8.6-8.6,8.9-8.6c0.2,0,2.8,2.2,5.7,5c2.8,2.7,7.2,6.8,9.6,9s6.3,5.9,8.6,8l4,3.8l-5,5.4c-6.3,6.9-22.1,21.6-32.7,30.4
		c-72.3,60.3-163.7,93.1-258.1,92.5C578.3,13280.7,568.4,13280.4,564,13280.1z"/>
	<path d="M566.4,13203.3c-30.3-2.5-53.7-7-78.2-14.9c-62.4-20.2-116.3-58.2-157.7-111.2c-6.5-8.3-18.6-26.4-24.2-36.2
		c-24.1-42-38.4-89.3-41.9-138.7c-0.9-12.7-0.4-44.6,0.9-56.3c3.6-32.7,11.8-64.5,24.1-93.3c26.6-62.4,74.1-116.7,132.9-151.7
		c38.2-22.8,82.9-37.9,126.8-42.9c27-3,59.3-2.8,84.3,0.8c59.1,8.5,114.5,33,160,70.5c8.4,6.9,24.1,21.5,28.3,26.3l3.5,4.1
		l-17.6,16.3l-17.6,16.3l-4-4.4c-10.2-11-30.4-27.9-45.7-38.1c-79.1-52.9-182-60.8-268.8-20.5c-29.4,13.6-55.3,31.8-78.8,55.4
		c-54.2,54.1-82.8,125.8-80.9,202.1c1.4,50.5,15.3,96.9,42,139.5c17.2,27.5,41.9,54.3,68.1,74.1c59.6,44.9,135.9,63.6,210.1,51.6
		c56.3-9.1,107.3-35,148.7-75.4l9.6-9.4l3.9,3.7c4.1,3.8,9.4,8.9,16.2,15.1c2.2,2,6.3,5.9,9.3,8.6c3,2.8,5.5,5.1,5.6,5.1
		c0.4,0.3-16.5,17-22.5,22.3c-52.7,46-111.6,72.1-181.3,80C613.2,13203.1,573.8,13203.9,566.4,13203.3z"/>
	<path d="M580.8,13066.6c-24.2-1.4-48.1-11.9-65.9-29.2c-15.9-15.3-25.3-32.1-29.9-53.3c-1.1-5.5-1.4-8.5-1.6-26.9l-0.4-20.6
		l-12.9-0.3c-12.5-0.3-12.9-0.4-15.8-1.9c-4.1-2.2-8-6.1-9.8-10l-1.6-3.3v-106.5v-106.5l1.7-3.3c2.2-4.5,7-9,11.4-10.6l3.5-1.3
		l130.8,0.1l130.8,0.2l3,1.5c4.4,2.2,8.9,6.8,10.3,10.9l1.3,3.5v105.5c0,105,0,105.6-1.3,108.8c-1.6,4.4-5.7,8.9-10,10.9
		c-3.3,1.7-3.6,1.7-17.2,2l-13.8,0.3l-0.4,20.6c-0.2,18.4-0.5,21.4-1.7,26.9c-5.7,26.7-21.1,49.5-43.7,64.6
		C627.9,13062.2,606.1,13068,580.8,13066.6z M599.4,13024.5c16.4-2.9,31-11.9,41.1-25.4c3.5-4.5,8-14.3,9.6-20.3
		c1.2-4.6,1.4-6.8,1.6-23.7l0.2-18.7h-63.8h-63.8l0.2,18.7c0.3,20.5,0.6,22.6,4.8,32.6c6.6,15.8,21.8,29.4,39.1,34.8
		C577.9,13025.4,589.9,13026.2,599.4,13024.5z M596.2,12894.5c6-0.7,10.6-2.1,12.5-3.8c1.3-1.2,1.3-1.6,1.3-10.9v-9.7l-1.6-1.2
		c-6.2-4.9-31-5-38.2-0.2c-1.4,0.9-1.4,1-1.4,11.3v10.4l1.9,1.2C575.3,12894.2,586.6,12895.6,596.2,12894.5z M593.6,12845.1
		c5.7-1,11.6-5.6,14.6-11.7l1.6-3.3v-35.9v-35.9l-1.6-3.4c-6.4-13.7-24.1-16.4-34.1-5.3c-5.4,6-5.3,4.7-5.3,44.6
		c0,33.8,0.1,35,1.3,38.2c1.6,4.2,5.7,8.9,9.7,10.8c3.2,1.6,8,2.7,10.2,2.3C590.7,12845.6,592.3,12845.3,593.6,12845.1z"/>
	<path d="M2307.2,13015.2c-10.8-28.7-33.8-90.3-51.2-136.8c-17.5-46.5-40.2-107.3-50.6-135c-10.4-27.7-18.9-50.5-18.9-50.7
		c0-0.2,21.3-0.2,47.3-0.2l47.3,0.2l8.7,21.8c4.7,12,12.8,32.5,17.9,45.5s9.6,24.2,9.9,24.9l0.6,1.4l42.3,0.1l42.3,0.2l-4.4,11.1
		c-2.4,6.1-10.6,27-18.4,46.5l-14,35.5h-5.6c-5,0-5.6,0.1-5.2,1.1c2.7,7.1,17.9,45,18,44.9c0.2-0.2,21.2-53.2,41.3-104.1
		c14.8-37.5,22.7-57.5,30.1-76.4c3.6-9,9.7-24.5,13.6-34.4l7.1-17.9l47.4-0.2c45-0.1,47.4-0.1,47,0.9c-0.2,0.6-2.5,6.8-5.1,13.6
		c-6.8,18.1-46,123.1-90,240.4c-20.9,55.9-39.4,105.3-41.1,109.7c-1.6,4.4-3.2,8.5-3.5,9.1c-0.5,1-3,1.1-47.1,1.1h-46.5
		L2307.2,13015.2z"/>
	<path d="M1902.4,13065.8c-27.6-1.4-51.9-7.7-75.4-19.4c-45.2-22.5-79.2-61.8-94.7-109.4c-6.5-19.9-9-35.9-9-58
		c0-16.8,0.8-24.2,3.9-39.5c10.3-49.1,42.1-93.9,85.2-120c30.4-18.4,62-27.2,97.7-27.2c35,0,66.7,8.7,96.1,26.5
		c40.1,24.2,70.2,63.2,83.2,107.9c0.7,2.3,1.3,4.5,1.3,5c0,0.5-12.9,0.7-49.9,0.7h-49.8l-2.9-4.3c-11.5-17.5-28.2-30.5-47.5-37.2
		c-9.4-3.3-16.4-4.5-27.2-5c-10.5-0.4-17,0.2-26.3,2.6c-31.1,7.8-56.2,31.3-66.1,61.8c-14.3,44.2,6,92,47.9,112.6
		c12.4,6.1,23.3,8.7,38.2,9.2c12.6,0.4,21.1-0.8,32.3-4.5c19.4-6.5,36.4-19.3,47.7-36.1l3.9-5.9h49.8c37,0,49.8,0.2,49.8,0.7
		c0,0.4-0.5,2.6-1.3,5c-13,44.8-43.1,83.7-83.3,108c-23.5,14.2-49.9,23-77.2,25.7C1922,13065.6,1907.9,13066,1902.4,13065.8z"/>
	<path d="M1087.9,13018.9v-46.6h32.6h32.6v-93.3v-93.3h-32.6h-32.6v-46.6v-46.6H1200h112.1v46.6v46.6h-32.6H1247v93.3v93.3h32.6
		h32.6v46.6v46.6H1200h-112.1V13018.9z"/>
	<path d="M1443.1,12832.9v-46.6h74.8h74.8v46.6v46.6h-74.8h-74.8V12832.9z"/>
</g>
</svg>
