<svg xmlns="http://www.w3.org/2000/svg" viewBox="0 0 22.3 22.31"><defs><style>.cls-1{opacity:0.5;}.cls-2,.cls-3{fill:#fff;}.cls-3{fill-rule:evenodd;}</style></defs><title>in</title><g id="Layer_2" data-name="Layer 2"><g id="Badge"><g id="BACKGROUND_2" data-name="BACKGROUND 2"><g id="Layer_1-2" data-name="Layer 1"><g class="cls-1"><path class="cls-2" d="M11.15,22.31A11.15,11.15,0,1,1,22.3,11.15,11.16,11.16,0,0,1,11.15,22.31Zm0-21.25A10.09,10.09,0,1,0,21.24,11.15,10.1,10.1,0,0,0,11.15,1.06Z"/></g><path class="cls-3" d="M8,16.6V9.25H5.6V16.6ZM6.82,8.25a1.27,1.27,0,1,0,0-2.54,1.27,1.27,0,1,0,0,2.54Z"/><path class="cls-3" d="M9.39,16.6h2.45V12.5a1.69,1.69,0,0,1,.08-.6A1.34,1.34,0,0,1,13.17,11c.89,0,1.24.67,1.24,1.66V16.6h2.44V12.39c0-2.26-1.21-3.31-2.81-3.31a2.44,2.44,0,0,0-2.22,1.24h0V9.25H9.39c0,.69,0,7.35,0,7.35Z"/></g></g></g></g></svg>