<?xml version="1.0" encoding="utf-8"?>
<!-- Generator: Adobe Illustrator 22.0.1, SVG Export Plug-In . SVG Version: 6.00 Build 0)  -->
<svg version="1.1" id="Layer_1" xmlns="http://www.w3.org/2000/svg" xmlns:xlink="http://www.w3.org/1999/xlink" x="0px" y="0px"
	 viewBox="0 0 107.4 32.5" style="enable-background:new 0 0 107.4 32.5;" xml:space="preserve">
<style type="text/css">
	.st0{fill:#F9448C;}
	.st1{enable-background:new    ;}
	.st2{fill:#FFFFFF;}
</style>
<title>kekhai</title>
<path class="st0" d="M20.6,7.5H10.1c-0.7,0-1.3,0.6-1.3,1.3l0,0v1.6c0,0.7,0.6,1.3,1.3,1.3l0,0h10.5c0.7,0,1.3-0.5,1.3-1.2l0,0V8.8
	C21.9,8.1,21.3,7.5,20.6,7.5L20.6,7.5z"/>
<path class="st0" d="M26.1,15.8c-4.1,0-7.4,3.3-7.4,7.4s3.3,7.4,7.4,7.4s7.4-3.3,7.4-7.4l0,0C33.6,19.1,30.2,15.8,26.1,15.8z
	 M22,27.4c-0.1,0-0.2,0-0.3-0.2v-0.1l0.5-2.1l1.8,1.9L22,27.4z M24.5,26.4l-1.8-1.8l4.6-4.6l1.8,1.8L24.5,26.4z M30.5,20.4l-0.9,0.9
	l-1.8-1.8l0.8-0.8c0.3-0.3,0.8-0.3,1.1,0l0,0l0.8,0.8C30.8,19.7,30.8,20.1,30.5,20.4L30.5,20.4z"/>
<path class="st0" d="M21.9,14.9v-0.3c0-0.7-0.6-1.3-1.3-1.3l0,0H10.1c-0.7,0-1.3,0.6-1.3,1.3l0,0v1.6c0,0.7,0.6,1.3,1.3,1.3l0,0h8.6
	C19.6,16.4,20.7,15.5,21.9,14.9z"/>
<path class="st0" d="M17.7,19.2h-7.6c-0.7,0-1.3,0.6-1.3,1.3l0,0V22c0,0.7,0.6,1.3,1.3,1.3l0,0h6.7v-0.1
	C16.8,21.8,17.1,20.4,17.7,19.2z"/>
<path class="st0" d="M6.6,25.7c0-6.2,0-12.4,0-18.6h1.8h1.2h0.1c0.4,0,0.9-0.2,1.2-0.5s0.5-0.8,0.5-1.3c0-0.7,0-1.5,0-2.2
	c0-0.3,0-0.5,0-0.8h12.1V14c0.8-0.2,1.7-0.4,2.5-0.4v-2.3c0-3.3,0-6.5,0-9.8c0-0.3,0-0.5-0.1-0.7c-0.3-0.7-1-1.1-1.7-1H10
	C9.7,0,9.4,0.1,9.1,0.4C7.6,2,6,3.5,4.5,5.1C4.2,5.3,4.1,5.6,4.1,5.9c0,1,0,1.9,0,2.9c0,0.5,0,1.1,0,1.6l0,0v5.7c0,3.5,0,7,0,10.5
	c0,0.2,0.1,0.4,0.1,0.6c0.3,0.7,1,1.1,1.7,1h12.3c-0.5-0.8-0.9-1.6-1.1-2.5H6.6z"/>
<path class="st0" d="M30,10.9c0-0.2,0-0.4,0-0.6s0-0.4,0-0.7c0-0.6,0-1.2,0-1.8c0-0.8,0-1.5,0-2.3S29.5,4,28.7,3.9
	c-0.3,0-0.7-0.1-1-0.1h-0.3c-0.3,0-0.6,0.3-0.6,0.6c0,0.4,0,0.7,0,1.1v0.8h0.7V14c0.9,0.1,1.7,0.4,2.5,0.8C30,13.2,30,11.9,30,10.9z
	"/>
<path class="st0" d="M19.3,29.6h-8.6v-0.1c0-0.3-0.3-0.6-0.6-0.6H8.2v0.8c0,0.4,0,0.7,0,1c0,0.1,0,0.3,0.1,0.4c0.3,0.7,1,1.1,1.7,1
	h12.5h0.3h0.4C21.7,31.5,20.4,30.7,19.3,29.6z"/>
<g class="st1">
	<path class="st2" d="M56.5,12.2l-2.5-4l0,0v4h-2.4V2.9H54v4.2l0,0l2.6-4.2h2.5L56,7.5l3.3,4.7H56.5z"/>
	<path class="st2" d="M63.3,2.1l-0.6-0.7l-0.6,0.7h-2l2-2.1h1.4l1.9,2.1H63.3z M60.2,12.2V2.9h5.2V5h-2.9v1.4h2.8v2.1h-2.8v1.6h2.9
		v2.1C65.4,12.2,60.2,12.2,60.2,12.2z"/>
	<path class="st2" d="M75.9,12.2l-2.5-4l0,0v4H71V2.9h2.4v4.2l0,0L76,2.9h2.5l-3.1,4.6l3.3,4.7H75.9z"/>
	<path class="st2" d="M85,12.2V8.5h-3v3.7h-2.4V2.9H82v3.5h3V2.9h2.4v9.3C87.4,12.2,85,12.2,85,12.2z"/>
	<path class="st2" d="M95.1,12.2l-0.5-1.3h-3.2l-0.5,1.3h-2.6L92,2.9h2l3.7,9.3H95.1z M93,5.8L93,5.8L92,9h2L93,5.8z"/>
	<path class="st2" d="M98.6,12.2V2.9h2.4v9.3C101,12.2,98.6,12.2,98.6,12.2z"/>
</g>
<g class="st1">
	<path class="st2" d="M57.9,29v-4.8h-5.3V29h-1V18.6h1v4.6h5.3v-4.6h1V29H57.9z"/>
	<path class="st2" d="M69.9,27.6c-1.1,1-2.4,1.6-3.8,1.6c-1.5,0-2.7-0.5-3.8-1.5s-1.6-2.3-1.6-3.8s0.5-2.8,1.6-3.8s2.4-1.6,3.9-1.6
		S69,19,70,20.1c1.1,1,1.6,2.3,1.6,3.8C71.5,25.3,71,26.6,69.9,27.6z M69.2,20.7c-0.9-0.9-1.9-1.3-3.1-1.3s-2.3,0.4-3.1,1.3
		c-0.9,0.9-1.3,1.9-1.3,3.2c0,1.2,0.4,2.2,1.3,3.1c0.9,0.9,1.9,1.3,3.1,1.3s2.3-0.4,3.1-1.3c0.9-0.9,1.3-1.9,1.3-3.1
		C70.5,22.6,70.1,21.6,69.2,20.7z M67.3,17.8l-1.2-1l-1.2,1h-1.3l2-1.7h0.9l2,1.7H67.3z M67.6,16.3l-2.8-1.5l0.5-0.8l2.8,1.5
		L67.6,16.3z"/>
	<path class="st2" d="M81.7,28.3c-0.6,0.6-1.3,0.9-2.2,0.9c-0.9,0-1.7-0.3-2.3-0.8c-0.6-0.6-0.9-1.3-0.9-2.2h1
		c0.1,1.4,0.8,2.1,2.1,2.1c0.6,0,1.1-0.2,1.5-0.6s0.6-0.9,0.6-1.5s-0.2-1.1-0.7-1.5c-0.2-0.1-0.4-0.3-0.7-0.4
		c-0.2-0.1-0.5-0.2-0.8-0.3c-0.4-0.1-0.8-0.2-1-0.4c-0.3-0.1-0.6-0.3-0.9-0.5c-0.5-0.4-0.8-1.1-0.8-1.9s0.3-1.5,0.9-2
		s1.2-0.8,2.1-0.8c0.8,0,1.5,0.3,2,0.8c0.6,0.5,0.8,1.2,0.8,2h-1c0-0.5-0.2-0.9-0.5-1.3c-0.4-0.4-0.8-0.6-1.3-0.6s-1,0.2-1.3,0.5
		c-0.4,0.3-0.5,0.8-0.5,1.3c0,0.6,0.3,1.1,0.8,1.4c0.2,0.1,0.5,0.2,0.8,0.3l0.8,0.2c0.8,0.2,1.4,0.6,1.8,1.1
		c0.5,0.5,0.7,1.2,0.7,1.9C82.6,27,82.3,27.7,81.7,28.3z"/>
	<path class="st2" d="M92.6,19.8c0.1,0.1,0.2,0.2,0.3,0.2c1.1,1,1.6,2.3,1.6,3.8s-0.5,2.8-1.6,3.8s-2.4,1.6-3.8,1.6
		c-1.5,0-2.7-0.5-3.8-1.5c-1.1-1-1.6-2.3-1.6-3.8s0.5-2.8,1.6-3.8s2.4-1.6,3.9-1.6c1.1,0,2,0.3,2.9,0.8c0.1,0,0.2-0.1,0.2-0.1
		c0.1,0,0.2-0.1,0.4-0.3c0.2-0.1,0.3-0.3,0.3-0.5h-0.4v-1.2h1.3v1.3c0,0.2-0.1,0.4-0.2,0.6c-0.1,0.1-0.2,0.3-0.3,0.4
		c-0.1,0.1-0.2,0.2-0.3,0.2C92.8,19.7,92.7,19.7,92.6,19.8z M92.1,20.7c-0.9-0.9-1.9-1.3-3.1-1.3s-2.3,0.4-3.1,1.3
		c-0.9,0.9-1.3,1.9-1.3,3.2c0,1.2,0.4,2.2,1.3,3.1s1.9,1.3,3.1,1.3s2.3-0.4,3.1-1.3c0.9-0.9,1.3-1.9,1.3-3.1
		C93.5,22.6,93,21.6,92.1,20.7z"/>
</g>
</svg>
