<?xml version="1.0" encoding="utf-8"?>
<!-- Generator: Adobe Illustrator 22.0.1, SVG Export Plug-In . SVG Version: 6.00 Build 0)  -->
<svg version="1.1" xmlns="http://www.w3.org/2000/svg" xmlns:xlink="http://www.w3.org/1999/xlink" x="0px" y="0px"
	 viewBox="0 0 274.2 105" style="enable-background:new 0 0 274.2 105;" xml:space="preserve">
<style type="text/css">
	.st0{fill:#118ACB;}
	.st1{fill:#00B4F1;}
	.st2{fill:#50B848;}
</style>
<g id="Layer_1">
	<title>tc</title>
</g>
<g id="Layer_2">
	<g>
		<path class="st0" d="M39.9,60.6c2.5-5.7,2.7-12.4,0.9-18.4c-4.3-0.9-8.6-2.5-12.9-5.2C28.6,40.6,31.3,51.5,39.9,60.6z"/>
		<path class="st1" d="M27.7,41.4V61c0.4,0.1,0.7,0.3,1,0.6c0.9,0.9,0.9,2.4,0,3.2c-0.9,0.9-2.4,0.9-3.2,0c-0.9-0.9-0.9-2.4,0-3.2
			c0.3-0.3,0.6-0.5,1-0.6V41.4c-1.5,5.2-4.8,13.3-11.6,20.4c2.4,4.6,6.4,8.5,12.2,10.7c5.8-2.2,9.9-6,12.2-10.7
			C32.5,54.8,29.3,46.7,27.7,41.4z"/>
		<path class="st2" d="M26.3,37c-4.3,2.7-8.6,4.2-12.9,5.2c-1.8,6-1.6,12.7,0.9,18.4C22.9,51.4,25.6,40.6,26.3,37z"/>
	</g>
	<g>
		<path class="st0" d="M72.2,49.2c0.3-0.3,0.6-0.4,0.9-0.4c0.4,0,0.7,0.1,0.9,0.4c0.3,0.3,0.4,0.6,0.4,0.9V58c0,0.7-0.2,1.4-0.7,1.9
			c-0.5,0.5-1.1,0.8-1.9,0.8c-0.3,0-0.5,0-0.7-0.1c-0.2-0.1-0.5-0.2-0.7-0.3L58,52.7c-0.3-0.2-0.6-0.4-0.9-0.5
			c-0.2-0.1-0.4-0.2-0.6-0.2c-0.3,0-0.4,0.2-0.5,0.5S56,53.4,56,54v5.3c0,0.4-0.1,0.7-0.4,0.9c-0.3,0.3-0.6,0.4-0.9,0.4
			c-0.4,0-0.7-0.1-0.9-0.4c-0.3-0.3-0.4-0.6-0.4-0.9v-7.9c0-0.7,0.2-1.4,0.7-1.9c0.5-0.5,1.1-0.8,1.9-0.8c0.3,0,0.5,0,0.7,0.1
			c0.2,0.1,0.5,0.2,0.7,0.3l12.4,7.6c0.3,0.2,0.6,0.4,0.9,0.5s0.4,0.2,0.6,0.2c0.3,0,0.4-0.2,0.5-0.5c0.1-0.3,0.1-0.8,0.1-1.5v-5.3
			C71.8,49.8,72,49.5,72.2,49.2z"/>
		<path class="st0" d="M82.8,51.4c-0.6,0-1.1,0.1-1.5,0.3c-0.4,0.2-0.7,0.5-0.9,0.8c-0.2,0.3-0.4,0.7-0.5,1.1
			c-0.1,0.4-0.1,0.7-0.1,1.1s0,0.7,0.1,1.1c0.1,0.4,0.2,0.7,0.5,1.1s0.5,0.6,0.9,0.8s0.9,0.3,1.5,0.3h15c0.4,0,0.7,0.1,0.9,0.4
			S99,59,99,59.4s-0.1,0.7-0.4,0.9c-0.3,0.3-0.6,0.4-0.9,0.4H81.9c-0.7,0-1.4-0.2-2-0.5c-0.6-0.4-1.1-0.8-1.5-1.4
			c-0.4-0.6-0.7-1.2-0.9-1.9s-0.3-1.4-0.3-2.1c0-0.7,0.1-1.4,0.3-2.1c0.2-0.7,0.6-1.3,1-1.9c0.4-0.6,1-1,1.6-1.4
			c0.6-0.4,1.3-0.5,2.1-0.5h15.6c0.4,0,0.7,0.1,0.9,0.4c0.3,0.3,0.4,0.6,0.4,0.9c0,0.4-0.1,0.7-0.4,0.9c-0.3,0.3-0.6,0.4-0.9,0.4
			L82.8,51.4L82.8,51.4z M97.5,53.8c0.3,0.3,0.4,0.6,0.4,0.9c0,0.4-0.1,0.7-0.4,0.9c-0.3,0.3-0.6,0.4-0.9,0.4H83.1
			c-0.4,0-0.7-0.1-0.9-0.4c-0.3-0.3-0.4-0.6-0.4-0.9c0-0.4,0.1-0.7,0.4-0.9c0.3-0.3,0.6-0.4,0.9-0.4h13.5
			C96.9,53.4,97.2,53.6,97.5,53.8z"/>
		<path class="st0" d="M102.1,49.2c0.3-0.3,0.6-0.4,0.9-0.4c0.4,0,0.7,0.1,0.9,0.4c0.3,0.3,0.4,0.6,0.4,0.9v4.6c0,0.3,0,0.7,0.1,1.1
			c0.1,0.4,0.2,0.7,0.5,1.1s0.5,0.6,0.9,0.8c0.4,0.2,0.9,0.3,1.5,0.3h6.3c-0.3-0.5-0.5-1-0.7-1.6c-0.1-0.6-0.2-1.1-0.2-1.7v-4.6
			c0-0.4,0.1-0.7,0.4-0.9c0.3-0.3,0.6-0.4,0.9-0.4c0.4,0,0.7,0.1,0.9,0.4c0.3,0.3,0.4,0.6,0.4,0.9v4.6c0,0.3,0,0.7,0.1,1.1
			c0.1,0.4,0.2,0.7,0.4,1.1c0.2,0.3,0.5,0.6,0.9,0.8c0.4,0.2,0.8,0.3,1.4,0.3h2.6c0.6,0,1.1-0.1,1.5-0.3c0.4-0.2,0.7-0.5,0.9-0.8
			c0.2-0.3,0.4-0.7,0.5-1.1c0.1-0.4,0.1-0.7,0.1-1.1v-4.6c0-0.4,0.1-0.7,0.4-0.9c0.3-0.3,0.6-0.4,0.9-0.4s0.7,0.1,0.9,0.4
			c0.3,0.3,0.4,0.6,0.4,0.9v4.6c0,0.7-0.1,1.4-0.3,2.1c-0.2,0.7-0.6,1.3-1,1.9c-0.4,0.6-1,1-1.6,1.4c-0.6,0.4-1.3,0.5-2.1,0.5h-15
			c-0.7,0-1.4-0.2-2-0.5c-0.6-0.4-1.1-0.8-1.5-1.4c-0.4-0.6-0.7-1.2-0.9-1.9c-0.2-0.7-0.3-1.4-0.3-2.1v-4.6
			C101.7,49.8,101.9,49.5,102.1,49.2z"/>
		<path class="st2" d="M149.2,48.8c0.4,0,0.7,0.1,0.9,0.4c0.3,0.3,0.4,0.6,0.4,0.9c0,0.3-0.1,0.6-0.4,0.9c-0.2,0.2-0.5,0.4-0.8,0.4
			h-5.5c-0.5,0-1,0.2-1.3,0.4c-0.4,0.2-0.6,0.5-0.8,0.8c-0.2,0.3-0.3,0.7-0.4,1.1c-0.1,0.4-0.1,0.7-0.1,1v4.6c0,0.4-0.1,0.7-0.4,0.9
			c-0.3,0.3-0.6,0.4-0.9,0.4c-0.4,0-0.7-0.1-0.9-0.4c-0.3-0.3-0.4-0.6-0.4-0.9v-4.6c0-0.6,0.1-1.1,0.2-1.7s0.4-1.1,0.7-1.6h-8.9
			c-0.4,0-0.7-0.1-0.9-0.4c-0.3-0.3-0.4-0.6-0.4-0.9c0-0.4,0.1-0.7,0.4-0.9c0.3-0.3,0.6-0.4,0.9-0.4L149.2,48.8L149.2,48.8z"/>
		<path class="st2" d="M158.8,51.4c-0.6,0-1.1,0.1-1.5,0.3c-0.4,0.2-0.7,0.5-0.9,0.8c-0.2,0.3-0.4,0.7-0.5,1.1
			c-0.1,0.4-0.1,0.7-0.1,1.1s0,0.7,0.1,1.1c0.1,0.4,0.2,0.7,0.5,1.1s0.5,0.6,0.9,0.8c0.4,0.2,0.9,0.3,1.5,0.3h15
			c0.4,0,0.7,0.1,0.9,0.4c0.3,0.3,0.4,0.6,0.4,0.9s-0.1,0.7-0.4,0.9c-0.3,0.3-0.6,0.4-0.9,0.4h-15.8c-0.7,0-1.4-0.2-2-0.5
			c-0.6-0.4-1.1-0.8-1.5-1.4c-0.4-0.6-0.7-1.2-0.9-1.9s-0.3-1.4-0.3-2.1c0-0.7,0.1-1.4,0.3-2.1c0.2-0.7,0.6-1.3,1-1.9
			c0.4-0.6,1-1,1.6-1.4c0.6-0.4,1.3-0.5,2.1-0.5h15.6c0.4,0,0.7,0.1,0.9,0.4c0.3,0.3,0.4,0.6,0.4,0.9c0,0.4-0.1,0.7-0.4,0.9
			c-0.3,0.3-0.6,0.4-0.9,0.4L158.8,51.4L158.8,51.4z"/>
		<path class="st1" d="M218.2,51.4c-0.6,0-1.1,0.1-1.5,0.3c-0.4,0.2-0.7,0.5-0.9,0.8c-0.2,0.3-0.4,0.7-0.5,1.1
			c-0.1,0.4-0.1,0.7-0.1,1.1s0,0.7,0.1,1.1c0.1,0.4,0.2,0.7,0.5,1.1c0.2,0.3,0.5,0.6,0.9,0.8c0.4,0.2,0.9,0.3,1.5,0.3h15
			c0.4,0,0.7,0.1,0.9,0.4c0.3,0.3,0.4,0.6,0.4,0.9s-0.1,0.7-0.4,0.9c-0.3,0.3-0.6,0.4-0.9,0.4h-15.8c-0.7,0-1.4-0.2-2-0.5
			c-0.6-0.4-1.1-0.8-1.5-1.4c-0.4-0.6-0.7-1.2-0.9-1.9c-0.2-0.7-0.3-1.4-0.3-2.1c0-0.7,0.1-1.4,0.3-2.1c0.2-0.7,0.6-1.3,1-1.9
			c0.4-0.6,1-1,1.6-1.4c0.6-0.4,1.3-0.5,2.1-0.5h15.6c0.4,0,0.7,0.1,0.9,0.4c0.3,0.3,0.4,0.6,0.4,0.9c0,0.4-0.1,0.7-0.4,0.9
			c-0.3,0.3-0.6,0.4-0.9,0.4L218.2,51.4L218.2,51.4z"/>
		<path class="st2" d="M173.5,53.8c0.3,0.3,0.4,0.6,0.4,0.9c0,0.4-0.1,0.7-0.4,0.9c-0.3,0.3-0.6,0.4-0.9,0.4h-13.5
			c-0.4,0-0.7-0.1-0.9-0.4c-0.3-0.3-0.4-0.6-0.4-0.9c0-0.4,0.1-0.7,0.4-0.9c0.3-0.3,0.6-0.4,0.9-0.4h13.5
			C173,53.4,173.3,53.6,173.5,53.8z"/>
		<g>
			<path class="st1" d="M245.5,51.4h-2.6c-0.6,0-1.1,0.1-1.5,0.3c-0.4,0.2-0.7,0.5-0.9,0.8c-0.2,0.3-0.4,0.7-0.5,1.1
				c-0.1,0.4-0.1,0.7-0.1,1.1v4.6c0,0.4-0.1,0.7-0.4,0.9c-0.3,0.3-0.6,0.4-0.9,0.4s-0.7-0.1-0.9-0.4c-0.3-0.3-0.4-0.6-0.4-0.9v-4.6
				c0-0.7,0.1-1.4,0.3-2.1c0.2-0.7,0.6-1.3,1-1.9c0.4-0.6,1-1,1.6-1.4c0.6-0.4,1.3-0.5,2.1-0.5h15c0.7,0,1.4,0.2,2,0.5
				c0.6,0.4,1.1,0.8,1.5,1.4c0.4,0.6,0.7,1.2,0.9,1.9c0.2,0.7,0.3,1.4,0.3,2.1v4.6c0,0.4-0.1,0.7-0.4,0.9c-0.3,0.3-0.6,0.4-0.9,0.4
				c-0.4,0-0.7-0.1-0.9-0.4c-0.3-0.3-0.4-0.6-0.4-0.9v-4.6c0-0.3,0-0.7-0.1-1.1c-0.1-0.4-0.2-0.7-0.5-1.1s-0.5-0.6-0.9-0.8
				c-0.4-0.2-0.9-0.3-1.5-0.3h-6.3C250.1,51.4,245.5,51.4,245.5,51.4z"/>
			<path class="st1" d="M257.3,53.8c0.3,0.3,0.4,0.6,0.4,0.9c0,0.4-0.1,0.7-0.4,0.9c-0.3,0.3-0.6,0.4-0.9,0.4h-13.5
				c-0.4,0-0.7-0.1-0.9-0.4c-0.3-0.3-0.4-0.6-0.4-0.9c0-0.4,0.1-0.7,0.4-0.9c0.3-0.3,0.6-0.4,0.9-0.4h13.5
				C256.7,53.4,257,53.6,257.3,53.8z"/>
		</g>
		<path class="st1" d="M209.5,53.8c0.3,0.3,0.4,0.6,0.4,0.9c0,0.4-0.1,0.7-0.4,0.9c-0.3,0.3-0.6,0.4-0.9,0.4h-5.5
			c-0.4,0-0.7-0.1-0.9-0.4c-0.3-0.3-0.4-0.6-0.4-0.9c0-0.4,0.1-0.7,0.4-0.9c0.3-0.3,0.6-0.4,0.9-0.4h5.5
			C208.9,53.4,209.2,53.6,209.5,53.8z"/>
		<path class="st2" d="M180.1,60.4c-0.5-0.2-0.8-0.4-1.2-0.8c-0.3-0.3-0.6-0.7-0.8-1.1c-0.2-0.4-0.3-0.9-0.3-1.4v-6.9
			c0-0.4,0.1-0.7,0.4-0.9c0.3-0.3,0.6-0.4,0.9-0.4c0.3,0,0.6,0.1,0.9,0.4c0.3,0.3,0.4,0.6,0.4,0.9v6.9c0,0.3,0.1,0.5,0.3,0.7
			c0.2,0.2,0.4,0.3,0.7,0.3h16.3c0.4,0,0.7,0.1,0.9,0.4c0.3,0.3,0.4,0.6,0.4,0.9s-0.1,0.7-0.4,0.9c-0.3,0.3-0.6,0.4-0.9,0.4h-16.2
			C181,60.7,180.5,60.6,180.1,60.4z"/>
	</g>
</g>
</svg>
