<?xml version="1.0" encoding="utf-8"?>
<!-- Generator: Adobe Illustrator 22.0.1, SVG Export Plug-In . SVG Version: 6.00 Build 0)  -->
<svg version="1.1" id="Layer_1" xmlns="http://www.w3.org/2000/svg" xmlns:xlink="http://www.w3.org/1999/xlink" x="0px" y="0px"
	 viewBox="0 0 274.2 105" style="enable-background:new 0 0 274.2 105;" xml:space="preserve">
<style type="text/css">
	.st0{fill:#D7181F;}
	.st1{fill:#221F20;}
</style>
<title>viettel ca</title>
<g id="Layer_x0020_1">
	<g id="_1083794480">
		<g>
			<g>
				<g>
					<path class="st0" d="M22.8,28.6C24,21.8,30,16.6,37.1,16.6c7.2,0,13.1,5.1,14.4,11.9c0.9,4.8,5.7,3.9,5.2,0
						c-1.3-9.6-9.6-17-19.5-17v0c-10,0-18.2,7.4-19.5,17C17,32.9,21.9,32.9,22.8,28.6z"/>
					<path class="st0" d="M54.7,36.4H19.5l0,0c-3.6,0-6.5,2.9-6.5,6.5v23.3c0,3.6,2.9,6.5,6.5,6.5h35.1c3.6,0,6.5-2.9,6.5-6.5V42.9
						C61.2,39.3,58.3,36.4,54.7,36.4z M44.6,48.6h-4.8v16.4h-5.4V48.6h-4.8v-4.5h15.1V48.6z"/>
				</g>
			</g>
		</g>
		<path class="st0" d="M213,46.4c4.5,0,8.2,3.7,8.2,8.2c0,4.5-3.7,8.2-8.2,8.2c-4.5,0-8.2-3.7-8.2-8.2C204.8,50,208.5,46.4,213,46.4
			z M105.6,36.4v7.9h-8.4v28.5h-9.4V44.2h-8.4v-7.9H105.6L105.6,36.4z M175.3,54.6v-6.5h2.9v-7.8h8.8v7.8h6
			c-0.7,2.1-1.1,4.3-1.1,6.5H187v18.2h-8.8V54.6H175.3L175.3,54.6z M174.1,64.5c0,2.6-0.9,4.8-2.8,6.4c-5,4.4-13.5,3.1-18.8,0
			l3.2-6.2c2.5,1.6,4.8,2.4,7,2.4c1.8,0,2.7-0.6,2.7-1.9c0-3.9-11-0.4-11-9.3c0-2.2,0.7-4.1,2.2-5.7c3.9-4.3,11.9-3.5,16.8-1.5
			l-2.9,5.8c-1.6-0.8-7.3-2.9-7.3,0.4c0,1.6,2.8,1.9,3.9,2.1C171.1,57.9,174.1,60,174.1,64.5L174.1,64.5z M152.4,63.7
			c0,7.9-6.5,10.1-13.2,10.1c-6.8,0-13.2-2.4-13.2-10.1V48.1h8.8V62c0,2.9,1.4,4.6,4.4,4.6c3,0,4.4-1.7,4.4-4.6V48.1h8.8L152.4,63.7
			L152.4,63.7z M124.2,56.1c-3.3-1.6-7.9-1.3-9.3,2.7c-0.3,0.8-0.5,2-0.5,3.4v10.5h-8.8V48.1h8.8v4.1c2.6-4,5.2-4.5,9.8-4.1
			L124.2,56.1L124.2,56.1z"/>
		<path class="st1" d="M258.5,36.9c-0.3-0.5-0.6-1-1.1-1.2c0.8-0.1,1.4-0.6,1.4-1.4c0-0.5-0.3-1-0.8-1.2c-0.3-0.1-0.7-0.1-1.2-0.1
			H255v4.9h0.8v-2.1h0.5c0.8,0,1.1,0.7,1.5,1.3l0.4,0.8h1L258.5,36.9z M256.7,35.1h-1v-1.5h0.9c0.5,0,1.2,0,1.2,0.7
			C257.9,35.1,257.3,35.1,256.7,35.1z"/>
		<path class="st1" d="M257,30.8c-2.5,0-4.6,2-4.6,4.6c0,2.5,2,4.6,4.6,4.6c2.5,0,4.6-2,4.6-4.6C261.5,32.9,259.5,30.8,257,30.8z
			 M257,39.2c-2.1,0-3.8-1.7-3.8-3.8c0-2.1,1.7-3.8,3.8-3.8c2.1,0,3.8,1.7,3.8,3.8C260.8,37.5,259.1,39.2,257,39.2z"/>
		<path class="st1" d="M261.5,72.8h-10.1l-2.3-6.2H236l-2.5,6.2h-10l14-36.4h10.3L261.5,72.8L261.5,72.8z M213,35.4
			c3.1,0,6,0.7,8.6,2v11.8c-1.8-2.9-5-4.8-8.6-4.8c-5.6,0-10.1,4.5-10.1,10.1c0,5.6,4.5,10.1,10.1,10.1c3.6,0,6.8-1.9,8.6-4.8v11.8
			c-2.6,1.3-5.5,2-8.6,2c-10.6,0-19.2-8.6-19.2-19.2S202.4,35.4,213,35.4L213,35.4z M246.6,59.2l-4-11.6l-4,11.6H246.6z"/>
		<path class="st1" d="M237.3,91H236l-0.9-2.6l-1.3,0v-1.3h1.2c0.5,0,0.9-0.4,0.9-0.9v0c0-0.5-0.4-0.9-0.9-0.9h-1.2
			c0,1.9,0,3.8,0,5.8h-1.3v-7.1h2.5c1.2,0,2.3,1,2.3,2.2l0,0c0,0.8-0.4,1.4-1,1.8L237.3,91L237.3,91z"/>
		<path class="st1" d="M249.3,83.9h1.3v4.9c0,0.6,0.5,1.1,1.1,1.1l0,0c0.6,0,1.1-0.5,1.1-1.1v-4.9h1.3v4.9c0,1.3-1.1,2.4-2.4,2.4
			l0,0c-1.3,0-2.4-1.1-2.4-2.4L249.3,83.9L249.3,83.9z"/>
		<path class="st1" d="M256.8,83.9h2.5c1.2,0,2.3,1,2.3,2.2l0,0c0,1.2-1,2.3-2.3,2.3h-1.1v-1.3h1.2c0.5,0,0.9-0.4,0.9-0.9v0
			c0-0.5-0.4-0.9-0.9-0.9h-1.2c0,1.9,0,3.8,0,5.8h-1.3V83.9L256.8,83.9z"/>
		<path class="st1" d="M242.9,83.8c-2,0-3.7,1.7-3.7,3.7c0,2,1.7,3.7,3.7,3.7c2,0,3.7-1.7,3.7-3.7C246.5,85.4,244.9,83.8,242.9,83.8
			z M242.9,89.8c-1.3,0-2.4-1.1-2.4-2.4c0-1.3,1.1-2.4,2.4-2.4c1.3,0,2.4,1.1,2.4,2.4C245.2,88.8,244.2,89.8,242.9,89.8z"/>
		<polygon class="st1" points="199,83.9 200.3,83.9 202.6,89.4 204.9,83.9 206.2,83.9 203.3,91 202,91 199,83.9 		"/>
		<path class="st1" d="M196.4,83.9h-1.3l-2.9,7.1h1.3l0.8-1.8h3.1L198,91h1.3L196.4,83.9z M194.7,87.8l1-2.4l1,2.4H194.7z"/>
		<rect x="207.8" y="83.9" class="st1" width="1.3" height="7.1"/>
		<path class="st1" d="M186.5,89h1.4c0,0.6,0.5,0.9,1,0.9c0.8,0,1.2-0.9,0.7-1.5c-0.4-0.5-1.2-0.6-1.7-0.8c-0.7-0.3-1.1-1-1.1-1.8
			c0-1.2,0.9-2,2.1-2c1.1,0,2.1,0.9,2.1,2h-1.4c0-0.4-0.4-0.7-0.8-0.7c-0.4,0-0.7,0.3-0.7,0.7c0,0.5,0.5,0.7,0.9,0.9
			c0.5,0.2,1,0.3,1.4,0.7c0.5,0.4,0.7,0.9,0.7,1.6c0,1.3-1,2.2-2.3,2.2C187.5,91.2,186.5,90.2,186.5,89L186.5,89z"/>
		<path class="st1" d="M211.4,89h1.4c0,0.6,0.5,0.9,1,0.9c0.8,0,1.2-0.9,0.7-1.5c-0.4-0.5-1.2-0.6-1.7-0.8c-0.7-0.3-1.1-1-1.1-1.8
			c0-1.2,0.9-2,2.1-2c1.1,0,2.1,0.9,2.1,2h-1.4c0-0.4-0.4-0.7-0.8-0.7c-0.4,0-0.7,0.3-0.7,0.7c0,0.5,0.5,0.7,0.9,0.9
			c0.5,0.2,1,0.3,1.4,0.7c0.5,0.4,0.7,0.9,0.7,1.6c0,1.3-1,2.2-2.3,2.2C212.5,91.2,211.4,90.2,211.4,89L211.4,89z"/>
		<polygon class="st1" points="175.6,92.8 176.5,90.5 174.6,85.7 176,85.7 177.3,89.1 178.5,85.7 180,85.7 176.9,92.8 		"/>
		<path class="st1" d="M226.4,83.8c1.5,0,2.8,0.9,3.4,2.2h-1.5c-0.4-0.5-1.1-0.9-1.9-0.9c-1.3,0-2.4,1.1-2.4,2.4s1.1,2.4,2.4,2.4
			c0.9,0,1.7-0.5,2.1-1.2h-2.1v-1.3c1.2,0,2.4,0,3.7,0l0,0.2c0,2-1.6,3.7-3.7,3.7s-3.7-1.7-3.7-3.7
			C222.7,85.4,224.4,83.8,226.4,83.8L226.4,83.8z"/>
		<path class="st1" d="M170.3,85.6c-0.7,0-1.3,0.3-1.7,0.7v-2.4h-1.3V91v0h1.3v-0.6c0.5,0.5,1.1,0.7,1.7,0.7c1.4,0,2.6-1.3,2.6-2.8
			C172.9,86.8,171.7,85.6,170.3,85.6z M170.1,89.8c-0.8,0-1.5-0.7-1.5-1.5c0-0.8,0.7-1.5,1.5-1.5c0.8,0,1.5,0.7,1.5,1.5
			C171.6,89.2,170.9,89.8,170.1,89.8z"/>
	</g>
</g>
</svg>
