<?xml version="1.0" encoding="utf-8"?>
<!-- Generator: Adobe Illustrator 22.0.1, SVG Export Plug-In . SVG Version: 6.00 Build 0)  -->
<svg version="1.1" id="Layer_1" xmlns="http://www.w3.org/2000/svg" xmlns:xlink="http://www.w3.org/1999/xlink" x="0px" y="0px"
	 viewBox="0 0 274.2 105" style="enable-background:new 0 0 274.2 105;" xml:space="preserve">
<style type="text/css">
	.st0{fill:#2C3691;}
	.st1{fill:#EC2028;}
</style>
<title>viettel ca</title>
<g id="Layer_2_1_">
	<g id="Layer_1-2">
		<path class="st0" d="M22.5,85V31.7c0,0,0.1-5,5.4-7.3s9.7,1,14.4,4.5s28.2,25.2,28.2,25.2s3.4,3.4,5,2.7c2.3-1,1.3-3.7,1.7-7.4
			c0.4-3.7,1.1-8.4,6.7-14.4s10.3-8.6,17.8-8.8c7.6-0.3,50.6,0,50.6,0l-12.1,15.4h-30.8c0,0-7.8-0.4-11.5,4.3s-4.4,5.6-4.4,15
			s1.3,19.8-4.6,22.7c-5.6,2.8-8.4,1.4-13.8-3c-5.4-4.4-35.1-30.9-35.1-30.9v35.5L22.5,85z"/>
		<path class="st0" d="M96.5,64.7c0,0,4.6,5.5,11.9,5.6s31.8-0.4,31.8-0.4L152,84.7L107,84.5c0,0-7,0.1-12.1-2.6c0,0,1.7-0.2,1.7-6
			C96.7,70.1,96.5,64.7,96.5,64.7z"/>
		<path class="st1" d="M227.7,25.8h-57.8c0,0-21.1,1.2-26.4,22.5l7.1,0.1c0,0,4.2,0.1,4.2,5.1v4.7c0,0-1.2,4.2-5.3,4.2h-6.4
			c0,0,2.1,10.1,13.1,18.1c0,0,5.6,5.6,27.5,4.6c0,0-8.4-6.6-2-15.2h-8.4c0,0-6,0.7-11-6c-4.9-6.7-2.2-15.9,3-19.5
			c5.1-3.6,9.7-2.6,9.7-2.6h34.7L227.7,25.8z"/>
		<path class="st1" d="M184.1,71.1c0,0-4.7,5.5,0.8,10.9c5.5,5.4,11,1.2,13.6-1.1c2.7-2.4,36.4-31.7,36.3-32v35.7h16.9V32.3
			c0,0,0.5-4.1-3-6.9c-3.6-2.9-7.4-3.3-12.7,0.4c0,0-15.6,12.4-28.3,24.3C195.9,61.1,184.1,71.1,184.1,71.1z"/>
		<path class="st1" d="M197.6,84.9c0,0,4.8-3.9,12.6-10.6c4.9,6,7.8,9.9,8.9,10.7C208.3,85,197.6,84.9,197.6,84.9z"/>
		<path class="st0" d="M136.6,51.1h12.9c1.5,0,2.8,1.3,2.8,2.8v2.8c0,1.5-1.3,2.8-2.8,2.8h-12.9c-1.5,0-2.8-1.3-2.8-2.8v-2.8
			C133.8,52.4,135,51.1,136.6,51.1z"/>
	</g>
</g>
</svg>
