<?xml version="1.0" encoding="utf-8"?>
<!-- Generator: Adobe Illustrator 22.0.1, SVG Export Plug-In . SVG Version: 6.00 Build 0)  -->
<svg version="1.1" id="Layer_1" xmlns="http://www.w3.org/2000/svg" xmlns:xlink="http://www.w3.org/1999/xlink" x="0px" y="0px"
	 viewBox="0 0 274.2 105" style="enable-background:new 0 0 274.2 105;" xml:space="preserve">
<style type="text/css">
	.st0{fill:#375AA8;}
	.st1{fill:#213A71;}
	.st2{fill:#E52125;}
	.st3{fill:#FFFFFF;}
</style>
<title>viettel ca</title>
<g>
	<path class="st0" d="M92.2,59.8H105c2.2,0,3.8-0.3,4.8-1.1c1.4-1.1,2.1-2.5,2.1-4.4c0-2.4-1.1-4-3.3-4.6c-0.7-0.2-1.8-0.3-3.3-0.3
		h-7.7c-2.9,0-5.3,2.4-5.3,5.3V59.8z M92.2,41.7H105c2.2,0,3.8-0.3,4.7-1.1c1.4-1.1,2.1-2.5,2.1-4.4c0-2.4-1.1-4-3.3-4.6
		c-0.6-0.2-1.7-0.3-3.2-0.3h-7.6c-3,0-5.4,2.4-5.4,5.4V41.7z M82.8,67.7V23.6h24.9c3.2,0,5.7,0.3,7.4,0.9c2.3,0.8,4.2,2.4,5.4,4.7
		c1,1.9,1.5,3.8,1.5,6c0,4.4-2.5,8.9-6.4,10.5c4.3,1.9,6.4,5.4,6.4,10.3c0,5.5-2.2,9.1-6.5,10.7c-1.7,0.7-4.5,1-8.4,1H82.8z"/>
	<path class="st0" d="M167.9,23.6v44.1h-9.4V49.5h-12.8c-2.3,0-4.2,1.9-4.2,4.2v14h-9.4V23.6h9.4v18.1h17V23.6H167.9z"/>
	<path class="st0" d="M190.8,45.4l-14.5-21.8h11.5l8.7,14.5l9.4-14.5h11.4l-15,21.8l15,22.3h-11l-9.7-15.2L187,67.7h-11.2
		L190.8,45.4z"/>
	<path class="st0" d="M260.9,23.6v44.1h-9.4V49.5h-13.6c-1.9,0-3.4,1.5-3.4,3.4v14.8h-9.4V23.6h9.4v18.1h17V23.6H260.9z"/>
	<path class="st1" d="M84.3,78.6h0.3h0.3c0.1,0,0.1,0,0.3,0c0.1,0,0.2,0,0.2,0c0.1,0,0.1,0,0.2,0c0.1,0,0.1,0,0.2-0.1
		c0.2-0.1,0.4-0.2,0.5-0.4c0.1-0.2,0.2-0.4,0.2-0.6c0-0.2-0.1-0.4-0.2-0.6c-0.1-0.2-0.3-0.3-0.5-0.3c-0.1,0-0.1,0-0.2,0
		c0,0-0.1,0-0.2,0l-0.4,0h-0.3h-0.3V78.6z M84.3,82.9h-1.4v-7.8h1.8c0.2,0,0.4,0,0.5,0c0.1,0,0.3,0,0.4,0c0.1,0,0.2,0,0.3,0
		c0.1,0,0.2,0,0.3,0.1c0.2,0.1,0.4,0.1,0.6,0.3c0.3,0.2,0.6,0.5,0.8,0.8c0.2,0.4,0.3,0.7,0.3,1.1c0,0.4-0.1,0.8-0.2,1.1
		c-0.2,0.3-0.4,0.6-0.7,0.9c-0.2,0.2-0.4,0.3-0.7,0.4c-0.1,0-0.2,0.1-0.3,0.1c-0.1,0-0.2,0-0.3,0c-0.2,0-0.3,0-0.5,0
		c-0.1,0-0.3,0-0.4,0h-0.3V82.9z"/>
	<path class="st1" d="M88.6,82.9v-7.8H90v2.4c0.1-0.2,0.4-0.4,0.6-0.5c0.3-0.1,0.6-0.2,0.8-0.2c0.3,0,0.6,0.1,0.9,0.2
		c0.3,0.1,0.6,0.3,0.8,0.6c0.2,0.2,0.3,0.4,0.4,0.7c0,0.1,0.1,0.3,0.1,0.5c0,0.2,0,0.5,0,0.8v3.1h-1.4v-2.8c0-0.7-0.1-1.2-0.3-1.5
		c-0.2-0.2-0.5-0.3-0.9-0.3c-0.4,0-0.7,0.2-1,0.5c-0.1,0.1-0.2,0.4-0.2,0.6c0,0.2,0,0.4,0,0.7v2.8H88.6z"/>
	<path class="st1" d="M98.3,74.2l0.6-1.1l2.3,1.4l-0.6,1L98.3,74.2z M99.5,80c0-0.5-0.2-0.9-0.5-1.2c-0.3-0.3-0.7-0.5-1.2-0.5
		c-0.5,0-0.9,0.2-1.2,0.5c-0.3,0.3-0.5,0.8-0.5,1.3c0,0.5,0.2,0.9,0.5,1.2c0.3,0.3,0.7,0.5,1.2,0.5c0.5,0,0.9-0.2,1.2-0.5
		C99.3,80.9,99.5,80.5,99.5,80 M95.7,76.4l1.6-1.4h1.1l1.5,1.4h-1.5l-0.6-0.7l-0.6,0.7H95.7z M100.8,77.1v5.8h-1.3v-0.8
		c-0.2,0.3-0.5,0.5-0.9,0.7c-0.4,0.2-0.7,0.3-1.1,0.3c-0.4,0-0.9-0.1-1.2-0.3c-0.4-0.2-0.7-0.4-0.9-0.7c-0.2-0.3-0.4-0.6-0.5-1
		c-0.1-0.4-0.2-0.7-0.2-1.1c0-0.4,0.1-0.8,0.2-1.1c0.1-0.3,0.3-0.7,0.6-1c0.3-0.3,0.6-0.6,1-0.8c0.4-0.2,0.8-0.2,1.2-0.2
		c0.4,0,0.8,0.1,1.1,0.3c0.3,0.2,0.6,0.4,0.8,0.7v-0.8H100.8z"/>
	<path class="st1" d="M101.8,82.9v-5.8h1.3v0.5c0.2-0.2,0.4-0.4,0.7-0.5c0.3-0.1,0.6-0.2,0.9-0.2c0.3,0,0.6,0.1,0.9,0.2
		c0.3,0.1,0.5,0.3,0.8,0.5l0.1,0.1c0,0,0,0,0.1,0.1c0.2,0.3,0.3,0.6,0.4,1c0,0.2,0.1,0.6,0.1,1.1v3h-1.4v-2.7v-0.1V80v-0.1v-0.1
		v-0.1c0-0.1,0-0.2,0-0.3c0-0.3-0.1-0.5-0.2-0.7c-0.1-0.2-0.2-0.3-0.4-0.4c-0.2-0.1-0.3-0.1-0.5-0.1c-0.2,0-0.4,0-0.6,0.1
		c-0.2,0.1-0.3,0.2-0.4,0.4c-0.1,0.2-0.2,0.3-0.2,0.6c0,0.1,0,0.2,0,0.3c0,0.1,0,0.3,0,0.4v0.2v2.6H101.8z"/>
	<path class="st1" d="M111.1,82.9v-5.8h1.3v0.5c0.1-0.2,0.3-0.4,0.7-0.6c0.3-0.1,0.6-0.2,0.9-0.2c0.3,0,0.6,0.1,0.9,0.2
		c0.3,0.1,0.5,0.3,0.7,0.5l0.1,0.1l0.1,0.1c0,0,0-0.1,0.1-0.1l0.1-0.1c0.2-0.2,0.4-0.4,0.8-0.5c0.3-0.1,0.6-0.2,0.9-0.2
		c0.4,0,0.7,0.1,1,0.2c0.3,0.1,0.6,0.3,0.8,0.6c0.2,0.3,0.4,0.6,0.5,0.9c0.1,0.3,0.1,0.6,0.1,1.1v3.3h-1.4v-3.1v-0.1v-0.1v-0.1
		c0-0.1,0-0.1,0-0.2c0-0.1,0-0.1,0-0.2c0-0.2-0.1-0.4-0.2-0.5c-0.1-0.1-0.2-0.2-0.4-0.3c-0.2-0.1-0.3-0.1-0.5-0.1
		c-0.2,0-0.4,0-0.5,0.1c-0.2,0.1-0.3,0.2-0.4,0.4c-0.1,0.1-0.1,0.2-0.2,0.4c0,0.1,0,0.2,0,0.3c0,0.1,0,0.3,0,0.4v0.2v2.8h-1.4v-3.1
		v-0.1v-0.1v-0.1c0-0.1,0-0.3,0-0.3c0-0.2-0.1-0.4-0.2-0.5c-0.1-0.1-0.2-0.3-0.4-0.3c-0.2-0.1-0.3-0.1-0.5-0.1
		c-0.3,0-0.6,0.1-0.8,0.3c-0.2,0.2-0.3,0.4-0.3,0.7c0,0.2,0,0.5,0,0.8v2.8H111.1z"/>
	<path class="st1" d="M124.2,74.2l0.6-1.1l2.3,1.4l-0.6,1L124.2,74.2z M122.1,79.4h3.2c-0.1-0.3-0.3-0.6-0.6-0.8
		c-0.3-0.2-0.6-0.3-1-0.3c-0.4,0-0.7,0.1-1,0.3C122.4,78.8,122.2,79.1,122.1,79.4 M121.7,76.4l1.6-1.4h1.1l1.5,1.4h-1.5l-0.6-0.7
		l-0.6,0.7H121.7z M126.7,80.7h-4.5c0.1,0.3,0.3,0.6,0.6,0.8c0.3,0.2,0.6,0.3,1,0.3c0.3,0,0.5,0,0.7-0.1c0.2-0.1,0.4-0.2,0.6-0.4
		h1.5c-0.2,0.5-0.5,1-1.1,1.3c-0.5,0.4-1.1,0.5-1.7,0.5c-0.8,0-1.6-0.3-2.2-0.9c-0.3-0.3-0.5-0.6-0.7-1c-0.2-0.4-0.2-0.8-0.2-1.2
		c0-0.9,0.3-1.6,0.9-2.2c0.6-0.6,1.3-0.9,2.2-0.9c0.8,0,1.5,0.3,2.1,0.9c0.6,0.6,0.9,1.3,0.9,2.1v0.2c0,0.1,0,0.1,0,0.1L126.7,80.7z
		"/>
	<path class="st1" d="M127.6,82.9v-5.8h1.3v0.5c0.1-0.2,0.3-0.4,0.7-0.6c0.3-0.1,0.6-0.2,0.9-0.2c0.3,0,0.6,0.1,0.9,0.2
		c0.3,0.1,0.5,0.3,0.7,0.5l0.1,0.1l0.1,0.1c0,0,0-0.1,0.1-0.1l0.1-0.1c0.2-0.2,0.4-0.4,0.8-0.5c0.3-0.1,0.6-0.2,0.9-0.2
		c0.4,0,0.7,0.1,1,0.2c0.3,0.1,0.6,0.3,0.8,0.6c0.2,0.3,0.4,0.6,0.5,0.9c0.1,0.3,0.1,0.6,0.1,1.1v3.3H135v-3.1v-0.1v-0.1v-0.1
		c0-0.1,0-0.1,0-0.2c0-0.1,0-0.1,0-0.2c0-0.2-0.1-0.4-0.2-0.5c-0.1-0.1-0.2-0.2-0.4-0.3c-0.2-0.1-0.3-0.1-0.5-0.1
		c-0.2,0-0.4,0-0.5,0.1c-0.2,0.1-0.3,0.2-0.4,0.4c-0.1,0.1-0.1,0.2-0.2,0.4c0,0.1,0,0.2,0,0.3c0,0.1,0,0.3,0,0.4v0.2v2.8h-1.4v-3.1
		v-0.1v-0.1v-0.1c0-0.1,0-0.3,0-0.3c0-0.2-0.1-0.4-0.2-0.5c-0.1-0.1-0.2-0.3-0.4-0.3s-0.3-0.1-0.5-0.1c-0.3,0-0.6,0.1-0.8,0.3
		c-0.2,0.2-0.3,0.4-0.3,0.7c0,0.2,0,0.5,0,0.8v2.8H127.6z"/>
	<path class="st1" d="M143.5,78.3c-0.5,0-0.9,0.2-1.2,0.5c-0.3,0.3-0.5,0.7-0.5,1.2c0,0.5,0.2,0.9,0.5,1.3c0.3,0.3,0.7,0.5,1.3,0.5
		c0.5,0,0.9-0.2,1.2-0.5c0.3-0.3,0.5-0.7,0.5-1.2c0-0.5-0.2-0.9-0.5-1.2C144.4,78.5,144,78.3,143.5,78.3 M140.4,82.9v-7.8h1.4v2.5
		c0.2-0.3,0.5-0.5,0.8-0.6c0.3-0.1,0.6-0.2,1-0.2c0.8,0,1.5,0.3,2.1,0.9c0.5,0.6,0.8,1.3,0.8,2.2c0,0.4-0.1,0.7-0.2,1.1
		c-0.1,0.4-0.3,0.7-0.5,1c-0.3,0.3-0.6,0.5-0.9,0.7c-0.4,0.2-0.8,0.3-1.2,0.3c-0.4,0-0.8-0.1-1.1-0.2c-0.3-0.2-0.6-0.4-0.9-0.7v0.8
		H140.4z"/>
	<path class="st1" d="M149.2,75.2V75l0-0.2c0,0,0,0,0,0c0,0,0,0,0,0c0,0,0,0,0-0.1c0,0,0-0.1,0.1-0.1h0c0-0.1,0.1-0.1,0.1-0.2
		c0-0.1,0.1-0.1,0.2-0.2c0,0,0.1-0.1,0.2-0.1c0.1,0,0.1-0.1,0.2-0.1c0.2-0.1,0.4-0.1,0.5-0.1c0.2,0,0.3,0,0.5,0.1
		c0.1,0.1,0.3,0.1,0.4,0.3c0.2,0.2,0.3,0.5,0.3,0.8c0,0.1,0,0.3-0.1,0.4c-0.1,0.1-0.2,0.3-0.3,0.4c-0.1,0.1-0.2,0.2-0.3,0.3
		c-0.1,0.1-0.1,0.2-0.1,0.4h-0.9c0-0.1,0-0.2,0.1-0.4c0-0.1,0.1-0.3,0.2-0.4l0.4-0.5c0.1-0.1,0.1-0.1,0.1-0.2c0-0.1,0-0.2-0.1-0.3
		c-0.1-0.1-0.1-0.1-0.2-0.1c-0.1,0-0.2,0-0.2,0.1c0,0-0.1,0.1-0.1,0.2c0,0.1,0,0.2,0,0.3H149.2z M151.9,80c0-0.5-0.2-0.9-0.5-1.2
		c-0.3-0.3-0.7-0.5-1.2-0.5c-0.5,0-0.9,0.2-1.2,0.5c-0.3,0.3-0.5,0.8-0.5,1.3c0,0.5,0.2,0.9,0.5,1.2c0.3,0.3,0.7,0.5,1.2,0.5
		c0.5,0,0.9-0.2,1.2-0.5C151.8,80.9,151.9,80.5,151.9,80 M153.3,77.1v5.8H152v-0.8c-0.2,0.3-0.5,0.5-0.9,0.7
		c-0.4,0.2-0.7,0.3-1.1,0.3c-0.4,0-0.9-0.1-1.2-0.3c-0.4-0.2-0.7-0.4-0.9-0.7c-0.2-0.3-0.4-0.6-0.5-1c-0.1-0.4-0.2-0.7-0.2-1.1
		c0-0.4,0.1-0.8,0.2-1.1c0.1-0.3,0.3-0.7,0.6-1c0.3-0.3,0.6-0.6,1-0.8c0.4-0.2,0.8-0.2,1.2-0.2c0.4,0,0.8,0.1,1.1,0.3
		c0.3,0.2,0.6,0.4,0.8,0.7v-0.8H153.3z"/>
	<path class="st1" d="M157.1,78.3c-0.1,0-0.2,0-0.3,0c-0.1,0-0.2,0.1-0.3,0.1c-0.2,0.1-0.4,0.2-0.6,0.4c-0.2,0.2-0.3,0.3-0.4,0.6
		c-0.1,0.2-0.1,0.4-0.1,0.7c0,0.5,0.2,0.9,0.5,1.2c0.3,0.3,0.7,0.5,1.2,0.5c0.5,0,0.9-0.2,1.2-0.5c0.3-0.3,0.5-0.7,0.5-1.2
		c0-0.5-0.2-0.9-0.5-1.2C158,78.5,157.6,78.3,157.1,78.3 M157.2,76.9c0.8,0,1.6,0.3,2.2,0.9c0.3,0.3,0.5,0.6,0.7,1
		c0.1,0.4,0.2,0.8,0.2,1.2c0,0.9-0.3,1.6-0.9,2.2c-0.6,0.6-1.3,0.9-2.2,0.9c-0.8,0-1.6-0.3-2.2-0.9c-0.6-0.6-0.9-1.3-0.9-2.2
		c0-0.9,0.3-1.6,0.9-2.2C155.6,77.2,156.3,76.9,157.2,76.9"/>
	<path class="st1" d="M164,82.9v-7.8h1.4v2.4c0.1-0.2,0.4-0.4,0.6-0.5c0.3-0.1,0.6-0.2,0.8-0.2c0.3,0,0.6,0.1,0.9,0.2
		c0.3,0.1,0.6,0.3,0.8,0.6c0.2,0.2,0.3,0.4,0.4,0.7c0,0.1,0.1,0.3,0.1,0.5c0,0.2,0,0.5,0,0.8v3.1h-1.4v-2.8c0-0.7-0.1-1.2-0.3-1.5
		c-0.2-0.2-0.5-0.3-0.9-0.3c-0.4,0-0.7,0.2-1,0.5c-0.1,0.1-0.2,0.4-0.2,0.6c0,0.2,0,0.4,0,0.7v2.8H164z"/>
	<path class="st1" d="M170.2,77.1h1.4v5.8h-1.4V77.1z M170.2,75.2h1.4v1.3h-1.4V75.2z"/>
	<path class="st1" d="M176.5,74.2V74l0-0.2c0,0,0,0,0,0c0,0,0,0,0,0c0,0,0,0,0-0.1c0,0,0-0.1,0.1-0.1h0c0-0.1,0.1-0.1,0.1-0.2
		c0-0.1,0.1-0.1,0.2-0.2c0,0,0.1-0.1,0.2-0.1c0.1,0,0.1-0.1,0.2-0.1c0.2-0.1,0.4-0.1,0.5-0.1c0.2,0,0.3,0,0.5,0.1
		c0.1,0.1,0.3,0.1,0.4,0.3c0.2,0.2,0.3,0.5,0.3,0.8c0,0.1,0,0.3-0.1,0.4c-0.1,0.1-0.2,0.3-0.3,0.4c-0.1,0.1-0.2,0.2-0.3,0.3
		c-0.1,0.1-0.1,0.3-0.1,0.4h-0.9c0-0.1,0-0.2,0.1-0.4c0-0.1,0.1-0.3,0.2-0.4l0.4-0.5c0.1-0.1,0.1-0.1,0.1-0.2c0-0.1,0-0.2-0.1-0.3
		c-0.1-0.1-0.1-0.1-0.2-0.1c-0.1,0-0.2,0-0.2,0.1c0,0-0.1,0.1-0.1,0.2c0,0.1,0,0.2,0,0.3H176.5z M174,79.4h3.2
		c-0.1-0.3-0.3-0.6-0.6-0.8c-0.3-0.2-0.6-0.3-1-0.3c-0.4,0-0.7,0.1-1,0.3C174.3,78.8,174.1,79.1,174,79.4 M173.5,76.4l1.6-1.4h1.1
		l1.5,1.4h-1.5l-0.6-0.7l-0.6,0.7H173.5z M178.5,80.7H174c0.1,0.3,0.3,0.6,0.6,0.8c0.3,0.2,0.6,0.3,1,0.3c0.3,0,0.5,0,0.7-0.1
		c0.2-0.1,0.4-0.2,0.6-0.4h1.5c-0.2,0.5-0.5,1-1.1,1.3c-0.5,0.4-1.1,0.5-1.7,0.5c-0.8,0-1.6-0.3-2.2-0.9c-0.3-0.3-0.5-0.6-0.7-1
		c-0.2-0.4-0.2-0.8-0.2-1.2c0-0.9,0.3-1.6,0.9-2.2c0.6-0.6,1.3-0.9,2.2-0.9c0.8,0,1.5,0.3,2.1,0.9c0.6,0.6,0.9,1.3,0.9,2.1v0.2
		c0,0.1,0,0.1,0,0.1L178.5,80.7z"/>
	<path class="st1" d="M179.5,82.9v-5.8h1.3v0.5c0.1-0.2,0.3-0.4,0.7-0.6c0.3-0.1,0.6-0.2,0.9-0.2c0.3,0,0.6,0.1,0.9,0.2
		c0.3,0.1,0.5,0.3,0.7,0.5l0.1,0.1l0.1,0.1c0,0,0-0.1,0.1-0.1l0.1-0.1c0.2-0.2,0.4-0.4,0.8-0.5c0.3-0.1,0.6-0.2,0.9-0.2
		c0.4,0,0.7,0.1,1,0.2c0.3,0.1,0.6,0.3,0.8,0.6c0.2,0.3,0.4,0.6,0.5,0.9c0.1,0.3,0.1,0.6,0.1,1.1v3.3h-1.4v-3.1v-0.1v-0.1v-0.1
		c0-0.1,0-0.1,0-0.2c0-0.1,0-0.1,0-0.2c0-0.2-0.1-0.4-0.2-0.5c-0.1-0.1-0.2-0.2-0.4-0.3c-0.2-0.1-0.3-0.1-0.5-0.1
		c-0.2,0-0.4,0-0.5,0.1c-0.2,0.1-0.3,0.2-0.4,0.4c-0.1,0.1-0.1,0.2-0.2,0.4c0,0.1,0,0.2,0,0.3c0,0.1,0,0.3,0,0.4v0.2v2.8h-1.4v-3.1
		v-0.1v-0.1v-0.1c0-0.1,0-0.3,0-0.3c0-0.2-0.1-0.4-0.2-0.5c-0.1-0.1-0.2-0.3-0.4-0.3s-0.3-0.1-0.5-0.1c-0.3,0-0.6,0.1-0.8,0.3
		c-0.1,0.2-0.3,0.4-0.3,0.7c0,0.2,0,0.5,0,0.8v2.8H179.5z"/>
	<path class="st1" d="M191.7,82.9l2.1-3l-1.8-2.8h1.6l1,1.6l1-1.6h1.6l-1.8,2.8l2.1,3h-1.7l-1.2-1.9l-1.2,1.9H191.7z"/>
	<path class="st1" d="M199.8,76.4l-0.5-0.9c0.1-0.1,0.3-0.2,0.5-0.3c0.2-0.1,0.4-0.1,0.6-0.1c0.1,0,0.3,0,0.5,0.1
		c0.4,0.1,0.6,0.2,0.7,0.2c0.1,0,0.3,0,0.4-0.1c0.1,0,0.2-0.1,0.3-0.2l0.5,0.9c-0.2,0.1-0.3,0.3-0.5,0.3c-0.2,0.1-0.3,0.1-0.5,0.1
		c-0.1,0-0.2,0-0.3,0c-0.1,0-0.2-0.1-0.4-0.1c-0.3-0.1-0.5-0.1-0.6-0.1C200.3,76.2,200,76.2,199.8,76.4 M202.7,80
		c0-0.5-0.2-0.9-0.5-1.2c-0.3-0.3-0.7-0.5-1.2-0.5c-0.5,0-0.9,0.2-1.2,0.5c-0.3,0.3-0.5,0.8-0.5,1.3c0,0.5,0.2,0.9,0.5,1.2
		c0.3,0.3,0.7,0.5,1.2,0.5c0.5,0,0.9-0.2,1.2-0.5C202.6,80.9,202.7,80.5,202.7,80 M204.1,77.1v5.8h-1.3v-0.8
		c-0.2,0.3-0.5,0.5-0.9,0.7c-0.4,0.2-0.7,0.3-1.1,0.3c-0.4,0-0.9-0.1-1.2-0.3c-0.4-0.2-0.7-0.4-0.9-0.7c-0.2-0.3-0.4-0.6-0.5-1
		c-0.1-0.4-0.2-0.7-0.2-1.1c0-0.4,0.1-0.8,0.2-1.1c0.1-0.3,0.3-0.7,0.6-1c0.3-0.3,0.6-0.6,1-0.8c0.4-0.2,0.8-0.2,1.2-0.2
		c0.4,0,0.8,0.1,1.1,0.3c0.3,0.2,0.6,0.4,0.8,0.7v-0.8H204.1z"/>
	<path class="st1" d="M208,82.9v-7.8h1.4v2.4c0.1-0.2,0.4-0.4,0.6-0.5c0.3-0.1,0.6-0.2,0.8-0.2c0.3,0,0.6,0.1,0.9,0.2
		c0.3,0.1,0.6,0.3,0.8,0.6c0.2,0.2,0.3,0.4,0.4,0.7c0,0.1,0.1,0.3,0.1,0.5c0,0.2,0,0.5,0,0.8v3.1h-1.4v-2.8c0-0.7-0.1-1.2-0.3-1.5
		c-0.2-0.2-0.5-0.3-0.9-0.3c-0.4,0-0.7,0.2-1,0.5c-0.1,0.1-0.2,0.4-0.2,0.6c0,0.2,0,0.4,0,0.7v2.8H208z"/>
	<path class="st1" d="M216.5,83.7h1.4V85h-1.4V83.7z M217.2,78.3c-0.1,0-0.2,0-0.3,0c-0.1,0-0.2,0.1-0.3,0.1
		c-0.2,0.1-0.4,0.2-0.6,0.4c-0.2,0.2-0.3,0.3-0.4,0.6c-0.1,0.2-0.1,0.4-0.1,0.7c0,0.5,0.2,0.9,0.5,1.2c0.3,0.3,0.7,0.5,1.2,0.5
		c0.5,0,0.9-0.2,1.2-0.5c0.3-0.3,0.5-0.7,0.5-1.2c0-0.5-0.2-0.9-0.5-1.2C218,78.5,217.6,78.3,217.2,78.3 M215.1,76.4l1.6-1.4h1.1
		l1.5,1.4h-1.5l-0.6-0.7l-0.6,0.7H215.1z M217.2,76.9c0.8,0,1.6,0.3,2.2,0.9c0.3,0.3,0.5,0.6,0.7,1c0.1,0.4,0.2,0.8,0.2,1.2
		c0,0.9-0.3,1.6-0.9,2.2c-0.6,0.6-1.3,0.9-2.2,0.9c-0.8,0-1.6-0.3-2.2-0.9c-0.6-0.6-0.9-1.3-0.9-2.2c0-0.9,0.3-1.6,0.9-2.2
		C215.6,77.2,216.3,76.9,217.2,76.9"/>
	<path class="st1" d="M221,77.1h1.4v5.8H221V77.1z M221,75.2h1.4v1.3H221V75.2z"/>
	<path class="st1" d="M231.1,80c0-0.5-0.2-0.9-0.5-1.2c-0.3-0.3-0.7-0.5-1.2-0.5c-0.4,0-0.8,0.2-1.2,0.5c-0.3,0.3-0.5,0.7-0.5,1.2
		c0,0.5,0.2,0.9,0.5,1.3c0.3,0.3,0.7,0.5,1.2,0.5c0.5,0,0.9-0.2,1.2-0.5C230.9,80.9,231.1,80.5,231.1,80 M229.7,75.3h1.3v-0.5h1.4
		v0.5l0.5,0v0.9l-0.5,0v6.7h-1.3v-0.8c-0.2,0.3-0.5,0.5-0.8,0.7c-0.4,0.2-0.7,0.3-1.1,0.3c-0.4,0-0.8-0.1-1.2-0.3
		c-0.4-0.2-0.7-0.4-0.9-0.7c-0.2-0.3-0.4-0.6-0.6-1c-0.1-0.4-0.2-0.7-0.2-1.1c0-0.2,0-0.4,0-0.6c0-0.2,0.1-0.4,0.1-0.6
		c0.1-0.4,0.3-0.7,0.6-1c0.3-0.3,0.6-0.5,1-0.7c0.4-0.2,0.8-0.3,1.2-0.3c0.3,0,0.7,0.1,1,0.2c0.3,0.1,0.6,0.3,0.8,0.6v-1.5h-1.3
		L229.7,75.3z"/>
	<path class="st1" d="M233.4,77.1h1.4v5.8h-1.4V77.1z M233.4,75.2h1.4v1.3h-1.4V75.2z"/>
	<path class="st1" d="M238.1,83.6h1.4V85h-1.4V83.6z M237.2,79.4h3.2c-0.1-0.3-0.3-0.6-0.6-0.8c-0.3-0.2-0.6-0.3-1-0.3
		c-0.4,0-0.7,0.1-1,0.3C237.5,78.8,237.3,79.1,237.2,79.4 M236.7,76.4l1.6-1.4h1.1l1.5,1.4h-1.5l-0.6-0.7l-0.6,0.7H236.7z
		 M241.7,80.7h-4.5c0.1,0.3,0.3,0.6,0.6,0.8c0.3,0.2,0.6,0.3,1,0.3c0.3,0,0.5,0,0.7-0.1c0.2-0.1,0.4-0.2,0.6-0.4h1.5
		c-0.2,0.5-0.5,1-1.1,1.3c-0.5,0.4-1.1,0.5-1.7,0.5c-0.8,0-1.6-0.3-2.2-0.9c-0.3-0.3-0.5-0.6-0.7-1c-0.2-0.4-0.2-0.8-0.2-1.2
		c0-0.9,0.3-1.6,0.9-2.2c0.6-0.6,1.3-0.9,2.2-0.9c0.8,0,1.5,0.3,2.1,0.9c0.6,0.6,0.9,1.3,0.9,2.1v0.2c0,0.1,0,0.1,0,0.1L241.7,80.7z
		"/>
	<path class="st1" d="M242.7,82.9v-5.8h1.3v0.5c0.2-0.2,0.4-0.4,0.7-0.5c0.3-0.1,0.6-0.2,0.9-0.2c0.3,0,0.6,0.1,0.9,0.2
		c0.3,0.1,0.5,0.3,0.8,0.5l0.1,0.1c0,0,0,0,0.1,0.1c0.2,0.3,0.3,0.6,0.4,1c0,0.2,0.1,0.6,0.1,1.1v3h-1.4v-2.7v-0.1V80v-0.1v-0.1
		v-0.1c0-0.1,0-0.2,0-0.3c0-0.3-0.1-0.5-0.2-0.7c-0.1-0.2-0.2-0.3-0.4-0.4c-0.2-0.1-0.3-0.1-0.5-0.1c-0.2,0-0.4,0-0.6,0.1
		s-0.3,0.2-0.4,0.4c-0.1,0.2-0.2,0.3-0.2,0.6c0,0.1,0,0.2,0,0.3c0,0.1,0,0.3,0,0.4v0.2v2.6H242.7z"/>
	<path class="st1" d="M252.1,82.9v-4.6h-0.7v-1.2h0.7v-1.9h1.4v1.9h0.8v1.2h-0.8v4.6H252.1z"/>
	<path class="st1" d="M256.4,75.2V75l0-0.2v0c0,0,0,0,0,0c0,0,0,0,0-0.1s0-0.1,0.1-0.1h0c0-0.1,0.1-0.1,0.1-0.2
		c0-0.1,0.1-0.1,0.2-0.2c0,0,0.1-0.1,0.2-0.1c0.1,0,0.1-0.1,0.2-0.1c0.2-0.1,0.4-0.1,0.5-0.1c0.2,0,0.3,0,0.5,0.1
		c0.1,0.1,0.3,0.1,0.4,0.3c0.2,0.2,0.3,0.5,0.3,0.8c0,0.1,0,0.3-0.1,0.4c-0.1,0.1-0.2,0.3-0.3,0.4c-0.1,0.1-0.2,0.2-0.3,0.3
		c-0.1,0.1-0.1,0.3-0.1,0.4h-0.9c0-0.1,0-0.2,0.1-0.4c0-0.1,0.1-0.3,0.2-0.4l0.4-0.5c0.1-0.1,0.1-0.1,0.1-0.2c0-0.1,0-0.2-0.1-0.3
		c-0.1-0.1-0.1-0.1-0.2-0.1c-0.1,0-0.2,0-0.2,0.1c0,0-0.1,0.1-0.1,0.2c0,0.1,0,0.2,0,0.3H256.4z M260.2,77.7v5.2h-1.3v-0.6
		c-0.1,0.3-0.4,0.5-0.6,0.6c-0.3,0.1-0.6,0.2-0.9,0.2c-0.4,0-0.7-0.1-1-0.2c-0.3-0.1-0.6-0.3-0.8-0.6c-0.2-0.3-0.4-0.6-0.5-0.9
		c0-0.1,0-0.3-0.1-0.4c0-0.2,0-0.4,0-0.6v-3.3h1.4V80c0,0.2,0,0.5,0,0.7c0,0.2,0.1,0.4,0.1,0.5c0.1,0.2,0.2,0.3,0.4,0.4
		c0.2,0.1,0.4,0.2,0.6,0.2c0.5,0,0.8-0.2,1-0.6c0.1-0.3,0.2-0.7,0.2-1.2v-2.9h0.8v-0.7h1.4v1.3H260.2z"/>
	<path class="st2" d="M74.5,82.9h-61V38.7c0-8.3,6.7-15.1,15.1-15.1h45.9V82.9z"/>
	<path class="st3" d="M35.4,35.6c-4.2,0-7.2,0.8-9.1,2.4c-2.2,1.9-3.2,5-3.2,9.5v23.5h8.1V56.2h0v-7.3c0-3.5,2.5-6.3,5.7-6.3h3.4
		v28.4h8.1V48.6c0-3.3,2.4-6,5.3-6h3.3v28.4H65V35.6H35.4z"/>
</g>
</svg>
