<svg xmlns="http://www.w3.org/2000/svg" viewBox="0 0 11.83 15"><defs><style>.cls-1{fill:#06274f;}</style></defs><title>menu_tailieuvideo</title><g id="Layer_2" data-name="Layer 2"><g id="Layer_1-2" data-name="Layer 1"><path class="cls-1" d="M5.31,5.65a3,3,0,1,0,3,3A3,3,0,0,0,5.31,5.65ZM6.89,8.77,4.66,10.29l-.06,0h0a.1.1,0,0,1-.05-.09v-3a.1.1,0,0,1,.16-.08L6.89,8.6a.1.1,0,0,1,0,.17Z"/><path class="cls-1" d="M10.27,3H2a1.67,1.67,0,0,1-.43,0,1.1,1.1,0,0,1-.7-1.49,1,1,0,0,1,1-.7h8.4V0H1.84a1.88,1.88,0,0,0-.77.17A1.82,1.82,0,0,0,0,2V13a2,2,0,0,0,1.9,2H9.74c.37,0,.53-.16.53-.53q0-5.61,0-11.23ZM9.39,14.12H2a1.07,1.07,0,0,1-1.09-1s0,0,0-.06V3.59l.1,0a1.9,1.9,0,0,0,.89.21H9.39Z"/><path class="cls-1" d="M11.68,1.23H2.08a.72.72,0,0,0-.71.46.71.71,0,0,0,.43.9.7.7,0,0,0,.29,0h8.61V13.86h1.15V1.23Z"/></g></g></svg>