<svg xmlns="http://www.w3.org/2000/svg" viewBox="0 0 17.73 15"><defs><style>.cls-1{fill:#06274f;fill-rule:evenodd;}</style></defs><title>menu_tracuu</title><g id="Layer_2" data-name="Layer 2"><g id="Layer_1-2" data-name="Layer 1"><path class="cls-1" d="M16.4,0H1.32C.42,0,0,.44,0,1.35v8.76c0,1.09.37,1.47,1.45,1.47h15c.91,0,1.32-.43,1.32-1.34q0-4.44,0-8.88A1.17,1.17,0,0,0,16.4,0ZM8.89,10.9a.46.46,0,0,1-.5-.49.45.45,0,0,1,.47-.48.48.48,0,0,1,.52.47C9.35,10.71,9.2,10.9,8.89,10.9Zm7.95-2.32c0,.56-.09.66-.66.66H1.63C1,9.24.89,9.17.89,8.49q0-3.46,0-6.91C.89,1,1,.9,1.58.9H16.16c.58,0,.68.1.68.69Q16.83,5.08,16.83,8.58Z"/><path class="cls-1" d="M10.57,12H7.29c-.25.94.11,2-.74,2.83a15.66,15.66,0,0,0,4.78,0C10.47,14,10.85,12.92,10.57,12Z"/><path class="cls-1" d="M9.34,8a1.72,1.72,0,0,1-.56-.52.09.09,0,0,0-.06,0H7c-.08,0-.11,0-.11-.11s0,0,0,0V3.47c0-.1,0-.1.1-.1h3.6c.09,0,.1,0,.1.1V5l.56.32s0,0,0,0q0-1.06,0-2.13a.35.35,0,0,0-.38-.37H6.75a.39.39,0,0,0-.42.42q0,2.23,0,4.46a.35.35,0,0,0,.37.37H9.34Z"/><path class="cls-1" d="M10.08,2.6h.41c0-.11,0-.21,0-.31a.23.23,0,0,0-.14-.2.55.55,0,0,0-.21,0H6a.43.43,0,0,0-.43.43q0,2.23,0,4.46a.35.35,0,0,0,0,.09c.07.26.29.31.55.27v0q0-1.14,0-2.29c0-.67,0-1.35,0-2a.31.31,0,0,1,.35-.35Z"/><path class="cls-1" d="M12,8l-.56-.56,0,0a1.42,1.42,0,1,0-.39.4l0,.06.55.56A.29.29,0,1,0,12,8Zm-1.81-.43a1,1,0,1,1,1-1A1,1,0,0,1,10.14,7.58Z"/><path class="cls-1" d="M10.13,3.83H7.45a.16.16,0,0,0-.14.05.27.27,0,0,0,0,.26c0,.08.1.09.18.09h2.65c.16,0,.21,0,.21-.21S10.28,3.83,10.13,3.83Z"/><path class="cls-1" d="M10.33,4.76v0c0-.13-.05-.18-.18-.18H7.45a.15.15,0,0,0-.15.07.29.29,0,0,0,0,.25c0,.08.11.08.18.08h2.66C10.27,4.95,10.32,4.89,10.33,4.76Z"/><path class="cls-1" d="M8.82,5.63l.36-.38H7.44a.16.16,0,0,0-.17.17s0,.05,0,.08a.15.15,0,0,0,.16.16H8.76Z"/><path class="cls-1" d="M7.41,6a.15.15,0,0,0-.14.14.69.69,0,0,0,0,.08.16.16,0,0,0,.18.18H8.51L8.62,6Z"/><path class="cls-1" d="M10.18,5.94H10A.34.34,0,0,0,9.75,6a.69.69,0,0,0-.27.35h.7a.19.19,0,0,0,.19-.2C10.37,6,10.31,5.95,10.18,5.94Z"/></g></g></svg>