<?xml version="1.0" encoding="utf-8"?>
<!-- Generator: Adobe Illustrator 22.0.1, SVG Export Plug-In . SVG Version: 6.00 Build 0)  -->
<svg version="1.1" id="Layer_1" xmlns="http://www.w3.org/2000/svg" xmlns:xlink="http://www.w3.org/1999/xlink" x="0px" y="0px"
	 viewBox="0 0 274.2 105" style="enable-background:new 0 0 274.2 105;" xml:space="preserve">
<style type="text/css">
	.st0{fill:#232021;}
	.st1{fill:#F61318;}
</style>
<title>viettel ca</title>
<g id="Layer_2_1_">
	<g id="Layer_1-2">
		<polygon class="st0" points="41.6,67.4 66.3,24.7 77.8,45 89.5,24.7 113.9,67.4 99.3,67.4 89.3,50.4 77.8,70.8 66.2,50.2 
			56.4,67.4 		"/>
		<rect x="118.7" y="24.7" class="st0" width="13.6" height="42.6"/>
		<polygon class="st0" points="182.2,67.3 206.6,24.7 230.9,67.3 216.2,67.3 206.6,50.2 197.1,67.3 		"/>
		<rect x="41.6" y="72.3" class="st0" width="90.6" height="2"/>
		<rect x="158.4" y="72.3" class="st0" width="72.5" height="2"/>
		<path class="st1" d="M181.3,15.6c0,0-29.2,11.1-37.2,19.8c-0.4,1-1.3,4,5.5,7.4c3.1,1.6,9.1,4.9,11.1,6.5c1.1,0.7,4.2,2.3,1,5.8
			c-1.8,1.6-17.3,13.4-26.9,18.2c-0.9,0.4-0.2,0.6,1,0.5c1.2-0.1,17.1-2.8,36.6-13.1c4.3-2.3,11.8-6.4,10-10
			c-0.6-0.9-0.3-2.8-18.4-11.7c-1.2-0.8-2.3-3.2-0.2-5.3c2.3-2.3,16.8-15.1,19-18.2C182.7,15.3,182.3,15.2,181.3,15.6z"/>
		<polygon class="st0" points="45.4,89.5 47.5,89.5 47.5,81.5 50.7,81.5 50.7,79.8 42.3,79.8 42.3,81.5 45.3,81.5 		"/>
		<rect x="51.7" y="79.8" class="st0" width="2.2" height="9.8"/>
		<polygon class="st0" points="58.7,79.8 56,79.8 56,89.5 58.2,89.5 58.1,82.3 62.2,89.5 64.7,89.5 64.7,79.8 62.5,79.8 62.6,86.7 
					"/>
		<path class="st0" d="M74.3,87.7c-0.9,0-1.5-0.2-1.8-0.6c-0.3-0.4-0.5-1.2-0.5-2.2c0-1.2,0.2-2.1,0.5-2.6c0.2-0.3,0.4-0.5,0.8-0.6
			s0.7-0.2,1.1-0.2h3.4v-1.7h-3.4c-1.6,0-2.7,0.4-3.5,1.2c-0.8,0.8-1.1,2.1-1.1,3.8c0,0.8,0.1,1.6,0.4,2.3c0.2,0.6,0.6,1.2,1.1,1.6
			c0.3,0.3,0.8,0.5,1.2,0.7c0.6,0.1,1.2,0.2,1.8,0.2h3.4l0.1-0.3v-1.5L74.3,87.7L74.3,87.7z"/>
		<path class="st0" d="M81.1,87.2h4.2l0.9,2.3h2.4l-4.2-9.8h-2.3l-4,9.5v0.2h2.2L81.1,87.2z M83.1,81.8l1.4,3.6h-2.8L83.1,81.8z"/>
		<rect x="82.4" y="90.5" class="st0" width="1.7" height="1.8"/>
		<polygon class="st0" points="85.3,78.9 83.9,77 82.4,77 81,78.9 82,78.9 83.2,77.9 84.3,78.9 		"/>
		<polygon class="st0" points="94.8,79.8 92.4,83.4 90,79.8 87.6,79.8 91.4,85.2 91.4,89.5 93.4,89.5 93.4,85.2 93.5,85.2 
			97.2,79.8 		"/>
		<rect x="97" y="84.9" class="st0" width="4.6" height="1.8"/>
		<polygon class="st0" points="105.2,89.5 107.4,89.5 107.4,81.5 110.5,81.5 110.5,79.8 102.1,79.8 102.1,81.5 105.2,81.5 		"/>
		<rect x="111.6" y="79.8" class="st0" width="2.2" height="9.8"/>
		<polygon class="st0" points="122.3,78.9 120.9,77 119.3,77 118,78.9 118.9,78.9 120.1,77.9 121.2,78.9 		"/>
		<rect x="119" y="90.5" class="st0" width="1.7" height="1.8"/>
		<path class="st0" d="M116.4,81c-0.8,0.8-1.1,2.1-1.1,3.8c0,0.8,0.1,1.6,0.4,2.3c0.2,0.6,0.6,1.2,1.1,1.6c0.3,0.3,0.8,0.5,1.2,0.7
			c0.6,0.1,1.2,0.2,1.8,0.2h3.5v-1.8h-3.4c-0.6,0.1-1.3-0.1-1.8-0.5c-0.2-0.2-0.3-0.4-0.4-0.7c-0.1-0.3-0.1-0.6-0.1-1v-0.1h5.7v-1.8
			h-5.7v-0.1c0-1.1,0.9-2,2-2c0.1,0,0.2,0,0.3,0h3.4v-1.8h-3.4C118.3,79.8,117.1,80.2,116.4,81z"/>
		<polygon class="st0" points="127.8,79.8 125.1,79.8 125.1,89.5 127.3,89.5 127.2,82.3 131.3,89.5 133.8,89.5 133.8,79.8 
			131.6,79.8 131.7,86.7 		"/>
		<polygon class="st0" points="140.7,77 139.4,78.9 140.4,78.9 142.8,77 		"/>
		<rect x="139.4" y="79.8" class="st0" width="2.2" height="9.8"/>
		<path class="st0" d="M144.2,81c-0.8,0.8-1.1,2.1-1.1,3.8c0,0.8,0.1,1.6,0.4,2.3c0.2,0.6,0.6,1.2,1.1,1.6c0.3,0.3,0.8,0.5,1.2,0.7
			c0.6,0.1,1.2,0.2,1.8,0.2h3.5v-1.8h-3.4c-0.9,0-1.5-0.2-1.8-0.6c-0.3-0.4-0.5-1.1-0.5-2.2c0-1.2,0.2-2.1,0.5-2.6
			c0.2-0.3,0.4-0.5,0.8-0.6c0.3-0.1,0.7-0.2,1.1-0.2h3.4v-1.7h-3.4C146.1,79.8,145,80.2,144.2,81z"/>
		<polygon class="st0" points="154.8,79.8 152.7,79.8 152.7,89.5 154.8,89.5 154.8,85.5 158.5,85.5 158.5,89.5 160.6,89.5 
			160.6,79.8 158.5,79.8 158.5,83.7 154.8,83.7 		"/>
		<rect x="162" y="84.9" class="st0" width="4.6" height="1.8"/>
		<polygon class="st0" points="170.1,89.5 172.3,89.5 172.3,81.5 175.5,81.5 175.5,79.8 167,79.8 167,81.5 170.1,81.5 		"/>
		<polygon class="st0" points="182.6,78.9 181.2,77 179.6,77 178.3,78.9 179.2,78.9 180.4,77.9 181.5,78.9 		"/>
		<path class="st0" d="M179.3,79.8l-4.2,9.8h2.3l0.9-2.3h4.2l0.9,2.3h2.4l-4.2-9.8H179.3z M178.9,85.4l1.4-3.6l1.4,3.6H178.9z"/>
		<rect x="179.6" y="90.5" class="st0" width="1.7" height="1.8"/>
		<polygon class="st0" points="189,79.8 186.4,79.8 186.4,89.5 188.6,89.5 188.5,82.3 192.6,89.5 195,89.5 195,79.8 192.9,79.8 
			193,86.7 		"/>
		<polygon class="st0" points="202.8,89.5 204.9,89.5 204.9,81.5 208.1,81.5 208.1,79.8 199.6,79.8 199.6,81.5 202.7,81.5 		"/>
		<rect x="209.2" y="79.8" class="st0" width="2.2" height="9.8"/>
		<polygon class="st0" points="208,77 210.4,78.9 211.4,78.9 210,77 		"/>
		<polygon class="st0" points="216.1,79.8 213.4,79.8 213.4,89.5 215.6,89.5 215.5,82.3 219.7,89.5 222.1,89.5 222.1,79.8 
			219.9,79.8 220,86.7 		"/>
		<polygon class="st0" points="226.2,79.8 224.1,79.8 224.1,89.5 226.2,89.5 226.2,85.5 229.9,85.5 229.9,89.5 232,89.5 232,79.8 
			229.9,79.8 229.9,83.7 226.2,83.7 		"/>
		<path class="st0" d="M225,36.9c-3.5,0-6.3-2.8-6.3-6.3s2.8-6.3,6.3-6.3s6.3,2.8,6.3,6.3l0,0C231.2,34.1,228.5,36.9,225,36.9z
			 M225,25.1c-3.1,0-5.5,2.5-5.5,5.5s2.5,5.5,5.5,5.5c3.1,0,5.5-2.5,5.5-5.5S228.1,25.1,225,25.1L225,25.1L225,25.1z"/>
		<path class="st0" d="M221.9,34.8v-8.5h3.3c0.5,0,1.1,0.1,1.6,0.2c0.3,0.2,0.6,0.5,0.8,0.8c0.2,0.4,0.3,0.8,0.3,1.3
			c0,0.5-0.2,1.1-0.5,1.6c-0.4,0.4-1,0.7-1.6,0.8c0.3,0.1,0.5,0.3,0.6,0.5c0.3,0.3,0.5,0.7,0.8,1.1l1.5,2.3l-0.7,0.5l-1.6-2.3
			c-0.3-0.5-0.6-1-1-1.4c-0.1-0.2-0.3-0.3-0.6-0.5c-0.3-0.1-0.5-0.1-0.8-0.1h-1.2v3.8L221.9,34.8z M222.9,30.1h2.2
			c0.3,0,0.8-0.1,1.1-0.1c0.3-0.1,0.4-0.3,0.6-0.5c0.1-0.2,0.2-0.5,0.2-0.8c0-0.4-0.1-0.8-0.4-1c-0.3-0.3-0.8-0.4-1.2-0.3H223
			L222.9,30.1z"/>
	</g>
</g>
</svg>
