<svg xmlns="http://www.w3.org/2000/svg" viewBox="0 0 20 20.01"><defs><style>.cls-1{fill:#002a5a;}</style></defs><title>nhapma</title><g id="Layer_2" data-name="Layer 2"><g id="Layer_1-2" data-name="Layer 1"><path id="shield" class="cls-1" d="M18.89,2.34a1.33,1.33,0,0,0-.14-.17,4,4,0,0,0-1.32-.92C15.29.23,11.78,0,10,0h0C7.7,0,2.55.39,1.12,2.34-.2,4.12-.37,7,.69,10a17.81,17.81,0,0,0,7.16,8.75A22,22,0,0,0,10,20C19.14,15.36,21.77,6.27,18.89,2.34Zm-4.12,11.1A17.38,17.38,0,0,1,10,17.49h0V10H3.14a11.94,11.94,0,0,1-.56-1.71A5.63,5.63,0,0,1,3,3.88a5.7,5.7,0,0,1,2.74-1A24.58,24.58,0,0,1,10,2.49V10h6.86A14.34,14.34,0,0,1,14.77,13.44Z"/></g></g></svg>