<svg xmlns="http://www.w3.org/2000/svg" viewBox="0 0 19.54 19.54"><defs><style>.cls-1{fill:#002a5a;}</style></defs><title>reset_login</title><g id="Layer_2" data-name="Layer 2"><g id="Layer_1-2" data-name="Layer 1"><path class="cls-1" d="M19.3,1.06a.8.8,0,0,0-1.14,0L16.5,2.7a9.86,9.86,0,0,0-3.12-2A9.6,9.6,0,0,0,9.77,0,9.39,9.39,0,0,0,3.66,2.12,9.92,9.92,0,0,0,.23,7.65v.09A.39.39,0,0,0,.35,8a.39.39,0,0,0,.29.12H3.17a.38.38,0,0,0,.38-.29,15.33,15.33,0,0,1,.67-1.49,6.49,6.49,0,0,1,5.55-3.1A6.32,6.32,0,0,1,14.21,5L12.45,6.75A.81.81,0,0,0,13,8.14h5.7a.82.82,0,0,0,.81-.81V1.63A.78.78,0,0,0,19.3,1.06Z"/><path class="cls-1" d="M18.81,11.4H16.37a.38.38,0,0,0-.38.29,15.39,15.39,0,0,1-.67,1.49,6.49,6.49,0,0,1-5.55,3.1,6.35,6.35,0,0,1-2.38-.46,6.56,6.56,0,0,1-2-1.3l1.74-1.74a.81.81,0,0,0-.57-1.39H.81a.78.78,0,0,0-.57.24.78.78,0,0,0-.24.57v5.7a.78.78,0,0,0,.24.57.78.78,0,0,0,.57.24.78.78,0,0,0,.57-.24L3,16.84a9.71,9.71,0,0,0,3.1,2,9.53,9.53,0,0,0,3.59.7,9.33,9.33,0,0,0,6.08-2.12,9.89,9.89,0,0,0,3.41-5.53.22.22,0,0,0,0-.09.41.41,0,0,0-.41-.41Z"/></g></g></svg>