<svg xmlns="http://www.w3.org/2000/svg" viewBox="0 0 274.16 105"><defs><style>.cls-1{fill:#fff;}.cls-2{fill:#808082;}.cls-3{fill:#4282f1;}</style></defs><title>safe</title><g id="Layer_1-2" data-name="Layer 1"><rect class="cls-1" width="274.16" height="105"/><path class="cls-2" d="M196.2,52.48a11.3,11.3,0,0,1-3.78,4.84,8.69,8.69,0,0,1-5.28,1.82,6.09,6.09,0,0,1-5.21-2.6,7.82,7.82,0,0,1-1.11-6.33,11.09,11.09,0,0,1,3.57-6.28,9,9,0,0,1,6.19-2.5,5.94,5.94,0,0,1,6,4,6.78,6.78,0,0,1,.49,2.8l-4.1,0q-.44-3-3.11-3a4.45,4.45,0,0,0-3.27,1.48,6.63,6.63,0,0,0-1.81,3.47,5,5,0,0,0,.42,3.53,2.92,2.92,0,0,0,2.7,1.57q2.5,0,4.25-2.86Z"/><path class="cls-3" d="M48.91,46.1A7.69,7.69,0,0,0,47,44.65a21.28,21.28,0,0,0-2.57-1.2l-3-1.18q-2.14-.94-2.44-1.57a1.47,1.47,0,0,1,0-1q.53-1.93,3.27-1.91a2,2,0,0,1,2.21,2.41l7.89,0a5.67,5.67,0,0,0-.73-4.85,6.81,6.81,0,0,0-3.24-2.13A13.78,13.78,0,0,0,44,32.52a17.17,17.17,0,0,0-8,1.85q-4,2.05-4.93,5.31a4.35,4.35,0,0,0,1,4.48,8.52,8.52,0,0,0,2,1.46,20,20,0,0,0,2.61,1.13l3.06,1.17.55.23a5.09,5.09,0,0,1,.92.52,1.52,1.52,0,0,1,.57,1.74q-.65,2.35-3.68,2.33A2.27,2.27,0,0,1,36,51.65a3,3,0,0,1-.13-2.29l-7.93,0-.21.79Q26.68,53.9,29.38,56q2.48,2,7.45,2a30.81,30.81,0,0,0,8.12-1l4.94-9A4.09,4.09,0,0,0,48.91,46.1Z"/><path class="cls-3" d="M66.14,33l-7,0L46.25,57.45l8,0,1.4-3.14,7.23.05.44,3.14,4.17,0L69.36,48ZM57.88,49l3.32-8.38h.12l.84,8.4Z"/><polygon class="cls-3" points="90.35 38.64 91.96 33.14 73.77 33.03 69.14 57.59 71.41 57.6 77.07 57.63 78.67 48.27 87.75 48.32 89.34 42.82 79.99 42.76 80.86 38.59 90.35 38.64"/><path class="cls-3" d="M87.7,57.75,93.79,33.2l19.07.11-1.74,5.5L100,38.75l-1.21,3.82,10.79.06-1.74,5.5L97,48.07l-1.35,4.21,13.82.08-1.65,5.5Z"/><path class="cls-3" d="M118.68,59.15a6.5,6.5,0,0,1-5.53-2.77A8.24,8.24,0,0,1,112,49.74a11.53,11.53,0,0,1,3.7-6.5,9.47,9.47,0,0,1,6.46-2.6,6.34,6.34,0,0,1,6.33,4.3,7.22,7.22,0,0,1,.52,3l0,.39-4.84,0-.05-.34c-.26-1.8-1.13-2.64-2.72-2.65a4,4,0,0,0-3,1.36,6.27,6.27,0,0,0-1.7,3.26,4.64,4.64,0,0,0,.38,3.25,2.52,2.52,0,0,0,2.35,1.36c1.53,0,2.81-.86,3.9-2.66l.12-.2,4.94,0-.23.56a11.73,11.73,0,0,1-3.91,5A9.12,9.12,0,0,1,118.68,59.15Z"/><path class="cls-3" d="M127.74,52.48A11.3,11.3,0,0,1,124,57.33a8.69,8.69,0,0,1-5.28,1.82,6.09,6.09,0,0,1-5.21-2.6,7.82,7.82,0,0,1-1.11-6.33,11.09,11.09,0,0,1,3.57-6.28,9,9,0,0,1,6.19-2.5,5.94,5.94,0,0,1,6,4,6.78,6.78,0,0,1,.49,2.8l-4.1,0q-.44-3-3.11-3a4.45,4.45,0,0,0-3.27,1.48,6.63,6.63,0,0,0-1.81,3.47,5,5,0,0,0,.42,3.53,2.92,2.92,0,0,0,2.7,1.57q2.5,0,4.25-2.86Z"/><path class="cls-3" d="M127.21,59.19,132,41.7l12.36.07-1.08,3.92-6.92,0-.75,2.72,6.7,0-1.08,3.92-6.69,0-.84,3,8.16,0-.83,3.93Z"/><path class="cls-3" d="M170.09,46.2l-3,13.23-4.46,0,3-13.23-5.09,0,.93-3.82,14.41.08L175,46.23Z"/><path class="cls-2" d="M209.86,56.74a9.64,9.64,0,0,1-6.45,2.5,6.41,6.41,0,0,1-5.33-2.52,7.22,7.22,0,0,1-1.23-6.16,12.11,12.11,0,0,1,1.36-3.64A10.28,10.28,0,0,1,199.63,45a9.66,9.66,0,0,1,7.4-3.46,6.39,6.39,0,0,1,5.39,2.58,7.59,7.59,0,0,1,1.16,6.31A11,11,0,0,1,209.86,56.74Zm-.77-9.82a3.12,3.12,0,0,0-2.82-1.55,4.79,4.79,0,0,0-3.43,1.47,6.44,6.44,0,0,0-1.89,3.48,4.75,4.75,0,0,0,.47,3.56,3.16,3.16,0,0,0,2.86,1.54,4.71,4.71,0,0,0,3.39-1.51,6.61,6.61,0,0,0,1.87-3.47A4.79,4.79,0,0,0,209.09,46.92Z"/><path class="cls-2" d="M245.5,50.43a7.26,7.26,0,0,1-1.9,2.08,7.71,7.71,0,0,1-2.75,1.22A12.81,12.81,0,0,1,238,54h-1.11l-.77,5.45-5,0L234.28,42l5.91,0q.86,0,1.44,0a12.35,12.35,0,0,1,1.44.17,4.46,4.46,0,0,1,2.4,1.09A4.65,4.65,0,0,1,246.54,48,7.78,7.78,0,0,1,245.5,50.43Zm-6-4.49h-1.07l-.91,4.14h1.2a7.93,7.93,0,0,0,2.7-.36A2.43,2.43,0,0,0,242.72,48C242.91,47.17,242.54,46.12,239.52,45.94Z"/><path class="cls-3" d="M159.76,46.41a4.23,4.23,0,0,1-.48,2A4.92,4.92,0,0,1,158,49.94,6.85,6.85,0,0,1,156.1,51c-.73.27.22.29,1.2.89a3.23,3.23,0,0,1,1.37,2.9l-.33,4.58-5.81,0A37.67,37.67,0,0,0,153,55c-.09-2.32-2.58-2.58-3.31-2.53a.9.9,0,0,0-.88.6c-.32,1.61-1,6.19-1,6.19l-5.62,0,3.7-17.5,7.39.17a11.08,11.08,0,0,1,3,.38,5.89,5.89,0,0,1,2,1,3.71,3.71,0,0,1,1.13,1.42A4.12,4.12,0,0,1,159.76,46.41Zm-4.88.61a1.91,1.91,0,0,0-.69-1.58,3.29,3.29,0,0,0-2.1-.58l-2-.07-.79,4.9h1.46a6.5,6.5,0,0,0,1.82-.21,4,4,0,0,0,1.27-.59,2.46,2.46,0,0,0,.75-.86A2.25,2.25,0,0,0,154.88,47Z"/><path class="cls-2" d="M231,46.42a4.23,4.23,0,0,1-.48,2A4.92,4.92,0,0,1,229.24,50a6.85,6.85,0,0,1-1.9,1.06c-.73.27.22.29,1.2.89a3.23,3.23,0,0,1,1.37,2.9l-.33,4.58-5.81,0a37.67,37.67,0,0,0,.48-4.3c-.09-2.32-2.58-2.58-3.31-2.53a.9.9,0,0,0-.88.6c-.32,1.61-1,6.19-1,6.19l-5.29,0,2.86-17.39,7.9,0a11.08,11.08,0,0,1,3,.38,5.89,5.89,0,0,1,2,1,3.71,3.71,0,0,1,1.13,1.42A4.12,4.12,0,0,1,231,46.42Zm-4.88.61a1.91,1.91,0,0,0-.69-1.58,3.29,3.29,0,0,0-2.1-.58l-2-.07-.79,4.9H222a6.5,6.5,0,0,0,1.82-.21,4,4,0,0,0,1.27-.59,2.46,2.46,0,0,0,.75-.86A2.25,2.25,0,0,0,226.13,47Z"/><path class="cls-2" d="M29.4,74l-1.88-7h1l.88,3.52c.22.87.42,1.74.55,2.41h0c.13-.69.37-1.52.63-2.41l1-3.5h1l.9,3.54c.21.83.41,1.65.52,2.39h0c.16-.76.38-1.54.62-2.4l1-3.5h1L34.59,74h-1l-.94-3.63a19.3,19.3,0,0,1-.48-2.27h0a20.3,20.3,0,0,1-.6,2.27L30.43,74Z"/><path class="cls-2" d="M44.69,74.08l-1.88-7h1l.88,3.52c.22.87.42,1.74.55,2.41h0c.13-.69.37-1.52.63-2.41l1-3.5h1l.9,3.54c.21.83.41,1.65.52,2.39h0c.16-.76.38-1.54.62-2.4l1-3.5h1l-2.19,6.94h-1l-.94-3.63a19.3,19.3,0,0,1-.48-2.27h0a20.3,20.3,0,0,1-.6,2.27l-1.1,3.62Z"/><path class="cls-2" d="M60,74.17l-1.88-7h1L60,70.73c.22.87.42,1.74.55,2.41h0c.13-.69.37-1.52.63-2.41l1-3.5h1l.9,3.54c.21.83.41,1.65.52,2.39h0c.16-.76.38-1.54.62-2.4l1-3.5h1L65.16,74.2h-1l-.94-3.63a19.3,19.3,0,0,1-.48-2.27h0a20.3,20.3,0,0,1-.6,2.27L61,74.18Z"/><path class="cls-2" d="M72.94,73.71a.64.64,0,0,1,.68-.65.65.65,0,1,1-.68.65Z"/><path class="cls-2" d="M81,73.2a3.71,3.71,0,0,0,1.75.46c1,0,1.59-.48,1.59-1.18s-.4-1-1.42-1.39c-1.24-.41-2-1-2-2s1-1.88,2.47-1.87a3.7,3.7,0,0,1,1.68.35l-.27.73A3.24,3.24,0,0,0,83.36,68c-1,0-1.43.56-1.44,1,0,.65.46,1,1.5,1.35,1.28.46,1.93,1,1.92,2.06s-.88,2-2.67,2A4.21,4.21,0,0,1,80.74,74Z"/><path class="cls-2" d="M93.49,72.18l-.8,2.18h-1l2.62-6.94h1.18l2.55,7H97l-.8-2.19ZM96,71.49l-.73-2c-.17-.46-.28-.87-.39-1.27h0c-.11.41-.24.83-.39,1.26l-.75,2Z"/><path class="cls-2" d="M104.76,67.47l4.09,0v.75l-3.11,0v2.31l2.87,0v.74l-2.87,0,0,3.15h-1Z"/><path class="cls-2" d="M119.73,71.26l-3,0,0,2.51,3.29,0v.75l-4.27,0,0-7,4.1,0v.75l-3.12,0v2.2l3,0Z"/><path class="cls-2" d="M132.21,74.36a5.26,5.26,0,0,1-2,.32c-2.14,0-3.74-1.26-3.73-3.54a3.63,3.63,0,0,1,4-3.63,4.38,4.38,0,0,1,1.8.32l-.24.73a3.85,3.85,0,0,0-1.53-.3,2.7,2.7,0,0,0-3,2.85,2.64,2.64,0,0,0,2.9,2.81,4.24,4.24,0,0,0,1.6-.28Z"/><path class="cls-2" d="M143,71.39l-3,0,0,2.51,3.29,0v.75l-4.27,0,0-7,4.1,0v.75l-3.12,0v2.2l3,0Z"/><path class="cls-2" d="M150.17,67.83a11.09,11.09,0,0,1,1.88-.13,3.3,3.3,0,0,1,2.19.58,1.67,1.67,0,0,1,.59,1.32,1.86,1.86,0,0,1-1.44,1.77v0a1.76,1.76,0,0,1,1.11,1.41,10.33,10.33,0,0,0,.57,1.91h-1a8.44,8.44,0,0,1-.5-1.66c-.22-1-.62-1.32-1.51-1.36h-.92l0,3h-1Zm1,3.17h1c1,0,1.71-.52,1.72-1.31s-.7-1.29-1.74-1.31a4.38,4.38,0,0,0-1,.08Z"/><path class="cls-2" d="M163.35,68.58H161V67.8l5.62,0v.76h-2.32l0,6.19h-1Z"/><path class="cls-2" d="M172.1,74.29a.64.64,0,0,1,.68-.65.65.65,0,1,1-.68.65Z"/><path class="cls-2" d="M185.58,74.67a5.26,5.26,0,0,1-2,.32c-2.14,0-3.74-1.26-3.73-3.54a3.63,3.63,0,0,1,4-3.63,4.38,4.38,0,0,1,1.8.32l-.24.73a3.85,3.85,0,0,0-1.53-.3,2.7,2.7,0,0,0-3,2.85,2.64,2.64,0,0,0,2.9,2.81,4.24,4.24,0,0,0,1.6-.28Z"/><path class="cls-2" d="M198.66,71.43a3.39,3.39,0,0,1-3.55,3.64,3.31,3.31,0,0,1-3.39-3.55,3.43,3.43,0,0,1,3.55-3.63A3.29,3.29,0,0,1,198.66,71.43Zm-5.89.08a2.55,2.55,0,0,0,2.4,2.83c1.55,0,2.44-1.3,2.45-2.88a2.56,2.56,0,0,0-2.4-2.84C193.6,68.61,192.78,70,192.77,71.51Z"/><path class="cls-2" d="M211.9,72c-.05-1-.11-2.14-.09-3h0c-.26.81-.58,1.68-1,2.64L209.44,75h-.74l-1.21-3.32c-.35-1-.65-1.88-.86-2.71h0c0,.87-.09,2-.16,3.07l-.22,3h-.93l.57-7h1.25l1.28,3.37c.31.86.56,1.62.75,2.35h0c.2-.7.47-1.46.81-2.34l1.37-3.36h1.25l.43,7h-1Z"/><path class="cls-2" d="M219.85,74.56a.64.64,0,0,1,.68-.65.65.65,0,1,1-.68.65Z"/><path class="cls-2" d="M229.7,75.16l-2.44-7h1.06l1.16,3.43c.32.94.6,1.79.79,2.61h0c.22-.8.54-1.68.88-2.59l1.3-3.43h1l-2.75,6.94Z"/><path class="cls-2" d="M239.89,75.22l0-7H241l2.41,3.53a19.29,19.29,0,0,1,1.35,2.27h0a28.13,28.13,0,0,1-.1-2.86l0-2.91h.92l0,7h-1l-2.39-3.54a21.61,21.61,0,0,1-1.41-2.33h0c.05.88.07,1.71.06,2.87l0,3Z"/></g></svg>