<svg id="Layer_1" data-name="Layer 1" xmlns="http://www.w3.org/2000/svg" viewBox="0 0 274.16 105"><defs><style>.cls-1{fill:none;stroke:#000;stroke-miterlimit:10;stroke-width:3px;}.cls-2{fill:#f28c30;}</style></defs><title>8</title><circle class="cls-1" cx="59.12" cy="44.07" r="22.37"/><path d="M57.53,59.78l-.63,0a8.86,8.86,0,0,1-2.16-.41,14.44,14.44,0,0,1-1.79-.68L51.47,58a3.49,3.49,0,0,0-1.07-.31h-.1a1,1,0,0,0-.83.34,2.24,2.24,0,0,0-.23.38,2.69,2.69,0,0,0-.17.43l-.1.31-1.59-.09L49.62,48l1.69.28-.09.43a8.52,8.52,0,0,0-.15.91,8.38,8.38,0,0,0,1.31,5.28,5.09,5.09,0,0,0,4.12,2.4h.35a4.48,4.48,0,0,0,3.69-1.79,6.33,6.33,0,0,0,.66-6.94,9.32,9.32,0,0,0-.85-1.29l-1-1.25a60,60,0,0,1-4.94-7,7.66,7.66,0,0,1-.69-4,7.87,7.87,0,0,1,2.66-5.65,7.53,7.53,0,0,1,5.1-1.92l.52,0a13.62,13.62,0,0,1,2.37.32,7.63,7.63,0,0,1,1.48.49l.56.26.48.2a3.21,3.21,0,0,0,1,.21h.1a1.79,1.79,0,0,0,1.48-.91l.14-.19,1.75.1L68.84,38l-1.5-.4v-.85c0-.2,0-.37,0-.53,0-.45,0-.84,0-1.21a7.87,7.87,0,0,0-.46-2.34,4.18,4.18,0,0,0-4.08-2.75h-.33a4,4,0,0,0-2.61.88,4,4,0,0,0-1.43,3.07,5.54,5.54,0,0,0,.5,2.79A26.25,26.25,0,0,0,62.16,41a27.62,27.62,0,0,1,3.69,5.33,9.08,9.08,0,0,1,.74,4.34,9.81,9.81,0,0,1-2.69,6.34A8.41,8.41,0,0,1,57.53,59.78Z"/><path d="M67.76,37.28v-.52q0-.29,0-.54,0-.66,0-1.22a8.25,8.25,0,0,0-.49-2.47,4.6,4.6,0,0,0-4.45-3,4.51,4.51,0,0,0-3.23,1A4.45,4.45,0,0,0,58,33.84a5.93,5.93,0,0,0,.54,3,26.46,26.46,0,0,0,3.27,4.47,27.08,27.08,0,0,1,3.62,5.24,8.62,8.62,0,0,1,.71,4.14,9.36,9.36,0,0,1-2.58,6.08,8.06,8.06,0,0,1-6.66,2.58A8.43,8.43,0,0,1,54.87,59a14.07,14.07,0,0,1-1.75-.67l-1.47-.65a4,4,0,0,0-1.22-.34,1.5,1.5,0,0,0-1.27.47,2.6,2.6,0,0,0-.3.48,3.08,3.08,0,0,0-.2.49l-.77,0L50,48.45l.85.14a9.12,9.12,0,0,0-.16,1A8.75,8.75,0,0,0,52,55.1a5.53,5.53,0,0,0,4.45,2.59,5,5,0,0,0,4.4-1.94,6.75,6.75,0,0,0,.7-7.41A9.67,9.67,0,0,0,60.69,47l-1-1.26a60.46,60.46,0,0,1-4.89-6.9,7.22,7.22,0,0,1-.64-3.77,7.44,7.44,0,0,1,2.52-5.36A7.14,7.14,0,0,1,62,27.91a13.17,13.17,0,0,1,2.29.31,7.19,7.19,0,0,1,1.4.47l.55.26.49.21a3.63,3.63,0,0,0,1.1.24,2.17,2.17,0,0,0,2-1.09l1,.06-2.25,9.11Z"/><path d="M110.41,52.5l-.18.27a15.44,15.44,0,0,1-2.32,2.87A4.37,4.37,0,0,1,105,57a1.34,1.34,0,0,1-1.34-.75,2.29,2.29,0,0,1-.18-.63,2.54,2.54,0,0,0,0-.29v-.25a5.66,5.66,0,0,1,.12-.83L106.23,43a5.25,5.25,0,0,0,.12-.75q0-.9-.77-.9-1,0-2.77,2a21.24,21.24,0,0,0-2.5,3.42,22.07,22.07,0,0,0-2,4.42q-.34,1-.71,2.5-.27,1-.75,3H94.16l2.09-8.29q.64-2.54,1-4l.29-1.33a5,5,0,0,0,.11-.67,1.24,1.24,0,0,0-.27-.94.76.76,0,0,0-.27-.12l-.27,0q-1.07,0-2.94,2.19-.7.81-1.43,1.83-.57.81-1,1.54a19.63,19.63,0,0,0-1.8,4l-1.73,5.81H85.13q.18-.83.8-3.25l2.3-9,.34-1.52a5,5,0,0,0,.14-.77q0-.94-2.34-.94v-.63l2.93-.6,2.91-.62.11.08-2,7.88.07.08.54-.9q.36-.6.73-1.17a28.28,28.28,0,0,1,2-2.67,13.75,13.75,0,0,1,2.32-2.31,4.08,4.08,0,0,1,2.37-1q2.16,0,2.16,2.56a5.32,5.32,0,0,1-.14.85q-.12.62-.34,1.46-.46,1.87-.87,3.1l.07.08a28.53,28.53,0,0,1,4-5.73q2.18-2.31,3.91-2.31,2.16,0,2.16,2.63a16.15,16.15,0,0,1-.46,2.44q-.2.81-.48,1.94l-.54,2.13-1.36,5.29-.12.63q0,.79.55.79t3-3.12Z"/><path d="M130.19,52.84q-3.27,4.33-5,4.33a1.42,1.42,0,0,1-1.34-.58,2.36,2.36,0,0,1-.2-1.12,22.77,22.77,0,0,1,.77-4.17l-.07-.08A19.31,19.31,0,0,1,120.45,56a5.18,5.18,0,0,1-3.26,1.19,3.27,3.27,0,0,1-3.25-1.9,5.32,5.32,0,0,1-.45-1.54l-.05-.69,0-.52a14.14,14.14,0,0,1,3.41-8.75q3.44-4.4,7-4.4,2.68,0,2.89,2.12h.07l.36-1.73.11-.12,2.23-.27.27.12-.2.73L128,46.83l-1.18,5-.37,1.83a7.28,7.28,0,0,0-.14,1,.46.46,0,0,0,.52.52q.34,0,1-.71l1.87-2Zm-13,1.83a1.94,1.94,0,0,0,1.46.62,4.12,4.12,0,0,0,2.8-1.38,13.71,13.71,0,0,0,2.37-3.35,16.73,16.73,0,0,0,2.28-7.63q0-2.63-2.09-2.63a4.33,4.33,0,0,0-3,1.4,12.49,12.49,0,0,0-2.41,3.37,16.55,16.55,0,0,0-2.18,7.44A3,3,0,0,0,117.22,54.67Z"/><path d="M133.23,56.73l3-11.5a16,16,0,0,0,.59-3.15,1.58,1.58,0,0,0-.05-.42.94.94,0,0,0-.18-.37,1.35,1.35,0,0,0-1.09-.38,3.9,3.9,0,0,0-.61.06l-.61.13v-.67q.64-.1,1.45-.25l2.91-.56q.78-.17,1.32-.25l.11.08-1.78,7.83.07.1.29-.79q.5-1.1,1.16-2.23A23.16,23.16,0,0,1,141.33,42q2-2.63,3.55-2.63,1.77,0,1.77,1.92a2,2,0,0,1-.71,1.79,1.43,1.43,0,0,1-.57.23l-.25,0-.2,0a1.19,1.19,0,0,1-1.2-.71q-.34-.71-.7-.71t-1,.69a11.58,11.58,0,0,0-1.12,1.56q-.46.75-1,1.69-.18.31-.34.63l-.2.38A68.18,68.18,0,0,0,136,56.73Z"/><path d="M157.71,41h-3.07l-3.21,13.11a1.05,1.05,0,0,0,0,.31q0,.67.59.67t1.39-1.08l1.52-2,.48.29a18.82,18.82,0,0,1-2.59,3.52,3.73,3.73,0,0,1-2.6,1.25q-1.75,0-1.75-1.58a4.22,4.22,0,0,1,.11-.73q.09-.42.25-1.08l.29-1.08L151.91,41H149.2l0-.23a.75.75,0,0,1,.11-.4.87.87,0,0,1,.3-.25l.48-.23.55-.25a4,4,0,0,0,.54-.25,13.3,13.3,0,0,0,4-3.83l.21-.31a.45.45,0,0,1,.34-.15h.14q.21,0,.21.35L155,39.77h2.91Z"/><path class="cls-2" d="M175.92,37.63l0-.46q0-.26,0-.48,0-.58-.08-1.09a7,7,0,0,0-.6-2.18A5,5,0,0,0,167.82,32a3.85,3.85,0,0,0-1.31,3.08,5,5,0,0,0,.68,2.64,23.93,23.93,0,0,0,3.34,3.81A24.34,24.34,0,0,1,174.25,46a7.31,7.31,0,0,1,.9,3.65A8,8,0,0,1,173,55.18a7.85,7.85,0,0,1-6.16,2.64,8.48,8.48,0,0,1-2-.24,13.91,13.91,0,0,1-1.69-.5l-1.43-.5a4,4,0,0,0-1.17-.24,1.47,1.47,0,0,0-1.17.48,2.27,2.27,0,0,0-.26.44,2.66,2.66,0,0,0-.16.44h-.74l1.39-9.21.81.08a7.73,7.73,0,0,0-.1.87A7.47,7.47,0,0,0,162,54.29a5.36,5.36,0,0,0,4.35,2.07,4.8,4.8,0,0,0,4.06-2,5.63,5.63,0,0,0,1.19-3.48,5.56,5.56,0,0,0-.93-3.14,8.6,8.6,0,0,0-.91-1.15l-1-1.07a54.73,54.73,0,0,1-5-5.88,6.12,6.12,0,0,1-.81-3.32A6.42,6.42,0,0,1,165,31.47a7,7,0,0,1,4.93-1.87,13.28,13.28,0,0,1,2.19.16,7.16,7.16,0,0,1,1.35.34l.54.2.48.16a3.65,3.65,0,0,0,1.05.16,2.08,2.08,0,0,0,1.79-1.07h1l-1.63,8.22Z"/><path class="cls-2" d="M186.51,52.82a17.4,17.4,0,0,1-2.57,3.26,4.59,4.59,0,0,1-3.1,1.45,1.65,1.65,0,0,1-1.67-1,2.62,2.62,0,0,1-.2-.85l0-.38V55a15.22,15.22,0,0,1,.5-2.74l.52-2L182,42.47a4.94,4.94,0,0,0,.14-.83.85.85,0,0,0-.44-.87,7,7,0,0,0-2.13-.2v-.66q1-.06,3.24-.44l3.26-.58.14.08-4.16,15.45A3.12,3.12,0,0,0,182,55a.56.56,0,0,0,.18.4.62.62,0,0,0,.46.2,2.26,2.26,0,0,0,1.23-.7,14.23,14.23,0,0,0,2.11-2.5Zm.68-19.1a1.8,1.8,0,0,1-1.49.75q-1.95,0-1.95-2.16t1.91-2.22a1.82,1.82,0,0,1,1.51.79,2.4,2.4,0,0,1,.52,1.47A2.15,2.15,0,0,1,187.19,33.72Z"/><path class="cls-2" d="M206.45,42h-2a8.4,8.4,0,0,1,.36,2.44,5.86,5.86,0,0,1-2.39,4.37,7.6,7.6,0,0,1-5.05,2.07l-1.63-.16a1.43,1.43,0,0,0-1,.62,1.73,1.73,0,0,0-.52,1q0,.71,1.35,1.27l1.39.48.1,0,.1,0,.58.2.82.28a9.32,9.32,0,0,1,3,1.71,4.27,4.27,0,0,1,1.35,3.22,5.11,5.11,0,0,1-2.29,4.33,10.92,10.92,0,0,1-6.46,1.69,7.79,7.79,0,0,1-5-1.45A3.83,3.83,0,0,1,187.56,61a3.91,3.91,0,0,1,1.09-2.8A11,11,0,0,1,190.15,57l2.19-1.49-.38-.3-.36-.36a1.53,1.53,0,0,1-.38-1A2.7,2.7,0,0,1,192.27,52a9.34,9.34,0,0,1,1-.83l1.07-.77A6.44,6.44,0,0,1,192.19,49a4.4,4.4,0,0,1-1.05-3.06,6.22,6.22,0,0,1,2.78-5.24,9,9,0,0,1,7.34-1.55,6.85,6.85,0,0,1,1.37.52l.82.5a1.15,1.15,0,0,0,.52.24h2.49Zm-6.82,16.76a3.94,3.94,0,0,0-.72-.56l-.36-.18-.32-.16q-.6-.3-2.67-1.09L194,56.17a5.47,5.47,0,0,0-.82-.24.88.88,0,0,0-.36.16l-.58.4a10.34,10.34,0,0,0-.82.66A4.94,4.94,0,0,0,190,59.09a3.23,3.23,0,0,0-.18.83,3.52,3.52,0,0,0,0,.38v.36a3.65,3.65,0,0,0,.7,2.26,3.81,3.81,0,0,0,1.57,1.19,6.41,6.41,0,0,0,1.69.48l1.05.08a6.78,6.78,0,0,0,4.2-1.19,3.33,3.33,0,0,0,1.45-2.74A2.68,2.68,0,0,0,199.63,58.72Zm-.38-18.94a4.25,4.25,0,0,0-3.64,2.44,8.68,8.68,0,0,0-1.29,4.53q0,3.22,2.53,3.22,1.93,0,3.36-2.42a9.47,9.47,0,0,0,1.37-5Q201.58,39.79,199.25,39.79Z"/><path class="cls-2" d="M225.87,52.78q-1,1.31-1.43,1.89a12.74,12.74,0,0,1-1.33,1.47,4.3,4.3,0,0,1-2.9,1.29,1.73,1.73,0,0,1-1.67-.77,3.54,3.54,0,0,1-.28-1.65,4.31,4.31,0,0,1,.14-.77l1.93-7.47q.28-1.11.48-1.93a15.2,15.2,0,0,0,.48-2.54q0-1.33-1-1.33-1.29,0-3.16,2.07a22.58,22.58,0,0,0-1.53,1.89q-.64.89-1.29,1.89-1.87,2.86-4.06,10.23h-3.06l1-3.63a1.56,1.56,0,0,0,0-.16l0-.14c0-.11.05-.2.08-.28q.42-1.51.66-2.42l.66-2.38q.71-2.62,1.07-4.09a15.51,15.51,0,0,0,.46-2.1.8.8,0,0,0-.48-.77,5.28,5.28,0,0,0-2.13-.3v-.66l6.58-1.27.14.08-2.62,8.62.1.08L214.46,45a34.91,34.91,0,0,1,2.23-2.88,14.47,14.47,0,0,1,2.51-2.3,4.59,4.59,0,0,1,2.57-.95q2.82,0,2.82,2.72a14.38,14.38,0,0,1-.52,2.64l-2.6,9.71a4.87,4.87,0,0,0-.14.85.63.63,0,0,0,.3.58.61.61,0,0,0,.34.12q.82,0,3.34-3.26Z"/><path d="M227.3,28.76v-5.5H225.4v-.74H230v.74h-1.91v5.5Z"/><path d="M230.54,28.76V22.52h1.15l1.37,4.42q.19.62.28.92.1-.34.31-1L235,22.52h1v6.24h-.74V23.54l-1.68,5.22H233l-1.67-5.31v5.31Z"/><path d="M147,80.93V73.82h-2.57v-1h6.19v1h-2.59v7.11Z"/><path d="M151.38,80.93V75.09h.86V76a2.41,2.41,0,0,1,.61-.82,1,1,0,0,1,.62-.2,1.83,1.83,0,0,1,1,.32l-.33.92a1.34,1.34,0,0,0-.7-.21.9.9,0,0,0-.56.2,1.06,1.06,0,0,0-.36.54,4,4,0,0,0-.16,1.15v3.06Z"/><path d="M158.92,80.93v-.86a2.06,2.06,0,0,1-1.8,1,2.23,2.23,0,0,1-.94-.2,1.55,1.55,0,0,1-.64-.5,1.89,1.89,0,0,1-.3-.73,5.14,5.14,0,0,1-.06-.92V75.09h1v3.24a5.91,5.91,0,0,0,.06,1,1,1,0,0,0,.38.61,1.17,1.17,0,0,0,.73.22,1.54,1.54,0,0,0,.81-.23,1.26,1.26,0,0,0,.54-.62,3.21,3.21,0,0,0,.16-1.14V75.09h1v5.84Z"/><path d="M161.08,79.19,162,79a1.38,1.38,0,0,0,.45.9,1.52,1.52,0,0,0,1,.31,1.47,1.47,0,0,0,1-.28.84.84,0,0,0,.32-.65.61.61,0,0,0-.28-.53,4.09,4.09,0,0,0-1-.34,8.79,8.79,0,0,1-1.46-.48,1.43,1.43,0,0,1-.62-.56,1.5,1.5,0,0,1-.21-.78,1.53,1.53,0,0,1,.17-.72,1.58,1.58,0,0,1,.47-.55,2,2,0,0,1,.61-.29,2.83,2.83,0,0,1,.83-.12,3.18,3.18,0,0,1,1.17.2,1.59,1.59,0,0,1,.74.54,2.13,2.13,0,0,1,.33.9l-.94.13a1.07,1.07,0,0,0-.37-.7,1.33,1.33,0,0,0-.87-.25,1.53,1.53,0,0,0-.94.23.66.66,0,0,0-.28.53.56.56,0,0,0,.12.35.84.84,0,0,0,.37.26l.85.25a11.58,11.58,0,0,1,1.42.46,1.46,1.46,0,0,1,.63.52,1.49,1.49,0,0,1,.23.85,1.7,1.7,0,0,1-.28.93,1.82,1.82,0,0,1-.81.68,2.86,2.86,0,0,1-1.19.24,2.6,2.6,0,0,1-1.68-.47A2.22,2.22,0,0,1,161.08,79.19Z"/><path d="M169.2,80l.14.87a3.46,3.46,0,0,1-.72.09,1.6,1.6,0,0,1-.81-.17.94.94,0,0,1-.4-.45,3.64,3.64,0,0,1-.12-1.17V75.86h-.7v-.77h.7V73.64l1-.59v2h1v.77h-1v3.41a1.78,1.78,0,0,0,.05.54.41.41,0,0,0,.17.19.62.62,0,0,0,.33.07Z"/><path d="M173.5,83.18l-.11-.93a2.08,2.08,0,0,0,.55.09,1,1,0,0,0,.51-.11.88.88,0,0,0,.31-.31,5,5,0,0,0,.29-.74l.08-.24L173,75.09h1l1.18,3.38q.23.64.41,1.35a13.61,13.61,0,0,1,.39-1.33l1.21-3.4h1L176,81a12,12,0,0,1-.54,1.33,1.93,1.93,0,0,1-.59.72,1.35,1.35,0,0,1-.79.23A1.87,1.87,0,0,1,173.5,83.18Z"/><path d="M178.83,78a3.06,3.06,0,0,1,.87-2.4,2.59,2.59,0,0,1,1.78-.65,2.5,2.5,0,0,1,1.91.79,3.06,3.06,0,0,1,.74,2.18,4,4,0,0,1-.33,1.77,2.36,2.36,0,0,1-1,1,2.71,2.71,0,0,1-1.37.36,2.5,2.5,0,0,1-1.92-.79A3.2,3.2,0,0,1,178.83,78Zm1,0a2.55,2.55,0,0,0,.47,1.68,1.55,1.55,0,0,0,2.38,0,2.6,2.6,0,0,0,.47-1.71,2.47,2.47,0,0,0-.48-1.64,1.55,1.55,0,0,0-2.38,0A2.53,2.53,0,0,0,179.82,78Z"/><path d="M189.16,80.93v-.86a2.05,2.05,0,0,1-1.8,1,2.23,2.23,0,0,1-.93-.2,1.55,1.55,0,0,1-.65-.5,1.9,1.9,0,0,1-.3-.73,5.22,5.22,0,0,1-.06-.92V75.09h1v3.24a6,6,0,0,0,.06,1,1,1,0,0,0,.38.61,1.16,1.16,0,0,0,.72.22,1.54,1.54,0,0,0,.81-.23,1.26,1.26,0,0,0,.54-.62,3.21,3.21,0,0,0,.16-1.14V75.09h1v5.84Z"/><path d="M191.69,80.93V75.09h.86V76a2.41,2.41,0,0,1,.61-.82,1,1,0,0,1,.62-.2,1.83,1.83,0,0,1,1,.32l-.33.92a1.34,1.34,0,0,0-.7-.21.9.9,0,0,0-.57.2,1.06,1.06,0,0,0-.36.54,4,4,0,0,0-.16,1.15v3.06Z"/><path d="M202.44,78.79l.94.13a2.55,2.55,0,0,1-.79,1.58,2.26,2.26,0,0,1-1.56.57,2.39,2.39,0,0,1-1.87-.78,3.24,3.24,0,0,1-.71-2.25,4.17,4.17,0,0,1,.3-1.65,2.17,2.17,0,0,1,.92-1.06A2.68,2.68,0,0,1,201,75a2.3,2.3,0,0,1,1.51.48,2.23,2.23,0,0,1,.75,1.37l-.93.15a1.61,1.61,0,0,0-.47-.89,1.2,1.2,0,0,0-.82-.3,1.47,1.47,0,0,0-1.18.54,2.6,2.6,0,0,0-.45,1.7,2.69,2.69,0,0,0,.44,1.71,1.41,1.41,0,0,0,1.14.53,1.32,1.32,0,0,0,.94-.36A1.8,1.8,0,0,0,202.44,78.79Z"/><path d="M204.38,80.93V75.09h.86V76a2.41,2.41,0,0,1,.61-.82,1,1,0,0,1,.62-.2,1.83,1.83,0,0,1,1,.32l-.33.92a1.34,1.34,0,0,0-.7-.21.9.9,0,0,0-.57.2,1.06,1.06,0,0,0-.36.54,4,4,0,0,0-.16,1.15v3.06Z"/><path d="M212.08,79l1,.13a2.51,2.51,0,0,1-.87,1.39,2.87,2.87,0,0,1-3.59-.29,3.14,3.14,0,0,1-.73-2.21,3.29,3.29,0,0,1,.74-2.29,2.45,2.45,0,0,1,1.91-.81,2.39,2.39,0,0,1,1.86.8,3.24,3.24,0,0,1,.72,2.24c0,.06,0,.15,0,.26h-4.22a2.28,2.28,0,0,0,.53,1.47,1.55,1.55,0,0,0,1.18.51,1.44,1.44,0,0,0,.9-.29A1.9,1.9,0,0,0,212.08,79Zm-3.15-1.6h3.16a2,2,0,0,0-.36-1.11,1.45,1.45,0,0,0-1.19-.57,1.5,1.5,0,0,0-1.11.46A1.84,1.84,0,0,0,208.93,77.45Z"/><path d="M218.16,80.21a3.55,3.55,0,0,1-1,.66,2.88,2.88,0,0,1-1.06.19,2,2,0,0,1-1.43-.47,1.58,1.58,0,0,1-.5-1.2,1.64,1.64,0,0,1,.19-.78,1.6,1.6,0,0,1,.5-.57,2.3,2.3,0,0,1,.69-.32,6.63,6.63,0,0,1,.85-.15,8.53,8.53,0,0,0,1.71-.34c0-.14,0-.22,0-.26a1.11,1.11,0,0,0-.27-.85,1.58,1.58,0,0,0-1.09-.34,1.66,1.66,0,0,0-1,.24,1.51,1.51,0,0,0-.48.87l-.94-.13a2.43,2.43,0,0,1,.42-1,1.85,1.85,0,0,1,.85-.59,3.68,3.68,0,0,1,1.28-.21,3.3,3.3,0,0,1,1.18.18,1.55,1.55,0,0,1,.67.44,1.58,1.58,0,0,1,.3.67,5.73,5.73,0,0,1,0,.91v1.32a14.58,14.58,0,0,0,.06,1.75,2.25,2.25,0,0,0,.24.7h-1A2.15,2.15,0,0,1,218.16,80.21ZM218.08,78a6.84,6.84,0,0,1-1.57.37,3.51,3.51,0,0,0-.84.2.84.84,0,0,0-.38.32.86.86,0,0,0-.13.47.85.85,0,0,0,.29.66,1.23,1.23,0,0,0,.85.26,1.93,1.93,0,0,0,1-.25,1.52,1.52,0,0,0,.63-.68,2.46,2.46,0,0,0,.15-1Z"/><path d="M222.82,80l.14.87a3.46,3.46,0,0,1-.72.09,1.6,1.6,0,0,1-.81-.17.94.94,0,0,1-.4-.45,3.64,3.64,0,0,1-.12-1.17V75.86h-.7v-.77h.7V73.64l1-.59v2h1v.77h-1v3.41a1.78,1.78,0,0,0,.05.54.41.41,0,0,0,.17.19.62.62,0,0,0,.33.07Z"/><path d="M223.95,74V72.87h1V74Zm0,6.92V75.09h1v5.84Z"/><path d="M226.19,78a3.06,3.06,0,0,1,.87-2.4,2.59,2.59,0,0,1,1.78-.65,2.5,2.5,0,0,1,1.91.79,3.06,3.06,0,0,1,.74,2.18,4,4,0,0,1-.33,1.77,2.36,2.36,0,0,1-1,1,2.71,2.71,0,0,1-1.37.36,2.5,2.5,0,0,1-1.92-.79A3.2,3.2,0,0,1,226.19,78Zm1,0a2.55,2.55,0,0,0,.47,1.68,1.55,1.55,0,0,0,2.38,0,2.6,2.6,0,0,0,.47-1.71,2.47,2.47,0,0,0-.48-1.64,1.55,1.55,0,0,0-2.38,0A2.53,2.53,0,0,0,227.18,78Z"/><path d="M232.81,80.93V75.09h.86v.83a2,2,0,0,1,1.8-1,2.3,2.3,0,0,1,.94.19,1.49,1.49,0,0,1,.64.5,2,2,0,0,1,.3.73,5.87,5.87,0,0,1,.05,1v3.59h-1V77.38a2.76,2.76,0,0,0-.11-.9,1,1,0,0,0-.4-.48,1.23,1.23,0,0,0-.67-.18,1.53,1.53,0,0,0-1.06.4,2,2,0,0,0-.45,1.52v3.19Z"/></svg>