<svg xmlns="http://www.w3.org/2000/svg" viewBox="0 0 22.31 22.31"><defs><style>.cls-1{opacity:0.5;}.cls-2{fill:#fff;}</style></defs><title>snap</title><g id="Layer_2" data-name="Layer 2"><g id="Badge"><g id="BACKGROUND_2" data-name="BACKGROUND 2"><g id="Layer_1-2" data-name="Layer 1"><g class="cls-1"><path class="cls-2" d="M11.15,22.31A11.15,11.15,0,1,1,22.31,11.15,11.17,11.17,0,0,1,11.15,22.31Zm0-21.25A10.09,10.09,0,1,0,21.25,11.15,10.1,10.1,0,0,0,11.15,1.06Z"/></g><path class="cls-2" d="M11.15,4.67a6.49,6.49,0,0,0-2.6,12.43,5.83,5.83,0,0,1,.11-1.49c.13-.53.84-3.54.84-3.54a2.46,2.46,0,0,1-.21-1c0-1,.56-1.68,1.25-1.68a.87.87,0,0,1,.87,1,13.91,13.91,0,0,1-.57,2.3,1,1,0,0,0,1,1.25c1.23,0,2.06-1.58,2.06-3.45A2.43,2.43,0,0,0,11.22,8,3.07,3.07,0,0,0,8,11.06a1.86,1.86,0,0,0,.43,1.27.32.32,0,0,1,.09.36c0,.12-.1.4-.13.52a.23.23,0,0,1-.33.16A2.49,2.49,0,0,1,6.77,10.9a4.29,4.29,0,0,1,4.63-4,3.87,3.87,0,0,1,4.11,3.71C15.51,13.11,14.1,15,12,15a1.86,1.86,0,0,1-1.59-.8S10,15.7,10,16a5.5,5.5,0,0,1-.66,1.39A6.49,6.49,0,1,0,11.15,4.67Z"/></g></g></g></g></svg>