<svg xmlns="http://www.w3.org/2000/svg" viewBox="0 0 167.9 46.46"><defs><style>.cls-1{fill:#fff;}.cls-2{fill:#de8010;}</style></defs><title>tailieu</title><g id="Layer_2" data-name="Layer 2"><g id="Layer_1-2" data-name="Layer 1"><g id="Layer_32" data-name="Layer 32"><path class="cls-1" d="M63.93,7.68V18h-3.4V7.68H57.9v-3h8.64v3Z"/><path class="cls-1" d="M76.49,18l-.65-1.92H71.21L70.51,18H66.86L72.2,4.69h2.68L80.18,18ZM75,4.05,70.53,2.11,71.44,0,75.8,2.3ZM73.57,8.84h-.05l-1.37,4.55h2.79Z"/><path class="cls-1" d="M81.54,18V4.69h3.4V18Z"/><path class="cls-1" d="M93,18V4.69h3.4V15h3.95v3Z"/><path class="cls-1" d="M101.67,18V4.69h3.4V18Z"/><path class="cls-1" d="M112,3.52l-.83-1-.83,1h-2.92l2.8-3h2l2.7,3ZM107.48,18V4.69h7.4v3h-4.14V9.76h4v3h-4V15h4.14v3Zm2.28,4.32V19.62h2.86v2.72Z"/><path class="cls-1" d="M127.17,12.74a8.69,8.69,0,0,1-.23,2.21,4.31,4.31,0,0,1-1.1,1.88,5,5,0,0,1-3.73,1.44,6.36,6.36,0,0,1-2.07-.33,4.27,4.27,0,0,1-1.76-1.1,4.52,4.52,0,0,1-1.12-1.9,6.14,6.14,0,0,1-.18-1q0-.46,0-1.18V4.69h3.4v8.05a6.67,6.67,0,0,0,.05.91,2.7,2.7,0,0,0,.24.82,1.47,1.47,0,0,0,1.44.82,1.43,1.43,0,0,0,1.44-.8,2.79,2.79,0,0,0,.21-.81q0-.35,0-.93V4.69h3.4Z"/><path class="cls-1" d="M146,12.66a8.09,8.09,0,0,1-1,1.76l1.82,1.87-2,2-1.57-1.63a7.28,7.28,0,0,1-1.83,1.2,5.41,5.41,0,0,1-2.14.43,4.76,4.76,0,0,1-3.06-1,3.49,3.49,0,0,1-1.39-2.84,3.41,3.41,0,0,1,.73-2.14,5.34,5.34,0,0,1,.79-.8,9.54,9.54,0,0,1,.95-.7A4,4,0,0,1,136,7.88a3.17,3.17,0,0,1,1.11-2.48,3.74,3.74,0,0,1,2.58-1,3.53,3.53,0,0,1,2.45.91,3.07,3.07,0,0,1,1,2.37,3.19,3.19,0,0,1-.51,1.77,5,5,0,0,1-1.33,1.29l1.57,1.58,1-2.18H147Zm-6.92-.1a4.3,4.3,0,0,0-.69.66,1.44,1.44,0,0,0-.33.9q0,1.31,1.53,1.31a2,2,0,0,0,1.62-.72Zm.62-5.7q-.81,0-.81.89a1.51,1.51,0,0,0,.24.78,3.42,3.42,0,0,0,.52.65l.31-.32a3,3,0,0,0,.26-.33,1.53,1.53,0,0,0,.25-.83Q140.45,6.86,139.68,6.86Z"/><path class="cls-1" d="M69.31,28.89v7.55A9.34,9.34,0,0,1,69.18,38a5.47,5.47,0,0,1-.44,1.5,5,5,0,0,1-9,0,6,6,0,0,1-.44-1.5,10.08,10.08,0,0,1-.12-1.57V27.21H60.7v9.23a9.15,9.15,0,0,0,.1,1.37,4.27,4.27,0,0,0,.4,1.31,3.49,3.49,0,0,0,6.12,0,3.94,3.94,0,0,0,.4-1.31,9.15,9.15,0,0,0,.1-1.37V27.21h1.48v.35a1,1,0,0,0,.42-.68h-.63V25.12h1.85v1.82a2.31,2.31,0,0,1-.24.8,1.93,1.93,0,0,1-.42.53,3.83,3.83,0,0,1-.43.33Zm-6.17-2.52-.65-1.15,4-2.19.64,1.2Z"/><path class="cls-1" d="M82.62,42,73.84,29h0V42H72.31V27.21h2L82.58,39.5h0V27.21h1.47V42Z"/><path class="cls-1" d="M102.17,35.22a7.33,7.33,0,0,1-2.52,5,7.71,7.71,0,0,1-5.3,2,7.8,7.8,0,0,1-5.55-2.23,7.41,7.41,0,0,1,0-10.89A7.78,7.78,0,0,1,94.33,27a7.69,7.69,0,0,1,6,2.71,5.23,5.23,0,0,1,1,1.48H99.61A5.49,5.49,0,0,0,97.35,29a6.39,6.39,0,0,0-3-.75,6.28,6.28,0,0,0-4.54,1.85,6,6,0,0,0-1.91,4.49,6,6,0,0,0,1.93,4.49,6.44,6.44,0,0,0,4.58,1.81,6.3,6.3,0,0,0,3.72-1.22,5.49,5.49,0,0,0,2.27-3.15H92.13V35.22Z"/><path class="cls-1" d="M119.2,40.8a7.6,7.6,0,0,1-2.32.94,11.1,11.1,0,0,1-2.5.28h-4.32V27.21h4.32a10.67,10.67,0,0,1,2.5.29,7.57,7.57,0,0,1,2.32.93,6.94,6.94,0,0,1,3.36,6.22A6.93,6.93,0,0,1,119.2,40.8Zm-.64-11.1a5.9,5.9,0,0,0-2.33-.95,10.91,10.91,0,0,0-1.25-.16q-.55,0-1.29,0h-2.14V40.68H114q.74,0,1.28,0a9,9,0,0,0,1.21-.17,6,6,0,0,0,2.28-1,5.37,5.37,0,0,0,1.73-2.17,6.49,6.49,0,0,0,.59-2.71A5.61,5.61,0,0,0,118.55,29.69Z"/><path class="cls-1" d="M135,36.44a10.08,10.08,0,0,1-.12,1.57,6,6,0,0,1-.44,1.5,5,5,0,0,1-9,0,5.71,5.71,0,0,1-.43-1.5,9.34,9.34,0,0,1-.13-1.57V27.21h1.48v9.23a9.15,9.15,0,0,0,.1,1.37,3.94,3.94,0,0,0,.4,1.31,3.48,3.48,0,0,0,6.11,0,3.94,3.94,0,0,0,.4-1.31,8.3,8.3,0,0,0,.11-1.37V27.21H135Zm-5.78,9.34V43.25h1.48v2.53Z"/><path class="cls-1" d="M148.35,42l-8.78-13h0V42H138V27.21h2l8.26,12.29h0V27.21h1.47V42Z"/><path class="cls-1" d="M167.9,35.22a7.33,7.33,0,0,1-2.52,5,7.71,7.71,0,0,1-5.3,2,7.8,7.8,0,0,1-5.55-2.23,7.41,7.41,0,0,1,0-10.89A7.78,7.78,0,0,1,160.06,27a7.69,7.69,0,0,1,6,2.71,5.23,5.23,0,0,1,1,1.48h-1.72A5.49,5.49,0,0,0,163.08,29a6.39,6.39,0,0,0-3-.75,6.28,6.28,0,0,0-4.54,1.85,6,6,0,0,0-1.91,4.49,6,6,0,0,0,1.93,4.49,6.44,6.44,0,0,0,4.58,1.81,6.3,6.3,0,0,0,3.72-1.22,5.49,5.49,0,0,0,2.27-3.15h-8.26V35.22Z"/><path class="cls-2" d="M16,18.36a9.12,9.12,0,1,0,9.12,9.12A9.13,9.13,0,0,0,16,18.36Zm4.73,9.37L14,32.29a.3.3,0,0,1-.48-.25V22.92a.3.3,0,0,1,.48-.25l6.69,4.56a.3.3,0,0,1,0,.5Z"/><path class="cls-2" d="M30.87,10.5H6a5,5,0,0,1-1.3-.12C2.76,9.86,2,8,2.59,5.9a3,3,0,0,1,3-2.12H30.85V1.36H5.55a5.65,5.65,0,0,0-2.3.5A5.48,5.48,0,0,0,0,7.23V40.37a5.9,5.9,0,0,0,5.71,6.08H29.28c1.12,0,1.59-.47,1.59-1.61q0-16.87,0-33.76ZM28.24,43.8H5.92a3.21,3.21,0,0,1-3.29-3.13q0-.09,0-.18V12.16a2,2,0,0,1,.3.12,5.73,5.73,0,0,0,2.67.63H28.25Z"/><path class="cls-2" d="M35.11,5H6.24A2.17,2.17,0,0,0,4.1,6.43,2.13,2.13,0,0,0,5.38,9.15a2.1,2.1,0,0,0,.86.12H32.12V43h3.45V5Z"/></g></g></g></svg>