<svg id="Layer_1" data-name="Layer 1" xmlns="http://www.w3.org/2000/svg" viewBox="0 0 274.16 105"><defs><style>.cls-1{fill:#e9313d;}.cls-2,.cls-4{fill:#ea3240;}.cls-3{font-size:34.19px;fill:#737476;}.cls-3,.cls-4{font-family:Tahoma-Bold, Tahoma;font-weight:700;}.cls-4{font-size:35.98px;}</style></defs><title>2</title><path class="cls-1" d="M225.8,51.66A3.68,3.68,0,0,0,221,49.52h0a3.68,3.68,0,0,0-2.14,4.75l8.36,22.05h7.88Z"/><path class="cls-1" d="M52.57,15.15l.06,0Z"/><path class="cls-1" d="M43.72,59.66c9.08-.82,11.56,12.92,11.6,13.13a3.52,3.52,0,0,0,6.94-1.16c-1.18-7.05-6.69-20.09-19.16-19a3.52,3.52,0,0,0,.63,7Z"/><path class="cls-1" d="M43.4,37.16A3.52,3.52,0,1,0,41.66,44c15.42,3.94,24.61,24.8,26.88,30.55a22.06,22.06,0,0,0,5.64-4.82C70.51,61.12,60.45,41.52,43.4,37.16Z"/><path class="cls-1" d="M48.47,22.91a3.52,3.52,0,0,0-3.09,6.31c17.16,8.41,31,36.49,31.29,37a35.68,35.68,0,0,0,3.66-8.1C75.22,49,63.28,30.17,48.47,22.91Z"/><path class="cls-1" d="M81.93,39.16c-5-6.87-13.73-16.94-25.75-24a3.51,3.51,0,0,0-3.55,0l-.06,0a3.52,3.52,0,0,0,0,6c17.77,10.49,28,28.76,28.15,29a3.49,3.49,0,0,0,1.1,1.2,46,46,0,0,0,.07-12.22Z"/><path class="cls-1" d="M67,19.33c5.61,1.67,10.5,9.41,11.91,12.25a3.5,3.5,0,0,0,1.84,1.7c-2.64-9.69-8.46-17.05-15.59-19.39A3.51,3.51,0,0,0,67,19.33Z"/><path class="cls-2" d="M211.29,76.17l4-9.67s1.54-3.74,3.3.22l3.52,9.67Z"/><text class="cls-3" transform="translate(88.9 75.81) scale(1.12 1)">Bkav</text><text class="cls-4" transform="translate(183.83 76.04) scale(1.07 1)">C</text></svg>