<svg id="Layer_1" data-name="Layer 1" xmlns="http://www.w3.org/2000/svg" viewBox="0 0 274.16 105"><title>4</title><path d="M100.8,54V51h15.79v3Z"/><path d="M116.6,46.69H100.81v-3H116.6Z"/><path d="M178.07,45c-.75.72-1.44,1.4-2.16,2.05a.78.78,0,0,1-.56.06c-.93-.15-1.85-.38-2.78-.46a18.74,18.74,0,0,0-2.85,0c-1.12.08-2.23.25-3.37.39l-2.12-2.12C166.64,43.06,174.82,43,178.07,45Z"/><path d="M196,61.63a2.68,2.68,0,0,1-1.29-1.52q-2.2-5.13-4.43-10.25c-.1-.23-.22-.46-.4-.84-.41,1.47-.77,2.78-1.13,4.1-.7,2.56-1.41,5.12-2.08,7.69-.11.42-.28.58-.72.56-.8,0-1.61,0-2.51,0,.17-.66.32-1.24.48-1.82l4-14.61c.29-1.07.71-1.49,1.51-1.54s1.39.37,1.81,1.32l4.94,11.34c.1.23.22.46.39.83l1.3-2.95,4-9.13.24-.52a1.49,1.49,0,0,1,1.56-.9,1.42,1.42,0,0,1,1.32,1.12c.38,1.32.73,2.65,1.09,4l3.33,12.22c0,.18.08.37.13.6h-3.08L203,49l-2.34,5.36c-.84,1.93-1.7,3.86-2.52,5.81a2.65,2.65,0,0,1-1.34,1.49Z"/><path d="M223.19,61.63a2.54,2.54,0,0,1-1.33-1.49c-1.48-3.47-3-6.92-4.49-10.38-.08-.19-.18-.38-.34-.73-.16.53-.28.91-.39,1.3-.95,3.48-1.9,7-2.83,10.43-.12.45-.29.63-.76.6-.78,0-1.56,0-2.44,0,.07-.35.12-.64.19-.92l4.25-15.5c.3-1.11.68-1.5,1.49-1.55a1.79,1.79,0,0,1,1.82,1.31l5,11.34.37.84c.15-.3.26-.51.35-.73l5-11.54A1.64,1.64,0,0,1,231,43.43a1.67,1.67,0,0,1,1.19,1.38q1.7,6.28,3.41,12.56l1.09,4c-1,0-1.92,0-2.83,0-.15,0-.35-.33-.41-.54q-1.55-5.59-3.07-11.18L230.2,49c-.2.43-.33.71-.45,1-1.47,3.37-2.91,6.75-4.43,10.1A7.43,7.43,0,0,1,224,61.63Z"/><path d="M54,61.63a12.49,12.49,0,0,1-1.59-1.16q-5.67-5.66-11.31-11.36c-.18-.18-.37-.34-.66-.62V61.32H37.52c0-.2,0-.41,0-.61q0-7.7,0-15.39a1.69,1.69,0,0,1,.92-1.77,1.72,1.72,0,0,1,2,.55L52.18,55.73a6.59,6.59,0,0,1,.49.61l.18-.09V43.52h3c0,.24,0,.45,0,.66,0,5.08,0,10.17,0,15.25a2,2,0,0,1-1.29,2.21Z"/><path d="M135.82,61.63a3.83,3.83,0,0,1-1.51-1q-5.73-5.7-11.41-11.46c-.2-.2-.63-.59-.71-.53V61.31h-3v-.77q0-7.44,0-14.89a5.44,5.44,0,0,1,0-.71,1.58,1.58,0,0,1,1.06-1.47,1.66,1.66,0,0,1,1.76.47c.84.81,1.66,1.63,2.49,2.45l9.56,9.48c.13.13.27.25.52.47V43.53h2.93c0,.24,0,.47,0,.71,0,5.13,0,10.26,0,15.39a1.82,1.82,0,0,1-1.31,2A.77.77,0,0,1,135.82,61.63Z"/><path d="M98.27,43.67v3c-.28,0-.56.05-.83.05-3,0-6.08-.09-9.11.06a5.31,5.31,0,0,0-5.14,5.88c.18,3.49,2.38,5.56,5.88,5.56h9.17v3.13H88.93a8.57,8.57,0,0,1-8.86-8.91c0-4.69,2.53-7.88,6.95-8.7a9.59,9.59,0,0,1,1.7-.14c3,0,6,0,9,0C97.88,43.61,98.06,43.65,98.27,43.67Z"/><path d="M158.23,43.66v3.08h-.94c-3,0-6-.09-9,.06a5.37,5.37,0,0,0-5.15,6A5.46,5.46,0,0,0,149,58.24h9.22v3.13H148.9A8.68,8.68,0,0,1,140,51.74c.34-4.4,2.85-7.27,7-8a9.34,9.34,0,0,1,1.56-.12c3,0,6.08,0,9.12,0C157.89,43.61,158,43.64,158.23,43.66Z"/><path d="M162.63,46l2.27,2.26a6.5,6.5,0,0,0-1.51,3.46,5.74,5.74,0,0,0,5.8,6.62c1.19,0,2.37,0,3.56,0a5.37,5.37,0,0,0,5.32-3.12,6.11,6.11,0,0,0-.56-6.53c-.11-.15-.23-.3-.33-.42l2.3-2.24a7.82,7.82,0,0,1,1.7,2.61c1.91,4.65-.13,10.11-4.54,12a8.57,8.57,0,0,1-3,.66,38.88,38.88,0,0,1-6.32-.11,8.34,8.34,0,0,1-7-7.37,9.24,9.24,0,0,1,1.81-7.24C162.31,46.38,162.49,46.2,162.63,46Z"/><path d="M81,61.37c-1.19,0-2.31,0-3.42,0-.21,0-.46-.29-.59-.5q-3.45-5.77-6.88-11.55l-.89-1.48-3.58,6c-1.38,2.33-2.76,4.65-4.12,7a.92.92,0,0,1-1,.54c-.92,0-1.85,0-2.87,0a5.54,5.54,0,0,1,.24-.54q4.92-8.21,9.86-16.41c.83-1.38,2.19-1.46,3-.13q5.07,8.36,10.09,16.76A2.46,2.46,0,0,1,81,61.37Z"/><path d="M100.8,61.3v-3h15.79v3Z"/><path d="M174.79,48,171,51.72,167.34,48A29.26,29.26,0,0,1,174.79,48Z"/><path d="M71.14,55.45a1.81,1.81,0,1,1-3.61,0,1.81,1.81,0,1,1,3.61,0Z"/></svg>