<svg id="Layer_1" data-name="Layer 1" xmlns="http://www.w3.org/2000/svg" viewBox="0 0 186 49.16"><defs><style>.cls-1{fill:#ff0;}.cls-2{fill:#fff;}</style></defs><title>Đóng_BHXH điện tử0</title><path class="cls-1" d="M31.21,34.46c-1.82-.65-2.56-1.11-2.56-1.79s.44-1.21,1.82-1.21a6.44,6.44,0,0,1,3.05.73l.63-2.4a7.68,7.68,0,0,0-3.1-.69v-.37h0v-.15a1,1,0,0,0-2.07,0V29a1.09,1.09,0,0,0,0,.14v.17c-2.26.43-3.57,1.89-3.57,3.78s1.56,3.1,3.83,3.86c1.58.52,2.26,1,2.27,1.84s-.82,1.32-2,1.32A7.54,7.54,0,0,1,26,39.17l-.63,2.47a8.87,8.87,0,0,0,3.6.9v.52a1,1,0,0,0,2.07,0v-.2h0v-.5c2.43-.41,3.74-2,3.73-3.91S33.74,35.35,31.21,34.46Z"/><path class="cls-1" d="M32.9,22.15V6.73a4,4,0,0,0-4-4H4a4,4,0,0,0-4,4V33.86a4.45,4.45,0,0,0,4.45,4.45H16.1A13.6,13.6,0,1,0,32.9,22.15ZM5.3,10.42A1.61,1.61,0,0,1,6.91,8.81H25.29a1.61,1.61,0,0,1,1.61,1.61h0V13a1.61,1.61,0,0,1-1.61,1.61H6.91A1.61,1.61,0,0,1,5.3,13Zm0,8.89a1.61,1.61,0,0,1,1.61-1.58H25.29a1.61,1.61,0,0,1,1.61,1.61h0v2.6a13.5,13.5,0,0,0-4.25,1.55H6.91A1.61,1.61,0,0,1,5.3,21.88s0,0,0,0Zm0,11.42V28.19a1.61,1.61,0,0,1,1.61-1.61h12a13.57,13.57,0,0,0-2.83,5.76H6.91A1.61,1.61,0,0,1,5.3,30.73Zm24.06,16.4A11.85,11.85,0,1,1,41.21,35.28h0A11.87,11.87,0,0,1,29.36,47.13Z"/><path class="cls-2" d="M66.53,41a5,5,0,0,1-1.74.68,10.17,10.17,0,0,1-1.88.14H58.83V27h3.72a6.3,6.3,0,0,1,2.69.52,3.56,3.56,0,0,1,1.86,1.9,3.9,3.9,0,0,1,.3,1.52,3.29,3.29,0,0,1-.43,1.7,4.75,4.75,0,0,1-1.19,1.28,3.64,3.64,0,0,1,2.46,3.64A3.74,3.74,0,0,1,66.53,41ZM65.3,29.24a2.51,2.51,0,0,0-1.4-.77,5.48,5.48,0,0,0-.81-.13h-2.8v5H62.8a5.94,5.94,0,0,0,.64,0A3.55,3.55,0,0,0,64.68,33a2.17,2.17,0,0,0,1.2-2.08A2.39,2.39,0,0,0,65.3,29.24ZM65,35a5,5,0,0,0-1.4-.31H60.32v5.74h3.49a4.59,4.59,0,0,0,1.38-.33,2.48,2.48,0,0,0,1.56-2.52A2.53,2.53,0,0,0,65,35Z"/><path class="cls-2" d="M79.49,41.78V34.84H71.83v6.94H70.35V27h1.48V33.5h7.66V27H81v14.8Z"/><path class="cls-2" d="M92.76,41.78,88.6,35.46l-4.22,6.32H82.64l5-7.56L82.9,27h1.74l3.94,5.93L92.49,27h1.72l-4.77,7.25,5.07,7.56Z"/><path class="cls-2" d="M105.32,41.78V34.84H97.66v6.94H96.18V27h1.48V33.5h7.66V27h1.47v14.8Z"/><path class="cls-2" d="M115.33,33.5V27h4.32a10.67,10.67,0,0,1,2.5.29,7.45,7.45,0,0,1,2.31.93,6.94,6.94,0,0,1,3.37,6.22,6.93,6.93,0,0,1-3.37,6.14,7.62,7.62,0,0,1-2.32.94,11,11,0,0,1-2.49.28h-4.32V34.84h-1.19V33.5Zm1.47,1.34v5.61h3.73a8.87,8.87,0,0,0,1.21-.17,6,6,0,0,0,2.28-1,5.34,5.34,0,0,0,1.74-2.17,6.49,6.49,0,0,0,.59-2.71,5.61,5.61,0,0,0-2.52-4.9,6,6,0,0,0-2.33-1,10.9,10.9,0,0,0-1.26-.16H116.8v5.18h4.49v1.34Z"/><path class="cls-2" d="M130.24,41.78V27h1.48v14.8Z"/><path class="cls-2" d="M134.64,41.78V27h8.1v1.35h-6.61v5.31h6.4V35h-6.4v5.46h6.61v1.34Zm5.72-16-1.72-1.46-1.77,1.41H135l2.9-2.5h1.32l2.86,2.5Zm-2.41,19.79V43h1.48v2.53Z"/><path class="cls-2" d="M155.75,41.78l-8.75-13h0v13h-1.48V27h2l8.26,12.29h0V27h1.47v14.8Z"/><path class="cls-2" d="M169.28,28.33V41.78H167.8V28.33h-3.4V27h8.26v1.35Z"/><path class="cls-2" d="M184.37,28.66v7.55a9.34,9.34,0,0,1-.13,1.57,5.47,5.47,0,0,1-.44,1.5,5,5,0,0,1-9,0,6,6,0,0,1-.44-1.5,10.08,10.08,0,0,1-.12-1.57V27h1.47v9.23a9.15,9.15,0,0,0,.1,1.37,4.27,4.27,0,0,0,.4,1.31,3.49,3.49,0,0,0,6.12,0,3.94,3.94,0,0,0,.4-1.31,9.15,9.15,0,0,0,.1-1.37V27h1.48v.35a1,1,0,0,0,.42-.68h-.63V24.89H186v1.84a2.31,2.31,0,0,1-.24.8,1.93,1.93,0,0,1-.42.53,3.77,3.77,0,0,1-.43.33Zm-3.31-4.39a2,2,0,0,1-.22.27l-.13.14-.4.39a3.4,3.4,0,0,0-.22.29,1.74,1.74,0,0,0-.21.85h-1.24v-.26a1.9,1.9,0,0,1,.27-1,2.49,2.49,0,0,1,.26-.35l.25-.25.26-.25.23-.27a.8.8,0,0,0,.16-.48.83.83,0,0,0-.25-.64.87.87,0,0,0-.6-.26.83.83,0,0,0-.72.41.82.82,0,0,0-.13.33,5,5,0,0,0,0,.6h-1.26v-.38a1.88,1.88,0,0,1,.65-1.41,2.13,2.13,0,0,1,1.49-.56,2,2,0,0,1,1.47.55,1.89,1.89,0,0,1,.61,1.39,1.62,1.62,0,0,1-.27.88Z"/><path class="cls-2" d="M70.1,17.94a6.59,6.59,0,0,1-5,1.93H59.83V14.3H58.57V11.17h1.26V5.92h4.69A12.89,12.89,0,0,1,66.32,6a7,7,0,0,1,1.6.38,5.91,5.91,0,0,1,2.7,2.12,7.22,7.22,0,0,1,1.28,4.33A7.09,7.09,0,0,1,70.1,17.94Zm-2.58-7.78a3.1,3.1,0,0,0-2.59-1.1H63.39v2.12h2V14.3h-2v2.45h1.53a3.19,3.19,0,0,0,2.62-1.07,4.28,4.28,0,0,0,.79-2.76A4.28,4.28,0,0,0,67.52,10.16Z"/><path class="cls-2" d="M85.77,18.07a7.58,7.58,0,0,1-10.37,0,6.65,6.65,0,0,1-2.19-5,8.16,8.16,0,0,1,.54-3,6.36,6.36,0,0,1,.91-1.56,7,7,0,0,1,5.9-2.86,7.18,7.18,0,0,1,5.21,2.08,6.9,6.9,0,0,1,2.15,5.15A6.93,6.93,0,0,1,85.77,18.07Zm-2.44-8a3.5,3.5,0,0,0-2.75-1.25A3.54,3.54,0,0,0,77.82,10a4.12,4.12,0,0,0-1,2.85,4.21,4.21,0,0,0,1.06,2.91A3.55,3.55,0,0,0,80.62,17a3.45,3.45,0,0,0,2.71-1.25,4.19,4.19,0,0,0,1-2.84A4.23,4.23,0,0,0,83.33,10ZM79.07,5.25,78.19,3.4,82.71,1l1,2.23Z"/><path class="cls-2" d="M98.51,19.87,93.2,11.39l0,0,.1,8.47H89.85v-14h3.07l5.39,8.77,0,0-.16-8.73h3.41v14Z"/><path class="cls-2" d="M118.39,12.68A7.48,7.48,0,0,1,105.7,18a7,7,0,0,1-2.16-5.21,6.8,6.8,0,0,1,2.2-5.16A7.71,7.71,0,0,1,115.3,7,6.4,6.4,0,0,1,118,10.6h-4a3.3,3.3,0,0,0-3.07-1.8,3.56,3.56,0,0,0-2.76,1.2,4.1,4.1,0,0,0-1,2.85,4.33,4.33,0,0,0,1,2.94A3.54,3.54,0,0,0,110.93,17a3.86,3.86,0,0,0,2.08-.54,2.83,2.83,0,0,0,1.25-1.7H110.1V11.94h8.27c0,.11,0,.23,0,.37Z"/></svg>