<?xml version="1.0" encoding="utf-8"?>
<!-- Generator: Adobe Illustrator 21.0.0, SVG Export Plug-In . SVG Version: 6.00 Build 0)  -->
<svg version="1.1" id="Layer_1" xmlns="http://www.w3.org/2000/svg" xmlns:xlink="http://www.w3.org/1999/xlink" x="0px" y="0px"
	 viewBox="0 0 367 74" style="enable-background:new 0 0 367 74;" xml:space="preserve">
<style type="text/css">
	.st0{fill:#EFEFEF;}
	.st1{enable-background:new    ;}
	.st2{fill:#142B50;}
</style>
<title>tiepnhan_ykien</title>
<rect class="st0" width="367" height="74"/>
<g class="st1">
	<path class="st2" d="M155.5,21.1v12.1h-1.3V21.1h-3.1v-1.2h7.4v1.2H155.5z"/>
	<path class="st2" d="M160.1,33.2V19.9h1.3v13.3H160.1z"/>
	<path class="st2" d="M164,33.2V19.9h7.3v1.2h-6v4.8h5.8v1.2h-5.8V32h6v1.2H164z M169.2,18.8l-1.5-1.3l-1.6,1.3h-1.6l2.6-2.3h1.2
		l2.6,2.3H169.2z M169.9,17.4l-0.6-1l3.6-2l0.6,1.1L169.9,17.4z"/>
	<path class="st2" d="M180.9,27.1c-0.5,0.3-1,0.5-1.7,0.6c-0.3,0-0.6,0.1-0.9,0.1c-0.3,0-0.6,0-0.9,0h-2.4v5.4h-1.3V19.9h3.7
		c0.3,0,0.6,0,0.9,0c0.3,0,0.6,0.1,0.9,0.1c0.6,0.1,1.2,0.3,1.7,0.7c1.1,0.8,1.7,1.8,1.7,3.2S182,26.3,180.9,27.1z M179.7,21.4
		c-0.3-0.2-0.7-0.3-1.1-0.3l-0.6,0h-2.9v5.5h2.9l0.6,0c0.4,0,0.8-0.1,1.1-0.3c1-0.5,1.5-1.3,1.5-2.4S180.7,21.9,179.7,21.4z"/>
	<path class="st2" d="M198.7,33.2l-7.9-11.7h0v11.7h-1.3V19.9h1.8l7.4,11.1h0V19.9h1.3v13.3H198.7z"/>
	<path class="st2" d="M211,33.2V27h-6.9v6.2h-1.3V19.9h1.3v5.9h6.9v-5.9h1.3v13.3H211z"/>
	<path class="st2" d="M225.3,33.2l-1.9-4.5h-6.2l-1.9,4.5h-1.4l5.7-13.3h1.5l5.7,13.3H225.3z M221.9,18.8l-1.5-1.3l-1.6,1.3h-1.6
		l2.6-2.3h1.2l2.6,2.3H221.9z M220.3,21.4l-2.6,6.1h5.2L220.3,21.4z M219.6,36.6v-2.3h1.3v2.3H219.6z"/>
	<path class="st2" d="M237.6,33.2l-7.9-11.7h0v11.7h-1.3V19.9h1.8l7.4,11.1h0V19.9h1.3v13.3H237.6z"/>
</g>
<g class="st1">
	<path class="st2" d="M158.6,50v4.8h-3.4V50l-4-8.5h3.7l2,5.4l2-5.4h3.7L158.6,50z M156.5,40.8l-0.8-1.8l4.3-2.3l1,2.1L156.5,40.8z"
		/>
	<path class="st2" d="M176.9,54.8l-3.6-5.8h0v5.8h-3.4V41.5h3.4v6h0l3.8-6h3.6l-4.4,6.6l4.7,6.7H176.9z"/>
	<path class="st2" d="M182.2,54.8V41.5h3.4v13.3H182.2z"/>
	<path class="st2" d="M192.5,40.3l-0.8-1l-0.8,1h-2.9l2.8-3h2l2.7,3H192.5z M188,54.8V41.5h7.4v3h-4.1v2.1h4v3h-4v2.3h4.1v3H188z
		 M194.9,38.8l-0.8-1.8l4.3-2.3l1,2.1L194.9,38.8z"/>
	<path class="st2" d="M205.8,54.8l-5.1-8.1l0,0l0.1,8.1h-3.3V41.5h2.9l5.2,8.4l0,0l-0.1-8.3h3.3v13.3H205.8z"/>
	<path class="st2" d="M230.3,47.9c0,2-0.7,3.7-2,5.1c-1.4,1.4-3,2-5.1,2c-2,0-3.6-0.7-5-2c-1.4-1.4-2.1-3-2.1-5c0-2,0.7-3.6,2.1-4.9
		c1.4-1.3,3-1.9,5-1.9c1.5,0,2.8,0.4,4.1,1.3c1.3,0.9,2.2,2,2.6,3.4h-3.8c-0.6-1.1-1.6-1.7-2.9-1.7c-1.1,0-1.9,0.4-2.6,1.1
		c-0.7,0.7-1,1.6-1,2.7c0,1.1,0.3,2.1,1,2.8c0.7,0.8,1.6,1.2,2.7,1.2c0.8,0,1.4-0.2,2-0.5c0.6-0.4,1-0.9,1.2-1.6h-4v-2.7h7.9
		c0,0.1,0,0.2,0,0.4V47.9z"/>
	<path class="st2" d="M243.5,53.1c-1.4,1.3-3,2-5,2c-1.9,0-3.5-0.6-4.9-1.9c-1.4-1.3-2.1-2.9-2.1-4.8c0-1,0.2-2,0.5-2.8
		c0.2-0.5,0.5-1,0.9-1.5c1.4-1.8,3.3-2.7,5.6-2.7c2,0,3.6,0.7,5,2c1.4,1.3,2.1,3,2.1,4.9C245.5,50.1,244.8,51.7,243.5,53.1z
		 M241.1,45.4c-0.7-0.8-1.6-1.2-2.6-1.2c-1.1,0-1.9,0.4-2.6,1.2c-0.7,0.7-1,1.7-1,2.7c0,1.1,0.3,2,1,2.8c0.7,0.8,1.6,1.2,2.7,1.2
		c1,0,1.9-0.4,2.6-1.2c0.7-0.8,1-1.7,1-2.7C242.1,47.1,241.8,46.2,241.1,45.4z M237.1,40.8l-0.8-1.8l4.3-2.3l1,2.1L237.1,40.8z"/>
	<path class="st2" d="M257,47.9c-0.3,0.7-0.6,1.2-1.1,1.6c-0.5,0.5-1.1,0.8-1.8,0.9c-0.5,0.1-1.2,0.2-2.1,0.2h-1.5v4.2h-3.3V41.5
		h4.4c0.4,0,0.8,0,1.1,0c0.4,0,0.8,0.1,1.1,0.1c0.8,0.1,1.5,0.4,2,0.8c1,0.9,1.6,2.1,1.6,3.5C257.4,46.6,257.3,47.3,257,47.9z
		 M253.4,44.7c-0.3-0.2-0.9-0.3-1.5-0.3h-1.3v3.2h1.4c0.7,0,1.2-0.1,1.5-0.3c0.4-0.3,0.6-0.7,0.6-1.3
		C254.1,45.4,253.9,45,253.4,44.7z"/>
	<path class="st2" d="M270.7,50v4.8h-3.4V50l-4-8.5h3.7l2,5.4l2-5.4h3.7L270.7,50z M268.6,40.8l-0.8-1.8l4.3-2.3l1,2.1L268.6,40.8z"
		/>
</g>
<path class="st2" d="M111.8,40.6l7.5-6.3c0.2-0.2,0.4-0.5,0.4-0.8V23.3c0-0.7-0.6-1.3-1.3-1.3H98.7c-0.7,0-1.3,0.6-1.3,1.3v10.1
	c0,0.4,0.2,0.8,0.4,1l7.4,6.2c0.3,0.2,0.6,0.3,0.9,0.3h4.7C111.2,40.9,111.6,40.8,111.8,40.6z M105.6,24.3c0.2-0.1,0.4-0.1,0.6-0.1
	l0.6-0.1c1.9-0.2,3.8,0.3,5.3,1.5c1.5,1.1,2.4,2.8,2.6,4.7c0,0.2,0,0.4,0,0.6c0,0.2-0.1,0.3-0.3,0.3c-0.2,0-0.3-0.1-0.3-0.3
	c0,0,0,0,0,0c0-0.1,0-0.2,0-0.3v-0.3c-0.2-1.7-1.1-3.2-2.4-4.3c-1.4-1.1-3.1-1.5-4.8-1.3l-0.6,0.1l-0.3,0.1l-0.3,0.1
	c-0.2,0.1-0.4,0-0.4-0.2C105.3,24.6,105.3,24.4,105.6,24.3C105.5,24.3,105.6,24.3,105.6,24.3L105.6,24.3z M112.2,30.5
	c-0.1-0.6-0.2-1.1-0.5-1.6c-0.7-1.2-1.9-2.1-3.3-2.3c-0.4-0.1-0.9-0.1-1.3,0l-0.4,0.1h-0.1l-0.3,0.1c-0.2,0.1-0.4,0-0.4-0.2
	c-0.1-0.2,0-0.4,0.2-0.4c0,0,0,0,0.1,0l0.4-0.1l0.4-0.1h0.4c1.2-0.1,2.5,0.3,3.5,1.1c0.9,0.7,1.5,1.6,1.8,2.6
	c0.1,0.3,0.1,0.6,0.2,0.9c0,0.1,0,0.3,0,0.5c0,0.2-0.1,0.3-0.3,0.3c-0.2,0-0.3-0.1-0.3-0.3c0,0,0,0,0,0c0-0.1,0-0.2,0-0.3
	L112.2,30.5z M110.4,30.7L110.4,30.7c-0.1-0.7-0.4-1.3-1-1.8c-0.6-0.4-1.3-0.7-2-0.6h-0.2l0,0l-0.2,0c-0.2,0.1-0.4,0-0.4-0.2
	c-0.1-0.2,0-0.4,0.2-0.4c0,0,0,0,0.1,0l0.3-0.1h0.3c0.3,0,0.6,0,0.9,0c0.6,0.1,1.2,0.3,1.6,0.7c0.4,0.3,0.7,0.7,0.9,1.1
	c0.2,0.3,0.3,0.7,0.3,1.1v0.1c0,0,0,0.1,0,0.1c0,0.2-0.1,0.3-0.3,0.3c-0.2,0-0.3-0.1-0.3-0.3c0,0,0,0,0,0c0,0,0-0.1,0-0.1
	L110.4,30.7z M100.3,29.1c-0.4-1.7,2-5.7,3.3-3.5l1.4,2.3c0.7,1.3-0.9,1.8-0.8,2.5c0.1,0.5,1.4,1.7,1.7,2c1,0.8,2.2,1.5,3.5,1.8
	c0.5,0,0.8-0.6,1-0.8c0.8-1,0.8-1.3,1.6-0.9l2.6,1c1,0.4-0.1,2.4-1,3C109.7,39.2,101.4,33.3,100.3,29.1z"/>
<path class="st2" d="M124.6,30.9l-2.4-2.1c-0.3-0.3-0.8-0.2-1,0.1c-0.1,0.1-0.2,0.3-0.2,0.5v5.2c0,0.2-0.1,0.4-0.3,0.6l-4.7,4
	l-2.2,1.9c-0.3,0.3-0.3,0.7-0.1,1c0,0,0,0.1,0.1,0.1l6.5,5.6c0.3,0.3,0.3,0.7,0,1c0,0,0,0,0,0l0,0c-0.3,0.3-0.7,0.3-1,0l-7.1-6.1
	c-0.1-0.1-0.3-0.2-0.5-0.2h-6.3c-0.2,0-0.3,0.1-0.5,0.2l-7.1,6.1c-0.3,0.3-0.8,0.2-1.1-0.1c-0.3-0.3-0.2-0.8,0.1-1.1l6.5-5.6
	c0.3-0.3,0.3-0.7,0.1-1c0,0,0-0.1-0.1-0.1L101,39l-4.7-4c-0.2-0.1-0.3-0.4-0.3-0.6v-5.1c0-0.4-0.3-0.7-0.7-0.7
	c-0.2,0-0.4,0.1-0.5,0.2l-2.4,2.1c-0.2,0.1-0.3,0.3-0.3,0.6v18c0,1.4,1.2,2.6,2.6,2.6h27.5c1.4,0,2.6-1.2,2.6-2.6v-18
	C124.9,31.2,124.8,31,124.6,30.9z"/>
</svg>
