<svg id="Layer_1" data-name="Layer 1" xmlns="http://www.w3.org/2000/svg" viewBox="0 0 366.99 74"><defs><style>.cls-1{fill:#efefef;}.cls-2,.cls-3{fill:#142b50;}.cls-3{fill-rule:evenodd;}</style></defs><title>tongdai</title><rect class="cls-1" width="366.99" height="74"/><path class="cls-2" d="M136.08,21.25V33.36h-1.34V21.25h-3.05V20h7.43v1.21Z"/><path class="cls-2" d="M152.73,31.59a7.09,7.09,0,0,1-9.87,0,6.43,6.43,0,0,1-2.12-4.84,6.7,6.7,0,0,1,2.06-4.94,7.14,7.14,0,0,1,9.93,0,6.72,6.72,0,0,1,0,9.78Zm-.92-8.9a5.67,5.67,0,0,0-8.08,0,5.62,5.62,0,0,0-1.66,4.06,5.34,5.34,0,0,0,1.71,4,5.69,5.69,0,0,0,8,0,5.39,5.39,0,0,0,1.7-4A5.46,5.46,0,0,0,151.81,22.69Zm-2.43-3.76-1.55-1.32-1.58,1.32H144.6l2.61-2.25h1.19L151,18.93Zm2.09-3.63a2.49,2.49,0,0,1-.2.24l-.12.13-.36.35a2.56,2.56,0,0,0-.2.26,1.47,1.47,0,0,0-.18.77h-1.12v-.24a1.65,1.65,0,0,1,.25-.87,1.83,1.83,0,0,1,.23-.32l.23-.23.24-.22.21-.25a.74.74,0,0,0,.14-.43.75.75,0,0,0-.23-.58.78.78,0,0,0-.53-.24.79.79,0,0,0-.66.37,1,1,0,0,0-.11.3,4.59,4.59,0,0,0,0,.54h-1.13v-.35a1.7,1.7,0,0,1,.59-1.26,1.87,1.87,0,0,1,1.34-.5,1.82,1.82,0,0,1,1.33.49,1.71,1.71,0,0,1,.54,1.25A1.48,1.48,0,0,1,151.47,15.3Z"/><path class="cls-2" d="M166.94,33.36,159,21.64h0V33.36h-1.34V20h1.81l7.43,11.05h0V20h1.32V33.36Z"/><path class="cls-2" d="M185.25,27.24A6.57,6.57,0,0,1,183,31.79a7.19,7.19,0,0,1-9.76-.2,6.68,6.68,0,0,1,0-9.8,7,7,0,0,1,5-2,6.9,6.9,0,0,1,5.44,2.44,4.65,4.65,0,0,1,.87,1.34H183a4.92,4.92,0,0,0-2-1.9,5.76,5.76,0,0,0-2.71-.68,5.61,5.61,0,0,0-4.08,1.66,5.44,5.44,0,0,0-1.73,4,5.36,5.36,0,0,0,1.74,4,5.82,5.82,0,0,0,4.12,1.62,5.66,5.66,0,0,0,3.35-1.09,5,5,0,0,0,2-2.84h-7.43V27.24Z"/><path class="cls-2" d="M193.79,25.91V20h3.89a9.36,9.36,0,0,1,2.25.26,6.7,6.7,0,0,1,2.08.83,6.25,6.25,0,0,1,3,5.6,6.23,6.23,0,0,1-3,5.53,6.67,6.67,0,0,1-2.09.84,9.87,9.87,0,0,1-2.24.26h-3.89V27.11h-1.07v-1.2Zm1.33,1.2v5h2.22c.44,0,.82,0,1.14,0a8.2,8.2,0,0,0,1.09-.15,5.21,5.21,0,0,0,2.05-.9,4.82,4.82,0,0,0,1.56-1.95,5.82,5.82,0,0,0,.53-2.44,5,5,0,0,0-2.27-4.41,5.32,5.32,0,0,0-2.1-.85,8.86,8.86,0,0,0-1.13-.15l-1.16,0h-1.93v4.66h4v1.2Z"/><path class="cls-2" d="M218.24,33.36l-1.94-4.48h-6.19l-1.94,4.48h-1.39L212.47,20H214l5.73,13.32Zm-5-11.8-2.61,6.11h5.16Zm1.4-2.28-3.57-1.93.58-1.08,3.59,2Z"/><path class="cls-2" d="M222,33.36V20h1.34V33.36Z"/><path class="cls-2" d="M240.68,33.36V27.11h-6.89v6.25h-1.34V20h1.34v5.87h6.89V20H242V33.36Z"/><path class="cls-2" d="M256.86,31.59a6.86,6.86,0,0,1-5,2,6.93,6.93,0,0,1-4.92-2,6.47,6.47,0,0,1-2.12-4.84,6.67,6.67,0,0,1,2.07-4.94,7.14,7.14,0,0,1,9.93,0,6.73,6.73,0,0,1,0,9.78Zm-.91-8.9a5.53,5.53,0,0,0-4-1.68,5.46,5.46,0,0,0-4,1.7,5.58,5.58,0,0,0-1.66,4.06,5.37,5.37,0,0,0,1.7,4,5.7,5.7,0,0,0,8,0,5.38,5.38,0,0,0,1.69-4A5.49,5.49,0,0,0,256,22.69Zm-2.44-3.76L252,17.61l-1.58,1.32h-1.64l2.61-2.25h1.2l2.56,2.25ZM256,15.81a3.06,3.06,0,0,1-1.77.69,2.76,2.76,0,0,1-.74-.11,4,4,0,0,1-.65-.26l-.61-.24a1.81,1.81,0,0,0-.61-.13,1.75,1.75,0,0,0-1.2.55l-.63-.91a2.69,2.69,0,0,1,1.88-.75,2.46,2.46,0,0,1,.72.12A5.35,5.35,0,0,1,253,15l.08,0,.07,0,.15.07.3.11a1.68,1.68,0,0,0,.59.12,1.4,1.4,0,0,0,.6-.15l.41-.23.13-.09Z"/><path class="cls-2" d="M270.66,21.25V33.36h-1.34V21.25h-3.06V20h7.44v1.21Z"/><path class="cls-2" d="M283.69,27.16a4.17,4.17,0,0,1-2.81,1.23l3.76,5H283l-4.52-6h1.45a5.53,5.53,0,0,0,1.42-.19,2.76,2.76,0,0,0,2.2-2.82,2.7,2.7,0,0,0-1.46-2.56,3.75,3.75,0,0,0-1.26-.42,8.07,8.07,0,0,0-1.33-.08h-2.33V33.36H275.8V20H280l.85.07a5.56,5.56,0,0,1,1.62.43,3.9,3.9,0,0,1,2.37,3.79A3.83,3.83,0,0,1,283.69,27.16Z"/><path class="cls-2" d="M298.63,21.51l.33.3a6.73,6.73,0,0,1,0,9.78,7.09,7.09,0,0,1-9.87,0A6.47,6.47,0,0,1,287,26.77,6.67,6.67,0,0,1,289,21.83a7.17,7.17,0,0,1,8.69-1l.31-.15a2.9,2.9,0,0,0,.51-.33.9.9,0,0,0,.39-.62h-.57V18.15H300v1.64a2,2,0,0,1-.22.72,1.48,1.48,0,0,1-.38.47,3.45,3.45,0,0,1-.39.3A4,4,0,0,1,298.63,21.51Zm-.6,1.18a5.66,5.66,0,0,0-8.07,0,5.58,5.58,0,0,0-1.66,4.06,5.33,5.33,0,0,0,1.7,4,5.7,5.7,0,0,0,8,0,5.38,5.38,0,0,0,1.69-4A5.46,5.46,0,0,0,298,22.69Zm-4.69,14.05V34.47h1.34v2.27Z"/><path class="cls-2" d="M135.62,55V44.5h-2.18V41.64H139V55Z"/><path class="cls-2" d="M153.17,48.33a8,8,0,0,1-.92,1.75L148.94,55H145l2.94-4,0,0a.76.76,0,0,1-.32.06h-.33a3.87,3.87,0,0,1-1.76-.43,4.2,4.2,0,0,1-2.43-4.09,4.84,4.84,0,0,1,1.48-3.63,5.12,5.12,0,0,1,3.69-1.42,5.31,5.31,0,0,1,4.19,1.74,4.76,4.76,0,0,1,1.12,3.26A5.42,5.42,0,0,1,153.17,48.33Zm-3.57-3.42a1.75,1.75,0,0,0-1.31-.53,1.81,1.81,0,0,0-1.29.5,1.67,1.67,0,0,0-.55,1.28,1.73,1.73,0,0,0,.53,1.29,1.78,1.78,0,0,0,1.31.52,1.84,1.84,0,0,0,1.29-.48,1.69,1.69,0,0,0,.54-1.27A1.76,1.76,0,0,0,149.6,44.91Z"/><path class="cls-2" d="M164.34,50.15a5.5,5.5,0,0,1-.65,2.72,4.4,4.4,0,0,1-2.07,1.85,5,5,0,0,1-2.2.5,5.2,5.2,0,0,1-2-.42,4.63,4.63,0,0,1-3-4.65V46.44a4.57,4.57,0,0,1,3-4.65,5.41,5.41,0,0,1,2-.4,5.09,5.09,0,0,1,2,.43,4.61,4.61,0,0,1,2.88,4.62Zm-3.4-3.79a2.51,2.51,0,0,0-.32-1.38,1.57,1.57,0,0,0-2.47,0,2.48,2.48,0,0,0-.34,1.38v3.88a2.48,2.48,0,0,0,.34,1.38,1.56,1.56,0,0,0,2.47,0,2.6,2.6,0,0,0,.32-1.39Z"/><path class="cls-2" d="M175.45,50.15a5.4,5.4,0,0,1-.65,2.72,4.33,4.33,0,0,1-2.06,1.85,5,5,0,0,1-2.2.5,5.16,5.16,0,0,1-2-.42,4.63,4.63,0,0,1-3-4.65V46.44a4.57,4.57,0,0,1,3-4.65,5.41,5.41,0,0,1,2-.4,5.09,5.09,0,0,1,2,.43,4.6,4.6,0,0,1,2.87,4.62Zm-3.4-3.79a2.52,2.52,0,0,0-.31-1.38,1.4,1.4,0,0,0-1.25-.6,1.38,1.38,0,0,0-1.22.6,2.47,2.47,0,0,0-.35,1.38v3.88a2.47,2.47,0,0,0,.35,1.38,1.37,1.37,0,0,0,1.22.61,1.4,1.4,0,0,0,1.25-.6,2.6,2.6,0,0,0,.31-1.39Z"/><path class="cls-2" d="M192.08,48.33a8,8,0,0,1-.92,1.75L187.85,55H183.9l2.94-4,0,0a.76.76,0,0,1-.32.06h-.33a3.91,3.91,0,0,1-1.77-.43A4.2,4.2,0,0,1,182,46.44a4.84,4.84,0,0,1,1.48-3.63,5.12,5.12,0,0,1,3.69-1.42,5.31,5.31,0,0,1,4.19,1.74,4.76,4.76,0,0,1,1.12,3.26A5.42,5.42,0,0,1,192.08,48.33Zm-3.57-3.42a1.76,1.76,0,0,0-1.31-.53,1.85,1.85,0,0,0-1.3.5,1.69,1.69,0,0,0-.54,1.28,1.73,1.73,0,0,0,.53,1.29,1.78,1.78,0,0,0,1.31.52,1.84,1.84,0,0,0,1.29-.48,1.69,1.69,0,0,0,.54-1.27A1.76,1.76,0,0,0,188.51,44.91Z"/><path class="cls-2" d="M203.25,50.15a5.5,5.5,0,0,1-.65,2.72,4.4,4.4,0,0,1-2.07,1.85,5,5,0,0,1-2.2.5,5.16,5.16,0,0,1-2-.42,4.63,4.63,0,0,1-3-4.65V46.44a4.57,4.57,0,0,1,3-4.65,5.41,5.41,0,0,1,2-.4,5.09,5.09,0,0,1,2,.43,4.61,4.61,0,0,1,2.88,4.62Zm-3.41-3.79a2.52,2.52,0,0,0-.31-1.38,1.4,1.4,0,0,0-1.25-.6,1.38,1.38,0,0,0-1.22.6,2.48,2.48,0,0,0-.34,1.38v3.88a2.48,2.48,0,0,0,.34,1.38,1.56,1.56,0,0,0,2.47,0,2.6,2.6,0,0,0,.31-1.39Z"/><path class="cls-2" d="M218.71,53.77A5.08,5.08,0,0,1,215,55.22a5.19,5.19,0,0,1-3.76-1.43,4.93,4.93,0,0,1-1.49-3.73,5.49,5.49,0,0,1,.34-1.87A7.6,7.6,0,0,1,211,46.5l3.31-4.86h3.95l-2.94,4,0,0a1.22,1.22,0,0,1,.31-.06H216a3.91,3.91,0,0,1,3,1.34,4.62,4.62,0,0,1,1.15,3.18A4.86,4.86,0,0,1,218.71,53.77Zm-2.46-4.65a1.83,1.83,0,0,0-1.32-.51,1.77,1.77,0,0,0-1.29.5,1.72,1.72,0,0,0-.52,1.26,1.83,1.83,0,0,0,.51,1.31,1.71,1.71,0,0,0,1.3.55,1.84,1.84,0,0,0,1.31-.51,1.8,1.8,0,0,0,0-2.6Z"/><path class="cls-2" d="M229.41,54.08a5.43,5.43,0,0,1-6.66,0A3.76,3.76,0,0,1,221.21,51a3.34,3.34,0,0,1,2.09-3.37,3,3,0,0,1-1.3-2.5,3.47,3.47,0,0,1,1.22-2.73,4.53,4.53,0,0,1,5.69,0,3.42,3.42,0,0,1,1.23,2.71,3.09,3.09,0,0,1-1.3,2.53A3.33,3.33,0,0,1,230.93,51,3.79,3.79,0,0,1,229.41,54.08Zm-3.34-4.89a1.31,1.31,0,0,0-1.46,1.51,1.35,1.35,0,0,0,1.51,1.53,1.31,1.31,0,0,0,1-.47,1.51,1.51,0,0,0,.4-1C227.53,49.7,227,49.19,226.07,49.19Zm0-5a1.09,1.09,0,0,0-1.24,1.22,1.07,1.07,0,0,0,1.2,1.23,1.1,1.1,0,0,0,1.24-1.26A1.06,1.06,0,0,0,226.09,44.14Z"/><path class="cls-3" d="M121.72,48a7.93,7.93,0,0,0-2.57-4.85,16.49,16.49,0,0,0-7.44-3.81.46.46,0,0,0-.34.11c-1,.79-2,1.6-3.05,2.4l-.27.21-2.58-2c-.28,1.14-.89,1.77-1.81,1.84a2,2,0,0,1-2.14-1.55,15.39,15.39,0,0,0-4,2.29,8.39,8.39,0,0,0-3.13,5,1.86,1.86,0,0,0,.9,2.18,14.7,14.7,0,0,0,3.49,1.66,26.33,26.33,0,0,0,7,1.25,33.08,33.08,0,0,0,10-.81,16,16,0,0,0,5.14-2.18A1.74,1.74,0,0,0,121.72,48Zm-12.07.25c-.51.84-1,1.66-1.59,2.53l-.23-.34c-.41-.67-.83-1.33-1.23-2a.55.55,0,0,1-.1-.38c.5-2,1-3.89,1.51-5.83h.08c.19.69.38,1.39.58,2.08.32,1.2.66,2.39,1,3.58A.58.58,0,0,1,109.65,48.26Zm6.6-1.14h-3.94v-1h3.94Z"/><path class="cls-3" d="M108,24.72a6.36,6.36,0,0,0-2.51.51,7.35,7.35,0,0,0-2.2,11.89,6.61,6.61,0,0,0,9.61-.18A7.39,7.39,0,0,0,114,28.42,6.72,6.72,0,0,0,108,24.72Z"/><path class="cls-3" d="M98.09,34.75c0,.83.4,1.23,1.22,1.2a.39.39,0,0,1,.42.29,8.26,8.26,0,0,0,2.36,3.24.48.48,0,0,1,.22.45,1.09,1.09,0,0,0,.8,1,1.11,1.11,0,0,0,1.21-.44,1.08,1.08,0,0,0,0-1.25,1,1,0,0,0-1.24-.4.39.39,0,0,1-.46-.08,7,7,0,0,1-1.94-2.55,2.73,2.73,0,0,1-.32-1.36c.06-.92,0-1.85,0-2.77,0-.54-.07-1-.6-1.24a8.28,8.28,0,0,1,16.43,0,1.09,1.09,0,0,0-.58,1.16q0,1.48,0,3c0,.66.43,1,1.17,1a1,1,0,0,0,1.12-1c0-1.06,0-2.11,0-3.17a1,1,0,0,0-.59-.93.46.46,0,0,1-.24-.29,9.16,9.16,0,0,0-18.12,0,.44.44,0,0,1-.18.27,1,1,0,0,0-.69,1.1Z"/></svg>