<svg xmlns="http://www.w3.org/2000/svg" viewBox="0 0 150.82 46.5"><defs><style>.cls-1{fill:#fff;}.cls-2{fill:#7bad0d;fill-rule:evenodd;}</style></defs><title>tracuu</title><g id="Layer_2" data-name="Layer 2"><g id="Layer_1-2" data-name="Layer 1"><g id="Layer_32" data-name="Layer 32"><path class="cls-1" d="M78.83,7.72V18.05h-3.4V7.72H72.8v-3h8.64v3Z"/><path class="cls-1" d="M89.17,18.05l-3.08-4.3h0v4.3H82.8V4.73H87q.67,0,1.07,0a7.82,7.82,0,0,1,1.07.11,4.18,4.18,0,0,1,2,.82,4.41,4.41,0,0,1,1.64,3.64,4.38,4.38,0,0,1-.87,2.73,3.65,3.65,0,0,1-2.44,1.46l3.61,4.54Zm-.33-9.92a2.57,2.57,0,0,0-1.54-.41H86.06v3.71h1.2q2.23,0,2.23-1.91A1.59,1.59,0,0,0,88.84,8.13Z"/><path class="cls-1" d="M102.49,18.05l-.65-1.92H97.22l-.7,1.92H92.86L98.21,4.73h2.68l5.3,13.32ZM99.58,8.88h-.05l-1.37,4.55h2.79Z"/><path class="cls-1" d="M126.31,13.07a6.7,6.7,0,0,1-2.45,3.8,7.12,7.12,0,0,1-9.25-.56,6.63,6.63,0,0,1-2.06-4.93,6.62,6.62,0,0,1,2-4.91,6.83,6.83,0,0,1,4.95-2,6.62,6.62,0,0,1,5.86,3.13,5.6,5.6,0,0,1,.91,2.18h-3.57a3.23,3.23,0,0,0-3.22-2.32,3.29,3.29,0,0,0-2.59,1.17,4,4,0,0,0-1,2.72,4.09,4.09,0,0,0,1,2.75,3.27,3.27,0,0,0,2.61,1.21,3.36,3.36,0,0,0,3.2-2.25Z"/><path class="cls-1" d="M138.26,7v5.77A8.69,8.69,0,0,1,138,15a4.31,4.31,0,0,1-1.1,1.88,5,5,0,0,1-3.73,1.44,6.41,6.41,0,0,1-2.07-.33,4.27,4.27,0,0,1-1.76-1.1,4.52,4.52,0,0,1-1.12-1.9,5.63,5.63,0,0,1-.17-1q0-.46,0-1.18V4.73h3.4v8.05a6.67,6.67,0,0,0,.05.91,2.7,2.7,0,0,0,.24.82,1.47,1.47,0,0,0,1.44.82,1.43,1.43,0,0,0,1.44-.8,2.46,2.46,0,0,0,.21-.81q0-.35,0-.93V4.73h3.4v.71a1.29,1.29,0,0,0,.36-.92h-.7v-2h2V4.58a2.77,2.77,0,0,1-.83,1.9A3.44,3.44,0,0,1,138.26,7Zm-5.9-2.92-.85-1.77L135.83,0l.95,2.13Z"/><path class="cls-1" d="M150.82,12.78a8.69,8.69,0,0,1-.23,2.21,4.31,4.31,0,0,1-1.1,1.88,5,5,0,0,1-3.73,1.44,6.36,6.36,0,0,1-2.07-.33,4.27,4.27,0,0,1-1.76-1.1,4.52,4.52,0,0,1-1.12-1.9,6.14,6.14,0,0,1-.18-1q0-.46,0-1.18V4.73H144v8.05a6.67,6.67,0,0,0,.05.91,2.7,2.7,0,0,0,.24.82,1.47,1.47,0,0,0,1.44.82,1.43,1.43,0,0,0,1.44-.8,2.79,2.79,0,0,0,.21-.81q0-.35,0-.93V4.73h3.4Z"/><path class="cls-1" d="M83.27,42.05V35.11H75.62v6.94H74.13V27.25h1.48v6.52h7.66V27.25h1.47v14.8Z"/><path class="cls-1" d="M100.45,40.09a7.89,7.89,0,0,1-11,0,7.18,7.18,0,0,1-2.35-5.38,7.43,7.43,0,0,1,2.29-5.49,7.92,7.92,0,0,1,11,0,7.48,7.48,0,0,1,0,10.87Zm-1-9.89a6.31,6.31,0,0,0-9,0,6.22,6.22,0,0,0-1.85,4.51,5.94,5.94,0,0,0,1.89,4.4,6.32,6.32,0,0,0,8.92,0,6,6,0,0,0,1.88-4.45A6.09,6.09,0,0,0,99.44,30.2ZM96.73,26,95,24.55,93.26,26H91.43l2.9-2.5h1.33L98.51,26Zm.49-2.16-4-2.14.64-1.2,4,2.19Z"/><path class="cls-1" d="M117.33,41.07a4.37,4.37,0,0,1-3.14,1.25,4.52,4.52,0,0,1-3.25-1.21,4.28,4.28,0,0,1-1.31-3.19h1.48q.13,3.06,3.08,3.06a2.89,2.89,0,0,0,2.1-.84,2.82,2.82,0,0,0,.88-2.1,2.58,2.58,0,0,0-1-2.15,4.93,4.93,0,0,0-1.05-.6q-.48-.2-1.2-.41a12.9,12.9,0,0,1-1.48-.52,5,5,0,0,1-1.22-.7A3.29,3.29,0,0,1,110,31a3.74,3.74,0,0,1,1.22-2.86A4.16,4.16,0,0,1,114.18,27a4,4,0,0,1,2.9,1.14,3.85,3.85,0,0,1,1.2,2.88H116.8a2.62,2.62,0,0,0-.76-1.88,2.48,2.48,0,0,0-1.86-.8,2.65,2.65,0,0,0-1.89.73,2.42,2.42,0,0,0-.78,1.85,2.14,2.14,0,0,0,1.19,2,6.43,6.43,0,0,0,1.14.47l1.18.35a5.63,5.63,0,0,1,2.61,1.51,4,4,0,0,1,1,2.76A4.11,4.11,0,0,1,117.33,41.07Z"/><path class="cls-1" d="M133,28.89l.36.33a7.48,7.48,0,0,1,0,10.87,7.89,7.89,0,0,1-11,0A7.18,7.18,0,0,1,120,34.73a7.43,7.43,0,0,1,2.29-5.49,8,8,0,0,1,9.66-1.1l.34-.16a3.54,3.54,0,0,0,.58-.37,1,1,0,0,0,.43-.69h-.63V25.16h1.85V27a2.31,2.31,0,0,1-.24.8,1.93,1.93,0,0,1-.42.53,3.83,3.83,0,0,1-.43.33A4.21,4.21,0,0,1,133,28.89Zm-.66,1.31a6.31,6.31,0,0,0-9,0,6.22,6.22,0,0,0-1.85,4.51,5.94,5.94,0,0,0,1.89,4.4,6.32,6.32,0,0,0,8.92,0,6,6,0,0,0,1.88-4.45A6.09,6.09,0,0,0,132.3,30.2Z"/><path class="cls-2" d="M49.87.9Q26.95.88,4,.9C1.29.9,0,2.24,0,5V31.62c0,3.3,1.13,4.46,4.41,4.46H26.95q11.46,0,22.93,0c2.77,0,4-1.31,4-4.08q0-13.5,0-27C53.89,2.24,52.6.9,49.87.9ZM27,34a1.39,1.39,0,0,1-1.51-1.5,1.37,1.37,0,0,1,1.44-1.45,1.45,1.45,0,0,1,1.59,1.44C28.44,33.44,28,34,27,34ZM51.18,27c0,1.71-.29,2-2,2H5c-2,0-2.25-.21-2.25-2.27q0-10.51,0-21c0-1.76.3-2.07,2.07-2.07H49.12c1.76,0,2.06.31,2.06,2.08Q51.18,16.34,51.18,27Z"/><path class="cls-2" d="M32.15,37.34h-10c-.77,2.86.32,6.12-2.25,8.59a47.62,47.62,0,0,0,14.52,0C31.82,43.48,33,40.17,32.15,37.34Z"/><path class="cls-2" d="M28.39,25.33a5.21,5.21,0,0,1-1.72-1.57.26.26,0,0,0-.19-.08H21.32c-.26,0-.33-.07-.35-.33,0,0,0-.09,0-.13V11.43c0-.3,0-.32.32-.32H32.23c.29,0,.31,0,.31.31v4.75l1.71,1s0-.09,0-.15q0-3.24,0-6.47a1.05,1.05,0,0,0-1.14-1.13H20.54a1.18,1.18,0,0,0-1.28,1.29q0,6.79,0,13.57a1.06,1.06,0,0,0,1.14,1.13h8S28.4,25.34,28.39,25.33Z"/><path class="cls-2" d="M30.63,8.81h1.26c0-.32,0-.63,0-.93a.69.69,0,0,0-.42-.6,1.68,1.68,0,0,0-.64-.15H18.27A1.31,1.31,0,0,0,17,8.41Q17,15.2,17,22a1.08,1.08,0,0,0,0,.29c.22.79.87.95,1.67.81V23q0-3.47,0-6.95c0-2,0-4.09,0-6.14a1,1,0,0,1,1.06-1.05Z"/><path class="cls-2" d="M36.33,25.24l-1.7-1.7-.14-.15a4.33,4.33,0,1,0-1.2,1.21,1.41,1.41,0,0,0,.13.17l1.69,1.69a.87.87,0,1,0,1.22-1.23Zm-5.49-1.32A2.92,2.92,0,1,1,33.79,21,2.91,2.91,0,0,1,30.84,23.92Z"/><path class="cls-2" d="M30.8,12.54H22.66a.48.48,0,0,0-.43.17.83.83,0,0,0-.06.79c.08.24.3.28.54.28h8.06c.48,0,.63-.14.63-.63S31.25,12.54,30.8,12.54Z"/><path class="cls-2" d="M31.39,15.36s0-.08,0-.12c0-.38-.17-.54-.56-.54h-8.2a.45.45,0,0,0-.45.23.87.87,0,0,0,0,.76c.11.23.33.25.56.25h8.08C31.23,15.93,31.39,15.77,31.39,15.36Z"/><path class="cls-2" d="M26.82,18l1.09-1.15H22.63a.47.47,0,0,0-.52.51c0,.08,0,.15,0,.23a.47.47,0,0,0,.5.49h4A.27.27,0,0,0,26.82,18Z"/><path class="cls-2" d="M22.54,19a.44.44,0,0,0-.42.42,2.11,2.11,0,0,0,0,.25.48.48,0,0,0,.55.55h3.19L26.21,19Z"/><path class="cls-2" d="M31,19c-.21,0-.41,0-.62,0a1,1,0,0,0-.7.22,2.08,2.08,0,0,0-.83,1.06l.07,0h2.06a.57.57,0,0,0,.59-.62C31.54,19.22,31.34,19,31,19Z"/></g></g></g></svg>