<svg width="366.99" height="74" xmlns="http://www.w3.org/2000/svg" xmlns:xlink="http://www.w3.org/1999/xlink" data-name="Layer 1">
 <defs>
  <symbol viewBox="0 0 61.38 49.4" id="svg_32" xmlns="http://www.w3.org/2000/svg">

   <g id="svg_30" data-name="Layer 2">
    <g id="svg_31" data-name="Layer 1">
     <path id="svg_1" fill="#132b4f" d="m30,5.58l0,3.23l1.45,0l0,-3.23a2.84,2.84 0 0 0 2.14,-2.72a2.86,2.86 0 1 0 -5.72,0a2.83,2.83 0 0 0 2.13,2.72z" class="cls-1"/>
     <path id="svg_2" fill="#132b4f" d="m38.77,16l-16.17,0a7.88,7.88 0 0 0 -7.87,7.87l0,7.67a7.88,7.88 0 0 0 7.87,7.88l16.17,0a7.89,7.89 0 0 0 7.88,-7.88l0,-7.64a7.89,7.89 0 0 0 -7.88,-7.9zm-14.3,5.51a4.23,4.23 0 0 0 -4.23,4.22a0.7,0.7 0 1 1 -1.39,0a5.62,5.62 0 0 1 11.24,0a0.7,0.7 0 0 1 -1.4,0a4.22,4.22 0 0 0 -4.22,-4.19l0,-0.03zm10.05,8.29a0.47,0.47 0 0 1 0.47,0.47a3.74,3.74 0 0 1 -7.47,0a0.46,0.46 0 0 1 0.46,-0.47l6.54,0zm8.48,-3.34a0.7,0.7 0 0 1 -0.7,-0.7a4.23,4.23 0 0 0 -8.45,0a0.7,0.7 0 1 1 -1.39,0a5.62,5.62 0 1 1 11.23,0a0.69,0.69 0 0 1 -0.69,0.7z" class="cls-1"/>
     <path id="svg_3" fill="#132b4f" d="m45.86,11.44l-30.35,0a7.47,7.47 0 0 0 -7.51,7.46l0,17.67a7.46,7.46 0 0 0 6.35,7.36l0,4.57a1,1 0 0 0 1.57,0.67l8.32,-5.17l21.62,0a7.46,7.46 0 0 0 7.47,-7.47l0,-17.63a7.46,7.46 0 0 0 -7.47,-7.46zm3.08,20.27a9.81,9.81 0 0 1 -9.8,9.79l-16.91,0a9.8,9.8 0 0 1 -9.79,-9.79l0,-7.94a9.8,9.8 0 0 1 9.79,-9.77l16.91,0a9.81,9.81 0 0 1 9.8,9.79l0,7.92z" class="cls-1"/>
     <path id="svg_4" fill="#132b4f" d="m56.44,18.51l1.92,0a3,3 0 0 1 3,3l0,8.21a3,3 0 0 1 -3,3l-1.92,0a0,0 0 0 1 0,0l0,-14.21a0,0 0 0 1 0,0z" class="cls-1"/>
     <path id="svg_5" transform="rotate(-180 4.94 51.27)" fill="#132b4f" d="m4.94,69.78l1.92,0a3,3 0 0 1 3,3l0,8.21a3,3 0 0 1 -3,3l-1.92,0a0,0 0 0 1 0,0l0,-14.21a0,0 0 0 1 0,0z" class="cls-1"/>
    </g>
   </g>
  </symbol>
 </defs>
 <title>tro-ly-ao</title>
 <g class="layer">
  <title>Layer 1</title>
  <use y="3.01018" xlink:href="#svg_32" x="-373.6288" transform="matrix(-0.423857 0 0 0.464735 65.6186 20.5179)" id="svg_33"/>
  <text font-weight="normal" y="45.5" xml:space="preserve" x="216.49" text-anchor="middle" stroke-width="0" id="svg_42" font-size="15" font-family="'Roboto Slab'" fill="#142b50">TRỢ LÝ ẢO</text>
 </g>
</svg>