<svg id="Layer_1" data-name="Layer 1" xmlns="http://www.w3.org/2000/svg" viewBox="0 0 274.16 105"><defs><style>.cls-1{fill:#0851a0;}</style></defs><title>1</title><path class="cls-1" d="M23.7,39.16H36.76V74H47.49V39.16h8A11.76,11.76,0,0,0,60.14,53c8,5.57,10.43,7,11.44,8.2s3.14,4.55-2.33,5.47-13.36-1.52-13.36-1.52l-.1,7.69a43.35,43.35,0,0,0,9.41,1.62c4.76.2,13.77.2,16.7-6s1.62-12-5.36-17.21-8.6-6.17-9.72-6.88-4.25-3.75,0-5.26H80.89l-.2-8.5h-57Z"/><path class="cls-1" d="M86.15,32.48V42.2h1S92,37.95,97.69,38.55s6.28,8,.61,14.88A134.34,134.34,0,0,1,85.24,66.79V74h28.24v-8.5l-15.79-.1s12.75-10,13.87-19.64S108.42,24.59,86.15,32.48Z"/><path class="cls-1" d="M139.49,56.06V30.66h-9.62l-16.4,24.9V64h16.9V74h9.21V64.06l4.86-.1v-8.1Zm-9,0H120.26l10.22-15.38Z"/><path class="cls-1" d="M225,68.31c-.3-1.14-1-6.68-4.48-7.82,0,0,4.71-1.75,4.86-5.85s.3-8.2-8.73-9.49c0,0-9-.38-11.69.46V74.08h6.45V62.77h3a3.93,3.93,0,0,1,2.88,2.73c.84,2.43,2.43,8.58,2.43,8.58h6.91S225.35,69.45,225,68.31ZM215,58.06h-3.6v-7.9a12.74,12.74,0,0,1,4.44,0c2.09.46,3.3,1.66,3.26,3.84S217.42,57.72,215,58.06Z"/><path class="cls-1" d="M239.9,45.07a28,28,0,0,0-10.22.67V74.08h6.58V63.76s7.9,1,11.64-2.94S253,45.92,239.9,45.07Zm-.08,13.83h-3.61V50.19a11.55,11.55,0,0,1,4.44,0,3.88,3.88,0,0,1,3.26,4.24A4.49,4.49,0,0,1,239.82,58.9Z"/><path class="cls-1" d="M171.17,51.41a12,12,0,0,0-9.72,0c-5.06,2.33-5,8.5-4.15,11.13s2,8.27,14.18,5.54l1,5.24s-7.78,4.1-17.6-1.87c0,0-6.07-4.4-4.76-13.39s9-16.17,22.77-12Z"/><path class="cls-1" d="M187.37,44.47c-7.78,0-14.08,6.87-14.08,15.34s6.3,15.34,14.08,15.34,14.08-6.87,14.08-15.34S195.14,44.47,187.37,44.47Zm0,25c-3.86,0-7-4.31-7-9.62s3.13-9.62,7-9.62,7,4.31,7,9.62S191.23,69.42,187.37,69.42Z"/></svg>