<svg xmlns="http://www.w3.org/2000/svg" viewBox="0 0 22.31 22.31"><defs><style>.cls-1{opacity:0.5;}.cls-2{fill:#fff;}</style></defs><title>twitter</title><g id="Layer_2" data-name="Layer 2"><g id="Badge"><g id="BACKGROUND_2" data-name="BACKGROUND 2"><g id="Layer_1-2" data-name="Layer 1"><g class="cls-1"><path class="cls-2" d="M11.15,22.31A11.15,11.15,0,1,1,22.31,11.15,11.17,11.17,0,0,1,11.15,22.31Zm0-21.25A10.09,10.09,0,1,0,21.24,11.15,10.1,10.1,0,0,0,11.15,1.06Z"/></g><path class="cls-2" d="M17.49,7.22A5.28,5.28,0,0,1,16,7.63,2.64,2.64,0,0,0,17.14,6.2a5.23,5.23,0,0,1-1.65.63A2.6,2.6,0,0,0,11,8.61a2.56,2.56,0,0,0,.07.59A7.38,7.38,0,0,1,5.7,6.48,2.62,2.62,0,0,0,6.5,10a2.61,2.61,0,0,1-1.17-.33v0a2.61,2.61,0,0,0,2.09,2.55,2.75,2.75,0,0,1-1.17,0,2.61,2.61,0,0,0,2.43,1.81,5.22,5.22,0,0,1-3.23,1.11,5.43,5.43,0,0,1-.62,0A7.4,7.4,0,0,0,16.2,8.9c0-.11,0-.22,0-.34A5.35,5.35,0,0,0,17.49,7.22Z"/></g></g></g></g></svg>