<?xml version="1.0" encoding="utf-8"?>
<!-- Generator: Adobe Illustrator 22.0.1, SVG Export Plug-In . SVG Version: 6.00 Build 0)  -->
<svg version="1.1" id="Layer_1" xmlns="http://www.w3.org/2000/svg" xmlns:xlink="http://www.w3.org/1999/xlink" x="0px" y="0px"
	 viewBox="0 0 274.2 105" style="enable-background:new 0 0 274.2 105;" xml:space="preserve">
<style type="text/css">
	.st0{fill:#EC1924;}
	.st1{fill:#05831F;}
	.st2{fill:#A2BEDA;}
	.st3{fill:#F59396;}
	.st4{fill:#643968;}
	.st5{fill:#CADCEA;}
</style>
<g id="svgg">
	<path id="path0" class="st0" d="M115.6,33.6c0,0.1-0.1,9.7-0.1,21.3l0,21.2l0.4,0.1c0.2,0,29.1,0.1,64.2,0.1l63.8,0V54.9
		c0-21.1,0-21.3-0.2-21.4c-0.1,0-0.4,0-0.7,0c-0.4,0.1-1.2,0.1-3.2,0C235.5,33.4,115.7,33.4,115.6,33.6 M137.2,42.2
		c4,0.4,7.1,2.5,7.4,4.9c0,0.2,0.1,0.5,0.1,0.6c0.1,0.3,0.1,1.9-0.1,2.6c-0.4,1.4-1.3,2.8-2.5,3.5c-0.5,0.3-0.5,0.4,0.4,0.9
		c2.3,1.2,3.6,3.5,3.4,6.1c-0.2,3.5-2.7,5.7-7,6.4c-1.8,0.3-16.6,0.4-16.9,0.1c-0.1-0.1-0.1-4.4-0.1-12.5c0-6.8,0-12.4,0-12.5
		C122.1,42,135.3,42,137.2,42.2 M158.7,42.2c0.1,0.1,0.1,1.3,0.1,4.6c0,3.7,0,4.5,0.1,4.6c0.1,0.1,1.4,0.1,4.7,0.1l4.6,0l0-4.6
		c0-2.5,0.1-4.7,0.1-4.7c0.1-0.1,7-0.1,7.1,0c0,0,0.1,5.7,0.1,12.6l0,12.5l-3.5,0c-2.4,0-3.5,0-3.6-0.1c-0.1-0.1-0.1-1.7-0.1-4.8
		l0-4.7l-4.5,0c-2.5,0-4.6,0-4.7,0l-0.2,0l0,4.7c0,3.5,0,4.8-0.1,4.8c-0.1,0.2-6.9,0.1-7.1,0c-0.1-0.1-0.1-4.2-0.1-12.6l0-12.5
		l2.5,0c1.4,0,3-0.1,3.5-0.1C158.4,42.1,158.6,42.1,158.7,42.2 M188.4,42.2c0.1,0,0.5,0.6,0.9,1.3c0.4,0.7,1,1.5,1.3,1.9
		c0.5,0.7,1.3,1.8,2.2,3.2c0.5,0.8,0.4,0.8,1,0c0.3-0.4,0.8-1.1,1.1-1.6c0.4-0.5,1-1.4,1.4-2c0.4-0.6,1-1.4,1.2-1.8
		c0.3-0.4,0.5-0.8,0.6-0.8c0.2-0.1,4.6-0.2,6.5-0.1c1.4,0.1,1.5,0.1,0.8,1c-0.3,0.4-0.6,0.9-0.9,1.2c-0.2,0.3-0.6,0.9-1,1.4
		c-0.9,1.3-4.2,5.7-5.2,7.2c-1.1,1.6-1.1,1.5-0.4,2.4c0.3,0.4,1.1,1.6,1.8,2.6s2,2.7,2.8,3.9c0.8,1.1,1.8,2.5,2.1,2.9
		c2.1,3,2.1,2.8,0.7,2.8c-0.6,0-1.5,0-2,0.1c-1.4,0.1-5,0-5.2-0.2c-0.1-0.1-0.4-0.6-0.8-1.2c-0.4-0.6-1.4-2.2-2.3-3.5
		c-0.9-1.3-1.6-2.5-1.7-2.6c-0.1-0.3-0.2-0.3-1.5,1.7c-0.5,0.7-0.8,1.3-0.8,1.3c0,0-0.6,0.9-1.3,2c-0.7,1.1-1.3,2-1.4,2.1
		c-0.2,0.5-2.2,0.6-6.6,0.4c-1.8-0.1-1.9-0.1-1.6-0.6c0.1-0.1,0.6-0.8,1.1-1.6c0.5-0.7,1-1.5,1.2-1.7c0.1-0.2,0.3-0.5,0.5-0.7
		c0.1-0.2,0.5-0.8,0.9-1.3c0.9-1.2,1.8-2.5,2.3-3.2c0.2-0.3,0.8-1.2,1.4-1.9c0.6-0.8,1.1-1.5,1.2-1.6l0.2-0.3l-0.4-0.5
		c-0.2-0.3-0.9-1.2-1.5-2.1c-1.3-1.9-1.6-2.3-2.8-3.9c-0.5-0.7-1.2-1.7-1.5-2.2c-0.3-0.5-1-1.4-1.4-2c-0.8-1.1-1.1-1.6-1-1.7
		C180.6,42.1,188.3,42.1,188.4,42.2 M218.1,42.2c0,0.1,0.1,2,0.1,4.6c0,3.5,0,4.5,0.1,4.6c0.3,0.2,9.1,0.2,9.3,0
		c0.1-0.1,0.1-1.1,0.1-4.6c0-3.4,0-4.5,0.1-4.5c0.2-0.2,6.8-0.2,7-0.1c0.1,0.1,0.2,24.9,0,25.1c-0.1,0.1-3.4,0.2-5.3,0.1l-1.7-0.1
		l0-4.7c0-3.3-0.1-4.7-0.1-4.8c-0.1-0.1-0.9-0.1-4.7-0.1l-4.6,0l0,4.7c0,2.6-0.1,4.8-0.1,4.9c-0.1,0.1-6.9,0.1-7.1-0.1
		c-0.1-0.1-0.1-24.9,0-25C211.2,42,218,42.1,218.1,42.2 M129.3,47.9c-0.1,3.6-0.1,4,0.1,4.1c0.4,0.2,6.1,0,6.5-0.2
		c0.1-0.1,0.3-0.2,0.5-0.2c1.1-0.3,1.4-2.3,0.6-3.2c-0.7-0.7-1.2-0.8-4.7-0.9l-3-0.1L129.3,47.9 M129.3,57.2c-0.1,0.5,0,4.7,0,4.7
		c0.3,0.2,6.6,0.2,7.6-0.1c2.3-0.6,2.4-3.5,0.1-4.4C136.7,57.3,129.3,57.1,129.3,57.2"/>
	<path id="path1" class="st1" d="M71.7,33.6c-23.5,0-42.7,0.1-42.7,0.1c-0.1,0.1,0,0.4,0.1,0.5c0.1,0.1,0.1,0.1,0,0.2
		c-0.1,0-0.1,4.3-0.1,20.9v20.9l42.8,0c44,0,43.2,0,43.2-0.3c0-0.1,0-0.2,0.1-0.2c0.1,0,0.1-7.1,0.1-20.9V33.9l-0.2-0.2
		c-0.1-0.1-0.3-0.2-0.4-0.2C114.5,33.6,95.2,33.6,71.7,33.6 M85.5,42.1c0.2,0.1,1.3,0.1,1.4,0c0.1-0.1,2.2-0.1,2.5,0
		c0.1,0.1,0.2,0.1,0.3,0c0.4-0.4,1,0,1.8,1c0.5,0.6,0.8,1,0.9,1.1c0,0,0.1,0.1,0.1,0.1c0,0.1,0.1,0.2,0.3,0.4
		c0.2,0.2,0.3,0.3,0.3,0.4c0,0.1,0.1,0.2,0.2,0.2c0.1,0.1,0.2,0.2,0.2,0.2c0,0,0.1,0.2,0.2,0.3c0.7,0.7,0.9,1,0.9,1.1
		c0,0,0.1,0.2,0.3,0.4c0.4,0.4,1.1,1.3,1.3,1.6c0.1,0.1,0.4,0.5,0.7,0.8c0.3,0.3,0.5,0.7,0.5,0.7c0,0,0.1,0.1,0.1,0.1
		c0.1,0,0.1,0.1,0.2,0.1c0,0.1,0.2,0.3,0.4,0.5c1,1.1,1.6,1.9,1.7,1.9c0,0,0.1,0.1,0.1,0.1c0,0.1,0.2,0.3,0.4,0.5
		c0.2,0.2,0.4,0.5,0.4,0.5c0,0.1,0.7,0.8,0.7,0.8c0.1,0,0-12.1,0-12.5c-0.1-0.4,0.4-0.7,0.7-0.5c0.1,0.1,3.8,0.1,4.6,0
		c0.3,0,0.5,0,0.5,0c0.1,0.1,0.6,0.1,0.6,0c0.1-0.1,0.5-0.1,0.7,0.1c0.2,0.1,0.2,0.3,0.2,12.6l0,12.5l-0.2,0.2
		c-0.1,0.1-0.2,0.2-0.3,0.1c-0.1-0.1-2-0.1-2.1,0c-0.1,0.1-2.2,0.1-2.2,0c0,0-0.3-0.1-0.6-0.1c-0.5,0-1-0.1-1-0.3
		c0-0.1-0.3-0.4-0.7-0.9c-0.4-0.4-0.8-0.9-1-1.2c-0.3-0.4-1.8-2.1-1.9-2.1c0,0-0.1-0.1-0.1-0.1c0-0.1-0.1-0.2-0.2-0.3
		s-0.2-0.3-0.2-0.3c0-0.1-0.1-0.1-0.1-0.1C98,62,98,62,98,61.9c0-0.1-0.2-0.3-0.4-0.6c-0.7-0.7-1.5-1.7-1.5-1.8
		c0-0.1-0.1-0.1-0.1-0.1c-0.1,0-0.1,0-0.1-0.1c0-0.1-0.2-0.3-0.4-0.5c-0.2-0.2-0.4-0.5-0.4-0.5c0-0.1-0.8-1-1.4-1.6
		c-0.1-0.1-0.2-0.2-0.2-0.2c0,0-0.1-0.2-0.3-0.4c-0.2-0.2-0.3-0.4-0.3-0.4c0-0.2-0.8-0.9-0.9-0.8c0,0-0.1,0.2-0.1,0.3
		c0,0.1,0,0.2-0.1,0.2c-0.1,0-0.1,0.5,0,0.6c0.1,0,0.1,0.1,0,0.2c-0.1,0.1-0.1,1.9-0.1,5.3c0,2.8,0,5.3-0.1,5.5l-0.1,0.4l-0.6,0
		c-0.3,0-0.6,0.1-0.7,0.1c-0.1,0.1-5.6,0.1-5.7,0c-0.2-0.2-0.1-25.2,0-25.4C84.8,41.9,85.1,41.9,85.5,42.1 M43.4,42.2
		c0.2,0.1,0.3,0.3,0.3,0.4c0,0.1,0,0.3,0.1,0.3c0,0,0.1,0.1,0.1,0.3c0,0.1,0.1,0.3,0.1,0.3c0.1,0.1,0.1,0.2,0.1,0.3
		c0,0.1,0,0.2,0.1,0.2c0,0,0.1,0.1,0.1,0.3c0,0.1,0.1,0.3,0.1,0.4c0.1,0.1,0.1,0.3,0.1,0.4c0,0.1,0,0.2,0.1,0.2c0,0,0.1,0.2,0.2,0.4
		s0.2,0.6,0.3,0.8c0.1,0.2,0.2,0.4,0.2,0.5c0,0.1,0.1,0.4,0.3,0.7c0.2,0.3,0.3,0.7,0.4,0.9c0,0.1,0.1,0.3,0.1,0.3
		c0,0,0.1,0.1,0.1,0.2c0,0.1,0.1,0.3,0.2,0.6c0.1,0.3,0.2,0.5,0.2,0.6s0.1,0.2,0.2,0.4c0.1,0.1,0.2,0.5,0.3,0.7
		c0.1,0.5,0.3,0.8,0.4,0.9c0,0,0.1,0.2,0.1,0.3c0,0.2,0.1,0.4,0.2,0.6c0.1,0.1,0.2,0.3,0.2,0.4c0,0.1,0,0.2,0.1,0.2
		c0,0,0.1,0.2,0.1,0.3c0.1,0.2,0.2,0.5,0.8,1.8c0.1,0.3,0.3,0.6,0.3,0.7c0,0.1,0.1,0.3,0.2,0.5c0.1,0.2,0.2,0.5,0.2,0.6
		c0,0.4,0.3,0.4,0.5-0.1c0.1-0.1,0.2-0.5,0.3-0.7c0.1-0.3,0.2-0.6,0.2-0.6s0.1-0.2,0.1-0.2c0.1-0.1,0.2-0.3,0.2-0.5
		c0.1-0.2,0.2-0.5,0.3-0.6c0.1-0.1,0.2-0.2,0.2-0.3c0-0.2,0.2-0.8,0.4-0.8c0.1,0,0.1-0.1,0.1-0.3s0.1-0.4,0.2-0.7
		c0.1-0.3,0.2-0.5,0.2-0.6c0,0,0.1-0.3,0.2-0.5c0.1-0.2,0.2-0.5,0.2-0.5c0-0.1,0.1-0.4,0.3-0.7c0.1-0.3,0.3-0.6,0.3-0.7
		c0-0.1,0.1-0.2,0.1-0.3c0.2-0.4,0.3-0.5,0.3-0.7c0-0.1,0.1-0.2,0.1-0.3c0.1-0.1,0.1-0.2,0.1-0.3c0-0.1,0-0.2,0.1-0.2
		c0,0,0.1-0.1,0.1-0.3c0-0.1,0.1-0.3,0.1-0.3c0.1-0.1,0.1-0.2,0.1-0.3c0-0.1,0.1-0.3,0.2-0.4c0.1-0.1,0.2-0.4,0.3-0.6
		c0.1-0.2,0.2-0.5,0.2-0.5c0.1-0.1,0.2-0.4,0.4-0.8c0.4-1,0.6-1.4,0.8-1.8c0.1-0.1,0.1-0.3,0.1-0.4c0-0.3,0.6-0.6,0.7-0.5
		c0.1,0.1,0.8,0.1,0.9,0C58.4,42,59,42,60,42s1.6,0,1.7,0.1c0,0.1,0.5,0.1,1.2,0.1c1.5,0,1.5,0,1.1,0.9c-0.2,0.4-0.4,0.8-0.5,1
		c-0.1,0.2-0.3,0.6-0.4,0.9c-0.1,0.3-0.2,0.5-0.2,0.6c0,0.1-0.1,0.2-0.1,0.2c-0.1,0.1-0.2,0.2-0.2,0.4c0,0.2-0.2,0.6-0.4,0.9
		c-0.2,0.3-0.3,0.7-0.3,0.7c0,0.1-0.1,0.2-0.1,0.2c-0.1,0.1-0.1,0.2-0.1,0.3c0,0.1,0,0.2-0.1,0.3c0,0-0.1,0.1-0.1,0.2
		c0,0.1-0.1,0.2-0.1,0.3c-0.1,0.1-0.1,0.2-0.1,0.3c0,0.1,0,0.2-0.1,0.2c-0.1,0-0.4,0.7-0.4,0.8c0,0-0.1,0.2-0.2,0.4
		c-0.1,0.2-0.2,0.5-0.3,0.7c-0.1,0.2-0.2,0.6-0.3,0.8c-0.4,0.9-0.4,1-0.4,1.1c0,0.1-0.3,0.6-0.4,0.7c0,0-0.1,0.2,0,0.3
		c0,0.2,0,0.3-0.1,0.3c-0.1,0.1-0.5,0.9-0.5,1c0,0-0.1,0.3-0.2,0.6c-0.1,0.3-0.3,0.8-0.5,1.1c-0.1,0.3-0.3,0.6-0.4,0.8
		c-0.1,0.1-0.1,0.3-0.1,0.4c0,0.2-0.2,0.7-0.4,0.7c0,0-0.1,0.2-0.2,0.5c-0.1,0.2-0.2,0.5-0.3,0.6c-0.1,0.1-0.2,0.2-0.2,0.3
		c0,0.1-0.2,0.6-0.4,1c0,0.1-0.1,0.2-0.1,0.3c0,0.1-0.1,0.2-0.1,0.3c-0.1,0.1-0.1,0.2-0.1,0.3c0,0.1,0,0.2-0.1,0.2
		c0,0-0.1,0.2-0.1,0.3c0,0.1,0,0.2-0.1,0.2c0,0-0.1,0.2-0.2,0.4c-0.1,0.2-0.2,0.6-0.3,0.7s-0.2,0.5-0.3,0.6
		c-0.1,0.2-0.2,0.4-0.2,0.4c-0.1,0.1-0.1,0.2-0.1,0.3c0,0.1-0.1,0.3-0.2,0.6c-0.1,0.2-0.2,0.5-0.2,0.6s-0.1,0.3-0.3,0.5l-0.3,0.3
		h-3.2c-3.3,0-3.7,0-3.7-0.3c0-0.1-0.1-0.2-0.2-0.4c-0.1-0.2-0.2-0.5-0.3-0.7c-0.1-0.2-0.2-0.6-0.3-0.7c-0.1-0.1-0.2-0.4-0.2-0.5
		c0-0.1-0.1-0.4-0.2-0.5c-0.1-0.1-0.2-0.3-0.2-0.4c0-0.1,0-0.2-0.1-0.2c0,0-0.1-0.2-0.1-0.3c0-0.2-0.1-0.4-0.2-0.6
		c-0.1-0.2-0.2-0.4-0.3-0.6c-0.1-0.2-0.2-0.5-0.3-0.8c-0.1-0.2-0.2-0.5-0.3-0.6c0-0.1-0.1-0.2-0.1-0.3c-0.2-0.4-0.3-0.5-0.3-0.7
		c0-0.1-0.1-0.3-0.2-0.5s-0.2-0.5-0.2-0.6c0-0.1-0.1-0.2-0.1-0.3c-0.1-0.1-0.2-0.3-0.2-0.5c-0.1-0.2-0.2-0.5-0.3-0.7
		c-0.1-0.2-0.2-0.4-0.2-0.4c0-0.1-0.1-0.3-0.2-0.5c-0.1-0.2-0.2-0.4-0.2-0.5c0-0.1-0.1-0.3-0.2-0.6c-0.1-0.2-0.3-0.5-0.3-0.6
		c-0.3-0.7-0.4-1-0.6-1.4c-0.1-0.2-0.2-0.5-0.2-0.6s-0.1-0.2-0.2-0.3c-0.1-0.1-0.2-0.2-0.2-0.3c0-0.2-0.2-0.8-0.4-0.8
		c0,0-0.1-0.1-0.1-0.2c0-0.1-0.1-0.4-0.2-0.6c-0.1-0.2-0.2-0.5-0.2-0.6s-0.1-0.3-0.2-0.4c-0.1-0.1-0.2-0.4-0.2-0.6
		c0-0.2-0.1-0.4-0.2-0.5C38,48.3,38,48.1,38,48c0-0.1,0-0.2-0.1-0.3c0,0-0.1-0.1-0.1-0.2c0-0.1-0.1-0.2-0.1-0.3
		c-0.1-0.1-0.1-0.2-0.1-0.3s0-0.2-0.1-0.2c0,0-0.1,0-0.1-0.1c0-0.1-0.1-0.4-0.5-1.2c-0.1-0.3-0.2-0.5-0.2-0.6c0-0.1-0.1-0.2-0.2-0.4
		c-0.1-0.2-0.2-0.5-0.3-0.7c-0.1-0.2-0.2-0.5-0.2-0.5c-0.1-0.1-0.1-0.2-0.1-0.3c0-0.1,0-0.2-0.1-0.2c0,0-0.1-0.2-0.1-0.3v-0.3h1.9
		c1.2,0,1.9,0,2-0.1C39.7,41.8,43,41.9,43.4,42.2 M69.6,42.1c0.7,0,1.3,0,1.3-0.1C71,42,71.3,42,72,42c2.4,0.1,4,0.1,4.2,0
		c0.2-0.1,0.2-0.1,0.4,0c0.2,0.1,0.3,0.1,0.4,0c0.3-0.2,0.4-0.1,0.6,0.1c0.1,0.2,0.2,1.2,0.2,12.6l0,12.4l-0.2,0.2
		c-0.2,0.1-0.2,0.2-0.3,0.1c-0.1-0.1-0.6-0.1-0.7,0c0,0.1-0.1,0.1-0.2,0c-0.1-0.1-0.1-0.1-0.2,0c-0.1,0.1-5.5,0.1-5.5,0
		c0,0-0.1-0.1-0.1-0.1c-0.2,0-0.2,0.1-0.2-3.7c0-1.9,0-6.2,0-9.5l0-6.1l-0.3-0.1c-0.2-0.1-0.6-0.1-2.2-0.1c-2.1,0-2.2,0-2-0.5
		c0.1-0.1,0.1-0.3,0.1-0.4c0-0.1,0-0.2,0.1-0.3c0-0.1,0.1-0.2,0.2-0.3c0-0.1,0.1-0.4,0.2-0.7c0.1-0.3,0.2-0.7,0.3-0.8
		c0.1-0.2,0.2-0.4,0.2-0.5c0-0.1,0.1-0.4,0.2-0.6c0.1-0.2,0.2-0.5,0.2-0.6c0-0.1,0-0.2,0.1-0.3c0,0,0.1-0.2,0.1-0.3
		c0.1-0.3,0.4-0.5,0.5-0.4C68.3,42.1,68.9,42.1,69.6,42.1"/>
	<path id="path4" class="st2" d="M29,33.5c0,0.1,0.2,0.1,0.3,0c0,0,0-0.1-0.1-0.1S29,33.5,29,33.5 M38.7,42.1
		c-3.4,0-3.1-0.1-2.5,1.3c0.2,0.5,0.5,1.1,0.5,1.3c0.1,0.2,0.3,0.8,0.6,1.5s0.6,1.3,0.6,1.5c0.1,0.2,0.2,0.4,0.2,0.5
		c0,0.1,0.2,0.5,0.4,0.9c0.2,0.4,0.4,1,0.6,1.3c0.2,0.3,0.5,1.2,0.8,1.9c0.5,1.2,0.9,2.1,1.3,3c0.1,0.2,0.3,0.8,0.6,1.4
		c0.2,0.6,0.8,1.9,1.2,2.9c0.9,2,0.9,2.2,1.2,2.9c0.1,0.2,0.3,0.8,0.5,1.2c0.6,1.5,1.6,3.6,1.6,3.7c0.1,0.1,5.1,0.1,6.9,0.1
		c0.1,0,0.2-0.1,0.3-0.4c0.3-0.6,1-2.2,1.2-2.7c0.1-0.2,0.2-0.5,0.2-0.6s0.2-0.4,0.3-0.6c0.1-0.2,0.2-0.4,0.2-0.5
		c0,0,0.1-0.2,0.2-0.4c0.1-0.2,0.3-0.6,0.3-0.8c0.1-0.2,0.3-0.7,0.4-1c0.2-0.5,0.7-1.6,1-2.3c0.2-0.4,0.7-1.6,0.8-1.9
		c0.1-0.2,0.3-0.7,0.5-1.2c0.2-0.4,0.4-0.9,0.4-1.1s0.3-0.6,0.4-1c0.2-0.4,0.4-0.9,0.5-1.1c0.1-0.2,0.2-0.4,0.2-0.5
		c0.3-0.6,0.5-1.1,0.9-2c1.9-4.3,2.9-6.9,2.9-7c-0.1-0.1-0.5-0.1-3.5-0.1c-3.8,0-3.6,0-3.8,0.7c-0.1,0.4-0.9,2.2-1.2,2.9
		c-0.1,0.3-0.6,1.4-1.1,2.5c-0.5,1.1-1,2.3-1.1,2.6c-0.1,0.3-0.2,0.6-0.3,0.7c-0.1,0.3-0.2,0.6-0.5,1.2c-0.2,0.3-0.3,0.6-0.3,0.7
		c0,0-0.1,0.3-0.2,0.6c-0.4,0.9-0.5,1-1.1,2.5c-0.8,1.9-0.7,1.9-1.4,0.2c-0.2-0.6-0.5-1.1-0.5-1.1c0,0-0.1-0.1-0.1-0.2
		s-0.1-0.3-0.2-0.6c-0.3-0.6-0.3-0.6-0.8-1.9c-0.2-0.5-0.5-1.1-0.5-1.3c-0.1-0.1-0.3-0.8-0.6-1.4c-0.6-1.5-0.9-2.2-1.4-3.3
		c-0.1-0.3-0.2-0.5-0.2-0.6s-0.1-0.2-0.1-0.3c-0.1-0.2-0.3-0.6-0.5-1.1c-0.2-0.4-0.4-1-0.5-1.2c-0.1-0.2-0.2-0.6-0.3-0.9
		C43.4,42,44,42.1,38.7,42.1 M86.2,42.1c-1.1,0-1.6,0.1-1.6,0.1c-0.1,0.2-0.1,24.9,0,25c0.2,0.2,6.8,0.1,6.9-0.1
		c0-0.1,0.1-2.9,0.1-6.3c0-4.4,0-6.2,0.1-6.3c0.1-0.1,1,0.9,2.1,2.2c0.4,0.5,0.9,1.1,1.1,1.3c0.2,0.2,0.5,0.6,0.7,0.9
		c0.4,0.6,2.6,3.2,4,4.9c2.1,2.6,2.7,3.3,2.7,3.4c0,0.3,5.3,0.4,6,0.2l0.2-0.1V54.8c0-10.7,0-12.5-0.1-12.6c-0.2-0.1-6.8-0.1-6.9,0
		c-0.1,0.1-0.1,2.5-0.1,6.4c0,6.4,0,6.8-0.2,6.4c-0.1-0.1-0.7-0.9-1.4-1.7c-0.7-0.8-2-2.5-3-3.6c-2.8-3.3-3-3.7-3.3-4
		c-0.1-0.2-0.5-0.6-0.8-1c-1.6-2-2.1-2.5-2.2-2.6C90.3,42.1,88.6,42.1,86.2,42.1 M68,42.3c-0.1,0.1-0.2,0.2-0.2,0.2
		c0,0.1-0.2,0.6-0.5,1.3c-0.3,0.7-0.5,1.4-0.6,1.7c-0.1,0.2-0.2,0.5-0.2,0.6c-0.3,0.8-0.5,1.6-0.4,1.6c0,0,1,0,2.2,0.1l2.2,0.1
		l0,9.7c0,7.6,0,9.7,0.1,9.8c0.2,0.1,6.9,0.1,7,0c0.1-0.1,0.1-24.5,0-24.9l0-0.2h-4.7C68.8,42.1,68.2,42.2,68,42.3 M43.3,42.4
		c0.1,0.1,0.2,0.3,0.2,0.4c0,0.1,0.4,1,0.8,2c0.9,2.2,0.8,1.9,1.4,3.2c0.3,0.6,0.5,1.2,0.5,1.2c0,0,0,0.2,0.1,0.2
		c0,0.1,0.3,0.6,0.5,1.2c0.2,0.6,0.5,1.2,0.5,1.3c0.1,0.1,0.4,1.1,0.9,2c0.4,1,0.8,1.9,0.9,2.1c0.1,0.2,0.3,0.6,0.4,0.9
		c0.6,1.6,0.7,1.6,1.4,0c0.3-0.7,0.6-1.5,0.7-1.7c0.1-0.2,0.3-0.7,0.4-0.9c0.2-0.5,0.4-1,0.7-1.7c0.1-0.2,0.1-0.3,0.1-0.3
		c0,0,0.1-0.3,0.3-0.6c0.1-0.3,0.7-1.5,1.2-2.7c0.5-1.2,0.9-2.2,1-2.3c0-0.1,0.2-0.4,0.3-0.6c0.1-0.2,0.2-0.6,0.3-0.7
		c0.3-0.8,0.8-2,0.9-2.3c0.2-0.8,0-0.7,3.7-0.7c3.6,0,3.5,0,3.2,0.6c-0.1,0.2-0.2,0.5-0.2,0.5c0,0-0.1,0.3-0.2,0.6
		c-0.1,0.3-0.5,1.1-0.8,1.8c-0.3,0.7-0.6,1.4-0.6,1.4c0,0.1-0.2,0.4-0.4,0.8c-0.2,0.4-0.4,0.9-0.5,1.1c-0.1,0.3-0.2,0.5-0.2,0.5
		s-0.1,0.3-0.2,0.5c-0.4,1-0.6,1.3-1.3,2.9c-0.4,0.9-0.7,1.7-0.8,1.8c0,0.1-0.2,0.5-0.4,0.9c-0.2,0.4-0.4,0.9-0.5,1.2
		c-0.1,0.2-0.3,0.7-0.5,1.1c-0.2,0.4-0.4,0.9-0.5,1.1c-0.1,0.3-0.2,0.5-0.2,0.5c0,0-0.1,0.3-0.2,0.5c-0.1,0.2-0.4,0.8-0.6,1.2
		c-0.2,0.5-0.5,1.1-0.6,1.4s-0.3,0.6-0.3,0.6c0,0-0.1,0.3-0.3,0.6c-0.1,0.3-0.3,0.6-0.3,0.6c0,0-0.1,0.3-0.2,0.5
		c-0.3,0.6-0.5,1.2-0.7,1.6l-0.1,0.3h-3.4h-3.4L46,66.2c-0.2-0.6-0.5-1.3-0.6-1.5c-0.1-0.2-0.3-0.7-0.5-1.1c-0.2-0.4-0.4-0.8-0.4-1
		c-0.1-0.2-0.4-0.9-0.6-1.5s-0.7-1.7-1-2.4c-0.3-0.7-0.6-1.4-0.7-1.6c-0.1-0.2-0.2-0.4-0.3-0.6c-0.1-0.1-0.1-0.3-0.1-0.3
		c0,0-0.1-0.3-0.3-0.7s-0.3-0.6-0.3-0.6s-0.1-0.3-0.2-0.5c-0.1-0.3-0.5-1-0.8-1.8c-0.3-0.7-0.6-1.5-0.7-1.7
		c-0.3-0.6-0.3-0.7-0.6-1.4c-0.2-0.4-0.3-0.8-0.4-1c-0.1-0.2-0.5-1.2-0.9-2.2c-0.4-1-0.9-2-0.9-2.1c-0.1-0.1-0.1-0.3-0.1-0.3
		c0,0-0.1-0.3-0.3-0.7c-0.4-0.9-0.5-0.9,1.6-0.9C43.4,42.2,43.1,42.2,43.3,42.4 M77.5,42.4c0,0,0.1,5.6,0,12.4l0,12.4l-3.4,0
		c-2.7,0-3.4,0-3.4-0.1c0-0.1,0-4.4-0.1-9.7c0-5.3-0.1-9.6-0.1-9.7c-0.1-0.1-0.6-0.1-2.2-0.1c-2.5,0-2.4,0-1.8-1.3
		c0.1-0.2,0.5-1.3,0.6-1.7c0-0.1,0.2-0.6,0.4-1c0.2-0.4,0.3-0.8,0.3-0.9c0-0.3,0.1-0.4,1.7-0.4C71.8,42.3,77.4,42.3,77.5,42.4
		 M90.6,42.6c0.9,1,1.2,1.4,1.9,2.3c0.4,0.5,1,1.2,1.3,1.5c0.3,0.3,0.8,0.9,1.2,1.4c0.8,1,0.9,1.1,2.8,3.4c1.8,2.2,3,3.6,3.3,4
		c0.5,0.7,0.5,0.9,0.5-6.3c0-3.5,0-6.4,0.1-6.4c0.1-0.1,6.5-0.1,6.6,0c0.1,0.1,0.1,3.9,0.1,12.5l0,12.4l-2.8,0l-2.8,0l-1.2-1.4
		c-0.6-0.8-1.4-1.7-1.7-2c-0.4-0.5-3.2-3.8-4.3-5.2c-0.2-0.2-0.6-0.7-0.9-1.1c-0.3-0.4-0.8-1-1.1-1.3c-1-1.3-1.9-2.2-2-2.1
		c-0.1,0.1-0.1,1.9-0.1,6.5c0,3.5,0,6.4-0.1,6.5c-0.1,0.1-0.8,0.1-3.4,0.1h-3.3l0-0.2c0-0.1,0-5.7,0-12.4l0-12.2l1.2-0.1
		c0.7,0,2,0,2.9,0l1.6,0L90.6,42.6 M29,76.2c0.1,0.1,86.4,0.1,86.4,0c0,0-19.5-0.1-43.2-0.1C48.4,76.2,29,76.2,29,76.2"/>
	<path id="path6" class="st3" d="M240.3,33.6c1.4,0,2.4,0,2.6,0c0.3-0.1-0.4-0.1-2.2-0.1l-2.6,0L240.3,33.6 M243.7,33.5
		c0.1,0,0.1,4.4,0.1,21.4v21.3l-64.2,0c-35.3,0-64.2,0-64.2,0c0,0,8.8,0,19.7,0c68.2,0,108.7,0,108.8-0.1c0.1-0.1,0.1-42.4,0-42.6
		C243.9,33.5,243.8,33.5,243.7,33.5C243.6,33.5,243.6,33.5,243.7,33.5 M123.2,42.1c-0.8,0-1.1,0.1-1.1,0.1c0,0.1,0,5.7,0,12.5
		c0,8.1,0,12.4,0.1,12.5c0.3,0.3,15.1,0.2,16.9-0.1c4.4-0.7,6.8-2.9,7-6.4c0.2-2.7-1.1-4.9-3.4-6.1c-0.9-0.5-0.9-0.5-0.4-0.9
		c1.1-0.7,2.1-2.1,2.5-3.5c0.2-0.6,0.2-2.3,0.1-2.6c0-0.1-0.1-0.4-0.1-0.6c-0.3-2.4-3.4-4.5-7.4-4.9C136.3,42.1,125.6,42,123.2,42.1
		 M154.1,42.1l-2.5,0l0,12.5c0,8.4,0,12.5,0.1,12.6c0.2,0.2,6.9,0.2,7.1,0c0.1-0.1,0.1-1.4,0.1-4.8l0-4.7l0.2,0c0.1,0,2.2,0,4.7,0
		l4.5,0l0,4.7c0,3.2,0.1,4.8,0.1,4.8c0.1,0.1,1.2,0.1,3.6,0.1l3.5,0l0-12.5c0-6.9,0-12.5-0.1-12.6c-0.1-0.1-7-0.1-7.1,0
		c0,0-0.1,2.1-0.1,4.7l0,4.6l-4.6,0c-3.4,0-4.6,0-4.7-0.1c-0.1-0.1-0.1-0.9-0.1-4.6c0-3.3,0-4.6-0.1-4.6c-0.1-0.1-0.3-0.1-1.1-0.1
		C157.1,42.1,155.5,42.1,154.1,42.1 M180.5,42.1c-0.1,0.1,0.1,0.6,1,1.7c0.4,0.6,1.1,1.5,1.4,2c0.3,0.5,1,1.5,1.5,2.2
		c1.2,1.7,1.5,2,2.8,3.9c0.6,0.9,1.3,1.8,1.5,2.1l0.4,0.5l-0.2,0.3c-0.1,0.1-0.6,0.9-1.2,1.6c-0.6,0.8-1.2,1.6-1.4,1.9
		c-0.5,0.7-1.4,2-2.3,3.2c-0.4,0.5-0.8,1.1-0.9,1.3c-0.1,0.2-0.3,0.5-0.5,0.7c-0.1,0.2-0.7,0.9-1.2,1.7c-0.5,0.7-1,1.4-1.1,1.6
		c-0.3,0.4-0.2,0.5,1.6,0.6c4.4,0.2,6.4,0.1,6.6-0.4c0-0.1,0.7-1.1,1.4-2.1c0.7-1.1,1.3-2,1.3-2c0,0,0.4-0.6,0.8-1.3
		c1.3-2,1.3-2,1.5-1.7c0,0.1,0.8,1.2,1.7,2.6c0.9,1.3,1.9,2.9,2.3,3.5c0.4,0.6,0.7,1.1,0.8,1.2c0.2,0.2,3.8,0.3,5.2,0.2
		c0.6,0,1.5-0.1,2-0.1c1.4,0,1.5,0.2-0.7-2.8c-0.3-0.5-1.3-1.8-2.1-2.9c-0.8-1.1-2.1-2.9-2.8-3.9s-1.5-2.1-1.8-2.6
		c-0.7-0.9-0.7-0.8,0.4-2.4c1-1.5,4.3-5.9,5.2-7.2c0.3-0.5,0.8-1.1,1-1.4c0.2-0.3,0.6-0.8,0.9-1.2c0.7-0.9,0.6-0.9-0.8-1
		c-1.9-0.1-6.3,0-6.5,0.1c-0.1,0.1-0.3,0.4-0.6,0.8c-0.3,0.4-0.8,1.2-1.2,1.8c-0.4,0.6-1.1,1.5-1.4,2c-0.4,0.5-0.9,1.3-1.1,1.6
		c-0.6,0.8-0.5,0.8-1,0c-1-1.4-1.7-2.5-2.2-3.2c-0.3-0.4-0.9-1.3-1.3-1.9c-0.4-0.7-0.8-1.2-0.9-1.3
		C188.3,42.1,180.6,42.1,180.5,42.1 M211,42.2c-0.1,0.1-0.1,24.9,0,25c0.1,0.1,7,0.2,7.1,0.1c0-0.1,0.1-2.3,0.1-4.9l0-4.7l4.6,0
		c3.8,0,4.6,0,4.7,0.1c0.1,0.1,0.1,1.5,0.1,4.8l0,4.7l1.7,0.1c2,0.1,5.3,0.1,5.3-0.1c0.1-0.2,0.1-25,0-25.1c-0.2-0.2-6.8-0.1-7,0.1
		c-0.1,0.1-0.1,1.1-0.1,4.5c0,3.5,0,4.5-0.1,4.6c-0.1,0.2-9,0.2-9.3,0c-0.1-0.1-0.1-1.1-0.1-4.6c0-2.6,0-4.6-0.1-4.6
		C218,42.1,211.2,42,211,42.2 M184.6,42.3l3.6,0l0.3,0.3c0.1,0.2,0.5,0.7,0.8,1.2c0.3,0.5,1.1,1.5,1.6,2.3c0.6,0.8,1.1,1.5,1.1,1.6
		c0.1,0.3,1.2,1.7,1.3,1.8c0.1,0,0.8-0.9,4.2-5.9l0.8-1.2l2.5,0c2.7,0,4.9,0,4.9,0.2c0,0-0.3,0.4-0.6,0.9c-0.3,0.4-1,1.3-1.5,2
		c-0.5,0.7-1.1,1.5-1.4,1.9c-0.7,1-0.8,1-1.8,2.5c-0.5,0.8-1.3,1.8-1.6,2.3c-0.4,0.5-0.7,0.9-0.7,1c-1,1.3-1,1.3-0.2,2.3
		c0.6,0.8,2.7,3.8,3,4.2c0.1,0.1,0.4,0.6,0.8,1.1c0.3,0.5,0.7,1,0.9,1.2c0.1,0.2,0.7,1,1.2,1.7c2,2.8,2.6,3.6,2.5,3.6
		c-0.1,0.2-7.8,0.1-8-0.1c-0.1-0.1-0.2-0.2-0.2-0.2c0,0-0.2-0.3-0.4-0.7c-0.6-0.9-4.1-6.3-4.3-6.5c-0.1-0.2-0.4-0.1-0.4,0.1
		c0,0.1-0.1,0.3-0.3,0.5c-0.3,0.3-1,1.5-2,3c-0.2,0.3-0.7,1.1-1.2,1.8c-0.8,1.2-1.3,2-1.4,2.1c-0.1,0.2-7.7,0.1-7.8-0.1
		c0,0,0.2-0.4,0.5-0.8c0.3-0.4,0.8-1.1,1-1.5c0.3-0.4,0.7-1,1.1-1.5c0.3-0.4,0.6-0.9,0.7-1c0.2-0.3,2-2.7,2.3-3.1
		c0.1-0.2,0.7-0.9,1.2-1.7c0.5-0.7,1.1-1.6,1.4-1.9c0.8-1,0.8-1,0.2-1.7c-0.3-0.3-1.8-2.5-2.7-3.8c-0.6-0.9-1.1-1.5-1.3-1.8
		c-0.1-0.1-0.8-1.1-2-2.9c-1.2-1.8-1.9-2.7-2-2.8c-0.2-0.2-0.2-0.5,0-0.4C180.9,42.3,182.3,42.3,184.6,42.3 M137.3,42.4
		c2.1,0.3,3.2,0.6,4.3,1.2c4.1,2.2,4.2,7.8,0.3,10.2c-0.6,0.4-0.6,0.4,0.7,1c4.1,2.1,4.5,8.2,0.7,10.6c-0.4,0.3-1,0.6-2,1
		c-0.4,0.2-2.1,0.5-3,0.6c-1.3,0.1-15.8,0.2-16,0.1c-0.1-0.1-0.1-4.3-0.1-12.4l0-12.3l0.9-0.1C124.5,42.2,136.6,42.3,137.3,42.4
		 M158.6,42.3c0.1,0.1,0.1,1.2,0.1,4.7c0,4.4,0,4.6,0.2,4.6c0.3,0.2,9.4,0.1,9.5,0c0.1-0.1,0.1-1.4,0.1-4.7c0-4.2,0-4.5,0.2-4.6
		c0.2-0.1,6.6-0.1,6.7,0c0.1,0.1,0.1,3.8,0.1,12.5l0,12.4l-3.4,0c-3.1,0-3.4,0-3.5-0.1c-0.1-0.1-0.1-1.1-0.1-4.8
		c0-3.7,0-4.6-0.1-4.7c-0.1-0.1-7-0.2-9.1-0.1c-0.6,0-0.6-0.3-0.6,4.5c0,2.4,0,4.6,0,4.8l0,0.4h-3.3c-2.7,0-3.4,0-3.4-0.1
		c-0.1-0.1-0.1-3.4-0.1-12.4l0-12.3l2.3,0C158.5,42.2,158.5,42.2,158.6,42.3 M217.9,42.3c0.1,0.1,0.1,1.1,0.1,4.6c0,4,0,4.5,0.1,4.6
		c0.2,0.2,9.3,0.2,9.5,0.1c0.1-0.1,0.1-0.7,0.2-4.7c0-3.4,0.1-4.6,0.1-4.6c0.1,0,1.6-0.1,3.4-0.1l3.3,0l0,0.2c0,0.1,0,5.7,0,12.5
		l0,12.3l-3.4,0c-1.8,0-3.4,0-3.4-0.1c0,0-0.1-2.2-0.1-4.7c0-3.1,0-4.7-0.1-4.8c-0.1-0.2-9.4-0.3-9.7-0.1c-0.1,0.1-0.1,1.3-0.1,4.7
		c0,2.5,0,4.7-0.1,4.8c-0.1,0.2-6.4,0.2-6.7,0.1c-0.2-0.1-0.2-24.7,0-24.8C211.3,42.3,217.8,42.3,217.9,42.3 M129.4,47.3
		c-0.2,0.1-0.4,4.2-0.2,4.7l0.1,0.2l3,0c2.8,0,3.1,0,3.5-0.2c0.3-0.1,0.6-0.2,0.7-0.2c1-0.3,1.5-1.9,1-3c-0.3-0.6-0.5-0.8-1.3-1.1
		l-0.7-0.3l-2.9,0c-1.6,0-2.9,0-3-0.1C129.6,47.2,129.5,47.2,129.4,47.3 M135.7,47.6c1.1,0.3,1.5,0.7,1.7,1.6c0.2,1-0.2,2.1-1,2.4
		c-0.2,0.1-0.4,0.2-0.5,0.2c-0.4,0.3-6.1,0.5-6.5,0.2c-0.2-0.1-0.2-0.5-0.1-4.1l0-0.5l3,0.1C134.4,47.5,135.4,47.5,135.7,47.6
		 M129.3,57.1c-0.2,0.1-0.2,4.9,0,5c0.2,0.1,6.5,0.1,7.1,0c1.9-0.4,2.5-1,2.5-2.4c0-1.5-0.6-2.2-2.2-2.6C136,57,129.5,57,129.3,57.1
		 M137,57.4c2.3,0.9,2.3,3.8-0.1,4.4c-1,0.3-7.3,0.4-7.6,0.1c-0.1-0.1-0.1-4.2,0-4.7C129.3,57.1,136.7,57.3,137,57.4"/>
	<path id="path7" class="st4" d="M29.2,33.6L29,33.7L29.2,33.6c0.6-0.1,85.8,0,85.9,0.2c0.2,0.2,0.3,41.7,0.1,41.8
		c0,0-0.1,0.1-0.1,0.2c0,0.3,0.7,0.3-43.2,0.3c-23.5,0-42.8,0-42.9,0c0,0,19.4,0,43.2,0h43.3l0-19.6c0-10.8,0-20.4,0-21.4l0.1-1.7
		l-43.1,0C34.6,33.5,29.4,33.5,29.2,33.6 M84.6,42.1c-0.1,0.1-0.1,0.3-0.1,0.4c0,0.1,0,0,0.1-0.1c0.1-0.2,0.1-0.2,0.6-0.2
		c0.5,0,0.4-0.1-0.1-0.2C84.8,41.9,84.7,41.9,84.6,42.1 M39.5,42.1c0,0.1,0.5,0.1,1.8,0.1c1,0,1.9-0.1,1.8-0.1
		C43.1,41.9,39.6,41.9,39.5,42.1 M57.2,42.1c0,0,0,0.1,0.1,0.1s0.2,0,0.1-0.1c0,0-0.1-0.1-0.1-0.1C57.3,42,57.2,42,57.2,42.1
		 M58.3,42.1c0,0.1,0.5,0.1,1.7,0.1c1.1,0,1.7,0,1.7-0.1C61.6,42,61,42,60,42S58.4,42,58.3,42.1 M68,42.1c-0.1,0.1-0.2,0.2-0.3,0.3
		c0,0.1-0.1,0.3-0.1,0.3c0,0-0.1,0.1-0.1,0.2c0,0.3,0.3-0.1,0.3-0.4c0-0.1,0.1-0.2,0.3-0.3C68.4,42.1,68.3,41.9,68,42.1 M70.9,42.1
		c0,0.1,0.3,0.1,1,0.1c0.7,0,1.1,0,1-0.1C72.7,41.9,70.9,41.9,70.9,42.1 M76.2,42.1c0,0.1,0.1,0.1,0.2,0.1c0.2,0,0.3,0,0.2-0.1
		c0,0-0.1-0.1-0.2-0.1C76.3,42,76.2,42,76.2,42.1 M77.1,42.1c0,0.1,0.1,0.1,0.2,0.1c0.2,0,0.3,0,0.2-0.1c0,0-0.1-0.1-0.2-0.1
		C77.2,42,77.1,42,77.1,42.1 M86.8,42c0,0.1,0.4,0.1,1.2,0.1c0.7,0,1.2,0,1.2-0.1C89.1,41.9,86.9,41.9,86.8,42 M89.6,42.1
		c0,0.1,0,0.1,0.2,0.1c0.4-0.1,0.7,0.1,1,0.5c0.6,0.8,1.4,1.7,1.5,1.7c0,0,0-0.1,0-0.1c-0.1-0.1-0.5-0.5-0.9-1.1
		C90.6,42,89.8,41.7,89.6,42.1 M101.5,42.1c-0.2,0.1-0.3,0.2-0.2,0.2c0,0.1,0.1,0.6,0.1,1.2l0.1,1.1l0-1.2c0-1.3,0-1.4,0.3-1.4
		c0.1,0,0.2,0,0.2-0.1C101.9,41.9,101.9,41.9,101.5,42.1 M106.1,42.1c-0.1,0.1,0,0.1,0.4,0.1c0.4,0,0.5,0,0.5-0.1
		C107,41.9,106.3,41.9,106.1,42.1 M107.7,42.1c0,0.1,0,0.1,0.2,0c0.2,0,0.3,0,0.5,0.1c0.2,0.2,0.3,0.1,0-0.1
		C108.2,41.9,107.8,41.9,107.7,42.1 M35.6,42.4c0,0.2,0,0.3,0.1,0.3c0,0,0.1,0.1,0.1,0.2s0.1,0.2,0.1,0.3c0.1,0.1,0.1,0.1,0-0.2
		C35.8,42.8,35.7,42.5,35.6,42.4l0-0.3L35.6,42.4 M56.8,42.2c-0.1,0.1-0.1,0.2-0.1,0.3c0,0.2,0,0.2,0.1,0c0-0.1,0.1-0.2,0.2-0.3
		C57.1,42.1,57,42.1,56.8,42.2 M64,42.3c0.1,0.1,0.1,0.3-0.1,0.5c-0.1,0.2-0.2,0.4-0.1,0.4c0,0,0.1-0.1,0.2-0.4
		C64.2,42.4,64.2,42.4,64,42.3C63.9,42.1,63.9,42.1,64,42.3 M43.5,42.4c0,0.1,0.1,0.2,0.1,0.3c0,0.1,0.1,0,0.1-0.1
		c0-0.1-0.1-0.3-0.1-0.3C43.4,42.2,43.4,42.3,43.5,42.4 M108.6,54.2c0,6.5,0,9.2,0,5.9s0-8.6,0-11.9S108.6,47.7,108.6,54.2
		 M77.7,51.5l0,8.9l0.1-6.8c0-3.7,0-7.7,0-8.9C77.7,43.4,77.7,46.2,77.7,51.5 M56.3,43.5c-0.1,0.1-0.1,0.2-0.1,0.3
		c0,0.1,0.1,0,0.1-0.1c0.1-0.1,0.1-0.3,0.1-0.3C56.4,43.3,56.4,43.4,56.3,43.5 M67.3,43.7c-0.2,0.4-0.2,0.7-0.1,0.6
		c0.1-0.1,0.4-1,0.4-1C67.5,43.3,67.4,43.5,67.3,43.7 M36.1,43.5c0,0.2,0.4,1.2,0.5,1.2c0,0-0.1-0.3-0.2-0.7
		C36.2,43.6,36.1,43.4,36.1,43.5 M43.9,43.5c0,0.2,0.3,0.4,0.3,0.3c0-0.1-0.1-0.2-0.1-0.3C43.9,43.4,43.9,43.4,43.9,43.5 M63.4,44
		c-0.1,0.3-0.1,0.4,0,0.1c0.1-0.1,0.1-0.3,0.1-0.3C63.5,43.8,63.5,43.9,63.4,44 M44.1,44c0,0.2,0.2,0.4,0.2,0.2
		C44.3,44.1,44.3,44,44.1,44C44.2,43.9,44.1,44,44.1,44 M55.9,44.6c-0.1,0.3-0.1,0.4,0,0.1c0.1-0.1,0.1-0.3,0.1-0.3
		C56,44.4,55.9,44.5,55.9,44.6 M63.2,44.4c0,0-0.1,0.2-0.1,0.4C63,45,63,45.1,63,45.1C63.1,45.1,63.3,44.5,63.2,44.4
		C63.2,44.4,63.2,44.4,63.2,44.4 M92.6,44.7c0.2,0.2,0.3,0.4,0.3,0.3C93,45,92.8,44.9,92.6,44.7l-0.3-0.4L92.6,44.7 M36.6,44.9
		c0,0.1,0.4,0.9,0.4,0.8c0,0-0.1-0.2-0.2-0.5C36.7,45,36.6,44.8,36.6,44.9 M66.7,45c0,0.1-0.1,0.4-0.2,0.6c-0.1,0.2-0.1,0.5-0.2,0.6
		c-0.2,0.4-0.2,0.5-0.2,0.7c0,0.1,0.1,0,0.1-0.2c0.1-0.2,0.2-0.4,0.2-0.5c0.2-0.4,0.4-1.2,0.4-1.3C66.8,44.8,66.8,44.9,66.7,45
		 M62.7,45.6c-0.1,0.3-0.1,0.3,0,0.2c0.1-0.1,0.3-0.6,0.2-0.6C62.9,45.2,62.8,45.4,62.7,45.6 M44.8,45.6c0,0.1,0.1,0.3,0.1,0.3
		C45.1,46.1,45,45.9,44.8,45.6l-0.1-0.2L44.8,45.6 M55.4,45.6c-0.1,0.1-0.3,0.7-0.3,0.8c0,0,0.1-0.1,0.2-0.3
		C55.6,45.5,55.7,45.3,55.4,45.6 M93.6,46c0.2,0.2,0.3,0.4,0.4,0.4c0,0-0.1-0.2-0.2-0.4c-0.2-0.2-0.3-0.4-0.4-0.4
		C93.4,45.6,93.5,45.8,93.6,46 M37.1,45.9c0,0.1,0,0.2,0.1,0.2c0,0,0.1,0.2,0.1,0.3s0.1,0.3,0.1,0.3s0-0.2-0.1-0.4
		C37.1,45.8,37.1,45.7,37.1,45.9 M62.2,46.9c-0.2,0.4-0.3,0.7-0.3,0.7c0.1,0.1,0.6-1.2,0.6-1.3C62.5,46.3,62.3,46.5,62.2,46.9
		 M45.1,46.4c0,0,0.1,0.2,0.1,0.4c0.1,0.2,0.1,0.2,0.1,0.1c0-0.1-0.1-0.3-0.1-0.4C45.2,46.4,45.1,46.3,45.1,46.4 M94.2,46.7
		c0.1,0.1,0.2,0.2,0.3,0.2c0.1-0.1-0.3-0.4-0.4-0.4C94,46.4,94.1,46.5,94.2,46.7 M54.9,46.7c-0.1,0.1-0.1,0.3-0.1,0.4
		c0,0.1,0.1,0.1,0.2-0.2C55.2,46.5,55.2,46.5,54.9,46.7 M37.5,46.9c0,0.1,0.1,0.2,0.1,0.3c0.1,0.1,0.1,0.1,0.1-0.1
		C37.7,47.1,37.6,47,37.5,46.9C37.5,46.8,37.5,46.8,37.5,46.9 M94.8,47.3c0.2,0.2,0.3,0.4,0.4,0.4c0,0,0,0,0-0.1
		C95.1,47.6,94.9,47.4,94.8,47.3l-0.3-0.4L94.8,47.3 M54.6,47.5c-0.1,0.1-0.1,0.2-0.1,0.3c0,0.1,0.1,0.1,0.1-0.1
		C54.8,47.3,54.8,47.3,54.6,47.5 M37.8,47.5c0,0.1,0,0.2,0.1,0.2c0,0,0.1,0.1,0.1,0.3c0,0.1,0.1,0.3,0.2,0.4l0.2,0.2l-0.1-0.3
		c-0.1-0.1-0.2-0.4-0.3-0.6C37.8,47.5,37.8,47.5,37.8,47.5 M45.6,47.4c0,0,0.1,0.2,0.2,0.4c0.4,0.9,0.4,0.8,0.3,0.5
		C46,48.1,45.6,47.3,45.6,47.4 M61.7,47.9c-0.1,0.2-0.1,0.2,0,0.1c0.1-0.1,0.1-0.2,0.1-0.3C61.8,47.7,61.8,47.8,61.7,47.9
		 M66.2,47.8c0.1,0,0.3,0,0.4,0c0.1,0,0,0-0.2,0C66.1,47.7,66,47.7,66.2,47.8 M69.9,47.8c0,0,0.1,0.1,0.2,0.1l0.2,0.1l0,6.1l0,6.1
		l0-6.2l0-6.2l-0.2,0C70,47.8,69.9,47.8,69.9,47.8 M95.6,48.3c0.2,0.3,0.5,0.5,0.5,0.5c0.1,0-0.3-0.5-0.6-0.8
		C95.3,47.9,95.3,48,95.6,48.3 M54.2,48.5c-0.1,0.1-0.1,0.2-0.1,0.2c0,0.1,0.1,0,0.1-0.1C54.4,48.4,54.3,48.3,54.2,48.5 M38.3,48.8
		c0,0.1,0.1,0.2,0.1,0.3c0,0.1,0.1,0.2,0.2,0.3c0.2,0.2,0.2,0.2,0-0.2C38.4,48.7,38.2,48.5,38.3,48.8 M61.3,49
		c-0.1,0.2-0.1,0.2,0,0.1c0.1-0.1,0.1-0.2,0.1-0.3S61.3,48.9,61.3,49 M96.2,49c0,0.1,0.7,1,1.1,1.3C97.6,50.7,97.1,50,96.2,49
		C96.2,48.9,96.2,49,96.2,49 M46.3,49.2c0,0,0.1,0.2,0.1,0.3c0.1,0.1,0.1,0.2,0.1,0.1c0,0-0.1-0.2-0.1-0.3
		C46.4,49.2,46.3,49.1,46.3,49.2 M53.7,49.6c-0.1,0.1-0.1,0.2-0.1,0.2c0,0.1,0.1,0,0.1-0.1C53.9,49.5,53.9,49.4,53.7,49.6
		 M38.8,49.9c0,0.1,0.3,0.8,0.4,0.8C39.2,50.7,38.9,49.9,38.8,49.9C38.8,49.8,38.8,49.9,38.8,49.9 M53.3,50.5
		c-0.1,0.3-0.2,0.5-0.2,0.6c0,0.1,0.1-0.1,0.3-0.4C53.7,50,53.7,49.8,53.3,50.5 M60.6,50.5c0,0.1-0.1,0.3-0.1,0.4
		c-0.1,0.3,0,0.2,0.1-0.1c0.1-0.2,0.1-0.3,0.1-0.4C60.7,50.4,60.6,50.4,60.6,50.5 M47,50.9c0.1,0.2,0.2,0.5,0.2,0.6
		c0,0.1,0,0.1,0.1,0.2c0.1,0.1-0.2-0.9-0.3-1C46.9,50.5,46.9,50.6,47,50.9 M97.5,50.6c0.1,0.2,1.3,1.6,1.4,1.6c0.1,0,0-0.1-0.2-0.3
		c-0.8-0.9-1-1.2-1.1-1.3c0-0.1-0.1-0.1-0.1-0.1C97.5,50.5,97.5,50.5,97.5,50.6 M39.2,51c0,0.1,0,0.2,0.1,0.2
		c0.1,0.1,0.4,0.6,0.4,0.8c0,0.1,0.1,0.2,0.2,0.3c0.1,0.1,0.1,0-0.2-0.6C39.3,50.8,39.2,50.7,39.2,51 M52.8,51.6
		c-0.1,0.2-0.2,0.4-0.2,0.4c0,0-0.1,0.3-0.2,0.6c-0.1,0.3-0.2,0.5-0.2,0.5c0,0,0.2-0.4,0.6-1.2c0.1-0.2,0.2-0.4,0.2-0.5
		c0-0.1,0.1-0.2,0.1-0.2C53.1,51.3,53,51.4,52.8,51.6 M99.3,52.8c0.2,0.3,0.4,0.5,0.4,0.4C99.8,53.2,99.6,53,99.3,52.8l-0.4-0.5
		L99.3,52.8 M40.1,52.9c0.1,0.3,0.3,0.7,0.4,0.7c0,0-0.3-0.8-0.4-0.9C40,52.7,40,52.8,40.1,52.9 M48,53.2c0.2,0.4,0.2,0.4,0.2,0.3
		C48.2,53.4,48.1,53.2,48,53.2l-0.2-0.3L48,53.2 M59.2,53.7c-0.1,0.2-0.1,0.4-0.1,0.4c0.1-0.1,0.4-0.7,0.3-0.7
		C59.4,53.4,59.3,53.5,59.2,53.7 M52.1,53.6c-0.1,0.1-0.3,0.7-0.3,0.7c0,0,0.1-0.2,0.2-0.4C52.2,53.5,52.2,53.4,52.1,53.6
		 M40.7,54.3c0,0.1,0.1,0.3,0.1,0.3C41,54.8,40.9,54.6,40.7,54.3l-0.1-0.2L40.7,54.3 M58.8,54.7c-0.1,0.2-0.1,0.4-0.1,0.4
		c0,0,0.1-0.1,0.1-0.2c0-0.1,0.1-0.1,0.1-0.2c0.1,0,0.1-0.1,0.1-0.2C59.1,54.2,59,54.3,58.8,54.7 M100.9,54.6
		c0.1,0.1,0.3,0.3,0.3,0.4c0,0.1,0.1,0.1,0.1,0.1c0,0-0.1-0.2-0.3-0.4C100.8,54.5,100.7,54.5,100.9,54.6 M91.7,54.6c0,0,0,2.5,0,5.6
		l0,5.5l0-4.7c0-3.1,0.1-4.7,0.1-4.8c0.1-0.1,0.1-0.1,0-0.2c-0.1-0.1-0.1-0.6,0-0.6c0,0,0.1-0.1,0.1-0.2c0-0.1,0-0.2,0.1-0.3
		c0.1-0.1,0.9,0.6,0.9,0.8c0,0.1,0.5,0.7,0.6,0.7c0.1,0-0.3-0.5-1-1.3C91.9,54.5,91.8,54.5,91.7,54.6 M51.6,54.8
		c-0.1,0.1-0.2,0.3-0.2,0.4c-0.1,0.3,0,0.3,0.1,0c0.1-0.2,0.2-0.4,0.2-0.4C51.8,54.5,51.7,54.6,51.6,54.8 M40.9,54.8
		c0,0.1,0.3,0.7,0.3,0.7c0,0,0-0.2-0.2-0.5C41,54.8,40.9,54.8,40.9,54.8 M58.3,55.9c-0.1,0.3-0.1,0.4,0,0.1c0.1-0.1,0.1-0.3,0.1-0.3
		C58.4,55.7,58.4,55.8,58.3,55.9 M41.4,55.9c0,0.1,0.1,0.3,0.1,0.4c0.2,0.2,0.2,0.2,0-0.2C41.4,55.8,41.4,55.8,41.4,55.9 M49.1,55.8
		c0,0,0.1,0.2,0.2,0.4c0.1,0.2,0.2,0.3,0.2,0.2c0-0.1-0.1-0.3-0.2-0.4C49.1,55.8,49.1,55.7,49.1,55.8 M51.1,55.9
		c-0.1,0.1-0.1,0.2-0.1,0.2c0,0.1-0.1,0.3-0.2,0.6c-0.2,0.4-0.3,0.7-0.2,0.6c0.1-0.1,0.7-1.5,0.6-1.5C51.2,55.8,51.1,55.8,51.1,55.9
		 M93.5,56.6C93.5,56.6,93.5,56.7,93.5,56.6c0.1,0.1,0.2,0.2,0.3,0.3c0.1,0.1,0.3,0.3,0.4,0.4c0.2,0.1,0.1,0-0.2-0.3
		C93.6,56.5,93.5,56.4,93.5,56.6 M57.8,57.2C57.5,57.7,57.5,57.8,57.8,57.2c0.2-0.1,0.2-0.4,0.2-0.4C58,56.8,57.9,56.9,57.8,57.2
		 M41.8,56.9c0,0.1,0.3,0.7,0.3,0.7C42.2,57.6,41.9,56.9,41.8,56.9C41.8,56.8,41.8,56.9,41.8,56.9 M49.7,57.2
		c0.1,0.2,0.2,0.4,0.2,0.3c0-0.1-0.2-0.7-0.3-0.7C49.5,56.8,49.6,57,49.7,57.2 M50.4,57.5c-0.1,0.3-0.2,0.4-0.4,0.3
		c-0.1-0.1-0.1-0.1,0,0.1c0.1,0.1,0.2,0.2,0.2,0.2c0.1,0,0.4-0.6,0.3-0.7C50.4,57.4,50.4,57.4,50.4,57.5 M94.4,57.6
		c0,0,0.1,0.1,0.3,0.3l0.3,0.3l-0.3-0.3C94.5,57.6,94.4,57.5,94.4,57.6 M42.2,57.8c0,0.2,0.2,0.7,0.4,0.8c0.1,0,0-0.1-0.1-0.3
		C42.4,58.1,42.3,57.9,42.2,57.8C42.2,57.7,42.2,57.7,42.2,57.8 M57.5,57.9c0,0.1-0.1,0.2-0.1,0.3c0,0.1,0,0,0.1-0.1
		C57.5,58,57.6,57.9,57.5,57.9C57.5,57.7,57.5,57.8,57.5,57.9 M95,58.3c0,0.1,0.2,0.3,0.4,0.5c0.2,0.2,0.4,0.5,0.4,0.5
		c0,0.1,0,0.1,0.1,0.1c0.1,0,0-0.1-0.1-0.3c-0.1-0.2-0.4-0.4-0.5-0.6C95.1,58.3,95,58.2,95,58.3 M57.1,58.8
		c-0.1,0.2-0.2,0.4-0.1,0.4c0.1-0.1,0.4-0.6,0.3-0.7C57.3,58.4,57.2,58.6,57.1,58.8 M42.6,58.9c0,0.1,0.3,0.8,0.4,0.8
		C43.1,59.7,42.7,58.9,42.6,58.9C42.6,58.8,42.6,58.8,42.6,58.9 M56.5,60c-0.2,0.3-0.2,0.4,0,0.3c0.1-0.1,0.3-0.6,0.2-0.6
		C56.7,59.6,56.6,59.8,56.5,60 M96.6,60.3c0.3,0.4,0.7,0.8,1,1.1c0.2,0.3,0,0-0.5-0.6c-0.5-0.6-0.9-1.1-1-1.1
		C96.1,59.6,96.3,59.9,96.6,60.3 M43.1,60c0,0.1,0,0.2,0.1,0.2c0,0,0.1,0.1,0.1,0.2s0.1,0.2,0.1,0.3c0.1,0.1,0.1,0,0-0.3
		C43.1,59.9,43.1,59.8,43.1,60 M77.8,62.7c0,1.3,0,1.8,0,1.1c0-0.6,0-1.7,0-2.3C77.8,60.9,77.8,61.4,77.8,62.7 M56.2,60.8
		C56,61.2,56,61.2,56.2,60.8c0.1,0,0.2-0.2,0.1-0.2C56.3,60.6,56.2,60.7,56.2,60.8 M55.8,61.8c0,0.1-0.1,0.2-0.1,0.3
		c0,0.1,0,0.1,0.1,0C55.8,62,55.9,61.9,55.8,61.8C55.8,61.6,55.8,61.6,55.8,61.8 M98.2,62.2c0,0,0.1,0.2,0.2,0.3s0.2,0.3,0.2,0.3
		c0,0.1,0.2,0.3,0.5,0.6l0.5,0.5l-0.5-0.6C98.3,62.2,98.2,62.1,98.2,62.2 M55.2,63.1c-0.1,0.2-0.1,0.4-0.1,0.4s0.1,0,0.1-0.1
		C55.2,63.4,55.2,63.2,55.2,63.1c0.2,0,0.2-0.2,0.2-0.2C55.4,62.8,55.3,62.9,55.2,63.1 M44.5,63.4c0,0.1,0.1,0.3,0.1,0.3
		C44.8,63.8,44.8,63.6,44.5,63.4l-0.1-0.2L44.5,63.4 M54.9,63.8c0,0.1-0.1,0.3-0.2,0.4c-0.2,0.3-0.2,0.4,0,0.1
		c0.2-0.3,0.3-0.7,0.2-0.7C55,63.6,54.9,63.7,54.9,63.8 M44.8,64c0,0.1,0.1,0.3,0.2,0.4l0.2,0.2L45,64.3C44.9,64.2,44.9,64,44.8,64
		C44.8,63.8,44.8,63.8,44.8,64 M99.7,63.9c0,0,0.1,0.1,0.3,0.3l0.3,0.3l-0.3-0.3C99.8,63.9,99.7,63.9,99.7,63.9 M70.4,65
		c0,0.5,0,0.8,0,0.5c0-0.3,0-0.7,0-1C70.4,64.3,70.4,64.5,70.4,65 M54.4,65c-0.1,0.2-0.1,0.4-0.1,0.4c0.1,0,0.3-0.6,0.3-0.7
		C54.6,64.6,54.5,64.8,54.4,65 M100.4,64.7c0.1,0.3,0.5,0.7,1,1.2c0.3,0.4,0.3,0.3-0.2-0.3C100.4,64.6,100.2,64.5,100.4,64.7
		 M45.2,65c0,0.1,0.3,0.7,0.3,0.7C45.6,65.6,45.3,65,45.2,65C45.2,64.9,45.2,64.9,45.2,65 M77.6,66.1c0,1.2,0,1.2-0.3,1.3
		c-0.2,0-0.2,0.1-0.1,0.1C77.6,67.7,77.8,67.2,77.6,66.1l0-1.2L77.6,66.1 M45.6,65.9c0.1,0.3,0.3,0.8,0.4,0.8c0,0-0.1-0.3-0.2-0.5
		C45.7,65.9,45.6,65.8,45.6,65.9 M91.6,66.4c0,0.2,0,0.3,0,0.2c0-0.1,0-0.3,0-0.4C91.7,66.1,91.6,66.2,91.6,66.4 M108.6,66.8
		c0,0.4,0,0.5-0.2,0.6c-0.1,0-0.2,0.1-0.2,0.2C108.3,67.7,108.6,67.2,108.6,66.8l0-0.5L108.6,66.8 M70.4,66.8c0,0.2,0,0.3,0,0.2
		c0-0.1,0-0.3,0-0.4C70.4,66.5,70.4,66.6,70.4,66.8 M53.6,67c-0.1,0.3-0.1,0.3,0,0.2c0.1-0.1,0.1-0.2,0.1-0.3
		C53.7,66.7,53.6,66.8,53.6,67 M91.5,67.2c0,0.1-0.2,0.1-0.4,0.1l-0.4,0l0.3,0C91.4,67.4,91.7,67.3,91.5,67.2
		C91.6,67.1,91.5,67.2,91.5,67.2 M84.5,67.3c0,0.3,0.2,0.3,3,0.3c1.7,0,2.8,0,2.8-0.1c0-0.1-0.9-0.1-2.8-0.1c-2.1,0-2.8,0-2.9-0.1
		C84.6,67.2,84.5,67.2,84.5,67.3 M46.5,67.5c0.1,0.1,6.6,0.1,6.7,0c0-0.1-1.3-0.1-3.4-0.1C47.5,67.4,46.5,67.4,46.5,67.5 M70.7,67.5
		c0,0.1,1,0.1,2.7,0.1c1.7,0,2.7,0,2.8-0.1c0-0.1-0.9-0.1-2.7-0.1C71.7,67.4,70.7,67.4,70.7,67.5 M103.8,67.5c0,0.1,0.5,0.1,1.1,0.1
		c0.6,0,1.1,0,1.1-0.1c0-0.1-0.4-0.1-1.1-0.1S103.8,67.4,103.8,67.5"/>
	<path id="path8" class="st5" d="M37.8,42.3c-1.7,0-1.9,0-1.9,0.2c0,0.2,0.5,1.3,0.5,1.1c0-0.1-0.1-0.3-0.2-0.6
		c-0.1-0.3-0.2-0.5-0.2-0.5c0,0,6.6-0.1,7.1-0.1c0.1,0,0.1,0.1,0.2,0.3c0.1,0.2,0.1,0.2,0.2,0.1c0-0.1,0-0.2-0.2-0.3
		C43.1,42.2,43.5,42.2,37.8,42.3 M57,42.5c-0.1,0.1-0.2,0.2-0.1,0.3s0.1,0,0.2-0.1c0.1-0.2,0.1-0.2,3.4-0.2c3.2,0,3.6,0,3.3,0.3
		c-0.1,0.1-0.2,0.2-0.2,0.3c-0.1,0.2-0.3,0.9-0.5,1.2c0,0.1-0.1,0.2-0.1,0.3c0,0.1,0.3-0.5,0.6-1.1c0.1-0.2,0.2-0.5,0.3-0.7
		c0.2-0.4,0.1-0.4-3.3-0.4l-3.3,0L57,42.5 M69.6,42.3c-1.6,0-1.7,0.1-1.7,0.4c0,0.1-0.6,1.6-0.9,2.3c-0.1,0.3-0.2,0.6,0,0.4
		c0-0.1,0.3-0.7,0.5-1.4c0.3-0.7,0.5-1.3,0.5-1.4c0.1-0.1,0.7-0.1,4.7-0.2l4.7,0l0,12.3l0,12.3l-3.3,0l-3.3,0v-9.7
		c0-9.3,0-9.7-0.2-9.8c-0.1-0.1-0.5-0.1-2.2-0.1c-2.1,0-2.4,0-2-0.4c0.1-0.1,0.1-0.2,0.1-0.3c0-0.1,0-0.1-0.1,0.2
		c-0.3,0.6-0.3,0.6,2.1,0.6c1.6,0,2.1,0,2.2,0.1c0,0.1,0.1,4.4,0.1,9.7c0,5.3,0,9.6,0.1,9.7c0,0.1,0.8,0.1,3.4,0.1l3.4,0l0-12.4
		c0-6.8,0-12.4,0-12.4C77.4,42.3,71.8,42.3,69.6,42.3 M85.9,42.3l-1.2,0.1l0,12.2c0,6.7,0,12.3,0,12.4l0,0.2l3.3,0l3.3,0l0-0.7
		l0-0.7l-0.1,0.7l-0.1,0.7H88h-3.3l0-12.3l0-12.3h2.9c2.8,0,2.9,0,3,0.2c0.1,0.1,0.2,0.2,0.2,0.1C91.2,42.3,89.3,42.2,85.9,42.3
		 M104,42.3l-2.4,0l0,6.3c0,7.4,0,7.2-0.6,6.4c-0.3-0.4-1.4-1.8-3.3-4c-1.8-2.1-1.9-2.3-3-3.6c-0.5-0.6-1-1.2-1-1.3
		c-0.1-0.1-0.6-0.7-1.2-1.4c-1.1-1.4-1.8-2.2-1.7-1.9c0,0.1,0.3,0.4,0.5,0.6c0.2,0.3,0.9,1,1.4,1.7c1.2,1.5,2.8,3.4,3.3,4
		c0.2,0.2,0.8,0.9,1.3,1.6c0.5,0.6,1.1,1.3,1.2,1.4c0.1,0.1,0.3,0.3,0.4,0.5c0.1,0.1,0.6,0.7,1,1.3c0.4,0.5,0.9,1.1,1,1.3
		c0.2,0.3,0.5,0.4,0.6,0.2c0-0.1,0.1-3,0.1-6.6l0-6.5l3.3,0l3.3,0v12.4v12.4h-2.8c-2.5,0-2.8,0-2.9-0.2c-0.1-0.1-0.4-0.5-0.8-1
		c-1-1.3-2.3-2.8-2.6-3.1c-0.1-0.1-0.4-0.4-0.5-0.6c-0.4-0.5-3.8-4.6-4.1-4.9c-0.2-0.2-0.4-0.5-0.6-0.8c-0.2-0.2-0.5-0.6-0.6-0.7
		c-0.1-0.1-0.2-0.3-0.2-0.3c0,0-0.1-0.1-0.1-0.2c-0.1-0.1-0.4-0.4-0.7-0.8c-1-1.1-0.9-1.2-1,2.5c0,1.7,0,3,0,3c0,0,0.1-1.3,0.1-2.9
		c0-2,0-2.9,0.1-3c0.1-0.1,0.9,0.8,2,2.1c0.3,0.4,0.8,1,1.1,1.3c0.3,0.4,0.7,0.9,0.9,1.1c1.1,1.4,3.9,4.7,4.3,5.2
		c0.3,0.3,1,1.2,1.7,2l1.2,1.4l2.8,0l2.8,0l0-12.4c0-8.3,0-12.4-0.1-12.4C108.2,42.3,107.3,42.3,104,42.3 M56.7,43.1
		c-0.1,0.2-0.4,1.2-1,2.4c-0.2,0.4-0.3,0.6-0.5,1.2c0,0.1-0.2,0.4-0.3,0.7c-0.1,0.3-0.2,0.5-0.2,0.6c0,0,0.1-0.1,0.2-0.3
		c0.1-0.2,0.2-0.5,0.3-0.7c0.1-0.2,0.4-0.9,0.6-1.5c0.3-0.6,0.5-1.3,0.6-1.5c0.3-0.7,0.4-0.9,0.3-1C56.8,42.9,56.8,42.9,56.7,43.1
		 M43.5,43c0,0.2,0.4,1,0.4,1c0,0-0.1-0.3-0.2-0.6C43.6,43.1,43.5,43,43.5,43 M36.4,43.8c0,0.1,0.1,0.2,0.1,0.4
		c0.1,0.1,0.4,0.8,0.6,1.4c0.3,0.6,0.5,1.1,0.5,1c0-0.1-0.2-0.5-0.3-0.9c-0.2-0.4-0.4-1-0.5-1.2C36.7,44,36.4,43.6,36.4,43.8
		 M44,44.2c0,0.1,0.1,0.3,0.2,0.6c0.1,0.3,0.3,0.8,0.5,1.2c0.3,0.8,0.5,1.2,0.5,1c0-0.1,0-0.2-0.1-0.3c0-0.1-0.3-0.7-0.5-1.3
		C44.1,44.2,44,44,44,44.2 M62.8,44.8c-0.1,0.1-0.1,0.2-0.1,0.3c0,0.1,0.1,0,0.1-0.1c0.1-0.1,0.1-0.3,0.1-0.3
		C62.9,44.7,62.8,44.7,62.8,44.8 M62.5,45.5c0,0.1-0.3,0.8-0.7,1.6c-0.3,0.8-0.6,1.4-0.6,1.5c0,0.1,0.1-0.2,0.3-0.5
		c0.2-0.3,0.3-0.8,0.4-1c0.4-0.9,0.7-1.7,0.7-1.7C62.6,45.3,62.6,45.3,62.5,45.5 M66.7,45.9c-0.1,0.2-0.2,0.4-0.2,0.5
		c0,0.1-0.1,0.1,0,0.2c0,0,0.1,0,0.1-0.1c0.1-0.2,0.3-0.8,0.3-0.8C66.8,45.6,66.8,45.7,66.7,45.9 M37.9,47.3
		c0.1,0.3,0.2,0.4,0.2,0.4c0-0.1-0.3-0.8-0.4-0.8C37.7,46.8,37.8,47,37.9,47.3 M45.2,47.2c0,0.1,0.4,0.9,0.4,0.9
		c0,0-0.1-0.2-0.2-0.5C45.3,47.3,45.2,47.1,45.2,47.2 M38.1,47.8c0,0,0.1,0.3,0.2,0.5c0.2,0.4,0.5,1.1,0.9,2.1
		c0.4,0.9,0.5,1.2,0.6,1.2c0,0,0-0.1-0.1-0.2c-0.1-0.1-0.2-0.4-0.3-0.6c-0.2-0.5-0.4-0.9-0.6-1.4c-0.1-0.2-0.2-0.6-0.4-0.9
		C38.3,48,38.1,47.7,38.1,47.8 M54.2,49.1c-0.2,0.6-0.5,1.1-0.5,1.2c-0.1,0.2,0.2-0.3,0.3-0.6c0.1-0.2,0.2-0.6,0.4-0.9
		c0.1-0.3,0.2-0.6,0.2-0.7C54.7,48.1,54.5,48.5,54.2,49.1 M45.7,48.2c0,0,0.1,0.3,0.2,0.6c0.3,0.7,1.2,3,1.2,3.1
		c0,0.1,0.1,0.2,0.1,0.2c0.2,0.1,0.2,0.1,0-0.2c0-0.1-0.3-0.6-0.5-1.2c-0.2-0.6-0.4-1.1-0.5-1.2c0-0.1-0.2-0.5-0.3-0.8
		C45.7,48.2,45.7,48,45.7,48.2 M61.1,48.8C61,48.8,61,49,61,49.1c0,0.1,0,0.2-0.1,0.2c0,0-0.1,0.1-0.1,0.2c0,0.1,0.1,0,0.2-0.3
		C61.3,48.7,61.3,48.6,61.1,48.8 M60.6,49.9c-0.1,0.3-0.3,0.8-0.7,1.7c-0.2,0.4-0.3,0.8-0.3,0.9c0,0.1,0.1-0.2,0.3-0.5
		c0.3-0.7,0.4-1,0.8-1.7c0.1-0.3,0.2-0.5,0.2-0.6C60.7,49.7,60.7,49.8,60.6,49.9 M53.5,50.7c-0.1,0.2-0.3,0.6-0.4,0.9
		c-0.2,0.4-0.3,0.7-0.3,0.7c0,0-0.1,0.2-0.1,0.3c-0.5,1-0.8,1.7-0.8,1.8c0,0-0.1,0.3-0.3,0.6c-0.4,0.9-0.5,1.2-0.5,1.3
		c0,0,0.1-0.1,0.2-0.3c0.1-0.2,0.3-0.6,0.4-0.9c0.1-0.3,0.3-0.6,0.3-0.7s0.1-0.3,0.2-0.5c0.4-0.8,0.6-1.3,0.6-1.4
		c0,0,0.1-0.3,0.3-0.6c0.5-1,0.7-1.5,0.6-1.5C53.7,50.4,53.6,50.5,53.5,50.7 M39.8,51.8c0,0.1,0.4,1,0.4,0.9
		C40.3,52.5,39.9,51.7,39.8,51.8C39.9,51.7,39.8,51.8,39.8,51.8 M47.4,52.3c0,0.2,0.3,1,0.4,0.9c0,0-0.1-0.3-0.2-0.5
		C47.5,52.4,47.4,52.3,47.4,52.3 M59.3,52.9c0,0.1-0.1,0.3-0.1,0.4c0,0.1-0.1,0.2-0.1,0.2c0,0.1,0.1-0.1,0.2-0.4
		c0.1-0.3,0.2-0.5,0.1-0.5C59.4,52.6,59.3,52.7,59.3,52.9 M40.3,52.8c0,0.1,0.3,0.9,0.7,1.6c0.1,0.3,0.2,0.5,0.2,0.5
		c0,0.1,0.5,1.1,0.5,1c0-0.1,0-0.2-0.1-0.3c-0.1-0.2-0.4-0.9-0.8-1.9C40.5,53.1,40.3,52.6,40.3,52.8 M47.8,53.4
		c0,0.1,0.1,0.3,0.2,0.6c0.1,0.3,0.5,1.1,0.8,1.8c0.5,1.2,0.7,1.6,0.7,1.5c0,0-0.3-0.8-0.5-1.3c0-0.1-0.3-0.7-0.5-1.3
		C47.9,53.4,47.8,53.2,47.8,53.4 M58.9,53.8c-0.1,0.2-0.3,0.7-0.3,0.7c0,0,0.1-0.2,0.2-0.4C59.1,53.7,59.1,53.6,58.9,53.8
		 M141.5,53.9c-0.1,0.1-0.1,0.2-0.1,0.3c0,0.1,0.1,0.1,0.1-0.1C141.7,53.8,141.7,53.7,141.5,53.9 M58.4,55c0,0.1-0.1,0.4-0.2,0.6
		c-0.4,0.9-0.8,1.9-0.8,2c0,0.1,0.2-0.2,0.7-1.4c0.2-0.6,0.5-1.1,0.5-1.1c0.1-0.1,0.1-0.2,0-0.2C58.5,54.8,58.5,54.9,58.4,55
		 M41.7,56.2c0,0.1,0.1,0.2,0.1,0.3c0.1,0.1,0.1,0.1,0.1,0c0-0.1-0.1-0.2-0.1-0.3C41.8,56.1,41.7,56.1,41.7,56.2 M50.7,57.4
		c-0.5,1.1-0.6,1.1-0.9,0.4c-0.1-0.3-0.2-0.4-0.2-0.3c0,0.1,0,0.2,0.1,0.2c0,0,0.1,0.1,0.1,0.2c0,0.2,0.3,0.6,0.5,0.6
		c0.1,0,0.2-0.2,0.3-0.5c0.1-0.3,0.3-0.7,0.4-1c0.1-0.3,0.2-0.5,0.2-0.6C51.1,56.5,50.9,56.9,50.7,57.4 M42,56.8
		c0,0.1,0,0.2,0.1,0.2c0,0,0.3,0.6,0.6,1.3c0.3,0.7,0.5,1.2,0.6,1.2c0,0,0-0.2-0.1-0.3c-0.1-0.2-0.4-0.8-0.6-1.4
		C42,56.7,42,56.6,42,56.8 M57.1,58c-0.3,0.6-0.2,0.7,0,0.1c0.1-0.3,0.2-0.5,0.2-0.5C57.3,57.6,57.2,57.8,57.1,58 M56.8,58.8
		c-0.2,0.4-1.6,3.6-1.5,3.7c0,0,0.2-0.4,0.4-0.9c0.2-0.5,0.5-1.1,0.6-1.4c0.1-0.2,0.2-0.4,0.2-0.5c0,0,0.1-0.3,0.2-0.5
		C56.9,58.8,57,58.5,56.8,58.8 M43.4,60.2c0,0.1,0.4,1,0.4,0.9C43.9,60.9,43.5,60.1,43.4,60.2C43.4,60.1,43.4,60.2,43.4,60.2
		 M91.5,62.8c0,1.5,0,2,0,1.3c0-0.7,0-1.9,0-2.6C91.5,60.8,91.5,61.4,91.5,62.8 M129,60.7c0,0.2,0,0.2,0,0.2c0-0.1,0-0.2,0-0.3
		C129,60.4,129,60.5,129,60.7 M43.9,61.2c0,0,0.3,0.8,0.6,1.4c0.1,0.1,0.2,0.6,0.4,0.9c0.2,0.3,0.3,0.6,0.3,0.5
		c0-0.1-0.1-0.3-0.2-0.6c-0.1-0.3-0.4-0.8-0.5-1.3C44.1,61.5,43.9,61.1,43.9,61.2 M55,63.1c-0.1,0.2-0.2,0.5-0.1,0.5
		c0,0.1,0,0.1,0,0C54.9,63.5,55,63.3,55,63.1c0.2-0.2,0.2-0.4,0.2-0.4S55.1,62.8,55,63.1 M54.5,64.1c-0.1,0.2-0.2,0.4-0.2,0.5
		c0,0,0.1-0.1,0.2-0.4c0.1-0.2,0.2-0.5,0.2-0.5C54.7,63.7,54.6,63.9,54.5,64.1 M45.1,64.2c0,0.1,0.4,0.9,0.4,0.8
		c0-0.1,0-0.2-0.1-0.2c0,0-0.1-0.1-0.1-0.2c0-0.1-0.1-0.2-0.1-0.3C45.2,64.2,45.1,64.2,45.1,64.2 M54.1,65c-0.2,0.5-0.6,1.3-0.7,1.6
		c-0.1,0.1-0.1,0.3-0.2,0.4c-0.1,0.2-6.8,0.2-6.9,0c-0.2-0.5-0.7-1.7-0.8-1.7c0,0,0.1,0.4,0.4,1l0.4,1h3.4h3.4l0.1-0.3
		c0.2-0.4,0.4-1,0.7-1.6c0.1-0.3,0.2-0.5,0.2-0.5C54.3,64.7,54.2,64.8,54.1,65 M204.7,67.2c0.1,0,0.2,0,0.3,0c0.1,0,0,0-0.2,0
		C204.7,67.2,204.6,67.2,204.7,67.2 M29,76.4c0,0.1,86.5,0.1,86.7,0c0.1,0-17.8-0.1-43.3-0.1C48.5,76.3,29,76.3,29,76.4"/>
</g>
</svg>
