<svg xmlns="http://www.w3.org/2000/svg" viewBox="0 0 274.16 105"><defs><style>.cls-1{fill:none;}.cls-2{fill:#f8a91b;}.cls-3{fill:#1f376c;}</style></defs><title>vnpost</title><g id="Layer_1-2" data-name="Layer 1"><rect class="cls-1" width="274.16" height="105"/><path class="cls-2" d="M119.62,48.72H162.2l-3.72,4.42c-3.55,4.21-7.12,8.41-10.64,12.65a7.41,7.41,0,0,1-6.06,3q-15.61-.07-31.22,0a6.55,6.55,0,0,1-4-1.28C96.41,60.17,86.27,52.85,76,45.65A2.93,2.93,0,0,1,76,40.81C82.56,36.3,89,31.63,95.53,27a2.44,2.44,0,0,1,3.31,0c6.32,4.49,12.63,9,19,13.44A3.58,3.58,0,0,1,119.65,44C119.54,45.48,119.62,47,119.62,48.72Zm-19.54-6.24c-3.23,0-6.45,0-9.68,0-.42,0-1.07.32-1.17.63a1.46,1.46,0,0,0,.57,1.2q9.72,7,19.51,13.86a1.61,1.61,0,0,0,1.27.26c.25-.09.42-.73.42-1.12,0-4.51,0-9,0-13.52,0-1-.4-1.36-1.38-1.35C106.46,42.5,103.27,42.48,100.09,42.49Z"/><path class="cls-2" d="M146.28,17.4c1.65-1.95,3.1-3.72,4.63-5.45a4.09,4.09,0,0,1,3.22-1.36q18.53,0,37.05,0c.67,0,1.48-.07,1.63.73a2.37,2.37,0,0,1-.5,1.63c-1,1.31-2.1,2.53-3.13,3.81a1.81,1.81,0,0,1-1.59.72q-20.23,0-40.46,0C146.93,17.48,146.72,17.45,146.28,17.4Z"/><path class="cls-2" d="M185.87,20.66c-1.76,2.09-3.35,4-5,5.86a1.24,1.24,0,0,1-.84.34q-20.67,0-41.34,0l-.22-.06c.15-.22.26-.42.4-.59,1.38-1.66,2.73-3.34,4.16-4.94a2.23,2.23,0,0,1,1.48-.66q20.18-.05,40.35,0C185.15,20.58,185.39,20.62,185.87,20.66Z"/><path class="cls-2" d="M130.5,36.14c1.73-2.07,3.36-4,5-6a1,1,0,0,1,.69-.19h41.6a5.08,5.08,0,0,1-.39.68c-1.4,1.68-2.79,3.38-4.24,5a1.79,1.79,0,0,1-1.19.55q-20.29,0-40.57,0A9,9,0,0,1,130.5,36.14Z"/><path class="cls-2" d="M170,39.44c-1.73,2.05-3.33,4-5,5.87a1.28,1.28,0,0,1-.88.29q-20.61,0-41.21,0a2.23,2.23,0,0,1-.37-.1c1.27-1.52,2.59-2.92,3.7-4.47A4,4,0,0,1,130,39.31c13,.07,26.08,0,39.12,0C169.35,39.36,169.59,39.4,170,39.44Z"/><path class="cls-3" d="M174.52,78.52c1.32,0,2.63,0,4,0a1.53,1.53,0,0,1,1.63,1.68q.06,3.13,0,6.26a1.5,1.5,0,0,1-1.54,1.65q-4,.06-8,0a1.55,1.55,0,0,1-1.59-1.73c0-2,0-4.1,0-6.15a1.59,1.59,0,0,1,1.72-1.72c1.28,0,2.56,0,3.84,0Zm-3.36,7.71h6.75v-5.9h-6.75Z"/><path class="cls-3" d="M135.47,88.12h-1.71V78.59a1.87,1.87,0,0,1,2.41.88c1.06,1.61,2.25,3.12,3.47,4.8,1.19-1.66,2.35-3.16,3.37-4.75a1.89,1.89,0,0,1,2.45-.93v9.53h-1.88V82l-.27-.1c-.82,1.16-1.66,2.3-2.47,3.47-1.56,2.26-1.31,2-2.73,0-.83-1.16-1.64-2.32-2.65-3.76Z"/><path class="cls-3" d="M186.32,82.24c1.87,0,3.63,0,5.38,0,2,0,2.47.49,2.48,2.45,0,3.27-.21,3.51-3.45,3.51-1.5,0-3,0-4.51,0-1.81-.06-2.26-.64-2.1-2.61.63.13,1.49-.67,1.84.57,0,.08.26.14.39.14h5.84V84.13h-5.41c-1.92,0-2.37-.45-2.43-2.39,0-.18,0-.37,0-.55,0-2.25.47-2.71,2.7-2.71,1.61,0,3.23,0,4.84,0s2.11.5,2.09,2.3c-.68,0-1.45.56-2-.42,0-.09-.26-.13-.4-.13h-5.3Z"/><path class="cls-3" d="M114.11,85V78.56h1.82v9.51a1.91,1.91,0,0,1-2.1-.5c-2.09-1.94-4.23-3.83-6.5-5.88V88.1h-1.91V78.57a2,2,0,0,1,2.14.57C109.66,81.08,111.81,82.95,114.11,85Z"/><path class="cls-3" d="M83.8,83.92v2.32h7.07v1.87H81.64V78.56h9.12v1.58H83.81v2.14h4v1.64Z"/><path class="cls-3" d="M158.45,84.43v3.68h-2.07V78.47h2.16c1.83,0,3.66,0,5.49,0,1.63,0,2,.51,2.06,2.14,0,.59,0,1.17,0,1.76,0,1.5-.45,2-2,2s-2.93,0-4.39,0Zm.1-1.74c1.59,0,3.08,0,4.56,0,.75,0,1-.44,1-1.15s0-1.31-.89-1.33c-1.52,0-3,0-4.64,0Z"/><path class="cls-3" d="M118.67,88.08c1.67-3.14,3.26-6.18,4.89-9.19a1.74,1.74,0,0,1,2.51.09c1.63,3,3.23,6,4.84,9-1.61.6-2.28.4-2.9-1a1.34,1.34,0,0,0-1.48-.94c-1.28.07-2.56.05-3.84,0a1.16,1.16,0,0,0-1.26.78C120.71,88.33,120.69,88.32,118.67,88.08Zm6.06-7.65-2,3.78h3.82Z"/><path class="cls-3" d="M61.36,78.6c2.16-.38,2.19-.37,3.13,1.41l2.84,5.38,2.78-5.53c.78-1.55.78-1.56,2.69-1.27a5.39,5.39,0,0,1-.24.68c-1.4,2.73-2.79,5.47-4.24,8.18a1.43,1.43,0,0,1-1,.7,1.59,1.59,0,0,1-1.16-.67c-1.56-2.77-3.06-5.58-4.57-8.38A5,5,0,0,1,61.36,78.6Z"/><path class="cls-3" d="M202.58,88.15h-2.17V80.28h-4.12V78.57h10.38v1.67h-4.09Z"/><path class="cls-3" d="M96.76,80.27H92.62V78.56H103v1.69h-4v7.84H96.76Z"/><path class="cls-3" d="M75.65,88.09V78.53h2c0,.39.07.77.07,1.16,0,2.27,0,4.54,0,6.81C77.7,88.4,77.71,88.4,75.65,88.09Z"/></g></svg>