<?xml version="1.0" encoding="utf-8"?>
<!-- Generator: Adobe Illustrator 22.0.1, SVG Export Plug-In . SVG Version: 6.00 Build 0)  -->
<svg version="1.1" id="Layer_1" xmlns="http://www.w3.org/2000/svg" xmlns:xlink="http://www.w3.org/1999/xlink" x="0px" y="0px"
	 viewBox="0 0 22.3 22.3" style="enable-background:new 0 0 22.3 22.3;" xml:space="preserve">
<style type="text/css">
	.st0{opacity:0.5;}
	.st1{fill:#FFFFFF;}
</style>
<title>youtube</title>
<g id="Layer_2_1_">
	<g id="Badge">
		<g id="BACKGROUND_2">
			<g id="Layer_1-2">
				<g class="st0">
					<path class="st1" d="M11.1,22.3C5,22.3,0,17.3,0,11.1S5,0,11.2,0c6.2,0,11.1,5,11.1,11.1C22.3,17.3,17.3,22.3,11.1,22.3
						L11.1,22.3z M11.1,1.1C5.6,1.1,1.1,5.6,1.1,11.1s4.5,10.1,10.1,10.1s10.1-4.5,10.1-10.1l0,0C21.2,5.6,16.7,1.1,11.1,1.1z"/>
				</g>
				<path class="st1" d="M17.2,11.4c-0.2-0.6-0.7-1-1.4-1.1c-1.6-0.1-3.2-0.1-4.7-0.1s-3.2,0-4.7,0.1c-0.6,0-1.2,0.5-1.4,1.1
					c-0.2,0.8-0.3,1.7-0.2,2.6c0,0.9,0,1.7,0.2,2.6c0.2,0.6,0.7,1,1.4,1.1c1.6,0.1,3.2,0.1,4.7,0.1s3.2,0,4.7-0.1
					c0.6,0,1.2-0.5,1.4-1.1c0.2-0.8,0.3-1.7,0.2-2.6C17.5,13.1,17.4,12.2,17.2,11.4z M8.4,12.1H7.5v4.2H6.7v-4.2H5.8v-0.7h2.7V12.1z
					 M10.7,16.3H10v-0.4c-0.2,0.3-0.5,0.4-0.9,0.4c-0.2,0-0.4-0.1-0.5-0.3c0-0.2-0.1-0.4-0.1-0.5v-2.8h0.8v2.6c0,0.1,0,0.2,0,0.3
					c0,0.1,0.1,0.2,0.2,0.2c0,0,0,0,0,0c0.2,0,0.4-0.1,0.5-0.3v-2.7h0.8V16.3z M13.6,15.2c0,0.2,0,0.5-0.1,0.7
					c-0.1,0.3-0.3,0.4-0.6,0.4c-0.3,0-0.6-0.2-0.8-0.4v0.4h-0.8v-4.8h0.8V13c0.2-0.2,0.5-0.4,0.8-0.4c0.3,0,0.5,0.2,0.6,0.4
					c0.1,0.2,0.1,0.5,0.1,0.7V15.2z M16.5,14.6H15v0.6c0,0.3,0.1,0.5,0.4,0.5c0.2,0,0.3-0.1,0.3-0.3c0-0.1,0-0.3,0-0.4h0.8v0.1
					c0,0.2,0,0.4,0,0.4c0,0.1-0.1,0.3-0.2,0.4c-0.2,0.3-0.6,0.4-0.9,0.4c-0.3,0-0.7-0.1-0.9-0.4c-0.2-0.2-0.3-0.5-0.2-0.9v-1.3
					c0-0.3,0.1-0.6,0.2-0.9c0.2-0.3,0.6-0.4,0.9-0.4c0.3,0,0.7,0.1,0.9,0.4c0.2,0.2,0.3,0.5,0.2,0.9L16.5,14.6z M11,9.6
					c0.3,0,0.7-0.1,0.9-0.4c0.2-0.2,0.3-0.6,0.2-0.9V7.1c0-0.3-0.1-0.6-0.2-0.9c-0.2-0.3-0.6-0.4-0.9-0.4c-0.3,0-0.7,0.1-0.9,0.4
					C9.9,6.4,9.8,6.7,9.9,7.1v1.3c0,0.3,0.1,0.6,0.2,0.9C10.3,9.4,10.7,9.6,11,9.6z M10.6,6.9c0-0.3,0.1-0.5,0.4-0.5
					s0.4,0.2,0.4,0.5v1.5c0,0.3-0.1,0.5-0.4,0.5s-0.4-0.2-0.4-0.5V6.9z M12.6,13.2c-0.1,0-0.3,0.1-0.4,0.2v2.2
					c0.1,0.1,0.2,0.2,0.4,0.2c0.2,0,0.3-0.2,0.3-0.5v-1.6C12.9,13.4,12.8,13.2,12.6,13.2L12.6,13.2z M13.3,9.6
					c0.3,0,0.7-0.2,0.9-0.4v0.4H15V5.9h-0.8v2.8c-0.1,0.2-0.3,0.3-0.5,0.3c-0.1,0-0.2-0.1-0.2-0.1c0-0.1,0-0.2,0-0.3V5.9h-0.8v2.9
					c0,0.2,0,0.4,0.1,0.5C13,9.5,13.1,9.6,13.3,9.6L13.3,9.6z M8,7.5v2h0.8v-2l1-2.9H9L8.4,6.5L7.8,4.6H6.9L7.4,6
					C7.7,6.5,7.8,7,8,7.5z M15.4,13.2c-0.3,0-0.4,0.2-0.4,0.5V14h0.8v-0.3C15.8,13.4,15.6,13.2,15.4,13.2L15.4,13.2z"/>
			</g>
		</g>
	</g>
</g>
</svg>
